G75*
G70*
%OFA0B0*%
%FSLAX24Y24*%
%IPPOS*%
%LPD*%
%AMOC8*
5,1,8,0,0,1.08239X$1,22.5*
%
%ADD10C,0.0100*%
%ADD11C,0.0000*%
%ADD12C,0.0080*%
%ADD13C,0.0110*%
%ADD14C,0.0050*%
%ADD15C,0.0142*%
%ADD16C,0.0512*%
%ADD17C,0.0354*%
%ADD18C,0.0400*%
D10*
X013733Y000894D02*
X013733Y008500D01*
X013840Y008500D01*
X013879Y008502D01*
X013917Y008508D01*
X013954Y008517D01*
X013991Y008530D01*
X014026Y008547D01*
X014059Y008566D01*
X014090Y008589D01*
X014119Y008615D01*
X014145Y008644D01*
X014168Y008675D01*
X014187Y008708D01*
X014204Y008743D01*
X014217Y008780D01*
X014226Y008817D01*
X014232Y008855D01*
X014234Y008894D01*
X014233Y008894D02*
X014233Y009056D01*
X014234Y009056D02*
X014232Y009095D01*
X014226Y009133D01*
X014217Y009170D01*
X014204Y009207D01*
X014187Y009242D01*
X014168Y009275D01*
X014145Y009306D01*
X014119Y009335D01*
X014090Y009361D01*
X014059Y009384D01*
X014026Y009403D01*
X013991Y009420D01*
X013954Y009433D01*
X013917Y009442D01*
X013879Y009448D01*
X013840Y009450D01*
X013733Y009450D01*
X013733Y017056D01*
X013735Y017095D01*
X013741Y017133D01*
X013750Y017170D01*
X013763Y017207D01*
X013780Y017242D01*
X013799Y017275D01*
X013822Y017306D01*
X013848Y017335D01*
X013877Y017361D01*
X013908Y017384D01*
X013941Y017403D01*
X013976Y017420D01*
X014013Y017433D01*
X014050Y017442D01*
X014088Y017448D01*
X014127Y017450D01*
X040340Y017450D01*
X040379Y017448D01*
X040417Y017442D01*
X040454Y017433D01*
X040491Y017420D01*
X040526Y017403D01*
X040559Y017384D01*
X040590Y017361D01*
X040619Y017335D01*
X040645Y017306D01*
X040668Y017275D01*
X040687Y017242D01*
X040704Y017207D01*
X040717Y017170D01*
X040726Y017133D01*
X040732Y017095D01*
X040734Y017056D01*
X040733Y017056D02*
X040733Y009450D01*
X040677Y009450D01*
X040638Y009448D01*
X040600Y009442D01*
X040563Y009433D01*
X040526Y009420D01*
X040491Y009403D01*
X040458Y009384D01*
X040427Y009361D01*
X040398Y009335D01*
X040372Y009306D01*
X040349Y009275D01*
X040330Y009242D01*
X040313Y009207D01*
X040300Y009170D01*
X040291Y009133D01*
X040285Y009095D01*
X040283Y009056D01*
X040283Y008850D01*
X040285Y008813D01*
X040291Y008777D01*
X040300Y008742D01*
X040313Y008708D01*
X040330Y008675D01*
X040350Y008644D01*
X040373Y008616D01*
X040399Y008590D01*
X040427Y008567D01*
X040458Y008547D01*
X040491Y008530D01*
X040525Y008517D01*
X040560Y008508D01*
X040596Y008502D01*
X040633Y008500D01*
X040733Y008500D01*
X040733Y000894D01*
X040734Y000894D02*
X040732Y000855D01*
X040726Y000817D01*
X040717Y000780D01*
X040704Y000743D01*
X040687Y000708D01*
X040668Y000675D01*
X040645Y000644D01*
X040619Y000615D01*
X040590Y000589D01*
X040559Y000566D01*
X040526Y000547D01*
X040491Y000530D01*
X040454Y000517D01*
X040417Y000508D01*
X040379Y000502D01*
X040340Y000500D01*
X014127Y000500D01*
X014088Y000502D01*
X014050Y000508D01*
X014013Y000517D01*
X013976Y000530D01*
X013941Y000547D01*
X013908Y000566D01*
X013877Y000589D01*
X013848Y000615D01*
X013822Y000644D01*
X013799Y000675D01*
X013780Y000708D01*
X013763Y000743D01*
X013750Y000780D01*
X013741Y000817D01*
X013735Y000855D01*
X013733Y000894D01*
X020233Y001500D02*
X020233Y003000D01*
X020033Y003200D01*
X020033Y005900D01*
X020233Y006100D01*
X020733Y006100D01*
X020233Y006100D02*
X020233Y007500D01*
X022233Y007500D02*
X022233Y005900D01*
X021733Y005400D01*
X021733Y004000D01*
X024733Y004000D02*
X024733Y005400D01*
X024233Y005900D01*
X024233Y007500D01*
X025233Y007500D02*
X025233Y001500D01*
X026733Y004000D02*
X026733Y005400D01*
X026233Y005900D01*
X026233Y007500D01*
X027233Y007500D02*
X027233Y005900D01*
X028733Y004400D01*
X028733Y004000D01*
X029733Y004000D02*
X028233Y005500D01*
X028233Y007500D01*
X031233Y007500D02*
X031233Y005700D01*
X031833Y005100D01*
X031833Y003600D01*
X031233Y003000D01*
X031233Y001500D01*
X032233Y001500D02*
X032233Y007500D01*
X033233Y007500D02*
X033233Y006000D01*
X033733Y005500D01*
X032733Y003500D02*
X034733Y003500D01*
X035233Y003000D01*
X035233Y001500D01*
X034233Y001500D02*
X034233Y003000D01*
X033233Y003000D02*
X033233Y001500D01*
X039040Y008500D02*
X015627Y008500D01*
X015588Y008502D01*
X015550Y008508D01*
X015513Y008517D01*
X015476Y008530D01*
X015441Y008547D01*
X015408Y008566D01*
X015377Y008589D01*
X015348Y008615D01*
X015322Y008644D01*
X015299Y008675D01*
X015280Y008708D01*
X015263Y008743D01*
X015250Y008780D01*
X015241Y008817D01*
X015235Y008855D01*
X015233Y008894D01*
X015233Y009056D01*
X015235Y009095D01*
X015241Y009133D01*
X015250Y009170D01*
X015263Y009207D01*
X015280Y009242D01*
X015299Y009275D01*
X015322Y009306D01*
X015348Y009335D01*
X015377Y009361D01*
X015408Y009384D01*
X015441Y009403D01*
X015476Y009420D01*
X015513Y009433D01*
X015550Y009442D01*
X015588Y009448D01*
X015627Y009450D01*
X039040Y009450D01*
X039079Y009448D01*
X039117Y009442D01*
X039154Y009433D01*
X039191Y009420D01*
X039226Y009403D01*
X039259Y009384D01*
X039290Y009361D01*
X039319Y009335D01*
X039345Y009306D01*
X039368Y009275D01*
X039387Y009242D01*
X039404Y009207D01*
X039417Y009170D01*
X039426Y009133D01*
X039432Y009095D01*
X039434Y009056D01*
X039433Y009056D02*
X039433Y008894D01*
X039434Y008894D02*
X039432Y008855D01*
X039426Y008817D01*
X039417Y008780D01*
X039404Y008743D01*
X039387Y008708D01*
X039368Y008675D01*
X039345Y008644D01*
X039319Y008615D01*
X039290Y008589D01*
X039259Y008566D01*
X039226Y008547D01*
X039191Y008530D01*
X039154Y008517D01*
X039117Y008508D01*
X039079Y008502D01*
X039040Y008500D01*
X038233Y010450D02*
X038233Y014450D01*
X037833Y014850D01*
X037933Y014250D02*
X037033Y015150D01*
X033433Y015150D01*
X033333Y015250D01*
X032933Y015250D01*
X032833Y015150D01*
X028375Y015150D01*
X028233Y015291D01*
X028233Y016450D01*
X024483Y014950D02*
X032421Y014950D01*
X032933Y014438D01*
X032933Y012550D01*
X033733Y011750D01*
X034233Y011756D02*
X033133Y012856D01*
X033133Y014900D01*
X033433Y014550D02*
X033633Y014750D01*
X033433Y014550D02*
X033433Y013250D01*
X033833Y012850D01*
X034133Y012850D01*
X035233Y011750D01*
X035733Y011750D02*
X034433Y013050D01*
X033833Y013450D02*
X033833Y013906D01*
X034877Y014950D01*
X036233Y014950D01*
X037333Y013850D01*
X037333Y012700D01*
X036733Y012100D01*
X036733Y011750D01*
X036233Y012050D02*
X037033Y012850D01*
X037033Y013850D01*
X036133Y014750D01*
X035061Y014750D01*
X034333Y014022D01*
X034333Y013750D01*
X032533Y013450D02*
X032333Y013650D01*
X031933Y013650D01*
X031233Y014350D01*
X021483Y014350D01*
X021233Y014600D01*
X021233Y016450D01*
X022233Y016450D02*
X022233Y014800D01*
X022483Y014550D01*
X031533Y014550D01*
X031983Y014100D01*
X032433Y013950D02*
X032433Y014550D01*
X032233Y014750D01*
X023483Y014750D01*
X023233Y015000D01*
X023233Y016450D01*
X024233Y016450D02*
X024233Y015200D01*
X024483Y014950D01*
X026733Y013050D02*
X027433Y013750D01*
X030133Y013750D01*
X030533Y013350D01*
X030533Y011950D01*
X030233Y011650D01*
X030233Y010450D01*
X029233Y010450D02*
X029233Y012050D01*
X029733Y012550D01*
X029733Y013050D01*
X029917Y013550D02*
X030233Y013234D01*
X030233Y012650D01*
X030133Y012550D01*
X030133Y012100D01*
X030833Y011900D02*
X030933Y012000D01*
X030933Y012350D01*
X030833Y012450D01*
X030833Y013600D01*
X031033Y013350D02*
X031033Y012750D01*
X031233Y012550D01*
X031233Y011750D01*
X030833Y011900D02*
X030833Y011574D01*
X031057Y011350D01*
X031233Y011350D01*
X031233Y010450D01*
X033233Y010450D02*
X033233Y011150D01*
X032133Y012250D01*
X032133Y012950D01*
X031883Y013200D01*
X031383Y013200D01*
X031233Y013550D02*
X031033Y013350D01*
X031233Y013550D02*
X031233Y013750D01*
X031033Y013950D01*
X019483Y013950D01*
X019233Y014200D01*
X019233Y016450D01*
X020233Y016450D02*
X020233Y014400D01*
X020483Y014150D01*
X031133Y014150D01*
X031833Y013450D01*
X031952Y013450D01*
X032533Y012869D01*
X032533Y012391D01*
X033133Y011791D01*
X033133Y011750D01*
X034233Y011756D02*
X034233Y010450D01*
X035233Y010450D02*
X035233Y011150D01*
X034733Y011650D01*
X034733Y011750D01*
X034033Y012450D01*
X036233Y012050D02*
X036233Y010450D01*
X037233Y010450D02*
X037233Y012150D01*
X037633Y012550D01*
X037633Y014050D01*
X037233Y014450D01*
X037933Y014250D02*
X037933Y012350D01*
X037633Y012050D01*
X031733Y011750D02*
X031733Y012850D01*
X029917Y013550D02*
X029457Y013550D01*
X029233Y013326D01*
X029233Y012811D01*
X028873Y012450D01*
X028733Y012450D01*
X028233Y011950D01*
X027933Y012250D02*
X028733Y013050D01*
X027933Y012250D02*
X025883Y012250D01*
X025233Y011600D01*
X025233Y010450D01*
X025133Y012050D02*
X025733Y012650D01*
X025733Y013050D01*
X019713Y012463D02*
X019418Y012463D01*
X019565Y012463D02*
X019565Y013348D01*
X019418Y013348D01*
X019088Y013348D02*
X019088Y013496D01*
X019088Y013053D02*
X019088Y012316D01*
X018940Y012168D01*
X018793Y012168D01*
X018610Y012463D02*
X018168Y012463D01*
X018315Y012758D02*
X018168Y012906D01*
X018315Y013053D01*
X018758Y013053D01*
X018610Y012758D02*
X018315Y012758D01*
X018610Y012758D02*
X018758Y012611D01*
X018610Y012463D01*
D11*
X016103Y013950D02*
X016105Y014000D01*
X016111Y014050D01*
X016121Y014099D01*
X016135Y014147D01*
X016152Y014194D01*
X016173Y014239D01*
X016198Y014283D01*
X016226Y014324D01*
X016258Y014363D01*
X016292Y014400D01*
X016329Y014434D01*
X016369Y014464D01*
X016411Y014491D01*
X016455Y014515D01*
X016501Y014536D01*
X016548Y014552D01*
X016596Y014565D01*
X016646Y014574D01*
X016695Y014579D01*
X016746Y014580D01*
X016796Y014577D01*
X016845Y014570D01*
X016894Y014559D01*
X016942Y014544D01*
X016988Y014526D01*
X017033Y014504D01*
X017076Y014478D01*
X017117Y014449D01*
X017156Y014417D01*
X017192Y014382D01*
X017224Y014344D01*
X017254Y014304D01*
X017281Y014261D01*
X017304Y014217D01*
X017323Y014171D01*
X017339Y014123D01*
X017351Y014074D01*
X017359Y014025D01*
X017363Y013975D01*
X017363Y013925D01*
X017359Y013875D01*
X017351Y013826D01*
X017339Y013777D01*
X017323Y013729D01*
X017304Y013683D01*
X017281Y013639D01*
X017254Y013596D01*
X017224Y013556D01*
X017192Y013518D01*
X017156Y013483D01*
X017117Y013451D01*
X017076Y013422D01*
X017033Y013396D01*
X016988Y013374D01*
X016942Y013356D01*
X016894Y013341D01*
X016845Y013330D01*
X016796Y013323D01*
X016746Y013320D01*
X016695Y013321D01*
X016646Y013326D01*
X016596Y013335D01*
X016548Y013348D01*
X016501Y013364D01*
X016455Y013385D01*
X016411Y013409D01*
X016369Y013436D01*
X016329Y013466D01*
X016292Y013500D01*
X016258Y013537D01*
X016226Y013576D01*
X016198Y013617D01*
X016173Y013661D01*
X016152Y013706D01*
X016135Y013753D01*
X016121Y013801D01*
X016111Y013850D01*
X016105Y013900D01*
X016103Y013950D01*
X016103Y005000D02*
X016105Y005050D01*
X016111Y005100D01*
X016121Y005149D01*
X016135Y005197D01*
X016152Y005244D01*
X016173Y005289D01*
X016198Y005333D01*
X016226Y005374D01*
X016258Y005413D01*
X016292Y005450D01*
X016329Y005484D01*
X016369Y005514D01*
X016411Y005541D01*
X016455Y005565D01*
X016501Y005586D01*
X016548Y005602D01*
X016596Y005615D01*
X016646Y005624D01*
X016695Y005629D01*
X016746Y005630D01*
X016796Y005627D01*
X016845Y005620D01*
X016894Y005609D01*
X016942Y005594D01*
X016988Y005576D01*
X017033Y005554D01*
X017076Y005528D01*
X017117Y005499D01*
X017156Y005467D01*
X017192Y005432D01*
X017224Y005394D01*
X017254Y005354D01*
X017281Y005311D01*
X017304Y005267D01*
X017323Y005221D01*
X017339Y005173D01*
X017351Y005124D01*
X017359Y005075D01*
X017363Y005025D01*
X017363Y004975D01*
X017359Y004925D01*
X017351Y004876D01*
X017339Y004827D01*
X017323Y004779D01*
X017304Y004733D01*
X017281Y004689D01*
X017254Y004646D01*
X017224Y004606D01*
X017192Y004568D01*
X017156Y004533D01*
X017117Y004501D01*
X017076Y004472D01*
X017033Y004446D01*
X016988Y004424D01*
X016942Y004406D01*
X016894Y004391D01*
X016845Y004380D01*
X016796Y004373D01*
X016746Y004370D01*
X016695Y004371D01*
X016646Y004376D01*
X016596Y004385D01*
X016548Y004398D01*
X016501Y004414D01*
X016455Y004435D01*
X016411Y004459D01*
X016369Y004486D01*
X016329Y004516D01*
X016292Y004550D01*
X016258Y004587D01*
X016226Y004626D01*
X016198Y004667D01*
X016173Y004711D01*
X016152Y004756D01*
X016135Y004803D01*
X016121Y004851D01*
X016111Y004900D01*
X016105Y004950D01*
X016103Y005000D01*
X035103Y004500D02*
X035105Y004550D01*
X035111Y004600D01*
X035121Y004649D01*
X035135Y004697D01*
X035152Y004744D01*
X035173Y004789D01*
X035198Y004833D01*
X035226Y004874D01*
X035258Y004913D01*
X035292Y004950D01*
X035329Y004984D01*
X035369Y005014D01*
X035411Y005041D01*
X035455Y005065D01*
X035501Y005086D01*
X035548Y005102D01*
X035596Y005115D01*
X035646Y005124D01*
X035695Y005129D01*
X035746Y005130D01*
X035796Y005127D01*
X035845Y005120D01*
X035894Y005109D01*
X035942Y005094D01*
X035988Y005076D01*
X036033Y005054D01*
X036076Y005028D01*
X036117Y004999D01*
X036156Y004967D01*
X036192Y004932D01*
X036224Y004894D01*
X036254Y004854D01*
X036281Y004811D01*
X036304Y004767D01*
X036323Y004721D01*
X036339Y004673D01*
X036351Y004624D01*
X036359Y004575D01*
X036363Y004525D01*
X036363Y004475D01*
X036359Y004425D01*
X036351Y004376D01*
X036339Y004327D01*
X036323Y004279D01*
X036304Y004233D01*
X036281Y004189D01*
X036254Y004146D01*
X036224Y004106D01*
X036192Y004068D01*
X036156Y004033D01*
X036117Y004001D01*
X036076Y003972D01*
X036033Y003946D01*
X035988Y003924D01*
X035942Y003906D01*
X035894Y003891D01*
X035845Y003880D01*
X035796Y003873D01*
X035746Y003870D01*
X035695Y003871D01*
X035646Y003876D01*
X035596Y003885D01*
X035548Y003898D01*
X035501Y003914D01*
X035455Y003935D01*
X035411Y003959D01*
X035369Y003986D01*
X035329Y004016D01*
X035292Y004050D01*
X035258Y004087D01*
X035226Y004126D01*
X035198Y004167D01*
X035173Y004211D01*
X035152Y004256D01*
X035135Y004303D01*
X035121Y004351D01*
X035111Y004400D01*
X035105Y004450D01*
X035103Y004500D01*
X035103Y013450D02*
X035105Y013500D01*
X035111Y013550D01*
X035121Y013599D01*
X035135Y013647D01*
X035152Y013694D01*
X035173Y013739D01*
X035198Y013783D01*
X035226Y013824D01*
X035258Y013863D01*
X035292Y013900D01*
X035329Y013934D01*
X035369Y013964D01*
X035411Y013991D01*
X035455Y014015D01*
X035501Y014036D01*
X035548Y014052D01*
X035596Y014065D01*
X035646Y014074D01*
X035695Y014079D01*
X035746Y014080D01*
X035796Y014077D01*
X035845Y014070D01*
X035894Y014059D01*
X035942Y014044D01*
X035988Y014026D01*
X036033Y014004D01*
X036076Y013978D01*
X036117Y013949D01*
X036156Y013917D01*
X036192Y013882D01*
X036224Y013844D01*
X036254Y013804D01*
X036281Y013761D01*
X036304Y013717D01*
X036323Y013671D01*
X036339Y013623D01*
X036351Y013574D01*
X036359Y013525D01*
X036363Y013475D01*
X036363Y013425D01*
X036359Y013375D01*
X036351Y013326D01*
X036339Y013277D01*
X036323Y013229D01*
X036304Y013183D01*
X036281Y013139D01*
X036254Y013096D01*
X036224Y013056D01*
X036192Y013018D01*
X036156Y012983D01*
X036117Y012951D01*
X036076Y012922D01*
X036033Y012896D01*
X035988Y012874D01*
X035942Y012856D01*
X035894Y012841D01*
X035845Y012830D01*
X035796Y012823D01*
X035746Y012820D01*
X035695Y012821D01*
X035646Y012826D01*
X035596Y012835D01*
X035548Y012848D01*
X035501Y012864D01*
X035455Y012885D01*
X035411Y012909D01*
X035369Y012936D01*
X035329Y012966D01*
X035292Y013000D01*
X035258Y013037D01*
X035226Y013076D01*
X035198Y013117D01*
X035173Y013161D01*
X035152Y013206D01*
X035135Y013253D01*
X035121Y013301D01*
X035111Y013350D01*
X035105Y013400D01*
X035103Y013450D01*
D12*
X038873Y010831D02*
X038943Y010691D01*
X039083Y010550D01*
X039083Y010761D01*
X039153Y010831D01*
X039223Y010831D01*
X039293Y010761D01*
X039293Y010620D01*
X039223Y010550D01*
X039083Y010550D01*
X039083Y010370D02*
X039083Y010090D01*
X038873Y010300D01*
X039293Y010300D01*
X039223Y007781D02*
X039153Y007781D01*
X039083Y007711D01*
X039083Y007500D01*
X039223Y007500D01*
X039293Y007570D01*
X039293Y007711D01*
X039223Y007781D01*
X038943Y007641D02*
X039083Y007500D01*
X039083Y007320D02*
X039083Y007040D01*
X038873Y007250D01*
X039293Y007250D01*
X038943Y007641D02*
X038873Y007781D01*
X027538Y003360D02*
X027538Y002940D01*
X027398Y002940D02*
X027678Y002940D01*
X027218Y003010D02*
X027218Y003080D01*
X027148Y003150D01*
X026938Y003150D01*
X026938Y003010D01*
X027008Y002940D01*
X027148Y002940D01*
X027218Y003010D01*
X027398Y003220D02*
X027538Y003360D01*
X027218Y003360D02*
X027078Y003290D01*
X026938Y003150D01*
X026757Y003220D02*
X026477Y002940D01*
X026757Y002940D01*
X026297Y003010D02*
X026227Y002940D01*
X026087Y002940D01*
X026017Y003010D01*
X026157Y003150D02*
X026227Y003150D01*
X026297Y003080D01*
X026297Y003010D01*
X026227Y003150D02*
X026297Y003220D01*
X026297Y003290D01*
X026227Y003360D01*
X026087Y003360D01*
X026017Y003290D01*
X026477Y003290D02*
X026547Y003360D01*
X026687Y003360D01*
X026757Y003290D01*
X026757Y003220D01*
X024456Y003290D02*
X024456Y003010D01*
X024385Y002940D01*
X024245Y002940D01*
X024175Y003010D01*
X024456Y003290D01*
X024385Y003360D01*
X024245Y003360D01*
X024175Y003290D01*
X024175Y003010D01*
X023995Y002940D02*
X023855Y003080D01*
X023925Y003080D02*
X023715Y003080D01*
X023715Y002940D02*
X023715Y003360D01*
X023925Y003360D01*
X023995Y003290D01*
X023995Y003150D01*
X023925Y003080D01*
X023535Y002870D02*
X023255Y002870D01*
X023074Y002940D02*
X022934Y003080D01*
X023004Y003080D02*
X022794Y003080D01*
X022794Y002940D02*
X022794Y003360D01*
X023004Y003360D01*
X023074Y003290D01*
X023074Y003150D01*
X023004Y003080D01*
X022614Y003080D02*
X022614Y003010D01*
X022544Y002940D01*
X022334Y002940D01*
X022334Y003360D01*
X022544Y003360D01*
X022614Y003290D01*
X022614Y003220D01*
X022544Y003150D01*
X022334Y003150D01*
X022154Y003080D02*
X022154Y003010D01*
X022084Y002940D01*
X021873Y002940D01*
X021873Y003360D01*
X022084Y003360D01*
X022154Y003290D01*
X022154Y003220D01*
X022084Y003150D01*
X021873Y003150D01*
X022084Y003150D02*
X022154Y003080D01*
X022544Y003150D02*
X022614Y003080D01*
X015593Y001720D02*
X015593Y001440D01*
X015313Y001720D01*
X015243Y001720D01*
X015173Y001650D01*
X015173Y001510D01*
X015243Y001440D01*
X015243Y007340D02*
X015173Y007410D01*
X015173Y007550D01*
X015243Y007620D01*
X015313Y007620D01*
X015593Y007340D01*
X015593Y007620D01*
X015593Y010290D02*
X015313Y010570D01*
X015243Y010570D01*
X015173Y010500D01*
X015173Y010360D01*
X015243Y010290D01*
X015593Y010290D02*
X015593Y010570D01*
X015593Y016290D02*
X015313Y016570D01*
X015243Y016570D01*
X015173Y016500D01*
X015173Y016360D01*
X015243Y016290D01*
X015593Y016290D02*
X015593Y016570D01*
X038873Y016831D02*
X038943Y016691D01*
X039083Y016550D01*
X039083Y016761D01*
X039153Y016831D01*
X039223Y016831D01*
X039293Y016761D01*
X039293Y016620D01*
X039223Y016550D01*
X039083Y016550D01*
X039083Y016370D02*
X039083Y016090D01*
X038873Y016300D01*
X039293Y016300D01*
X039223Y001981D02*
X039153Y001981D01*
X039083Y001911D01*
X039083Y001700D01*
X039223Y001700D01*
X039293Y001770D01*
X039293Y001911D01*
X039223Y001981D01*
X038943Y001841D02*
X038873Y001981D01*
X038943Y001841D02*
X039083Y001700D01*
X039083Y001520D02*
X039083Y001240D01*
X038873Y001450D01*
X039293Y001450D01*
D13*
X039328Y003955D02*
X038738Y003955D01*
X038738Y004250D01*
X038836Y004349D01*
X039033Y004349D01*
X039131Y004250D01*
X039131Y003955D01*
X039230Y004600D02*
X039328Y004698D01*
X039328Y004895D01*
X039230Y004993D01*
X038836Y004993D01*
X038738Y004895D01*
X038738Y004698D01*
X038836Y004600D01*
X038935Y004600D01*
X039033Y004698D01*
X039033Y004993D01*
X039081Y012905D02*
X039081Y013200D01*
X038983Y013299D01*
X038786Y013299D01*
X038688Y013200D01*
X038688Y012905D01*
X039278Y012905D01*
X039180Y013550D02*
X039081Y013550D01*
X038983Y013648D01*
X038983Y013845D01*
X039081Y013943D01*
X039180Y013943D01*
X039278Y013845D01*
X039278Y013648D01*
X039180Y013550D01*
X038983Y013648D02*
X038885Y013550D01*
X038786Y013550D01*
X038688Y013648D01*
X038688Y013845D01*
X038786Y013943D01*
X038885Y013943D01*
X038983Y013845D01*
D14*
X038458Y015467D02*
X038008Y015467D01*
X038008Y017433D01*
X038458Y017433D01*
X038458Y015467D01*
X038458Y015516D02*
X038008Y015516D01*
X038008Y015565D02*
X038458Y015565D01*
X038458Y015614D02*
X038008Y015614D01*
X038008Y015663D02*
X038458Y015663D01*
X038458Y015712D02*
X038008Y015712D01*
X038008Y015761D02*
X038458Y015761D01*
X038458Y015810D02*
X038008Y015810D01*
X038008Y015859D02*
X038458Y015859D01*
X038458Y015908D02*
X038008Y015908D01*
X038008Y015957D02*
X038458Y015957D01*
X038458Y016006D02*
X038008Y016006D01*
X038008Y016055D02*
X038458Y016055D01*
X038458Y016104D02*
X038008Y016104D01*
X038008Y016153D02*
X038458Y016153D01*
X038458Y016202D02*
X038008Y016202D01*
X038008Y016251D02*
X038458Y016251D01*
X038458Y016300D02*
X038008Y016300D01*
X038008Y016349D02*
X038458Y016349D01*
X038458Y016398D02*
X038008Y016398D01*
X038008Y016447D02*
X038458Y016447D01*
X038458Y016496D02*
X038008Y016496D01*
X038008Y016545D02*
X038458Y016545D01*
X038458Y016594D02*
X038008Y016594D01*
X038008Y016643D02*
X038458Y016643D01*
X038458Y016692D02*
X038008Y016692D01*
X038008Y016741D02*
X038458Y016741D01*
X038458Y016790D02*
X038008Y016790D01*
X038008Y016839D02*
X038458Y016839D01*
X038458Y016888D02*
X038008Y016888D01*
X038008Y016937D02*
X038458Y016937D01*
X038458Y016986D02*
X038008Y016986D01*
X038008Y017035D02*
X038458Y017035D01*
X038458Y017084D02*
X038008Y017084D01*
X038008Y017133D02*
X038458Y017133D01*
X038458Y017182D02*
X038008Y017182D01*
X038008Y017231D02*
X038458Y017231D01*
X038458Y017280D02*
X038008Y017280D01*
X038008Y017329D02*
X038458Y017329D01*
X038458Y017378D02*
X038008Y017378D01*
X038008Y017427D02*
X038458Y017427D01*
X037458Y015467D02*
X037008Y015467D01*
X037008Y017433D01*
X037458Y017433D01*
X037458Y015467D01*
X037458Y015516D02*
X037008Y015516D01*
X037008Y015565D02*
X037458Y015565D01*
X037458Y015614D02*
X037008Y015614D01*
X037008Y015663D02*
X037458Y015663D01*
X037458Y015712D02*
X037008Y015712D01*
X037008Y015761D02*
X037458Y015761D01*
X037458Y015810D02*
X037008Y015810D01*
X037008Y015859D02*
X037458Y015859D01*
X037458Y015908D02*
X037008Y015908D01*
X037008Y015957D02*
X037458Y015957D01*
X037458Y016006D02*
X037008Y016006D01*
X037008Y016055D02*
X037458Y016055D01*
X037458Y016104D02*
X037008Y016104D01*
X037008Y016153D02*
X037458Y016153D01*
X037458Y016202D02*
X037008Y016202D01*
X037008Y016251D02*
X037458Y016251D01*
X037458Y016300D02*
X037008Y016300D01*
X037008Y016349D02*
X037458Y016349D01*
X037458Y016398D02*
X037008Y016398D01*
X037008Y016447D02*
X037458Y016447D01*
X037458Y016496D02*
X037008Y016496D01*
X037008Y016545D02*
X037458Y016545D01*
X037458Y016594D02*
X037008Y016594D01*
X037008Y016643D02*
X037458Y016643D01*
X037458Y016692D02*
X037008Y016692D01*
X037008Y016741D02*
X037458Y016741D01*
X037458Y016790D02*
X037008Y016790D01*
X037008Y016839D02*
X037458Y016839D01*
X037458Y016888D02*
X037008Y016888D01*
X037008Y016937D02*
X037458Y016937D01*
X037458Y016986D02*
X037008Y016986D01*
X037008Y017035D02*
X037458Y017035D01*
X037458Y017084D02*
X037008Y017084D01*
X037008Y017133D02*
X037458Y017133D01*
X037458Y017182D02*
X037008Y017182D01*
X037008Y017231D02*
X037458Y017231D01*
X037458Y017280D02*
X037008Y017280D01*
X037008Y017329D02*
X037458Y017329D01*
X037458Y017378D02*
X037008Y017378D01*
X037008Y017427D02*
X037458Y017427D01*
X036458Y015467D02*
X036008Y015467D01*
X036008Y017433D01*
X036458Y017433D01*
X036458Y015467D01*
X036458Y015516D02*
X036008Y015516D01*
X036008Y015565D02*
X036458Y015565D01*
X036458Y015614D02*
X036008Y015614D01*
X036008Y015663D02*
X036458Y015663D01*
X036458Y015712D02*
X036008Y015712D01*
X036008Y015761D02*
X036458Y015761D01*
X036458Y015810D02*
X036008Y015810D01*
X036008Y015859D02*
X036458Y015859D01*
X036458Y015908D02*
X036008Y015908D01*
X036008Y015957D02*
X036458Y015957D01*
X036458Y016006D02*
X036008Y016006D01*
X036008Y016055D02*
X036458Y016055D01*
X036458Y016104D02*
X036008Y016104D01*
X036008Y016153D02*
X036458Y016153D01*
X036458Y016202D02*
X036008Y016202D01*
X036008Y016251D02*
X036458Y016251D01*
X036458Y016300D02*
X036008Y016300D01*
X036008Y016349D02*
X036458Y016349D01*
X036458Y016398D02*
X036008Y016398D01*
X036008Y016447D02*
X036458Y016447D01*
X036458Y016496D02*
X036008Y016496D01*
X036008Y016545D02*
X036458Y016545D01*
X036458Y016594D02*
X036008Y016594D01*
X036008Y016643D02*
X036458Y016643D01*
X036458Y016692D02*
X036008Y016692D01*
X036008Y016741D02*
X036458Y016741D01*
X036458Y016790D02*
X036008Y016790D01*
X036008Y016839D02*
X036458Y016839D01*
X036458Y016888D02*
X036008Y016888D01*
X036008Y016937D02*
X036458Y016937D01*
X036458Y016986D02*
X036008Y016986D01*
X036008Y017035D02*
X036458Y017035D01*
X036458Y017084D02*
X036008Y017084D01*
X036008Y017133D02*
X036458Y017133D01*
X036458Y017182D02*
X036008Y017182D01*
X036008Y017231D02*
X036458Y017231D01*
X036458Y017280D02*
X036008Y017280D01*
X036008Y017329D02*
X036458Y017329D01*
X036458Y017378D02*
X036008Y017378D01*
X036008Y017427D02*
X036458Y017427D01*
X035458Y015467D02*
X035008Y015467D01*
X035008Y017433D01*
X035458Y017433D01*
X035458Y015467D01*
X035458Y015516D02*
X035008Y015516D01*
X035008Y015565D02*
X035458Y015565D01*
X035458Y015614D02*
X035008Y015614D01*
X035008Y015663D02*
X035458Y015663D01*
X035458Y015712D02*
X035008Y015712D01*
X035008Y015761D02*
X035458Y015761D01*
X035458Y015810D02*
X035008Y015810D01*
X035008Y015859D02*
X035458Y015859D01*
X035458Y015908D02*
X035008Y015908D01*
X035008Y015957D02*
X035458Y015957D01*
X035458Y016006D02*
X035008Y016006D01*
X035008Y016055D02*
X035458Y016055D01*
X035458Y016104D02*
X035008Y016104D01*
X035008Y016153D02*
X035458Y016153D01*
X035458Y016202D02*
X035008Y016202D01*
X035008Y016251D02*
X035458Y016251D01*
X035458Y016300D02*
X035008Y016300D01*
X035008Y016349D02*
X035458Y016349D01*
X035458Y016398D02*
X035008Y016398D01*
X035008Y016447D02*
X035458Y016447D01*
X035458Y016496D02*
X035008Y016496D01*
X035008Y016545D02*
X035458Y016545D01*
X035458Y016594D02*
X035008Y016594D01*
X035008Y016643D02*
X035458Y016643D01*
X035458Y016692D02*
X035008Y016692D01*
X035008Y016741D02*
X035458Y016741D01*
X035458Y016790D02*
X035008Y016790D01*
X035008Y016839D02*
X035458Y016839D01*
X035458Y016888D02*
X035008Y016888D01*
X035008Y016937D02*
X035458Y016937D01*
X035458Y016986D02*
X035008Y016986D01*
X035008Y017035D02*
X035458Y017035D01*
X035458Y017084D02*
X035008Y017084D01*
X035008Y017133D02*
X035458Y017133D01*
X035458Y017182D02*
X035008Y017182D01*
X035008Y017231D02*
X035458Y017231D01*
X035458Y017280D02*
X035008Y017280D01*
X035008Y017329D02*
X035458Y017329D01*
X035458Y017378D02*
X035008Y017378D01*
X035008Y017427D02*
X035458Y017427D01*
X034458Y015467D02*
X034008Y015467D01*
X034008Y017433D01*
X034458Y017433D01*
X034458Y015467D01*
X034458Y015516D02*
X034008Y015516D01*
X034008Y015565D02*
X034458Y015565D01*
X034458Y015614D02*
X034008Y015614D01*
X034008Y015663D02*
X034458Y015663D01*
X034458Y015712D02*
X034008Y015712D01*
X034008Y015761D02*
X034458Y015761D01*
X034458Y015810D02*
X034008Y015810D01*
X034008Y015859D02*
X034458Y015859D01*
X034458Y015908D02*
X034008Y015908D01*
X034008Y015957D02*
X034458Y015957D01*
X034458Y016006D02*
X034008Y016006D01*
X034008Y016055D02*
X034458Y016055D01*
X034458Y016104D02*
X034008Y016104D01*
X034008Y016153D02*
X034458Y016153D01*
X034458Y016202D02*
X034008Y016202D01*
X034008Y016251D02*
X034458Y016251D01*
X034458Y016300D02*
X034008Y016300D01*
X034008Y016349D02*
X034458Y016349D01*
X034458Y016398D02*
X034008Y016398D01*
X034008Y016447D02*
X034458Y016447D01*
X034458Y016496D02*
X034008Y016496D01*
X034008Y016545D02*
X034458Y016545D01*
X034458Y016594D02*
X034008Y016594D01*
X034008Y016643D02*
X034458Y016643D01*
X034458Y016692D02*
X034008Y016692D01*
X034008Y016741D02*
X034458Y016741D01*
X034458Y016790D02*
X034008Y016790D01*
X034008Y016839D02*
X034458Y016839D01*
X034458Y016888D02*
X034008Y016888D01*
X034008Y016937D02*
X034458Y016937D01*
X034458Y016986D02*
X034008Y016986D01*
X034008Y017035D02*
X034458Y017035D01*
X034458Y017084D02*
X034008Y017084D01*
X034008Y017133D02*
X034458Y017133D01*
X034458Y017182D02*
X034008Y017182D01*
X034008Y017231D02*
X034458Y017231D01*
X034458Y017280D02*
X034008Y017280D01*
X034008Y017329D02*
X034458Y017329D01*
X034458Y017378D02*
X034008Y017378D01*
X034008Y017427D02*
X034458Y017427D01*
X033458Y015467D02*
X033008Y015467D01*
X033008Y017433D01*
X033458Y017433D01*
X033458Y015467D01*
X033458Y015516D02*
X033008Y015516D01*
X033008Y015565D02*
X033458Y015565D01*
X033458Y015614D02*
X033008Y015614D01*
X033008Y015663D02*
X033458Y015663D01*
X033458Y015712D02*
X033008Y015712D01*
X033008Y015761D02*
X033458Y015761D01*
X033458Y015810D02*
X033008Y015810D01*
X033008Y015859D02*
X033458Y015859D01*
X033458Y015908D02*
X033008Y015908D01*
X033008Y015957D02*
X033458Y015957D01*
X033458Y016006D02*
X033008Y016006D01*
X033008Y016055D02*
X033458Y016055D01*
X033458Y016104D02*
X033008Y016104D01*
X033008Y016153D02*
X033458Y016153D01*
X033458Y016202D02*
X033008Y016202D01*
X033008Y016251D02*
X033458Y016251D01*
X033458Y016300D02*
X033008Y016300D01*
X033008Y016349D02*
X033458Y016349D01*
X033458Y016398D02*
X033008Y016398D01*
X033008Y016447D02*
X033458Y016447D01*
X033458Y016496D02*
X033008Y016496D01*
X033008Y016545D02*
X033458Y016545D01*
X033458Y016594D02*
X033008Y016594D01*
X033008Y016643D02*
X033458Y016643D01*
X033458Y016692D02*
X033008Y016692D01*
X033008Y016741D02*
X033458Y016741D01*
X033458Y016790D02*
X033008Y016790D01*
X033008Y016839D02*
X033458Y016839D01*
X033458Y016888D02*
X033008Y016888D01*
X033008Y016937D02*
X033458Y016937D01*
X033458Y016986D02*
X033008Y016986D01*
X033008Y017035D02*
X033458Y017035D01*
X033458Y017084D02*
X033008Y017084D01*
X033008Y017133D02*
X033458Y017133D01*
X033458Y017182D02*
X033008Y017182D01*
X033008Y017231D02*
X033458Y017231D01*
X033458Y017280D02*
X033008Y017280D01*
X033008Y017329D02*
X033458Y017329D01*
X033458Y017378D02*
X033008Y017378D01*
X033008Y017427D02*
X033458Y017427D01*
X032458Y015467D02*
X032008Y015467D01*
X032008Y017433D01*
X032458Y017433D01*
X032458Y015467D01*
X032458Y015516D02*
X032008Y015516D01*
X032008Y015565D02*
X032458Y015565D01*
X032458Y015614D02*
X032008Y015614D01*
X032008Y015663D02*
X032458Y015663D01*
X032458Y015712D02*
X032008Y015712D01*
X032008Y015761D02*
X032458Y015761D01*
X032458Y015810D02*
X032008Y015810D01*
X032008Y015859D02*
X032458Y015859D01*
X032458Y015908D02*
X032008Y015908D01*
X032008Y015957D02*
X032458Y015957D01*
X032458Y016006D02*
X032008Y016006D01*
X032008Y016055D02*
X032458Y016055D01*
X032458Y016104D02*
X032008Y016104D01*
X032008Y016153D02*
X032458Y016153D01*
X032458Y016202D02*
X032008Y016202D01*
X032008Y016251D02*
X032458Y016251D01*
X032458Y016300D02*
X032008Y016300D01*
X032008Y016349D02*
X032458Y016349D01*
X032458Y016398D02*
X032008Y016398D01*
X032008Y016447D02*
X032458Y016447D01*
X032458Y016496D02*
X032008Y016496D01*
X032008Y016545D02*
X032458Y016545D01*
X032458Y016594D02*
X032008Y016594D01*
X032008Y016643D02*
X032458Y016643D01*
X032458Y016692D02*
X032008Y016692D01*
X032008Y016741D02*
X032458Y016741D01*
X032458Y016790D02*
X032008Y016790D01*
X032008Y016839D02*
X032458Y016839D01*
X032458Y016888D02*
X032008Y016888D01*
X032008Y016937D02*
X032458Y016937D01*
X032458Y016986D02*
X032008Y016986D01*
X032008Y017035D02*
X032458Y017035D01*
X032458Y017084D02*
X032008Y017084D01*
X032008Y017133D02*
X032458Y017133D01*
X032458Y017182D02*
X032008Y017182D01*
X032008Y017231D02*
X032458Y017231D01*
X032458Y017280D02*
X032008Y017280D01*
X032008Y017329D02*
X032458Y017329D01*
X032458Y017378D02*
X032008Y017378D01*
X032008Y017427D02*
X032458Y017427D01*
X031458Y015467D02*
X031008Y015467D01*
X031008Y017433D01*
X031458Y017433D01*
X031458Y015467D01*
X031458Y015516D02*
X031008Y015516D01*
X031008Y015565D02*
X031458Y015565D01*
X031458Y015614D02*
X031008Y015614D01*
X031008Y015663D02*
X031458Y015663D01*
X031458Y015712D02*
X031008Y015712D01*
X031008Y015761D02*
X031458Y015761D01*
X031458Y015810D02*
X031008Y015810D01*
X031008Y015859D02*
X031458Y015859D01*
X031458Y015908D02*
X031008Y015908D01*
X031008Y015957D02*
X031458Y015957D01*
X031458Y016006D02*
X031008Y016006D01*
X031008Y016055D02*
X031458Y016055D01*
X031458Y016104D02*
X031008Y016104D01*
X031008Y016153D02*
X031458Y016153D01*
X031458Y016202D02*
X031008Y016202D01*
X031008Y016251D02*
X031458Y016251D01*
X031458Y016300D02*
X031008Y016300D01*
X031008Y016349D02*
X031458Y016349D01*
X031458Y016398D02*
X031008Y016398D01*
X031008Y016447D02*
X031458Y016447D01*
X031458Y016496D02*
X031008Y016496D01*
X031008Y016545D02*
X031458Y016545D01*
X031458Y016594D02*
X031008Y016594D01*
X031008Y016643D02*
X031458Y016643D01*
X031458Y016692D02*
X031008Y016692D01*
X031008Y016741D02*
X031458Y016741D01*
X031458Y016790D02*
X031008Y016790D01*
X031008Y016839D02*
X031458Y016839D01*
X031458Y016888D02*
X031008Y016888D01*
X031008Y016937D02*
X031458Y016937D01*
X031458Y016986D02*
X031008Y016986D01*
X031008Y017035D02*
X031458Y017035D01*
X031458Y017084D02*
X031008Y017084D01*
X031008Y017133D02*
X031458Y017133D01*
X031458Y017182D02*
X031008Y017182D01*
X031008Y017231D02*
X031458Y017231D01*
X031458Y017280D02*
X031008Y017280D01*
X031008Y017329D02*
X031458Y017329D01*
X031458Y017378D02*
X031008Y017378D01*
X031008Y017427D02*
X031458Y017427D01*
X030458Y015467D02*
X030008Y015467D01*
X030008Y017433D01*
X030458Y017433D01*
X030458Y015467D01*
X030458Y015516D02*
X030008Y015516D01*
X030008Y015565D02*
X030458Y015565D01*
X030458Y015614D02*
X030008Y015614D01*
X030008Y015663D02*
X030458Y015663D01*
X030458Y015712D02*
X030008Y015712D01*
X030008Y015761D02*
X030458Y015761D01*
X030458Y015810D02*
X030008Y015810D01*
X030008Y015859D02*
X030458Y015859D01*
X030458Y015908D02*
X030008Y015908D01*
X030008Y015957D02*
X030458Y015957D01*
X030458Y016006D02*
X030008Y016006D01*
X030008Y016055D02*
X030458Y016055D01*
X030458Y016104D02*
X030008Y016104D01*
X030008Y016153D02*
X030458Y016153D01*
X030458Y016202D02*
X030008Y016202D01*
X030008Y016251D02*
X030458Y016251D01*
X030458Y016300D02*
X030008Y016300D01*
X030008Y016349D02*
X030458Y016349D01*
X030458Y016398D02*
X030008Y016398D01*
X030008Y016447D02*
X030458Y016447D01*
X030458Y016496D02*
X030008Y016496D01*
X030008Y016545D02*
X030458Y016545D01*
X030458Y016594D02*
X030008Y016594D01*
X030008Y016643D02*
X030458Y016643D01*
X030458Y016692D02*
X030008Y016692D01*
X030008Y016741D02*
X030458Y016741D01*
X030458Y016790D02*
X030008Y016790D01*
X030008Y016839D02*
X030458Y016839D01*
X030458Y016888D02*
X030008Y016888D01*
X030008Y016937D02*
X030458Y016937D01*
X030458Y016986D02*
X030008Y016986D01*
X030008Y017035D02*
X030458Y017035D01*
X030458Y017084D02*
X030008Y017084D01*
X030008Y017133D02*
X030458Y017133D01*
X030458Y017182D02*
X030008Y017182D01*
X030008Y017231D02*
X030458Y017231D01*
X030458Y017280D02*
X030008Y017280D01*
X030008Y017329D02*
X030458Y017329D01*
X030458Y017378D02*
X030008Y017378D01*
X030008Y017427D02*
X030458Y017427D01*
X029458Y015467D02*
X029008Y015467D01*
X029008Y017433D01*
X029458Y017433D01*
X029458Y015467D01*
X029458Y015516D02*
X029008Y015516D01*
X029008Y015565D02*
X029458Y015565D01*
X029458Y015614D02*
X029008Y015614D01*
X029008Y015663D02*
X029458Y015663D01*
X029458Y015712D02*
X029008Y015712D01*
X029008Y015761D02*
X029458Y015761D01*
X029458Y015810D02*
X029008Y015810D01*
X029008Y015859D02*
X029458Y015859D01*
X029458Y015908D02*
X029008Y015908D01*
X029008Y015957D02*
X029458Y015957D01*
X029458Y016006D02*
X029008Y016006D01*
X029008Y016055D02*
X029458Y016055D01*
X029458Y016104D02*
X029008Y016104D01*
X029008Y016153D02*
X029458Y016153D01*
X029458Y016202D02*
X029008Y016202D01*
X029008Y016251D02*
X029458Y016251D01*
X029458Y016300D02*
X029008Y016300D01*
X029008Y016349D02*
X029458Y016349D01*
X029458Y016398D02*
X029008Y016398D01*
X029008Y016447D02*
X029458Y016447D01*
X029458Y016496D02*
X029008Y016496D01*
X029008Y016545D02*
X029458Y016545D01*
X029458Y016594D02*
X029008Y016594D01*
X029008Y016643D02*
X029458Y016643D01*
X029458Y016692D02*
X029008Y016692D01*
X029008Y016741D02*
X029458Y016741D01*
X029458Y016790D02*
X029008Y016790D01*
X029008Y016839D02*
X029458Y016839D01*
X029458Y016888D02*
X029008Y016888D01*
X029008Y016937D02*
X029458Y016937D01*
X029458Y016986D02*
X029008Y016986D01*
X029008Y017035D02*
X029458Y017035D01*
X029458Y017084D02*
X029008Y017084D01*
X029008Y017133D02*
X029458Y017133D01*
X029458Y017182D02*
X029008Y017182D01*
X029008Y017231D02*
X029458Y017231D01*
X029458Y017280D02*
X029008Y017280D01*
X029008Y017329D02*
X029458Y017329D01*
X029458Y017378D02*
X029008Y017378D01*
X029008Y017427D02*
X029458Y017427D01*
X028458Y015467D02*
X028008Y015467D01*
X028008Y017433D01*
X028458Y017433D01*
X028458Y015467D01*
X028458Y015516D02*
X028008Y015516D01*
X028008Y015565D02*
X028458Y015565D01*
X028458Y015614D02*
X028008Y015614D01*
X028008Y015663D02*
X028458Y015663D01*
X028458Y015712D02*
X028008Y015712D01*
X028008Y015761D02*
X028458Y015761D01*
X028458Y015810D02*
X028008Y015810D01*
X028008Y015859D02*
X028458Y015859D01*
X028458Y015908D02*
X028008Y015908D01*
X028008Y015957D02*
X028458Y015957D01*
X028458Y016006D02*
X028008Y016006D01*
X028008Y016055D02*
X028458Y016055D01*
X028458Y016104D02*
X028008Y016104D01*
X028008Y016153D02*
X028458Y016153D01*
X028458Y016202D02*
X028008Y016202D01*
X028008Y016251D02*
X028458Y016251D01*
X028458Y016300D02*
X028008Y016300D01*
X028008Y016349D02*
X028458Y016349D01*
X028458Y016398D02*
X028008Y016398D01*
X028008Y016447D02*
X028458Y016447D01*
X028458Y016496D02*
X028008Y016496D01*
X028008Y016545D02*
X028458Y016545D01*
X028458Y016594D02*
X028008Y016594D01*
X028008Y016643D02*
X028458Y016643D01*
X028458Y016692D02*
X028008Y016692D01*
X028008Y016741D02*
X028458Y016741D01*
X028458Y016790D02*
X028008Y016790D01*
X028008Y016839D02*
X028458Y016839D01*
X028458Y016888D02*
X028008Y016888D01*
X028008Y016937D02*
X028458Y016937D01*
X028458Y016986D02*
X028008Y016986D01*
X028008Y017035D02*
X028458Y017035D01*
X028458Y017084D02*
X028008Y017084D01*
X028008Y017133D02*
X028458Y017133D01*
X028458Y017182D02*
X028008Y017182D01*
X028008Y017231D02*
X028458Y017231D01*
X028458Y017280D02*
X028008Y017280D01*
X028008Y017329D02*
X028458Y017329D01*
X028458Y017378D02*
X028008Y017378D01*
X028008Y017427D02*
X028458Y017427D01*
X027458Y015467D02*
X027008Y015467D01*
X027008Y017433D01*
X027458Y017433D01*
X027458Y015467D01*
X027458Y015516D02*
X027008Y015516D01*
X027008Y015565D02*
X027458Y015565D01*
X027458Y015614D02*
X027008Y015614D01*
X027008Y015663D02*
X027458Y015663D01*
X027458Y015712D02*
X027008Y015712D01*
X027008Y015761D02*
X027458Y015761D01*
X027458Y015810D02*
X027008Y015810D01*
X027008Y015859D02*
X027458Y015859D01*
X027458Y015908D02*
X027008Y015908D01*
X027008Y015957D02*
X027458Y015957D01*
X027458Y016006D02*
X027008Y016006D01*
X027008Y016055D02*
X027458Y016055D01*
X027458Y016104D02*
X027008Y016104D01*
X027008Y016153D02*
X027458Y016153D01*
X027458Y016202D02*
X027008Y016202D01*
X027008Y016251D02*
X027458Y016251D01*
X027458Y016300D02*
X027008Y016300D01*
X027008Y016349D02*
X027458Y016349D01*
X027458Y016398D02*
X027008Y016398D01*
X027008Y016447D02*
X027458Y016447D01*
X027458Y016496D02*
X027008Y016496D01*
X027008Y016545D02*
X027458Y016545D01*
X027458Y016594D02*
X027008Y016594D01*
X027008Y016643D02*
X027458Y016643D01*
X027458Y016692D02*
X027008Y016692D01*
X027008Y016741D02*
X027458Y016741D01*
X027458Y016790D02*
X027008Y016790D01*
X027008Y016839D02*
X027458Y016839D01*
X027458Y016888D02*
X027008Y016888D01*
X027008Y016937D02*
X027458Y016937D01*
X027458Y016986D02*
X027008Y016986D01*
X027008Y017035D02*
X027458Y017035D01*
X027458Y017084D02*
X027008Y017084D01*
X027008Y017133D02*
X027458Y017133D01*
X027458Y017182D02*
X027008Y017182D01*
X027008Y017231D02*
X027458Y017231D01*
X027458Y017280D02*
X027008Y017280D01*
X027008Y017329D02*
X027458Y017329D01*
X027458Y017378D02*
X027008Y017378D01*
X027008Y017427D02*
X027458Y017427D01*
X026458Y015467D02*
X026008Y015467D01*
X026008Y017433D01*
X026458Y017433D01*
X026458Y015467D01*
X026458Y015516D02*
X026008Y015516D01*
X026008Y015565D02*
X026458Y015565D01*
X026458Y015614D02*
X026008Y015614D01*
X026008Y015663D02*
X026458Y015663D01*
X026458Y015712D02*
X026008Y015712D01*
X026008Y015761D02*
X026458Y015761D01*
X026458Y015810D02*
X026008Y015810D01*
X026008Y015859D02*
X026458Y015859D01*
X026458Y015908D02*
X026008Y015908D01*
X026008Y015957D02*
X026458Y015957D01*
X026458Y016006D02*
X026008Y016006D01*
X026008Y016055D02*
X026458Y016055D01*
X026458Y016104D02*
X026008Y016104D01*
X026008Y016153D02*
X026458Y016153D01*
X026458Y016202D02*
X026008Y016202D01*
X026008Y016251D02*
X026458Y016251D01*
X026458Y016300D02*
X026008Y016300D01*
X026008Y016349D02*
X026458Y016349D01*
X026458Y016398D02*
X026008Y016398D01*
X026008Y016447D02*
X026458Y016447D01*
X026458Y016496D02*
X026008Y016496D01*
X026008Y016545D02*
X026458Y016545D01*
X026458Y016594D02*
X026008Y016594D01*
X026008Y016643D02*
X026458Y016643D01*
X026458Y016692D02*
X026008Y016692D01*
X026008Y016741D02*
X026458Y016741D01*
X026458Y016790D02*
X026008Y016790D01*
X026008Y016839D02*
X026458Y016839D01*
X026458Y016888D02*
X026008Y016888D01*
X026008Y016937D02*
X026458Y016937D01*
X026458Y016986D02*
X026008Y016986D01*
X026008Y017035D02*
X026458Y017035D01*
X026458Y017084D02*
X026008Y017084D01*
X026008Y017133D02*
X026458Y017133D01*
X026458Y017182D02*
X026008Y017182D01*
X026008Y017231D02*
X026458Y017231D01*
X026458Y017280D02*
X026008Y017280D01*
X026008Y017329D02*
X026458Y017329D01*
X026458Y017378D02*
X026008Y017378D01*
X026008Y017427D02*
X026458Y017427D01*
X025458Y015467D02*
X025008Y015467D01*
X025008Y017433D01*
X025458Y017433D01*
X025458Y015467D01*
X025458Y015516D02*
X025008Y015516D01*
X025008Y015565D02*
X025458Y015565D01*
X025458Y015614D02*
X025008Y015614D01*
X025008Y015663D02*
X025458Y015663D01*
X025458Y015712D02*
X025008Y015712D01*
X025008Y015761D02*
X025458Y015761D01*
X025458Y015810D02*
X025008Y015810D01*
X025008Y015859D02*
X025458Y015859D01*
X025458Y015908D02*
X025008Y015908D01*
X025008Y015957D02*
X025458Y015957D01*
X025458Y016006D02*
X025008Y016006D01*
X025008Y016055D02*
X025458Y016055D01*
X025458Y016104D02*
X025008Y016104D01*
X025008Y016153D02*
X025458Y016153D01*
X025458Y016202D02*
X025008Y016202D01*
X025008Y016251D02*
X025458Y016251D01*
X025458Y016300D02*
X025008Y016300D01*
X025008Y016349D02*
X025458Y016349D01*
X025458Y016398D02*
X025008Y016398D01*
X025008Y016447D02*
X025458Y016447D01*
X025458Y016496D02*
X025008Y016496D01*
X025008Y016545D02*
X025458Y016545D01*
X025458Y016594D02*
X025008Y016594D01*
X025008Y016643D02*
X025458Y016643D01*
X025458Y016692D02*
X025008Y016692D01*
X025008Y016741D02*
X025458Y016741D01*
X025458Y016790D02*
X025008Y016790D01*
X025008Y016839D02*
X025458Y016839D01*
X025458Y016888D02*
X025008Y016888D01*
X025008Y016937D02*
X025458Y016937D01*
X025458Y016986D02*
X025008Y016986D01*
X025008Y017035D02*
X025458Y017035D01*
X025458Y017084D02*
X025008Y017084D01*
X025008Y017133D02*
X025458Y017133D01*
X025458Y017182D02*
X025008Y017182D01*
X025008Y017231D02*
X025458Y017231D01*
X025458Y017280D02*
X025008Y017280D01*
X025008Y017329D02*
X025458Y017329D01*
X025458Y017378D02*
X025008Y017378D01*
X025008Y017427D02*
X025458Y017427D01*
X024458Y015467D02*
X024008Y015467D01*
X024008Y017433D01*
X024458Y017433D01*
X024458Y015467D01*
X024458Y015516D02*
X024008Y015516D01*
X024008Y015565D02*
X024458Y015565D01*
X024458Y015614D02*
X024008Y015614D01*
X024008Y015663D02*
X024458Y015663D01*
X024458Y015712D02*
X024008Y015712D01*
X024008Y015761D02*
X024458Y015761D01*
X024458Y015810D02*
X024008Y015810D01*
X024008Y015859D02*
X024458Y015859D01*
X024458Y015908D02*
X024008Y015908D01*
X024008Y015957D02*
X024458Y015957D01*
X024458Y016006D02*
X024008Y016006D01*
X024008Y016055D02*
X024458Y016055D01*
X024458Y016104D02*
X024008Y016104D01*
X024008Y016153D02*
X024458Y016153D01*
X024458Y016202D02*
X024008Y016202D01*
X024008Y016251D02*
X024458Y016251D01*
X024458Y016300D02*
X024008Y016300D01*
X024008Y016349D02*
X024458Y016349D01*
X024458Y016398D02*
X024008Y016398D01*
X024008Y016447D02*
X024458Y016447D01*
X024458Y016496D02*
X024008Y016496D01*
X024008Y016545D02*
X024458Y016545D01*
X024458Y016594D02*
X024008Y016594D01*
X024008Y016643D02*
X024458Y016643D01*
X024458Y016692D02*
X024008Y016692D01*
X024008Y016741D02*
X024458Y016741D01*
X024458Y016790D02*
X024008Y016790D01*
X024008Y016839D02*
X024458Y016839D01*
X024458Y016888D02*
X024008Y016888D01*
X024008Y016937D02*
X024458Y016937D01*
X024458Y016986D02*
X024008Y016986D01*
X024008Y017035D02*
X024458Y017035D01*
X024458Y017084D02*
X024008Y017084D01*
X024008Y017133D02*
X024458Y017133D01*
X024458Y017182D02*
X024008Y017182D01*
X024008Y017231D02*
X024458Y017231D01*
X024458Y017280D02*
X024008Y017280D01*
X024008Y017329D02*
X024458Y017329D01*
X024458Y017378D02*
X024008Y017378D01*
X024008Y017427D02*
X024458Y017427D01*
X023458Y015467D02*
X023008Y015467D01*
X023008Y017433D01*
X023458Y017433D01*
X023458Y015467D01*
X023458Y015516D02*
X023008Y015516D01*
X023008Y015565D02*
X023458Y015565D01*
X023458Y015614D02*
X023008Y015614D01*
X023008Y015663D02*
X023458Y015663D01*
X023458Y015712D02*
X023008Y015712D01*
X023008Y015761D02*
X023458Y015761D01*
X023458Y015810D02*
X023008Y015810D01*
X023008Y015859D02*
X023458Y015859D01*
X023458Y015908D02*
X023008Y015908D01*
X023008Y015957D02*
X023458Y015957D01*
X023458Y016006D02*
X023008Y016006D01*
X023008Y016055D02*
X023458Y016055D01*
X023458Y016104D02*
X023008Y016104D01*
X023008Y016153D02*
X023458Y016153D01*
X023458Y016202D02*
X023008Y016202D01*
X023008Y016251D02*
X023458Y016251D01*
X023458Y016300D02*
X023008Y016300D01*
X023008Y016349D02*
X023458Y016349D01*
X023458Y016398D02*
X023008Y016398D01*
X023008Y016447D02*
X023458Y016447D01*
X023458Y016496D02*
X023008Y016496D01*
X023008Y016545D02*
X023458Y016545D01*
X023458Y016594D02*
X023008Y016594D01*
X023008Y016643D02*
X023458Y016643D01*
X023458Y016692D02*
X023008Y016692D01*
X023008Y016741D02*
X023458Y016741D01*
X023458Y016790D02*
X023008Y016790D01*
X023008Y016839D02*
X023458Y016839D01*
X023458Y016888D02*
X023008Y016888D01*
X023008Y016937D02*
X023458Y016937D01*
X023458Y016986D02*
X023008Y016986D01*
X023008Y017035D02*
X023458Y017035D01*
X023458Y017084D02*
X023008Y017084D01*
X023008Y017133D02*
X023458Y017133D01*
X023458Y017182D02*
X023008Y017182D01*
X023008Y017231D02*
X023458Y017231D01*
X023458Y017280D02*
X023008Y017280D01*
X023008Y017329D02*
X023458Y017329D01*
X023458Y017378D02*
X023008Y017378D01*
X023008Y017427D02*
X023458Y017427D01*
X022458Y015467D02*
X022008Y015467D01*
X022008Y017433D01*
X022458Y017433D01*
X022458Y015467D01*
X022458Y015516D02*
X022008Y015516D01*
X022008Y015565D02*
X022458Y015565D01*
X022458Y015614D02*
X022008Y015614D01*
X022008Y015663D02*
X022458Y015663D01*
X022458Y015712D02*
X022008Y015712D01*
X022008Y015761D02*
X022458Y015761D01*
X022458Y015810D02*
X022008Y015810D01*
X022008Y015859D02*
X022458Y015859D01*
X022458Y015908D02*
X022008Y015908D01*
X022008Y015957D02*
X022458Y015957D01*
X022458Y016006D02*
X022008Y016006D01*
X022008Y016055D02*
X022458Y016055D01*
X022458Y016104D02*
X022008Y016104D01*
X022008Y016153D02*
X022458Y016153D01*
X022458Y016202D02*
X022008Y016202D01*
X022008Y016251D02*
X022458Y016251D01*
X022458Y016300D02*
X022008Y016300D01*
X022008Y016349D02*
X022458Y016349D01*
X022458Y016398D02*
X022008Y016398D01*
X022008Y016447D02*
X022458Y016447D01*
X022458Y016496D02*
X022008Y016496D01*
X022008Y016545D02*
X022458Y016545D01*
X022458Y016594D02*
X022008Y016594D01*
X022008Y016643D02*
X022458Y016643D01*
X022458Y016692D02*
X022008Y016692D01*
X022008Y016741D02*
X022458Y016741D01*
X022458Y016790D02*
X022008Y016790D01*
X022008Y016839D02*
X022458Y016839D01*
X022458Y016888D02*
X022008Y016888D01*
X022008Y016937D02*
X022458Y016937D01*
X022458Y016986D02*
X022008Y016986D01*
X022008Y017035D02*
X022458Y017035D01*
X022458Y017084D02*
X022008Y017084D01*
X022008Y017133D02*
X022458Y017133D01*
X022458Y017182D02*
X022008Y017182D01*
X022008Y017231D02*
X022458Y017231D01*
X022458Y017280D02*
X022008Y017280D01*
X022008Y017329D02*
X022458Y017329D01*
X022458Y017378D02*
X022008Y017378D01*
X022008Y017427D02*
X022458Y017427D01*
X021458Y015467D02*
X021008Y015467D01*
X021008Y017433D01*
X021458Y017433D01*
X021458Y015467D01*
X021458Y015516D02*
X021008Y015516D01*
X021008Y015565D02*
X021458Y015565D01*
X021458Y015614D02*
X021008Y015614D01*
X021008Y015663D02*
X021458Y015663D01*
X021458Y015712D02*
X021008Y015712D01*
X021008Y015761D02*
X021458Y015761D01*
X021458Y015810D02*
X021008Y015810D01*
X021008Y015859D02*
X021458Y015859D01*
X021458Y015908D02*
X021008Y015908D01*
X021008Y015957D02*
X021458Y015957D01*
X021458Y016006D02*
X021008Y016006D01*
X021008Y016055D02*
X021458Y016055D01*
X021458Y016104D02*
X021008Y016104D01*
X021008Y016153D02*
X021458Y016153D01*
X021458Y016202D02*
X021008Y016202D01*
X021008Y016251D02*
X021458Y016251D01*
X021458Y016300D02*
X021008Y016300D01*
X021008Y016349D02*
X021458Y016349D01*
X021458Y016398D02*
X021008Y016398D01*
X021008Y016447D02*
X021458Y016447D01*
X021458Y016496D02*
X021008Y016496D01*
X021008Y016545D02*
X021458Y016545D01*
X021458Y016594D02*
X021008Y016594D01*
X021008Y016643D02*
X021458Y016643D01*
X021458Y016692D02*
X021008Y016692D01*
X021008Y016741D02*
X021458Y016741D01*
X021458Y016790D02*
X021008Y016790D01*
X021008Y016839D02*
X021458Y016839D01*
X021458Y016888D02*
X021008Y016888D01*
X021008Y016937D02*
X021458Y016937D01*
X021458Y016986D02*
X021008Y016986D01*
X021008Y017035D02*
X021458Y017035D01*
X021458Y017084D02*
X021008Y017084D01*
X021008Y017133D02*
X021458Y017133D01*
X021458Y017182D02*
X021008Y017182D01*
X021008Y017231D02*
X021458Y017231D01*
X021458Y017280D02*
X021008Y017280D01*
X021008Y017329D02*
X021458Y017329D01*
X021458Y017378D02*
X021008Y017378D01*
X021008Y017427D02*
X021458Y017427D01*
X020458Y015467D02*
X020008Y015467D01*
X020008Y017433D01*
X020458Y017433D01*
X020458Y015467D01*
X020458Y015516D02*
X020008Y015516D01*
X020008Y015565D02*
X020458Y015565D01*
X020458Y015614D02*
X020008Y015614D01*
X020008Y015663D02*
X020458Y015663D01*
X020458Y015712D02*
X020008Y015712D01*
X020008Y015761D02*
X020458Y015761D01*
X020458Y015810D02*
X020008Y015810D01*
X020008Y015859D02*
X020458Y015859D01*
X020458Y015908D02*
X020008Y015908D01*
X020008Y015957D02*
X020458Y015957D01*
X020458Y016006D02*
X020008Y016006D01*
X020008Y016055D02*
X020458Y016055D01*
X020458Y016104D02*
X020008Y016104D01*
X020008Y016153D02*
X020458Y016153D01*
X020458Y016202D02*
X020008Y016202D01*
X020008Y016251D02*
X020458Y016251D01*
X020458Y016300D02*
X020008Y016300D01*
X020008Y016349D02*
X020458Y016349D01*
X020458Y016398D02*
X020008Y016398D01*
X020008Y016447D02*
X020458Y016447D01*
X020458Y016496D02*
X020008Y016496D01*
X020008Y016545D02*
X020458Y016545D01*
X020458Y016594D02*
X020008Y016594D01*
X020008Y016643D02*
X020458Y016643D01*
X020458Y016692D02*
X020008Y016692D01*
X020008Y016741D02*
X020458Y016741D01*
X020458Y016790D02*
X020008Y016790D01*
X020008Y016839D02*
X020458Y016839D01*
X020458Y016888D02*
X020008Y016888D01*
X020008Y016937D02*
X020458Y016937D01*
X020458Y016986D02*
X020008Y016986D01*
X020008Y017035D02*
X020458Y017035D01*
X020458Y017084D02*
X020008Y017084D01*
X020008Y017133D02*
X020458Y017133D01*
X020458Y017182D02*
X020008Y017182D01*
X020008Y017231D02*
X020458Y017231D01*
X020458Y017280D02*
X020008Y017280D01*
X020008Y017329D02*
X020458Y017329D01*
X020458Y017378D02*
X020008Y017378D01*
X020008Y017427D02*
X020458Y017427D01*
X019458Y015467D02*
X019008Y015467D01*
X019008Y017433D01*
X019458Y017433D01*
X019458Y015467D01*
X019458Y015516D02*
X019008Y015516D01*
X019008Y015565D02*
X019458Y015565D01*
X019458Y015614D02*
X019008Y015614D01*
X019008Y015663D02*
X019458Y015663D01*
X019458Y015712D02*
X019008Y015712D01*
X019008Y015761D02*
X019458Y015761D01*
X019458Y015810D02*
X019008Y015810D01*
X019008Y015859D02*
X019458Y015859D01*
X019458Y015908D02*
X019008Y015908D01*
X019008Y015957D02*
X019458Y015957D01*
X019458Y016006D02*
X019008Y016006D01*
X019008Y016055D02*
X019458Y016055D01*
X019458Y016104D02*
X019008Y016104D01*
X019008Y016153D02*
X019458Y016153D01*
X019458Y016202D02*
X019008Y016202D01*
X019008Y016251D02*
X019458Y016251D01*
X019458Y016300D02*
X019008Y016300D01*
X019008Y016349D02*
X019458Y016349D01*
X019458Y016398D02*
X019008Y016398D01*
X019008Y016447D02*
X019458Y016447D01*
X019458Y016496D02*
X019008Y016496D01*
X019008Y016545D02*
X019458Y016545D01*
X019458Y016594D02*
X019008Y016594D01*
X019008Y016643D02*
X019458Y016643D01*
X019458Y016692D02*
X019008Y016692D01*
X019008Y016741D02*
X019458Y016741D01*
X019458Y016790D02*
X019008Y016790D01*
X019008Y016839D02*
X019458Y016839D01*
X019458Y016888D02*
X019008Y016888D01*
X019008Y016937D02*
X019458Y016937D01*
X019458Y016986D02*
X019008Y016986D01*
X019008Y017035D02*
X019458Y017035D01*
X019458Y017084D02*
X019008Y017084D01*
X019008Y017133D02*
X019458Y017133D01*
X019458Y017182D02*
X019008Y017182D01*
X019008Y017231D02*
X019458Y017231D01*
X019458Y017280D02*
X019008Y017280D01*
X019008Y017329D02*
X019458Y017329D01*
X019458Y017378D02*
X019008Y017378D01*
X019008Y017427D02*
X019458Y017427D01*
X018458Y015467D02*
X018008Y015467D01*
X018008Y017433D01*
X018458Y017433D01*
X018458Y015467D01*
X018458Y015516D02*
X018008Y015516D01*
X018008Y015565D02*
X018458Y015565D01*
X018458Y015614D02*
X018008Y015614D01*
X018008Y015663D02*
X018458Y015663D01*
X018458Y015712D02*
X018008Y015712D01*
X018008Y015761D02*
X018458Y015761D01*
X018458Y015810D02*
X018008Y015810D01*
X018008Y015859D02*
X018458Y015859D01*
X018458Y015908D02*
X018008Y015908D01*
X018008Y015957D02*
X018458Y015957D01*
X018458Y016006D02*
X018008Y016006D01*
X018008Y016055D02*
X018458Y016055D01*
X018458Y016104D02*
X018008Y016104D01*
X018008Y016153D02*
X018458Y016153D01*
X018458Y016202D02*
X018008Y016202D01*
X018008Y016251D02*
X018458Y016251D01*
X018458Y016300D02*
X018008Y016300D01*
X018008Y016349D02*
X018458Y016349D01*
X018458Y016398D02*
X018008Y016398D01*
X018008Y016447D02*
X018458Y016447D01*
X018458Y016496D02*
X018008Y016496D01*
X018008Y016545D02*
X018458Y016545D01*
X018458Y016594D02*
X018008Y016594D01*
X018008Y016643D02*
X018458Y016643D01*
X018458Y016692D02*
X018008Y016692D01*
X018008Y016741D02*
X018458Y016741D01*
X018458Y016790D02*
X018008Y016790D01*
X018008Y016839D02*
X018458Y016839D01*
X018458Y016888D02*
X018008Y016888D01*
X018008Y016937D02*
X018458Y016937D01*
X018458Y016986D02*
X018008Y016986D01*
X018008Y017035D02*
X018458Y017035D01*
X018458Y017084D02*
X018008Y017084D01*
X018008Y017133D02*
X018458Y017133D01*
X018458Y017182D02*
X018008Y017182D01*
X018008Y017231D02*
X018458Y017231D01*
X018458Y017280D02*
X018008Y017280D01*
X018008Y017329D02*
X018458Y017329D01*
X018458Y017378D02*
X018008Y017378D01*
X018008Y017427D02*
X018458Y017427D01*
X017458Y015467D02*
X017008Y015467D01*
X017008Y017433D01*
X017458Y017433D01*
X017458Y015467D01*
X017458Y015516D02*
X017008Y015516D01*
X017008Y015565D02*
X017458Y015565D01*
X017458Y015614D02*
X017008Y015614D01*
X017008Y015663D02*
X017458Y015663D01*
X017458Y015712D02*
X017008Y015712D01*
X017008Y015761D02*
X017458Y015761D01*
X017458Y015810D02*
X017008Y015810D01*
X017008Y015859D02*
X017458Y015859D01*
X017458Y015908D02*
X017008Y015908D01*
X017008Y015957D02*
X017458Y015957D01*
X017458Y016006D02*
X017008Y016006D01*
X017008Y016055D02*
X017458Y016055D01*
X017458Y016104D02*
X017008Y016104D01*
X017008Y016153D02*
X017458Y016153D01*
X017458Y016202D02*
X017008Y016202D01*
X017008Y016251D02*
X017458Y016251D01*
X017458Y016300D02*
X017008Y016300D01*
X017008Y016349D02*
X017458Y016349D01*
X017458Y016398D02*
X017008Y016398D01*
X017008Y016447D02*
X017458Y016447D01*
X017458Y016496D02*
X017008Y016496D01*
X017008Y016545D02*
X017458Y016545D01*
X017458Y016594D02*
X017008Y016594D01*
X017008Y016643D02*
X017458Y016643D01*
X017458Y016692D02*
X017008Y016692D01*
X017008Y016741D02*
X017458Y016741D01*
X017458Y016790D02*
X017008Y016790D01*
X017008Y016839D02*
X017458Y016839D01*
X017458Y016888D02*
X017008Y016888D01*
X017008Y016937D02*
X017458Y016937D01*
X017458Y016986D02*
X017008Y016986D01*
X017008Y017035D02*
X017458Y017035D01*
X017458Y017084D02*
X017008Y017084D01*
X017008Y017133D02*
X017458Y017133D01*
X017458Y017182D02*
X017008Y017182D01*
X017008Y017231D02*
X017458Y017231D01*
X017458Y017280D02*
X017008Y017280D01*
X017008Y017329D02*
X017458Y017329D01*
X017458Y017378D02*
X017008Y017378D01*
X017008Y017427D02*
X017458Y017427D01*
X016458Y015467D02*
X016008Y015467D01*
X016008Y017433D01*
X016458Y017433D01*
X016458Y015467D01*
X016458Y015516D02*
X016008Y015516D01*
X016008Y015565D02*
X016458Y015565D01*
X016458Y015614D02*
X016008Y015614D01*
X016008Y015663D02*
X016458Y015663D01*
X016458Y015712D02*
X016008Y015712D01*
X016008Y015761D02*
X016458Y015761D01*
X016458Y015810D02*
X016008Y015810D01*
X016008Y015859D02*
X016458Y015859D01*
X016458Y015908D02*
X016008Y015908D01*
X016008Y015957D02*
X016458Y015957D01*
X016458Y016006D02*
X016008Y016006D01*
X016008Y016055D02*
X016458Y016055D01*
X016458Y016104D02*
X016008Y016104D01*
X016008Y016153D02*
X016458Y016153D01*
X016458Y016202D02*
X016008Y016202D01*
X016008Y016251D02*
X016458Y016251D01*
X016458Y016300D02*
X016008Y016300D01*
X016008Y016349D02*
X016458Y016349D01*
X016458Y016398D02*
X016008Y016398D01*
X016008Y016447D02*
X016458Y016447D01*
X016458Y016496D02*
X016008Y016496D01*
X016008Y016545D02*
X016458Y016545D01*
X016458Y016594D02*
X016008Y016594D01*
X016008Y016643D02*
X016458Y016643D01*
X016458Y016692D02*
X016008Y016692D01*
X016008Y016741D02*
X016458Y016741D01*
X016458Y016790D02*
X016008Y016790D01*
X016008Y016839D02*
X016458Y016839D01*
X016458Y016888D02*
X016008Y016888D01*
X016008Y016937D02*
X016458Y016937D01*
X016458Y016986D02*
X016008Y016986D01*
X016008Y017035D02*
X016458Y017035D01*
X016458Y017084D02*
X016008Y017084D01*
X016008Y017133D02*
X016458Y017133D01*
X016458Y017182D02*
X016008Y017182D01*
X016008Y017231D02*
X016458Y017231D01*
X016458Y017280D02*
X016008Y017280D01*
X016008Y017329D02*
X016458Y017329D01*
X016458Y017378D02*
X016008Y017378D01*
X016008Y017427D02*
X016458Y017427D01*
X016458Y009467D02*
X016008Y009467D01*
X016008Y011433D01*
X016458Y011433D01*
X016458Y009467D01*
X016458Y009516D02*
X016008Y009516D01*
X016008Y009565D02*
X016458Y009565D01*
X016458Y009614D02*
X016008Y009614D01*
X016008Y009663D02*
X016458Y009663D01*
X016458Y009712D02*
X016008Y009712D01*
X016008Y009761D02*
X016458Y009761D01*
X016458Y009810D02*
X016008Y009810D01*
X016008Y009859D02*
X016458Y009859D01*
X016458Y009908D02*
X016008Y009908D01*
X016008Y009957D02*
X016458Y009957D01*
X016458Y010006D02*
X016008Y010006D01*
X016008Y010055D02*
X016458Y010055D01*
X016458Y010104D02*
X016008Y010104D01*
X016008Y010153D02*
X016458Y010153D01*
X016458Y010202D02*
X016008Y010202D01*
X016008Y010251D02*
X016458Y010251D01*
X016458Y010300D02*
X016008Y010300D01*
X016008Y010349D02*
X016458Y010349D01*
X016458Y010398D02*
X016008Y010398D01*
X016008Y010447D02*
X016458Y010447D01*
X016458Y010496D02*
X016008Y010496D01*
X016008Y010545D02*
X016458Y010545D01*
X016458Y010594D02*
X016008Y010594D01*
X016008Y010643D02*
X016458Y010643D01*
X016458Y010692D02*
X016008Y010692D01*
X016008Y010741D02*
X016458Y010741D01*
X016458Y010790D02*
X016008Y010790D01*
X016008Y010839D02*
X016458Y010839D01*
X016458Y010888D02*
X016008Y010888D01*
X016008Y010937D02*
X016458Y010937D01*
X016458Y010986D02*
X016008Y010986D01*
X016008Y011035D02*
X016458Y011035D01*
X016458Y011084D02*
X016008Y011084D01*
X016008Y011133D02*
X016458Y011133D01*
X016458Y011182D02*
X016008Y011182D01*
X016008Y011231D02*
X016458Y011231D01*
X016458Y011280D02*
X016008Y011280D01*
X016008Y011329D02*
X016458Y011329D01*
X016458Y011378D02*
X016008Y011378D01*
X016008Y011427D02*
X016458Y011427D01*
X017008Y009467D02*
X017458Y009467D01*
X017008Y009467D02*
X017008Y011433D01*
X017458Y011433D01*
X017458Y009467D01*
X017458Y009516D02*
X017008Y009516D01*
X017008Y009565D02*
X017458Y009565D01*
X017458Y009614D02*
X017008Y009614D01*
X017008Y009663D02*
X017458Y009663D01*
X017458Y009712D02*
X017008Y009712D01*
X017008Y009761D02*
X017458Y009761D01*
X017458Y009810D02*
X017008Y009810D01*
X017008Y009859D02*
X017458Y009859D01*
X017458Y009908D02*
X017008Y009908D01*
X017008Y009957D02*
X017458Y009957D01*
X017458Y010006D02*
X017008Y010006D01*
X017008Y010055D02*
X017458Y010055D01*
X017458Y010104D02*
X017008Y010104D01*
X017008Y010153D02*
X017458Y010153D01*
X017458Y010202D02*
X017008Y010202D01*
X017008Y010251D02*
X017458Y010251D01*
X017458Y010300D02*
X017008Y010300D01*
X017008Y010349D02*
X017458Y010349D01*
X017458Y010398D02*
X017008Y010398D01*
X017008Y010447D02*
X017458Y010447D01*
X017458Y010496D02*
X017008Y010496D01*
X017008Y010545D02*
X017458Y010545D01*
X017458Y010594D02*
X017008Y010594D01*
X017008Y010643D02*
X017458Y010643D01*
X017458Y010692D02*
X017008Y010692D01*
X017008Y010741D02*
X017458Y010741D01*
X017458Y010790D02*
X017008Y010790D01*
X017008Y010839D02*
X017458Y010839D01*
X017458Y010888D02*
X017008Y010888D01*
X017008Y010937D02*
X017458Y010937D01*
X017458Y010986D02*
X017008Y010986D01*
X017008Y011035D02*
X017458Y011035D01*
X017458Y011084D02*
X017008Y011084D01*
X017008Y011133D02*
X017458Y011133D01*
X017458Y011182D02*
X017008Y011182D01*
X017008Y011231D02*
X017458Y011231D01*
X017458Y011280D02*
X017008Y011280D01*
X017008Y011329D02*
X017458Y011329D01*
X017458Y011378D02*
X017008Y011378D01*
X017008Y011427D02*
X017458Y011427D01*
X018008Y009467D02*
X018458Y009467D01*
X018008Y009467D02*
X018008Y011433D01*
X018458Y011433D01*
X018458Y009467D01*
X018458Y009516D02*
X018008Y009516D01*
X018008Y009565D02*
X018458Y009565D01*
X018458Y009614D02*
X018008Y009614D01*
X018008Y009663D02*
X018458Y009663D01*
X018458Y009712D02*
X018008Y009712D01*
X018008Y009761D02*
X018458Y009761D01*
X018458Y009810D02*
X018008Y009810D01*
X018008Y009859D02*
X018458Y009859D01*
X018458Y009908D02*
X018008Y009908D01*
X018008Y009957D02*
X018458Y009957D01*
X018458Y010006D02*
X018008Y010006D01*
X018008Y010055D02*
X018458Y010055D01*
X018458Y010104D02*
X018008Y010104D01*
X018008Y010153D02*
X018458Y010153D01*
X018458Y010202D02*
X018008Y010202D01*
X018008Y010251D02*
X018458Y010251D01*
X018458Y010300D02*
X018008Y010300D01*
X018008Y010349D02*
X018458Y010349D01*
X018458Y010398D02*
X018008Y010398D01*
X018008Y010447D02*
X018458Y010447D01*
X018458Y010496D02*
X018008Y010496D01*
X018008Y010545D02*
X018458Y010545D01*
X018458Y010594D02*
X018008Y010594D01*
X018008Y010643D02*
X018458Y010643D01*
X018458Y010692D02*
X018008Y010692D01*
X018008Y010741D02*
X018458Y010741D01*
X018458Y010790D02*
X018008Y010790D01*
X018008Y010839D02*
X018458Y010839D01*
X018458Y010888D02*
X018008Y010888D01*
X018008Y010937D02*
X018458Y010937D01*
X018458Y010986D02*
X018008Y010986D01*
X018008Y011035D02*
X018458Y011035D01*
X018458Y011084D02*
X018008Y011084D01*
X018008Y011133D02*
X018458Y011133D01*
X018458Y011182D02*
X018008Y011182D01*
X018008Y011231D02*
X018458Y011231D01*
X018458Y011280D02*
X018008Y011280D01*
X018008Y011329D02*
X018458Y011329D01*
X018458Y011378D02*
X018008Y011378D01*
X018008Y011427D02*
X018458Y011427D01*
X019008Y009467D02*
X019458Y009467D01*
X019008Y009467D02*
X019008Y011433D01*
X019458Y011433D01*
X019458Y009467D01*
X019458Y009516D02*
X019008Y009516D01*
X019008Y009565D02*
X019458Y009565D01*
X019458Y009614D02*
X019008Y009614D01*
X019008Y009663D02*
X019458Y009663D01*
X019458Y009712D02*
X019008Y009712D01*
X019008Y009761D02*
X019458Y009761D01*
X019458Y009810D02*
X019008Y009810D01*
X019008Y009859D02*
X019458Y009859D01*
X019458Y009908D02*
X019008Y009908D01*
X019008Y009957D02*
X019458Y009957D01*
X019458Y010006D02*
X019008Y010006D01*
X019008Y010055D02*
X019458Y010055D01*
X019458Y010104D02*
X019008Y010104D01*
X019008Y010153D02*
X019458Y010153D01*
X019458Y010202D02*
X019008Y010202D01*
X019008Y010251D02*
X019458Y010251D01*
X019458Y010300D02*
X019008Y010300D01*
X019008Y010349D02*
X019458Y010349D01*
X019458Y010398D02*
X019008Y010398D01*
X019008Y010447D02*
X019458Y010447D01*
X019458Y010496D02*
X019008Y010496D01*
X019008Y010545D02*
X019458Y010545D01*
X019458Y010594D02*
X019008Y010594D01*
X019008Y010643D02*
X019458Y010643D01*
X019458Y010692D02*
X019008Y010692D01*
X019008Y010741D02*
X019458Y010741D01*
X019458Y010790D02*
X019008Y010790D01*
X019008Y010839D02*
X019458Y010839D01*
X019458Y010888D02*
X019008Y010888D01*
X019008Y010937D02*
X019458Y010937D01*
X019458Y010986D02*
X019008Y010986D01*
X019008Y011035D02*
X019458Y011035D01*
X019458Y011084D02*
X019008Y011084D01*
X019008Y011133D02*
X019458Y011133D01*
X019458Y011182D02*
X019008Y011182D01*
X019008Y011231D02*
X019458Y011231D01*
X019458Y011280D02*
X019008Y011280D01*
X019008Y011329D02*
X019458Y011329D01*
X019458Y011378D02*
X019008Y011378D01*
X019008Y011427D02*
X019458Y011427D01*
X020008Y009467D02*
X020458Y009467D01*
X020008Y009467D02*
X020008Y011433D01*
X020458Y011433D01*
X020458Y009467D01*
X020458Y009516D02*
X020008Y009516D01*
X020008Y009565D02*
X020458Y009565D01*
X020458Y009614D02*
X020008Y009614D01*
X020008Y009663D02*
X020458Y009663D01*
X020458Y009712D02*
X020008Y009712D01*
X020008Y009761D02*
X020458Y009761D01*
X020458Y009810D02*
X020008Y009810D01*
X020008Y009859D02*
X020458Y009859D01*
X020458Y009908D02*
X020008Y009908D01*
X020008Y009957D02*
X020458Y009957D01*
X020458Y010006D02*
X020008Y010006D01*
X020008Y010055D02*
X020458Y010055D01*
X020458Y010104D02*
X020008Y010104D01*
X020008Y010153D02*
X020458Y010153D01*
X020458Y010202D02*
X020008Y010202D01*
X020008Y010251D02*
X020458Y010251D01*
X020458Y010300D02*
X020008Y010300D01*
X020008Y010349D02*
X020458Y010349D01*
X020458Y010398D02*
X020008Y010398D01*
X020008Y010447D02*
X020458Y010447D01*
X020458Y010496D02*
X020008Y010496D01*
X020008Y010545D02*
X020458Y010545D01*
X020458Y010594D02*
X020008Y010594D01*
X020008Y010643D02*
X020458Y010643D01*
X020458Y010692D02*
X020008Y010692D01*
X020008Y010741D02*
X020458Y010741D01*
X020458Y010790D02*
X020008Y010790D01*
X020008Y010839D02*
X020458Y010839D01*
X020458Y010888D02*
X020008Y010888D01*
X020008Y010937D02*
X020458Y010937D01*
X020458Y010986D02*
X020008Y010986D01*
X020008Y011035D02*
X020458Y011035D01*
X020458Y011084D02*
X020008Y011084D01*
X020008Y011133D02*
X020458Y011133D01*
X020458Y011182D02*
X020008Y011182D01*
X020008Y011231D02*
X020458Y011231D01*
X020458Y011280D02*
X020008Y011280D01*
X020008Y011329D02*
X020458Y011329D01*
X020458Y011378D02*
X020008Y011378D01*
X020008Y011427D02*
X020458Y011427D01*
X021008Y009467D02*
X021458Y009467D01*
X021008Y009467D02*
X021008Y011433D01*
X021458Y011433D01*
X021458Y009467D01*
X021458Y009516D02*
X021008Y009516D01*
X021008Y009565D02*
X021458Y009565D01*
X021458Y009614D02*
X021008Y009614D01*
X021008Y009663D02*
X021458Y009663D01*
X021458Y009712D02*
X021008Y009712D01*
X021008Y009761D02*
X021458Y009761D01*
X021458Y009810D02*
X021008Y009810D01*
X021008Y009859D02*
X021458Y009859D01*
X021458Y009908D02*
X021008Y009908D01*
X021008Y009957D02*
X021458Y009957D01*
X021458Y010006D02*
X021008Y010006D01*
X021008Y010055D02*
X021458Y010055D01*
X021458Y010104D02*
X021008Y010104D01*
X021008Y010153D02*
X021458Y010153D01*
X021458Y010202D02*
X021008Y010202D01*
X021008Y010251D02*
X021458Y010251D01*
X021458Y010300D02*
X021008Y010300D01*
X021008Y010349D02*
X021458Y010349D01*
X021458Y010398D02*
X021008Y010398D01*
X021008Y010447D02*
X021458Y010447D01*
X021458Y010496D02*
X021008Y010496D01*
X021008Y010545D02*
X021458Y010545D01*
X021458Y010594D02*
X021008Y010594D01*
X021008Y010643D02*
X021458Y010643D01*
X021458Y010692D02*
X021008Y010692D01*
X021008Y010741D02*
X021458Y010741D01*
X021458Y010790D02*
X021008Y010790D01*
X021008Y010839D02*
X021458Y010839D01*
X021458Y010888D02*
X021008Y010888D01*
X021008Y010937D02*
X021458Y010937D01*
X021458Y010986D02*
X021008Y010986D01*
X021008Y011035D02*
X021458Y011035D01*
X021458Y011084D02*
X021008Y011084D01*
X021008Y011133D02*
X021458Y011133D01*
X021458Y011182D02*
X021008Y011182D01*
X021008Y011231D02*
X021458Y011231D01*
X021458Y011280D02*
X021008Y011280D01*
X021008Y011329D02*
X021458Y011329D01*
X021458Y011378D02*
X021008Y011378D01*
X021008Y011427D02*
X021458Y011427D01*
X022008Y009467D02*
X022458Y009467D01*
X022008Y009467D02*
X022008Y011433D01*
X022458Y011433D01*
X022458Y009467D01*
X022458Y009516D02*
X022008Y009516D01*
X022008Y009565D02*
X022458Y009565D01*
X022458Y009614D02*
X022008Y009614D01*
X022008Y009663D02*
X022458Y009663D01*
X022458Y009712D02*
X022008Y009712D01*
X022008Y009761D02*
X022458Y009761D01*
X022458Y009810D02*
X022008Y009810D01*
X022008Y009859D02*
X022458Y009859D01*
X022458Y009908D02*
X022008Y009908D01*
X022008Y009957D02*
X022458Y009957D01*
X022458Y010006D02*
X022008Y010006D01*
X022008Y010055D02*
X022458Y010055D01*
X022458Y010104D02*
X022008Y010104D01*
X022008Y010153D02*
X022458Y010153D01*
X022458Y010202D02*
X022008Y010202D01*
X022008Y010251D02*
X022458Y010251D01*
X022458Y010300D02*
X022008Y010300D01*
X022008Y010349D02*
X022458Y010349D01*
X022458Y010398D02*
X022008Y010398D01*
X022008Y010447D02*
X022458Y010447D01*
X022458Y010496D02*
X022008Y010496D01*
X022008Y010545D02*
X022458Y010545D01*
X022458Y010594D02*
X022008Y010594D01*
X022008Y010643D02*
X022458Y010643D01*
X022458Y010692D02*
X022008Y010692D01*
X022008Y010741D02*
X022458Y010741D01*
X022458Y010790D02*
X022008Y010790D01*
X022008Y010839D02*
X022458Y010839D01*
X022458Y010888D02*
X022008Y010888D01*
X022008Y010937D02*
X022458Y010937D01*
X022458Y010986D02*
X022008Y010986D01*
X022008Y011035D02*
X022458Y011035D01*
X022458Y011084D02*
X022008Y011084D01*
X022008Y011133D02*
X022458Y011133D01*
X022458Y011182D02*
X022008Y011182D01*
X022008Y011231D02*
X022458Y011231D01*
X022458Y011280D02*
X022008Y011280D01*
X022008Y011329D02*
X022458Y011329D01*
X022458Y011378D02*
X022008Y011378D01*
X022008Y011427D02*
X022458Y011427D01*
X023008Y009467D02*
X023458Y009467D01*
X023008Y009467D02*
X023008Y011433D01*
X023458Y011433D01*
X023458Y009467D01*
X023458Y009516D02*
X023008Y009516D01*
X023008Y009565D02*
X023458Y009565D01*
X023458Y009614D02*
X023008Y009614D01*
X023008Y009663D02*
X023458Y009663D01*
X023458Y009712D02*
X023008Y009712D01*
X023008Y009761D02*
X023458Y009761D01*
X023458Y009810D02*
X023008Y009810D01*
X023008Y009859D02*
X023458Y009859D01*
X023458Y009908D02*
X023008Y009908D01*
X023008Y009957D02*
X023458Y009957D01*
X023458Y010006D02*
X023008Y010006D01*
X023008Y010055D02*
X023458Y010055D01*
X023458Y010104D02*
X023008Y010104D01*
X023008Y010153D02*
X023458Y010153D01*
X023458Y010202D02*
X023008Y010202D01*
X023008Y010251D02*
X023458Y010251D01*
X023458Y010300D02*
X023008Y010300D01*
X023008Y010349D02*
X023458Y010349D01*
X023458Y010398D02*
X023008Y010398D01*
X023008Y010447D02*
X023458Y010447D01*
X023458Y010496D02*
X023008Y010496D01*
X023008Y010545D02*
X023458Y010545D01*
X023458Y010594D02*
X023008Y010594D01*
X023008Y010643D02*
X023458Y010643D01*
X023458Y010692D02*
X023008Y010692D01*
X023008Y010741D02*
X023458Y010741D01*
X023458Y010790D02*
X023008Y010790D01*
X023008Y010839D02*
X023458Y010839D01*
X023458Y010888D02*
X023008Y010888D01*
X023008Y010937D02*
X023458Y010937D01*
X023458Y010986D02*
X023008Y010986D01*
X023008Y011035D02*
X023458Y011035D01*
X023458Y011084D02*
X023008Y011084D01*
X023008Y011133D02*
X023458Y011133D01*
X023458Y011182D02*
X023008Y011182D01*
X023008Y011231D02*
X023458Y011231D01*
X023458Y011280D02*
X023008Y011280D01*
X023008Y011329D02*
X023458Y011329D01*
X023458Y011378D02*
X023008Y011378D01*
X023008Y011427D02*
X023458Y011427D01*
X024008Y009467D02*
X024458Y009467D01*
X024008Y009467D02*
X024008Y011433D01*
X024458Y011433D01*
X024458Y009467D01*
X024458Y009516D02*
X024008Y009516D01*
X024008Y009565D02*
X024458Y009565D01*
X024458Y009614D02*
X024008Y009614D01*
X024008Y009663D02*
X024458Y009663D01*
X024458Y009712D02*
X024008Y009712D01*
X024008Y009761D02*
X024458Y009761D01*
X024458Y009810D02*
X024008Y009810D01*
X024008Y009859D02*
X024458Y009859D01*
X024458Y009908D02*
X024008Y009908D01*
X024008Y009957D02*
X024458Y009957D01*
X024458Y010006D02*
X024008Y010006D01*
X024008Y010055D02*
X024458Y010055D01*
X024458Y010104D02*
X024008Y010104D01*
X024008Y010153D02*
X024458Y010153D01*
X024458Y010202D02*
X024008Y010202D01*
X024008Y010251D02*
X024458Y010251D01*
X024458Y010300D02*
X024008Y010300D01*
X024008Y010349D02*
X024458Y010349D01*
X024458Y010398D02*
X024008Y010398D01*
X024008Y010447D02*
X024458Y010447D01*
X024458Y010496D02*
X024008Y010496D01*
X024008Y010545D02*
X024458Y010545D01*
X024458Y010594D02*
X024008Y010594D01*
X024008Y010643D02*
X024458Y010643D01*
X024458Y010692D02*
X024008Y010692D01*
X024008Y010741D02*
X024458Y010741D01*
X024458Y010790D02*
X024008Y010790D01*
X024008Y010839D02*
X024458Y010839D01*
X024458Y010888D02*
X024008Y010888D01*
X024008Y010937D02*
X024458Y010937D01*
X024458Y010986D02*
X024008Y010986D01*
X024008Y011035D02*
X024458Y011035D01*
X024458Y011084D02*
X024008Y011084D01*
X024008Y011133D02*
X024458Y011133D01*
X024458Y011182D02*
X024008Y011182D01*
X024008Y011231D02*
X024458Y011231D01*
X024458Y011280D02*
X024008Y011280D01*
X024008Y011329D02*
X024458Y011329D01*
X024458Y011378D02*
X024008Y011378D01*
X024008Y011427D02*
X024458Y011427D01*
X025008Y009467D02*
X025458Y009467D01*
X025008Y009467D02*
X025008Y011433D01*
X025458Y011433D01*
X025458Y009467D01*
X025458Y009516D02*
X025008Y009516D01*
X025008Y009565D02*
X025458Y009565D01*
X025458Y009614D02*
X025008Y009614D01*
X025008Y009663D02*
X025458Y009663D01*
X025458Y009712D02*
X025008Y009712D01*
X025008Y009761D02*
X025458Y009761D01*
X025458Y009810D02*
X025008Y009810D01*
X025008Y009859D02*
X025458Y009859D01*
X025458Y009908D02*
X025008Y009908D01*
X025008Y009957D02*
X025458Y009957D01*
X025458Y010006D02*
X025008Y010006D01*
X025008Y010055D02*
X025458Y010055D01*
X025458Y010104D02*
X025008Y010104D01*
X025008Y010153D02*
X025458Y010153D01*
X025458Y010202D02*
X025008Y010202D01*
X025008Y010251D02*
X025458Y010251D01*
X025458Y010300D02*
X025008Y010300D01*
X025008Y010349D02*
X025458Y010349D01*
X025458Y010398D02*
X025008Y010398D01*
X025008Y010447D02*
X025458Y010447D01*
X025458Y010496D02*
X025008Y010496D01*
X025008Y010545D02*
X025458Y010545D01*
X025458Y010594D02*
X025008Y010594D01*
X025008Y010643D02*
X025458Y010643D01*
X025458Y010692D02*
X025008Y010692D01*
X025008Y010741D02*
X025458Y010741D01*
X025458Y010790D02*
X025008Y010790D01*
X025008Y010839D02*
X025458Y010839D01*
X025458Y010888D02*
X025008Y010888D01*
X025008Y010937D02*
X025458Y010937D01*
X025458Y010986D02*
X025008Y010986D01*
X025008Y011035D02*
X025458Y011035D01*
X025458Y011084D02*
X025008Y011084D01*
X025008Y011133D02*
X025458Y011133D01*
X025458Y011182D02*
X025008Y011182D01*
X025008Y011231D02*
X025458Y011231D01*
X025458Y011280D02*
X025008Y011280D01*
X025008Y011329D02*
X025458Y011329D01*
X025458Y011378D02*
X025008Y011378D01*
X025008Y011427D02*
X025458Y011427D01*
X026008Y009467D02*
X026458Y009467D01*
X026008Y009467D02*
X026008Y011433D01*
X026458Y011433D01*
X026458Y009467D01*
X026458Y009516D02*
X026008Y009516D01*
X026008Y009565D02*
X026458Y009565D01*
X026458Y009614D02*
X026008Y009614D01*
X026008Y009663D02*
X026458Y009663D01*
X026458Y009712D02*
X026008Y009712D01*
X026008Y009761D02*
X026458Y009761D01*
X026458Y009810D02*
X026008Y009810D01*
X026008Y009859D02*
X026458Y009859D01*
X026458Y009908D02*
X026008Y009908D01*
X026008Y009957D02*
X026458Y009957D01*
X026458Y010006D02*
X026008Y010006D01*
X026008Y010055D02*
X026458Y010055D01*
X026458Y010104D02*
X026008Y010104D01*
X026008Y010153D02*
X026458Y010153D01*
X026458Y010202D02*
X026008Y010202D01*
X026008Y010251D02*
X026458Y010251D01*
X026458Y010300D02*
X026008Y010300D01*
X026008Y010349D02*
X026458Y010349D01*
X026458Y010398D02*
X026008Y010398D01*
X026008Y010447D02*
X026458Y010447D01*
X026458Y010496D02*
X026008Y010496D01*
X026008Y010545D02*
X026458Y010545D01*
X026458Y010594D02*
X026008Y010594D01*
X026008Y010643D02*
X026458Y010643D01*
X026458Y010692D02*
X026008Y010692D01*
X026008Y010741D02*
X026458Y010741D01*
X026458Y010790D02*
X026008Y010790D01*
X026008Y010839D02*
X026458Y010839D01*
X026458Y010888D02*
X026008Y010888D01*
X026008Y010937D02*
X026458Y010937D01*
X026458Y010986D02*
X026008Y010986D01*
X026008Y011035D02*
X026458Y011035D01*
X026458Y011084D02*
X026008Y011084D01*
X026008Y011133D02*
X026458Y011133D01*
X026458Y011182D02*
X026008Y011182D01*
X026008Y011231D02*
X026458Y011231D01*
X026458Y011280D02*
X026008Y011280D01*
X026008Y011329D02*
X026458Y011329D01*
X026458Y011378D02*
X026008Y011378D01*
X026008Y011427D02*
X026458Y011427D01*
X027008Y009467D02*
X027458Y009467D01*
X027008Y009467D02*
X027008Y011433D01*
X027458Y011433D01*
X027458Y009467D01*
X027458Y009516D02*
X027008Y009516D01*
X027008Y009565D02*
X027458Y009565D01*
X027458Y009614D02*
X027008Y009614D01*
X027008Y009663D02*
X027458Y009663D01*
X027458Y009712D02*
X027008Y009712D01*
X027008Y009761D02*
X027458Y009761D01*
X027458Y009810D02*
X027008Y009810D01*
X027008Y009859D02*
X027458Y009859D01*
X027458Y009908D02*
X027008Y009908D01*
X027008Y009957D02*
X027458Y009957D01*
X027458Y010006D02*
X027008Y010006D01*
X027008Y010055D02*
X027458Y010055D01*
X027458Y010104D02*
X027008Y010104D01*
X027008Y010153D02*
X027458Y010153D01*
X027458Y010202D02*
X027008Y010202D01*
X027008Y010251D02*
X027458Y010251D01*
X027458Y010300D02*
X027008Y010300D01*
X027008Y010349D02*
X027458Y010349D01*
X027458Y010398D02*
X027008Y010398D01*
X027008Y010447D02*
X027458Y010447D01*
X027458Y010496D02*
X027008Y010496D01*
X027008Y010545D02*
X027458Y010545D01*
X027458Y010594D02*
X027008Y010594D01*
X027008Y010643D02*
X027458Y010643D01*
X027458Y010692D02*
X027008Y010692D01*
X027008Y010741D02*
X027458Y010741D01*
X027458Y010790D02*
X027008Y010790D01*
X027008Y010839D02*
X027458Y010839D01*
X027458Y010888D02*
X027008Y010888D01*
X027008Y010937D02*
X027458Y010937D01*
X027458Y010986D02*
X027008Y010986D01*
X027008Y011035D02*
X027458Y011035D01*
X027458Y011084D02*
X027008Y011084D01*
X027008Y011133D02*
X027458Y011133D01*
X027458Y011182D02*
X027008Y011182D01*
X027008Y011231D02*
X027458Y011231D01*
X027458Y011280D02*
X027008Y011280D01*
X027008Y011329D02*
X027458Y011329D01*
X027458Y011378D02*
X027008Y011378D01*
X027008Y011427D02*
X027458Y011427D01*
X028008Y009467D02*
X028458Y009467D01*
X028008Y009467D02*
X028008Y011433D01*
X028458Y011433D01*
X028458Y009467D01*
X028458Y009516D02*
X028008Y009516D01*
X028008Y009565D02*
X028458Y009565D01*
X028458Y009614D02*
X028008Y009614D01*
X028008Y009663D02*
X028458Y009663D01*
X028458Y009712D02*
X028008Y009712D01*
X028008Y009761D02*
X028458Y009761D01*
X028458Y009810D02*
X028008Y009810D01*
X028008Y009859D02*
X028458Y009859D01*
X028458Y009908D02*
X028008Y009908D01*
X028008Y009957D02*
X028458Y009957D01*
X028458Y010006D02*
X028008Y010006D01*
X028008Y010055D02*
X028458Y010055D01*
X028458Y010104D02*
X028008Y010104D01*
X028008Y010153D02*
X028458Y010153D01*
X028458Y010202D02*
X028008Y010202D01*
X028008Y010251D02*
X028458Y010251D01*
X028458Y010300D02*
X028008Y010300D01*
X028008Y010349D02*
X028458Y010349D01*
X028458Y010398D02*
X028008Y010398D01*
X028008Y010447D02*
X028458Y010447D01*
X028458Y010496D02*
X028008Y010496D01*
X028008Y010545D02*
X028458Y010545D01*
X028458Y010594D02*
X028008Y010594D01*
X028008Y010643D02*
X028458Y010643D01*
X028458Y010692D02*
X028008Y010692D01*
X028008Y010741D02*
X028458Y010741D01*
X028458Y010790D02*
X028008Y010790D01*
X028008Y010839D02*
X028458Y010839D01*
X028458Y010888D02*
X028008Y010888D01*
X028008Y010937D02*
X028458Y010937D01*
X028458Y010986D02*
X028008Y010986D01*
X028008Y011035D02*
X028458Y011035D01*
X028458Y011084D02*
X028008Y011084D01*
X028008Y011133D02*
X028458Y011133D01*
X028458Y011182D02*
X028008Y011182D01*
X028008Y011231D02*
X028458Y011231D01*
X028458Y011280D02*
X028008Y011280D01*
X028008Y011329D02*
X028458Y011329D01*
X028458Y011378D02*
X028008Y011378D01*
X028008Y011427D02*
X028458Y011427D01*
X029008Y009467D02*
X029458Y009467D01*
X029008Y009467D02*
X029008Y011433D01*
X029458Y011433D01*
X029458Y009467D01*
X029458Y009516D02*
X029008Y009516D01*
X029008Y009565D02*
X029458Y009565D01*
X029458Y009614D02*
X029008Y009614D01*
X029008Y009663D02*
X029458Y009663D01*
X029458Y009712D02*
X029008Y009712D01*
X029008Y009761D02*
X029458Y009761D01*
X029458Y009810D02*
X029008Y009810D01*
X029008Y009859D02*
X029458Y009859D01*
X029458Y009908D02*
X029008Y009908D01*
X029008Y009957D02*
X029458Y009957D01*
X029458Y010006D02*
X029008Y010006D01*
X029008Y010055D02*
X029458Y010055D01*
X029458Y010104D02*
X029008Y010104D01*
X029008Y010153D02*
X029458Y010153D01*
X029458Y010202D02*
X029008Y010202D01*
X029008Y010251D02*
X029458Y010251D01*
X029458Y010300D02*
X029008Y010300D01*
X029008Y010349D02*
X029458Y010349D01*
X029458Y010398D02*
X029008Y010398D01*
X029008Y010447D02*
X029458Y010447D01*
X029458Y010496D02*
X029008Y010496D01*
X029008Y010545D02*
X029458Y010545D01*
X029458Y010594D02*
X029008Y010594D01*
X029008Y010643D02*
X029458Y010643D01*
X029458Y010692D02*
X029008Y010692D01*
X029008Y010741D02*
X029458Y010741D01*
X029458Y010790D02*
X029008Y010790D01*
X029008Y010839D02*
X029458Y010839D01*
X029458Y010888D02*
X029008Y010888D01*
X029008Y010937D02*
X029458Y010937D01*
X029458Y010986D02*
X029008Y010986D01*
X029008Y011035D02*
X029458Y011035D01*
X029458Y011084D02*
X029008Y011084D01*
X029008Y011133D02*
X029458Y011133D01*
X029458Y011182D02*
X029008Y011182D01*
X029008Y011231D02*
X029458Y011231D01*
X029458Y011280D02*
X029008Y011280D01*
X029008Y011329D02*
X029458Y011329D01*
X029458Y011378D02*
X029008Y011378D01*
X029008Y011427D02*
X029458Y011427D01*
X030008Y009467D02*
X030458Y009467D01*
X030008Y009467D02*
X030008Y011433D01*
X030458Y011433D01*
X030458Y009467D01*
X030458Y009516D02*
X030008Y009516D01*
X030008Y009565D02*
X030458Y009565D01*
X030458Y009614D02*
X030008Y009614D01*
X030008Y009663D02*
X030458Y009663D01*
X030458Y009712D02*
X030008Y009712D01*
X030008Y009761D02*
X030458Y009761D01*
X030458Y009810D02*
X030008Y009810D01*
X030008Y009859D02*
X030458Y009859D01*
X030458Y009908D02*
X030008Y009908D01*
X030008Y009957D02*
X030458Y009957D01*
X030458Y010006D02*
X030008Y010006D01*
X030008Y010055D02*
X030458Y010055D01*
X030458Y010104D02*
X030008Y010104D01*
X030008Y010153D02*
X030458Y010153D01*
X030458Y010202D02*
X030008Y010202D01*
X030008Y010251D02*
X030458Y010251D01*
X030458Y010300D02*
X030008Y010300D01*
X030008Y010349D02*
X030458Y010349D01*
X030458Y010398D02*
X030008Y010398D01*
X030008Y010447D02*
X030458Y010447D01*
X030458Y010496D02*
X030008Y010496D01*
X030008Y010545D02*
X030458Y010545D01*
X030458Y010594D02*
X030008Y010594D01*
X030008Y010643D02*
X030458Y010643D01*
X030458Y010692D02*
X030008Y010692D01*
X030008Y010741D02*
X030458Y010741D01*
X030458Y010790D02*
X030008Y010790D01*
X030008Y010839D02*
X030458Y010839D01*
X030458Y010888D02*
X030008Y010888D01*
X030008Y010937D02*
X030458Y010937D01*
X030458Y010986D02*
X030008Y010986D01*
X030008Y011035D02*
X030458Y011035D01*
X030458Y011084D02*
X030008Y011084D01*
X030008Y011133D02*
X030458Y011133D01*
X030458Y011182D02*
X030008Y011182D01*
X030008Y011231D02*
X030458Y011231D01*
X030458Y011280D02*
X030008Y011280D01*
X030008Y011329D02*
X030458Y011329D01*
X030458Y011378D02*
X030008Y011378D01*
X030008Y011427D02*
X030458Y011427D01*
X031008Y009467D02*
X031458Y009467D01*
X031008Y009467D02*
X031008Y011433D01*
X031458Y011433D01*
X031458Y009467D01*
X031458Y009516D02*
X031008Y009516D01*
X031008Y009565D02*
X031458Y009565D01*
X031458Y009614D02*
X031008Y009614D01*
X031008Y009663D02*
X031458Y009663D01*
X031458Y009712D02*
X031008Y009712D01*
X031008Y009761D02*
X031458Y009761D01*
X031458Y009810D02*
X031008Y009810D01*
X031008Y009859D02*
X031458Y009859D01*
X031458Y009908D02*
X031008Y009908D01*
X031008Y009957D02*
X031458Y009957D01*
X031458Y010006D02*
X031008Y010006D01*
X031008Y010055D02*
X031458Y010055D01*
X031458Y010104D02*
X031008Y010104D01*
X031008Y010153D02*
X031458Y010153D01*
X031458Y010202D02*
X031008Y010202D01*
X031008Y010251D02*
X031458Y010251D01*
X031458Y010300D02*
X031008Y010300D01*
X031008Y010349D02*
X031458Y010349D01*
X031458Y010398D02*
X031008Y010398D01*
X031008Y010447D02*
X031458Y010447D01*
X031458Y010496D02*
X031008Y010496D01*
X031008Y010545D02*
X031458Y010545D01*
X031458Y010594D02*
X031008Y010594D01*
X031008Y010643D02*
X031458Y010643D01*
X031458Y010692D02*
X031008Y010692D01*
X031008Y010741D02*
X031458Y010741D01*
X031458Y010790D02*
X031008Y010790D01*
X031008Y010839D02*
X031458Y010839D01*
X031458Y010888D02*
X031008Y010888D01*
X031008Y010937D02*
X031458Y010937D01*
X031458Y010986D02*
X031008Y010986D01*
X031008Y011035D02*
X031458Y011035D01*
X031458Y011084D02*
X031008Y011084D01*
X031008Y011133D02*
X031458Y011133D01*
X031458Y011182D02*
X031008Y011182D01*
X031008Y011231D02*
X031458Y011231D01*
X031458Y011280D02*
X031008Y011280D01*
X031008Y011329D02*
X031458Y011329D01*
X031458Y011378D02*
X031008Y011378D01*
X031008Y011427D02*
X031458Y011427D01*
X032008Y009467D02*
X032458Y009467D01*
X032008Y009467D02*
X032008Y011433D01*
X032458Y011433D01*
X032458Y009467D01*
X032458Y009516D02*
X032008Y009516D01*
X032008Y009565D02*
X032458Y009565D01*
X032458Y009614D02*
X032008Y009614D01*
X032008Y009663D02*
X032458Y009663D01*
X032458Y009712D02*
X032008Y009712D01*
X032008Y009761D02*
X032458Y009761D01*
X032458Y009810D02*
X032008Y009810D01*
X032008Y009859D02*
X032458Y009859D01*
X032458Y009908D02*
X032008Y009908D01*
X032008Y009957D02*
X032458Y009957D01*
X032458Y010006D02*
X032008Y010006D01*
X032008Y010055D02*
X032458Y010055D01*
X032458Y010104D02*
X032008Y010104D01*
X032008Y010153D02*
X032458Y010153D01*
X032458Y010202D02*
X032008Y010202D01*
X032008Y010251D02*
X032458Y010251D01*
X032458Y010300D02*
X032008Y010300D01*
X032008Y010349D02*
X032458Y010349D01*
X032458Y010398D02*
X032008Y010398D01*
X032008Y010447D02*
X032458Y010447D01*
X032458Y010496D02*
X032008Y010496D01*
X032008Y010545D02*
X032458Y010545D01*
X032458Y010594D02*
X032008Y010594D01*
X032008Y010643D02*
X032458Y010643D01*
X032458Y010692D02*
X032008Y010692D01*
X032008Y010741D02*
X032458Y010741D01*
X032458Y010790D02*
X032008Y010790D01*
X032008Y010839D02*
X032458Y010839D01*
X032458Y010888D02*
X032008Y010888D01*
X032008Y010937D02*
X032458Y010937D01*
X032458Y010986D02*
X032008Y010986D01*
X032008Y011035D02*
X032458Y011035D01*
X032458Y011084D02*
X032008Y011084D01*
X032008Y011133D02*
X032458Y011133D01*
X032458Y011182D02*
X032008Y011182D01*
X032008Y011231D02*
X032458Y011231D01*
X032458Y011280D02*
X032008Y011280D01*
X032008Y011329D02*
X032458Y011329D01*
X032458Y011378D02*
X032008Y011378D01*
X032008Y011427D02*
X032458Y011427D01*
X033008Y009467D02*
X033458Y009467D01*
X033008Y009467D02*
X033008Y011433D01*
X033458Y011433D01*
X033458Y009467D01*
X033458Y009516D02*
X033008Y009516D01*
X033008Y009565D02*
X033458Y009565D01*
X033458Y009614D02*
X033008Y009614D01*
X033008Y009663D02*
X033458Y009663D01*
X033458Y009712D02*
X033008Y009712D01*
X033008Y009761D02*
X033458Y009761D01*
X033458Y009810D02*
X033008Y009810D01*
X033008Y009859D02*
X033458Y009859D01*
X033458Y009908D02*
X033008Y009908D01*
X033008Y009957D02*
X033458Y009957D01*
X033458Y010006D02*
X033008Y010006D01*
X033008Y010055D02*
X033458Y010055D01*
X033458Y010104D02*
X033008Y010104D01*
X033008Y010153D02*
X033458Y010153D01*
X033458Y010202D02*
X033008Y010202D01*
X033008Y010251D02*
X033458Y010251D01*
X033458Y010300D02*
X033008Y010300D01*
X033008Y010349D02*
X033458Y010349D01*
X033458Y010398D02*
X033008Y010398D01*
X033008Y010447D02*
X033458Y010447D01*
X033458Y010496D02*
X033008Y010496D01*
X033008Y010545D02*
X033458Y010545D01*
X033458Y010594D02*
X033008Y010594D01*
X033008Y010643D02*
X033458Y010643D01*
X033458Y010692D02*
X033008Y010692D01*
X033008Y010741D02*
X033458Y010741D01*
X033458Y010790D02*
X033008Y010790D01*
X033008Y010839D02*
X033458Y010839D01*
X033458Y010888D02*
X033008Y010888D01*
X033008Y010937D02*
X033458Y010937D01*
X033458Y010986D02*
X033008Y010986D01*
X033008Y011035D02*
X033458Y011035D01*
X033458Y011084D02*
X033008Y011084D01*
X033008Y011133D02*
X033458Y011133D01*
X033458Y011182D02*
X033008Y011182D01*
X033008Y011231D02*
X033458Y011231D01*
X033458Y011280D02*
X033008Y011280D01*
X033008Y011329D02*
X033458Y011329D01*
X033458Y011378D02*
X033008Y011378D01*
X033008Y011427D02*
X033458Y011427D01*
X034008Y009467D02*
X034458Y009467D01*
X034008Y009467D02*
X034008Y011433D01*
X034458Y011433D01*
X034458Y009467D01*
X034458Y009516D02*
X034008Y009516D01*
X034008Y009565D02*
X034458Y009565D01*
X034458Y009614D02*
X034008Y009614D01*
X034008Y009663D02*
X034458Y009663D01*
X034458Y009712D02*
X034008Y009712D01*
X034008Y009761D02*
X034458Y009761D01*
X034458Y009810D02*
X034008Y009810D01*
X034008Y009859D02*
X034458Y009859D01*
X034458Y009908D02*
X034008Y009908D01*
X034008Y009957D02*
X034458Y009957D01*
X034458Y010006D02*
X034008Y010006D01*
X034008Y010055D02*
X034458Y010055D01*
X034458Y010104D02*
X034008Y010104D01*
X034008Y010153D02*
X034458Y010153D01*
X034458Y010202D02*
X034008Y010202D01*
X034008Y010251D02*
X034458Y010251D01*
X034458Y010300D02*
X034008Y010300D01*
X034008Y010349D02*
X034458Y010349D01*
X034458Y010398D02*
X034008Y010398D01*
X034008Y010447D02*
X034458Y010447D01*
X034458Y010496D02*
X034008Y010496D01*
X034008Y010545D02*
X034458Y010545D01*
X034458Y010594D02*
X034008Y010594D01*
X034008Y010643D02*
X034458Y010643D01*
X034458Y010692D02*
X034008Y010692D01*
X034008Y010741D02*
X034458Y010741D01*
X034458Y010790D02*
X034008Y010790D01*
X034008Y010839D02*
X034458Y010839D01*
X034458Y010888D02*
X034008Y010888D01*
X034008Y010937D02*
X034458Y010937D01*
X034458Y010986D02*
X034008Y010986D01*
X034008Y011035D02*
X034458Y011035D01*
X034458Y011084D02*
X034008Y011084D01*
X034008Y011133D02*
X034458Y011133D01*
X034458Y011182D02*
X034008Y011182D01*
X034008Y011231D02*
X034458Y011231D01*
X034458Y011280D02*
X034008Y011280D01*
X034008Y011329D02*
X034458Y011329D01*
X034458Y011378D02*
X034008Y011378D01*
X034008Y011427D02*
X034458Y011427D01*
X035008Y009467D02*
X035458Y009467D01*
X035008Y009467D02*
X035008Y011433D01*
X035458Y011433D01*
X035458Y009467D01*
X035458Y009516D02*
X035008Y009516D01*
X035008Y009565D02*
X035458Y009565D01*
X035458Y009614D02*
X035008Y009614D01*
X035008Y009663D02*
X035458Y009663D01*
X035458Y009712D02*
X035008Y009712D01*
X035008Y009761D02*
X035458Y009761D01*
X035458Y009810D02*
X035008Y009810D01*
X035008Y009859D02*
X035458Y009859D01*
X035458Y009908D02*
X035008Y009908D01*
X035008Y009957D02*
X035458Y009957D01*
X035458Y010006D02*
X035008Y010006D01*
X035008Y010055D02*
X035458Y010055D01*
X035458Y010104D02*
X035008Y010104D01*
X035008Y010153D02*
X035458Y010153D01*
X035458Y010202D02*
X035008Y010202D01*
X035008Y010251D02*
X035458Y010251D01*
X035458Y010300D02*
X035008Y010300D01*
X035008Y010349D02*
X035458Y010349D01*
X035458Y010398D02*
X035008Y010398D01*
X035008Y010447D02*
X035458Y010447D01*
X035458Y010496D02*
X035008Y010496D01*
X035008Y010545D02*
X035458Y010545D01*
X035458Y010594D02*
X035008Y010594D01*
X035008Y010643D02*
X035458Y010643D01*
X035458Y010692D02*
X035008Y010692D01*
X035008Y010741D02*
X035458Y010741D01*
X035458Y010790D02*
X035008Y010790D01*
X035008Y010839D02*
X035458Y010839D01*
X035458Y010888D02*
X035008Y010888D01*
X035008Y010937D02*
X035458Y010937D01*
X035458Y010986D02*
X035008Y010986D01*
X035008Y011035D02*
X035458Y011035D01*
X035458Y011084D02*
X035008Y011084D01*
X035008Y011133D02*
X035458Y011133D01*
X035458Y011182D02*
X035008Y011182D01*
X035008Y011231D02*
X035458Y011231D01*
X035458Y011280D02*
X035008Y011280D01*
X035008Y011329D02*
X035458Y011329D01*
X035458Y011378D02*
X035008Y011378D01*
X035008Y011427D02*
X035458Y011427D01*
X036008Y009467D02*
X036458Y009467D01*
X036008Y009467D02*
X036008Y011433D01*
X036458Y011433D01*
X036458Y009467D01*
X036458Y009516D02*
X036008Y009516D01*
X036008Y009565D02*
X036458Y009565D01*
X036458Y009614D02*
X036008Y009614D01*
X036008Y009663D02*
X036458Y009663D01*
X036458Y009712D02*
X036008Y009712D01*
X036008Y009761D02*
X036458Y009761D01*
X036458Y009810D02*
X036008Y009810D01*
X036008Y009859D02*
X036458Y009859D01*
X036458Y009908D02*
X036008Y009908D01*
X036008Y009957D02*
X036458Y009957D01*
X036458Y010006D02*
X036008Y010006D01*
X036008Y010055D02*
X036458Y010055D01*
X036458Y010104D02*
X036008Y010104D01*
X036008Y010153D02*
X036458Y010153D01*
X036458Y010202D02*
X036008Y010202D01*
X036008Y010251D02*
X036458Y010251D01*
X036458Y010300D02*
X036008Y010300D01*
X036008Y010349D02*
X036458Y010349D01*
X036458Y010398D02*
X036008Y010398D01*
X036008Y010447D02*
X036458Y010447D01*
X036458Y010496D02*
X036008Y010496D01*
X036008Y010545D02*
X036458Y010545D01*
X036458Y010594D02*
X036008Y010594D01*
X036008Y010643D02*
X036458Y010643D01*
X036458Y010692D02*
X036008Y010692D01*
X036008Y010741D02*
X036458Y010741D01*
X036458Y010790D02*
X036008Y010790D01*
X036008Y010839D02*
X036458Y010839D01*
X036458Y010888D02*
X036008Y010888D01*
X036008Y010937D02*
X036458Y010937D01*
X036458Y010986D02*
X036008Y010986D01*
X036008Y011035D02*
X036458Y011035D01*
X036458Y011084D02*
X036008Y011084D01*
X036008Y011133D02*
X036458Y011133D01*
X036458Y011182D02*
X036008Y011182D01*
X036008Y011231D02*
X036458Y011231D01*
X036458Y011280D02*
X036008Y011280D01*
X036008Y011329D02*
X036458Y011329D01*
X036458Y011378D02*
X036008Y011378D01*
X036008Y011427D02*
X036458Y011427D01*
X037008Y009467D02*
X037458Y009467D01*
X037008Y009467D02*
X037008Y011433D01*
X037458Y011433D01*
X037458Y009467D01*
X037458Y009516D02*
X037008Y009516D01*
X037008Y009565D02*
X037458Y009565D01*
X037458Y009614D02*
X037008Y009614D01*
X037008Y009663D02*
X037458Y009663D01*
X037458Y009712D02*
X037008Y009712D01*
X037008Y009761D02*
X037458Y009761D01*
X037458Y009810D02*
X037008Y009810D01*
X037008Y009859D02*
X037458Y009859D01*
X037458Y009908D02*
X037008Y009908D01*
X037008Y009957D02*
X037458Y009957D01*
X037458Y010006D02*
X037008Y010006D01*
X037008Y010055D02*
X037458Y010055D01*
X037458Y010104D02*
X037008Y010104D01*
X037008Y010153D02*
X037458Y010153D01*
X037458Y010202D02*
X037008Y010202D01*
X037008Y010251D02*
X037458Y010251D01*
X037458Y010300D02*
X037008Y010300D01*
X037008Y010349D02*
X037458Y010349D01*
X037458Y010398D02*
X037008Y010398D01*
X037008Y010447D02*
X037458Y010447D01*
X037458Y010496D02*
X037008Y010496D01*
X037008Y010545D02*
X037458Y010545D01*
X037458Y010594D02*
X037008Y010594D01*
X037008Y010643D02*
X037458Y010643D01*
X037458Y010692D02*
X037008Y010692D01*
X037008Y010741D02*
X037458Y010741D01*
X037458Y010790D02*
X037008Y010790D01*
X037008Y010839D02*
X037458Y010839D01*
X037458Y010888D02*
X037008Y010888D01*
X037008Y010937D02*
X037458Y010937D01*
X037458Y010986D02*
X037008Y010986D01*
X037008Y011035D02*
X037458Y011035D01*
X037458Y011084D02*
X037008Y011084D01*
X037008Y011133D02*
X037458Y011133D01*
X037458Y011182D02*
X037008Y011182D01*
X037008Y011231D02*
X037458Y011231D01*
X037458Y011280D02*
X037008Y011280D01*
X037008Y011329D02*
X037458Y011329D01*
X037458Y011378D02*
X037008Y011378D01*
X037008Y011427D02*
X037458Y011427D01*
X038008Y009467D02*
X038458Y009467D01*
X038008Y009467D02*
X038008Y011433D01*
X038458Y011433D01*
X038458Y009467D01*
X038458Y009516D02*
X038008Y009516D01*
X038008Y009565D02*
X038458Y009565D01*
X038458Y009614D02*
X038008Y009614D01*
X038008Y009663D02*
X038458Y009663D01*
X038458Y009712D02*
X038008Y009712D01*
X038008Y009761D02*
X038458Y009761D01*
X038458Y009810D02*
X038008Y009810D01*
X038008Y009859D02*
X038458Y009859D01*
X038458Y009908D02*
X038008Y009908D01*
X038008Y009957D02*
X038458Y009957D01*
X038458Y010006D02*
X038008Y010006D01*
X038008Y010055D02*
X038458Y010055D01*
X038458Y010104D02*
X038008Y010104D01*
X038008Y010153D02*
X038458Y010153D01*
X038458Y010202D02*
X038008Y010202D01*
X038008Y010251D02*
X038458Y010251D01*
X038458Y010300D02*
X038008Y010300D01*
X038008Y010349D02*
X038458Y010349D01*
X038458Y010398D02*
X038008Y010398D01*
X038008Y010447D02*
X038458Y010447D01*
X038458Y010496D02*
X038008Y010496D01*
X038008Y010545D02*
X038458Y010545D01*
X038458Y010594D02*
X038008Y010594D01*
X038008Y010643D02*
X038458Y010643D01*
X038458Y010692D02*
X038008Y010692D01*
X038008Y010741D02*
X038458Y010741D01*
X038458Y010790D02*
X038008Y010790D01*
X038008Y010839D02*
X038458Y010839D01*
X038458Y010888D02*
X038008Y010888D01*
X038008Y010937D02*
X038458Y010937D01*
X038458Y010986D02*
X038008Y010986D01*
X038008Y011035D02*
X038458Y011035D01*
X038458Y011084D02*
X038008Y011084D01*
X038008Y011133D02*
X038458Y011133D01*
X038458Y011182D02*
X038008Y011182D01*
X038008Y011231D02*
X038458Y011231D01*
X038458Y011280D02*
X038008Y011280D01*
X038008Y011329D02*
X038458Y011329D01*
X038458Y011378D02*
X038008Y011378D01*
X038008Y011427D02*
X038458Y011427D01*
X038458Y006517D02*
X038008Y006517D01*
X038008Y008483D01*
X038458Y008483D01*
X038458Y006517D01*
X038458Y006566D02*
X038008Y006566D01*
X038008Y006615D02*
X038458Y006615D01*
X038458Y006664D02*
X038008Y006664D01*
X038008Y006713D02*
X038458Y006713D01*
X038458Y006762D02*
X038008Y006762D01*
X038008Y006811D02*
X038458Y006811D01*
X038458Y006860D02*
X038008Y006860D01*
X038008Y006909D02*
X038458Y006909D01*
X038458Y006958D02*
X038008Y006958D01*
X038008Y007007D02*
X038458Y007007D01*
X038458Y007056D02*
X038008Y007056D01*
X038008Y007105D02*
X038458Y007105D01*
X038458Y007154D02*
X038008Y007154D01*
X038008Y007203D02*
X038458Y007203D01*
X038458Y007252D02*
X038008Y007252D01*
X038008Y007301D02*
X038458Y007301D01*
X038458Y007350D02*
X038008Y007350D01*
X038008Y007399D02*
X038458Y007399D01*
X038458Y007448D02*
X038008Y007448D01*
X038008Y007497D02*
X038458Y007497D01*
X038458Y007546D02*
X038008Y007546D01*
X038008Y007595D02*
X038458Y007595D01*
X038458Y007644D02*
X038008Y007644D01*
X038008Y007693D02*
X038458Y007693D01*
X038458Y007742D02*
X038008Y007742D01*
X038008Y007791D02*
X038458Y007791D01*
X038458Y007840D02*
X038008Y007840D01*
X038008Y007889D02*
X038458Y007889D01*
X038458Y007938D02*
X038008Y007938D01*
X038008Y007987D02*
X038458Y007987D01*
X038458Y008036D02*
X038008Y008036D01*
X038008Y008085D02*
X038458Y008085D01*
X038458Y008134D02*
X038008Y008134D01*
X038008Y008183D02*
X038458Y008183D01*
X038458Y008232D02*
X038008Y008232D01*
X038008Y008281D02*
X038458Y008281D01*
X038458Y008330D02*
X038008Y008330D01*
X038008Y008379D02*
X038458Y008379D01*
X038458Y008428D02*
X038008Y008428D01*
X038008Y008477D02*
X038458Y008477D01*
X037458Y006517D02*
X037008Y006517D01*
X037008Y008483D01*
X037458Y008483D01*
X037458Y006517D01*
X037458Y006566D02*
X037008Y006566D01*
X037008Y006615D02*
X037458Y006615D01*
X037458Y006664D02*
X037008Y006664D01*
X037008Y006713D02*
X037458Y006713D01*
X037458Y006762D02*
X037008Y006762D01*
X037008Y006811D02*
X037458Y006811D01*
X037458Y006860D02*
X037008Y006860D01*
X037008Y006909D02*
X037458Y006909D01*
X037458Y006958D02*
X037008Y006958D01*
X037008Y007007D02*
X037458Y007007D01*
X037458Y007056D02*
X037008Y007056D01*
X037008Y007105D02*
X037458Y007105D01*
X037458Y007154D02*
X037008Y007154D01*
X037008Y007203D02*
X037458Y007203D01*
X037458Y007252D02*
X037008Y007252D01*
X037008Y007301D02*
X037458Y007301D01*
X037458Y007350D02*
X037008Y007350D01*
X037008Y007399D02*
X037458Y007399D01*
X037458Y007448D02*
X037008Y007448D01*
X037008Y007497D02*
X037458Y007497D01*
X037458Y007546D02*
X037008Y007546D01*
X037008Y007595D02*
X037458Y007595D01*
X037458Y007644D02*
X037008Y007644D01*
X037008Y007693D02*
X037458Y007693D01*
X037458Y007742D02*
X037008Y007742D01*
X037008Y007791D02*
X037458Y007791D01*
X037458Y007840D02*
X037008Y007840D01*
X037008Y007889D02*
X037458Y007889D01*
X037458Y007938D02*
X037008Y007938D01*
X037008Y007987D02*
X037458Y007987D01*
X037458Y008036D02*
X037008Y008036D01*
X037008Y008085D02*
X037458Y008085D01*
X037458Y008134D02*
X037008Y008134D01*
X037008Y008183D02*
X037458Y008183D01*
X037458Y008232D02*
X037008Y008232D01*
X037008Y008281D02*
X037458Y008281D01*
X037458Y008330D02*
X037008Y008330D01*
X037008Y008379D02*
X037458Y008379D01*
X037458Y008428D02*
X037008Y008428D01*
X037008Y008477D02*
X037458Y008477D01*
X036458Y006517D02*
X036008Y006517D01*
X036008Y008483D01*
X036458Y008483D01*
X036458Y006517D01*
X036458Y006566D02*
X036008Y006566D01*
X036008Y006615D02*
X036458Y006615D01*
X036458Y006664D02*
X036008Y006664D01*
X036008Y006713D02*
X036458Y006713D01*
X036458Y006762D02*
X036008Y006762D01*
X036008Y006811D02*
X036458Y006811D01*
X036458Y006860D02*
X036008Y006860D01*
X036008Y006909D02*
X036458Y006909D01*
X036458Y006958D02*
X036008Y006958D01*
X036008Y007007D02*
X036458Y007007D01*
X036458Y007056D02*
X036008Y007056D01*
X036008Y007105D02*
X036458Y007105D01*
X036458Y007154D02*
X036008Y007154D01*
X036008Y007203D02*
X036458Y007203D01*
X036458Y007252D02*
X036008Y007252D01*
X036008Y007301D02*
X036458Y007301D01*
X036458Y007350D02*
X036008Y007350D01*
X036008Y007399D02*
X036458Y007399D01*
X036458Y007448D02*
X036008Y007448D01*
X036008Y007497D02*
X036458Y007497D01*
X036458Y007546D02*
X036008Y007546D01*
X036008Y007595D02*
X036458Y007595D01*
X036458Y007644D02*
X036008Y007644D01*
X036008Y007693D02*
X036458Y007693D01*
X036458Y007742D02*
X036008Y007742D01*
X036008Y007791D02*
X036458Y007791D01*
X036458Y007840D02*
X036008Y007840D01*
X036008Y007889D02*
X036458Y007889D01*
X036458Y007938D02*
X036008Y007938D01*
X036008Y007987D02*
X036458Y007987D01*
X036458Y008036D02*
X036008Y008036D01*
X036008Y008085D02*
X036458Y008085D01*
X036458Y008134D02*
X036008Y008134D01*
X036008Y008183D02*
X036458Y008183D01*
X036458Y008232D02*
X036008Y008232D01*
X036008Y008281D02*
X036458Y008281D01*
X036458Y008330D02*
X036008Y008330D01*
X036008Y008379D02*
X036458Y008379D01*
X036458Y008428D02*
X036008Y008428D01*
X036008Y008477D02*
X036458Y008477D01*
X035458Y006517D02*
X035008Y006517D01*
X035008Y008483D01*
X035458Y008483D01*
X035458Y006517D01*
X035458Y006566D02*
X035008Y006566D01*
X035008Y006615D02*
X035458Y006615D01*
X035458Y006664D02*
X035008Y006664D01*
X035008Y006713D02*
X035458Y006713D01*
X035458Y006762D02*
X035008Y006762D01*
X035008Y006811D02*
X035458Y006811D01*
X035458Y006860D02*
X035008Y006860D01*
X035008Y006909D02*
X035458Y006909D01*
X035458Y006958D02*
X035008Y006958D01*
X035008Y007007D02*
X035458Y007007D01*
X035458Y007056D02*
X035008Y007056D01*
X035008Y007105D02*
X035458Y007105D01*
X035458Y007154D02*
X035008Y007154D01*
X035008Y007203D02*
X035458Y007203D01*
X035458Y007252D02*
X035008Y007252D01*
X035008Y007301D02*
X035458Y007301D01*
X035458Y007350D02*
X035008Y007350D01*
X035008Y007399D02*
X035458Y007399D01*
X035458Y007448D02*
X035008Y007448D01*
X035008Y007497D02*
X035458Y007497D01*
X035458Y007546D02*
X035008Y007546D01*
X035008Y007595D02*
X035458Y007595D01*
X035458Y007644D02*
X035008Y007644D01*
X035008Y007693D02*
X035458Y007693D01*
X035458Y007742D02*
X035008Y007742D01*
X035008Y007791D02*
X035458Y007791D01*
X035458Y007840D02*
X035008Y007840D01*
X035008Y007889D02*
X035458Y007889D01*
X035458Y007938D02*
X035008Y007938D01*
X035008Y007987D02*
X035458Y007987D01*
X035458Y008036D02*
X035008Y008036D01*
X035008Y008085D02*
X035458Y008085D01*
X035458Y008134D02*
X035008Y008134D01*
X035008Y008183D02*
X035458Y008183D01*
X035458Y008232D02*
X035008Y008232D01*
X035008Y008281D02*
X035458Y008281D01*
X035458Y008330D02*
X035008Y008330D01*
X035008Y008379D02*
X035458Y008379D01*
X035458Y008428D02*
X035008Y008428D01*
X035008Y008477D02*
X035458Y008477D01*
X034458Y006517D02*
X034008Y006517D01*
X034008Y008483D01*
X034458Y008483D01*
X034458Y006517D01*
X034458Y006566D02*
X034008Y006566D01*
X034008Y006615D02*
X034458Y006615D01*
X034458Y006664D02*
X034008Y006664D01*
X034008Y006713D02*
X034458Y006713D01*
X034458Y006762D02*
X034008Y006762D01*
X034008Y006811D02*
X034458Y006811D01*
X034458Y006860D02*
X034008Y006860D01*
X034008Y006909D02*
X034458Y006909D01*
X034458Y006958D02*
X034008Y006958D01*
X034008Y007007D02*
X034458Y007007D01*
X034458Y007056D02*
X034008Y007056D01*
X034008Y007105D02*
X034458Y007105D01*
X034458Y007154D02*
X034008Y007154D01*
X034008Y007203D02*
X034458Y007203D01*
X034458Y007252D02*
X034008Y007252D01*
X034008Y007301D02*
X034458Y007301D01*
X034458Y007350D02*
X034008Y007350D01*
X034008Y007399D02*
X034458Y007399D01*
X034458Y007448D02*
X034008Y007448D01*
X034008Y007497D02*
X034458Y007497D01*
X034458Y007546D02*
X034008Y007546D01*
X034008Y007595D02*
X034458Y007595D01*
X034458Y007644D02*
X034008Y007644D01*
X034008Y007693D02*
X034458Y007693D01*
X034458Y007742D02*
X034008Y007742D01*
X034008Y007791D02*
X034458Y007791D01*
X034458Y007840D02*
X034008Y007840D01*
X034008Y007889D02*
X034458Y007889D01*
X034458Y007938D02*
X034008Y007938D01*
X034008Y007987D02*
X034458Y007987D01*
X034458Y008036D02*
X034008Y008036D01*
X034008Y008085D02*
X034458Y008085D01*
X034458Y008134D02*
X034008Y008134D01*
X034008Y008183D02*
X034458Y008183D01*
X034458Y008232D02*
X034008Y008232D01*
X034008Y008281D02*
X034458Y008281D01*
X034458Y008330D02*
X034008Y008330D01*
X034008Y008379D02*
X034458Y008379D01*
X034458Y008428D02*
X034008Y008428D01*
X034008Y008477D02*
X034458Y008477D01*
X033458Y006517D02*
X033008Y006517D01*
X033008Y008483D01*
X033458Y008483D01*
X033458Y006517D01*
X033458Y006566D02*
X033008Y006566D01*
X033008Y006615D02*
X033458Y006615D01*
X033458Y006664D02*
X033008Y006664D01*
X033008Y006713D02*
X033458Y006713D01*
X033458Y006762D02*
X033008Y006762D01*
X033008Y006811D02*
X033458Y006811D01*
X033458Y006860D02*
X033008Y006860D01*
X033008Y006909D02*
X033458Y006909D01*
X033458Y006958D02*
X033008Y006958D01*
X033008Y007007D02*
X033458Y007007D01*
X033458Y007056D02*
X033008Y007056D01*
X033008Y007105D02*
X033458Y007105D01*
X033458Y007154D02*
X033008Y007154D01*
X033008Y007203D02*
X033458Y007203D01*
X033458Y007252D02*
X033008Y007252D01*
X033008Y007301D02*
X033458Y007301D01*
X033458Y007350D02*
X033008Y007350D01*
X033008Y007399D02*
X033458Y007399D01*
X033458Y007448D02*
X033008Y007448D01*
X033008Y007497D02*
X033458Y007497D01*
X033458Y007546D02*
X033008Y007546D01*
X033008Y007595D02*
X033458Y007595D01*
X033458Y007644D02*
X033008Y007644D01*
X033008Y007693D02*
X033458Y007693D01*
X033458Y007742D02*
X033008Y007742D01*
X033008Y007791D02*
X033458Y007791D01*
X033458Y007840D02*
X033008Y007840D01*
X033008Y007889D02*
X033458Y007889D01*
X033458Y007938D02*
X033008Y007938D01*
X033008Y007987D02*
X033458Y007987D01*
X033458Y008036D02*
X033008Y008036D01*
X033008Y008085D02*
X033458Y008085D01*
X033458Y008134D02*
X033008Y008134D01*
X033008Y008183D02*
X033458Y008183D01*
X033458Y008232D02*
X033008Y008232D01*
X033008Y008281D02*
X033458Y008281D01*
X033458Y008330D02*
X033008Y008330D01*
X033008Y008379D02*
X033458Y008379D01*
X033458Y008428D02*
X033008Y008428D01*
X033008Y008477D02*
X033458Y008477D01*
X032458Y006517D02*
X032008Y006517D01*
X032008Y008483D01*
X032458Y008483D01*
X032458Y006517D01*
X032458Y006566D02*
X032008Y006566D01*
X032008Y006615D02*
X032458Y006615D01*
X032458Y006664D02*
X032008Y006664D01*
X032008Y006713D02*
X032458Y006713D01*
X032458Y006762D02*
X032008Y006762D01*
X032008Y006811D02*
X032458Y006811D01*
X032458Y006860D02*
X032008Y006860D01*
X032008Y006909D02*
X032458Y006909D01*
X032458Y006958D02*
X032008Y006958D01*
X032008Y007007D02*
X032458Y007007D01*
X032458Y007056D02*
X032008Y007056D01*
X032008Y007105D02*
X032458Y007105D01*
X032458Y007154D02*
X032008Y007154D01*
X032008Y007203D02*
X032458Y007203D01*
X032458Y007252D02*
X032008Y007252D01*
X032008Y007301D02*
X032458Y007301D01*
X032458Y007350D02*
X032008Y007350D01*
X032008Y007399D02*
X032458Y007399D01*
X032458Y007448D02*
X032008Y007448D01*
X032008Y007497D02*
X032458Y007497D01*
X032458Y007546D02*
X032008Y007546D01*
X032008Y007595D02*
X032458Y007595D01*
X032458Y007644D02*
X032008Y007644D01*
X032008Y007693D02*
X032458Y007693D01*
X032458Y007742D02*
X032008Y007742D01*
X032008Y007791D02*
X032458Y007791D01*
X032458Y007840D02*
X032008Y007840D01*
X032008Y007889D02*
X032458Y007889D01*
X032458Y007938D02*
X032008Y007938D01*
X032008Y007987D02*
X032458Y007987D01*
X032458Y008036D02*
X032008Y008036D01*
X032008Y008085D02*
X032458Y008085D01*
X032458Y008134D02*
X032008Y008134D01*
X032008Y008183D02*
X032458Y008183D01*
X032458Y008232D02*
X032008Y008232D01*
X032008Y008281D02*
X032458Y008281D01*
X032458Y008330D02*
X032008Y008330D01*
X032008Y008379D02*
X032458Y008379D01*
X032458Y008428D02*
X032008Y008428D01*
X032008Y008477D02*
X032458Y008477D01*
X031458Y006517D02*
X031008Y006517D01*
X031008Y008483D01*
X031458Y008483D01*
X031458Y006517D01*
X031458Y006566D02*
X031008Y006566D01*
X031008Y006615D02*
X031458Y006615D01*
X031458Y006664D02*
X031008Y006664D01*
X031008Y006713D02*
X031458Y006713D01*
X031458Y006762D02*
X031008Y006762D01*
X031008Y006811D02*
X031458Y006811D01*
X031458Y006860D02*
X031008Y006860D01*
X031008Y006909D02*
X031458Y006909D01*
X031458Y006958D02*
X031008Y006958D01*
X031008Y007007D02*
X031458Y007007D01*
X031458Y007056D02*
X031008Y007056D01*
X031008Y007105D02*
X031458Y007105D01*
X031458Y007154D02*
X031008Y007154D01*
X031008Y007203D02*
X031458Y007203D01*
X031458Y007252D02*
X031008Y007252D01*
X031008Y007301D02*
X031458Y007301D01*
X031458Y007350D02*
X031008Y007350D01*
X031008Y007399D02*
X031458Y007399D01*
X031458Y007448D02*
X031008Y007448D01*
X031008Y007497D02*
X031458Y007497D01*
X031458Y007546D02*
X031008Y007546D01*
X031008Y007595D02*
X031458Y007595D01*
X031458Y007644D02*
X031008Y007644D01*
X031008Y007693D02*
X031458Y007693D01*
X031458Y007742D02*
X031008Y007742D01*
X031008Y007791D02*
X031458Y007791D01*
X031458Y007840D02*
X031008Y007840D01*
X031008Y007889D02*
X031458Y007889D01*
X031458Y007938D02*
X031008Y007938D01*
X031008Y007987D02*
X031458Y007987D01*
X031458Y008036D02*
X031008Y008036D01*
X031008Y008085D02*
X031458Y008085D01*
X031458Y008134D02*
X031008Y008134D01*
X031008Y008183D02*
X031458Y008183D01*
X031458Y008232D02*
X031008Y008232D01*
X031008Y008281D02*
X031458Y008281D01*
X031458Y008330D02*
X031008Y008330D01*
X031008Y008379D02*
X031458Y008379D01*
X031458Y008428D02*
X031008Y008428D01*
X031008Y008477D02*
X031458Y008477D01*
X030458Y006517D02*
X030008Y006517D01*
X030008Y008483D01*
X030458Y008483D01*
X030458Y006517D01*
X030458Y006566D02*
X030008Y006566D01*
X030008Y006615D02*
X030458Y006615D01*
X030458Y006664D02*
X030008Y006664D01*
X030008Y006713D02*
X030458Y006713D01*
X030458Y006762D02*
X030008Y006762D01*
X030008Y006811D02*
X030458Y006811D01*
X030458Y006860D02*
X030008Y006860D01*
X030008Y006909D02*
X030458Y006909D01*
X030458Y006958D02*
X030008Y006958D01*
X030008Y007007D02*
X030458Y007007D01*
X030458Y007056D02*
X030008Y007056D01*
X030008Y007105D02*
X030458Y007105D01*
X030458Y007154D02*
X030008Y007154D01*
X030008Y007203D02*
X030458Y007203D01*
X030458Y007252D02*
X030008Y007252D01*
X030008Y007301D02*
X030458Y007301D01*
X030458Y007350D02*
X030008Y007350D01*
X030008Y007399D02*
X030458Y007399D01*
X030458Y007448D02*
X030008Y007448D01*
X030008Y007497D02*
X030458Y007497D01*
X030458Y007546D02*
X030008Y007546D01*
X030008Y007595D02*
X030458Y007595D01*
X030458Y007644D02*
X030008Y007644D01*
X030008Y007693D02*
X030458Y007693D01*
X030458Y007742D02*
X030008Y007742D01*
X030008Y007791D02*
X030458Y007791D01*
X030458Y007840D02*
X030008Y007840D01*
X030008Y007889D02*
X030458Y007889D01*
X030458Y007938D02*
X030008Y007938D01*
X030008Y007987D02*
X030458Y007987D01*
X030458Y008036D02*
X030008Y008036D01*
X030008Y008085D02*
X030458Y008085D01*
X030458Y008134D02*
X030008Y008134D01*
X030008Y008183D02*
X030458Y008183D01*
X030458Y008232D02*
X030008Y008232D01*
X030008Y008281D02*
X030458Y008281D01*
X030458Y008330D02*
X030008Y008330D01*
X030008Y008379D02*
X030458Y008379D01*
X030458Y008428D02*
X030008Y008428D01*
X030008Y008477D02*
X030458Y008477D01*
X029458Y006517D02*
X029008Y006517D01*
X029008Y008483D01*
X029458Y008483D01*
X029458Y006517D01*
X029458Y006566D02*
X029008Y006566D01*
X029008Y006615D02*
X029458Y006615D01*
X029458Y006664D02*
X029008Y006664D01*
X029008Y006713D02*
X029458Y006713D01*
X029458Y006762D02*
X029008Y006762D01*
X029008Y006811D02*
X029458Y006811D01*
X029458Y006860D02*
X029008Y006860D01*
X029008Y006909D02*
X029458Y006909D01*
X029458Y006958D02*
X029008Y006958D01*
X029008Y007007D02*
X029458Y007007D01*
X029458Y007056D02*
X029008Y007056D01*
X029008Y007105D02*
X029458Y007105D01*
X029458Y007154D02*
X029008Y007154D01*
X029008Y007203D02*
X029458Y007203D01*
X029458Y007252D02*
X029008Y007252D01*
X029008Y007301D02*
X029458Y007301D01*
X029458Y007350D02*
X029008Y007350D01*
X029008Y007399D02*
X029458Y007399D01*
X029458Y007448D02*
X029008Y007448D01*
X029008Y007497D02*
X029458Y007497D01*
X029458Y007546D02*
X029008Y007546D01*
X029008Y007595D02*
X029458Y007595D01*
X029458Y007644D02*
X029008Y007644D01*
X029008Y007693D02*
X029458Y007693D01*
X029458Y007742D02*
X029008Y007742D01*
X029008Y007791D02*
X029458Y007791D01*
X029458Y007840D02*
X029008Y007840D01*
X029008Y007889D02*
X029458Y007889D01*
X029458Y007938D02*
X029008Y007938D01*
X029008Y007987D02*
X029458Y007987D01*
X029458Y008036D02*
X029008Y008036D01*
X029008Y008085D02*
X029458Y008085D01*
X029458Y008134D02*
X029008Y008134D01*
X029008Y008183D02*
X029458Y008183D01*
X029458Y008232D02*
X029008Y008232D01*
X029008Y008281D02*
X029458Y008281D01*
X029458Y008330D02*
X029008Y008330D01*
X029008Y008379D02*
X029458Y008379D01*
X029458Y008428D02*
X029008Y008428D01*
X029008Y008477D02*
X029458Y008477D01*
X028458Y006517D02*
X028008Y006517D01*
X028008Y008483D01*
X028458Y008483D01*
X028458Y006517D01*
X028458Y006566D02*
X028008Y006566D01*
X028008Y006615D02*
X028458Y006615D01*
X028458Y006664D02*
X028008Y006664D01*
X028008Y006713D02*
X028458Y006713D01*
X028458Y006762D02*
X028008Y006762D01*
X028008Y006811D02*
X028458Y006811D01*
X028458Y006860D02*
X028008Y006860D01*
X028008Y006909D02*
X028458Y006909D01*
X028458Y006958D02*
X028008Y006958D01*
X028008Y007007D02*
X028458Y007007D01*
X028458Y007056D02*
X028008Y007056D01*
X028008Y007105D02*
X028458Y007105D01*
X028458Y007154D02*
X028008Y007154D01*
X028008Y007203D02*
X028458Y007203D01*
X028458Y007252D02*
X028008Y007252D01*
X028008Y007301D02*
X028458Y007301D01*
X028458Y007350D02*
X028008Y007350D01*
X028008Y007399D02*
X028458Y007399D01*
X028458Y007448D02*
X028008Y007448D01*
X028008Y007497D02*
X028458Y007497D01*
X028458Y007546D02*
X028008Y007546D01*
X028008Y007595D02*
X028458Y007595D01*
X028458Y007644D02*
X028008Y007644D01*
X028008Y007693D02*
X028458Y007693D01*
X028458Y007742D02*
X028008Y007742D01*
X028008Y007791D02*
X028458Y007791D01*
X028458Y007840D02*
X028008Y007840D01*
X028008Y007889D02*
X028458Y007889D01*
X028458Y007938D02*
X028008Y007938D01*
X028008Y007987D02*
X028458Y007987D01*
X028458Y008036D02*
X028008Y008036D01*
X028008Y008085D02*
X028458Y008085D01*
X028458Y008134D02*
X028008Y008134D01*
X028008Y008183D02*
X028458Y008183D01*
X028458Y008232D02*
X028008Y008232D01*
X028008Y008281D02*
X028458Y008281D01*
X028458Y008330D02*
X028008Y008330D01*
X028008Y008379D02*
X028458Y008379D01*
X028458Y008428D02*
X028008Y008428D01*
X028008Y008477D02*
X028458Y008477D01*
X027458Y006517D02*
X027008Y006517D01*
X027008Y008483D01*
X027458Y008483D01*
X027458Y006517D01*
X027458Y006566D02*
X027008Y006566D01*
X027008Y006615D02*
X027458Y006615D01*
X027458Y006664D02*
X027008Y006664D01*
X027008Y006713D02*
X027458Y006713D01*
X027458Y006762D02*
X027008Y006762D01*
X027008Y006811D02*
X027458Y006811D01*
X027458Y006860D02*
X027008Y006860D01*
X027008Y006909D02*
X027458Y006909D01*
X027458Y006958D02*
X027008Y006958D01*
X027008Y007007D02*
X027458Y007007D01*
X027458Y007056D02*
X027008Y007056D01*
X027008Y007105D02*
X027458Y007105D01*
X027458Y007154D02*
X027008Y007154D01*
X027008Y007203D02*
X027458Y007203D01*
X027458Y007252D02*
X027008Y007252D01*
X027008Y007301D02*
X027458Y007301D01*
X027458Y007350D02*
X027008Y007350D01*
X027008Y007399D02*
X027458Y007399D01*
X027458Y007448D02*
X027008Y007448D01*
X027008Y007497D02*
X027458Y007497D01*
X027458Y007546D02*
X027008Y007546D01*
X027008Y007595D02*
X027458Y007595D01*
X027458Y007644D02*
X027008Y007644D01*
X027008Y007693D02*
X027458Y007693D01*
X027458Y007742D02*
X027008Y007742D01*
X027008Y007791D02*
X027458Y007791D01*
X027458Y007840D02*
X027008Y007840D01*
X027008Y007889D02*
X027458Y007889D01*
X027458Y007938D02*
X027008Y007938D01*
X027008Y007987D02*
X027458Y007987D01*
X027458Y008036D02*
X027008Y008036D01*
X027008Y008085D02*
X027458Y008085D01*
X027458Y008134D02*
X027008Y008134D01*
X027008Y008183D02*
X027458Y008183D01*
X027458Y008232D02*
X027008Y008232D01*
X027008Y008281D02*
X027458Y008281D01*
X027458Y008330D02*
X027008Y008330D01*
X027008Y008379D02*
X027458Y008379D01*
X027458Y008428D02*
X027008Y008428D01*
X027008Y008477D02*
X027458Y008477D01*
X026458Y006517D02*
X026008Y006517D01*
X026008Y008483D01*
X026458Y008483D01*
X026458Y006517D01*
X026458Y006566D02*
X026008Y006566D01*
X026008Y006615D02*
X026458Y006615D01*
X026458Y006664D02*
X026008Y006664D01*
X026008Y006713D02*
X026458Y006713D01*
X026458Y006762D02*
X026008Y006762D01*
X026008Y006811D02*
X026458Y006811D01*
X026458Y006860D02*
X026008Y006860D01*
X026008Y006909D02*
X026458Y006909D01*
X026458Y006958D02*
X026008Y006958D01*
X026008Y007007D02*
X026458Y007007D01*
X026458Y007056D02*
X026008Y007056D01*
X026008Y007105D02*
X026458Y007105D01*
X026458Y007154D02*
X026008Y007154D01*
X026008Y007203D02*
X026458Y007203D01*
X026458Y007252D02*
X026008Y007252D01*
X026008Y007301D02*
X026458Y007301D01*
X026458Y007350D02*
X026008Y007350D01*
X026008Y007399D02*
X026458Y007399D01*
X026458Y007448D02*
X026008Y007448D01*
X026008Y007497D02*
X026458Y007497D01*
X026458Y007546D02*
X026008Y007546D01*
X026008Y007595D02*
X026458Y007595D01*
X026458Y007644D02*
X026008Y007644D01*
X026008Y007693D02*
X026458Y007693D01*
X026458Y007742D02*
X026008Y007742D01*
X026008Y007791D02*
X026458Y007791D01*
X026458Y007840D02*
X026008Y007840D01*
X026008Y007889D02*
X026458Y007889D01*
X026458Y007938D02*
X026008Y007938D01*
X026008Y007987D02*
X026458Y007987D01*
X026458Y008036D02*
X026008Y008036D01*
X026008Y008085D02*
X026458Y008085D01*
X026458Y008134D02*
X026008Y008134D01*
X026008Y008183D02*
X026458Y008183D01*
X026458Y008232D02*
X026008Y008232D01*
X026008Y008281D02*
X026458Y008281D01*
X026458Y008330D02*
X026008Y008330D01*
X026008Y008379D02*
X026458Y008379D01*
X026458Y008428D02*
X026008Y008428D01*
X026008Y008477D02*
X026458Y008477D01*
X025458Y006517D02*
X025008Y006517D01*
X025008Y008483D01*
X025458Y008483D01*
X025458Y006517D01*
X025458Y006566D02*
X025008Y006566D01*
X025008Y006615D02*
X025458Y006615D01*
X025458Y006664D02*
X025008Y006664D01*
X025008Y006713D02*
X025458Y006713D01*
X025458Y006762D02*
X025008Y006762D01*
X025008Y006811D02*
X025458Y006811D01*
X025458Y006860D02*
X025008Y006860D01*
X025008Y006909D02*
X025458Y006909D01*
X025458Y006958D02*
X025008Y006958D01*
X025008Y007007D02*
X025458Y007007D01*
X025458Y007056D02*
X025008Y007056D01*
X025008Y007105D02*
X025458Y007105D01*
X025458Y007154D02*
X025008Y007154D01*
X025008Y007203D02*
X025458Y007203D01*
X025458Y007252D02*
X025008Y007252D01*
X025008Y007301D02*
X025458Y007301D01*
X025458Y007350D02*
X025008Y007350D01*
X025008Y007399D02*
X025458Y007399D01*
X025458Y007448D02*
X025008Y007448D01*
X025008Y007497D02*
X025458Y007497D01*
X025458Y007546D02*
X025008Y007546D01*
X025008Y007595D02*
X025458Y007595D01*
X025458Y007644D02*
X025008Y007644D01*
X025008Y007693D02*
X025458Y007693D01*
X025458Y007742D02*
X025008Y007742D01*
X025008Y007791D02*
X025458Y007791D01*
X025458Y007840D02*
X025008Y007840D01*
X025008Y007889D02*
X025458Y007889D01*
X025458Y007938D02*
X025008Y007938D01*
X025008Y007987D02*
X025458Y007987D01*
X025458Y008036D02*
X025008Y008036D01*
X025008Y008085D02*
X025458Y008085D01*
X025458Y008134D02*
X025008Y008134D01*
X025008Y008183D02*
X025458Y008183D01*
X025458Y008232D02*
X025008Y008232D01*
X025008Y008281D02*
X025458Y008281D01*
X025458Y008330D02*
X025008Y008330D01*
X025008Y008379D02*
X025458Y008379D01*
X025458Y008428D02*
X025008Y008428D01*
X025008Y008477D02*
X025458Y008477D01*
X024458Y006517D02*
X024008Y006517D01*
X024008Y008483D01*
X024458Y008483D01*
X024458Y006517D01*
X024458Y006566D02*
X024008Y006566D01*
X024008Y006615D02*
X024458Y006615D01*
X024458Y006664D02*
X024008Y006664D01*
X024008Y006713D02*
X024458Y006713D01*
X024458Y006762D02*
X024008Y006762D01*
X024008Y006811D02*
X024458Y006811D01*
X024458Y006860D02*
X024008Y006860D01*
X024008Y006909D02*
X024458Y006909D01*
X024458Y006958D02*
X024008Y006958D01*
X024008Y007007D02*
X024458Y007007D01*
X024458Y007056D02*
X024008Y007056D01*
X024008Y007105D02*
X024458Y007105D01*
X024458Y007154D02*
X024008Y007154D01*
X024008Y007203D02*
X024458Y007203D01*
X024458Y007252D02*
X024008Y007252D01*
X024008Y007301D02*
X024458Y007301D01*
X024458Y007350D02*
X024008Y007350D01*
X024008Y007399D02*
X024458Y007399D01*
X024458Y007448D02*
X024008Y007448D01*
X024008Y007497D02*
X024458Y007497D01*
X024458Y007546D02*
X024008Y007546D01*
X024008Y007595D02*
X024458Y007595D01*
X024458Y007644D02*
X024008Y007644D01*
X024008Y007693D02*
X024458Y007693D01*
X024458Y007742D02*
X024008Y007742D01*
X024008Y007791D02*
X024458Y007791D01*
X024458Y007840D02*
X024008Y007840D01*
X024008Y007889D02*
X024458Y007889D01*
X024458Y007938D02*
X024008Y007938D01*
X024008Y007987D02*
X024458Y007987D01*
X024458Y008036D02*
X024008Y008036D01*
X024008Y008085D02*
X024458Y008085D01*
X024458Y008134D02*
X024008Y008134D01*
X024008Y008183D02*
X024458Y008183D01*
X024458Y008232D02*
X024008Y008232D01*
X024008Y008281D02*
X024458Y008281D01*
X024458Y008330D02*
X024008Y008330D01*
X024008Y008379D02*
X024458Y008379D01*
X024458Y008428D02*
X024008Y008428D01*
X024008Y008477D02*
X024458Y008477D01*
X023458Y006517D02*
X023008Y006517D01*
X023008Y008483D01*
X023458Y008483D01*
X023458Y006517D01*
X023458Y006566D02*
X023008Y006566D01*
X023008Y006615D02*
X023458Y006615D01*
X023458Y006664D02*
X023008Y006664D01*
X023008Y006713D02*
X023458Y006713D01*
X023458Y006762D02*
X023008Y006762D01*
X023008Y006811D02*
X023458Y006811D01*
X023458Y006860D02*
X023008Y006860D01*
X023008Y006909D02*
X023458Y006909D01*
X023458Y006958D02*
X023008Y006958D01*
X023008Y007007D02*
X023458Y007007D01*
X023458Y007056D02*
X023008Y007056D01*
X023008Y007105D02*
X023458Y007105D01*
X023458Y007154D02*
X023008Y007154D01*
X023008Y007203D02*
X023458Y007203D01*
X023458Y007252D02*
X023008Y007252D01*
X023008Y007301D02*
X023458Y007301D01*
X023458Y007350D02*
X023008Y007350D01*
X023008Y007399D02*
X023458Y007399D01*
X023458Y007448D02*
X023008Y007448D01*
X023008Y007497D02*
X023458Y007497D01*
X023458Y007546D02*
X023008Y007546D01*
X023008Y007595D02*
X023458Y007595D01*
X023458Y007644D02*
X023008Y007644D01*
X023008Y007693D02*
X023458Y007693D01*
X023458Y007742D02*
X023008Y007742D01*
X023008Y007791D02*
X023458Y007791D01*
X023458Y007840D02*
X023008Y007840D01*
X023008Y007889D02*
X023458Y007889D01*
X023458Y007938D02*
X023008Y007938D01*
X023008Y007987D02*
X023458Y007987D01*
X023458Y008036D02*
X023008Y008036D01*
X023008Y008085D02*
X023458Y008085D01*
X023458Y008134D02*
X023008Y008134D01*
X023008Y008183D02*
X023458Y008183D01*
X023458Y008232D02*
X023008Y008232D01*
X023008Y008281D02*
X023458Y008281D01*
X023458Y008330D02*
X023008Y008330D01*
X023008Y008379D02*
X023458Y008379D01*
X023458Y008428D02*
X023008Y008428D01*
X023008Y008477D02*
X023458Y008477D01*
X022458Y006517D02*
X022008Y006517D01*
X022008Y008483D01*
X022458Y008483D01*
X022458Y006517D01*
X022458Y006566D02*
X022008Y006566D01*
X022008Y006615D02*
X022458Y006615D01*
X022458Y006664D02*
X022008Y006664D01*
X022008Y006713D02*
X022458Y006713D01*
X022458Y006762D02*
X022008Y006762D01*
X022008Y006811D02*
X022458Y006811D01*
X022458Y006860D02*
X022008Y006860D01*
X022008Y006909D02*
X022458Y006909D01*
X022458Y006958D02*
X022008Y006958D01*
X022008Y007007D02*
X022458Y007007D01*
X022458Y007056D02*
X022008Y007056D01*
X022008Y007105D02*
X022458Y007105D01*
X022458Y007154D02*
X022008Y007154D01*
X022008Y007203D02*
X022458Y007203D01*
X022458Y007252D02*
X022008Y007252D01*
X022008Y007301D02*
X022458Y007301D01*
X022458Y007350D02*
X022008Y007350D01*
X022008Y007399D02*
X022458Y007399D01*
X022458Y007448D02*
X022008Y007448D01*
X022008Y007497D02*
X022458Y007497D01*
X022458Y007546D02*
X022008Y007546D01*
X022008Y007595D02*
X022458Y007595D01*
X022458Y007644D02*
X022008Y007644D01*
X022008Y007693D02*
X022458Y007693D01*
X022458Y007742D02*
X022008Y007742D01*
X022008Y007791D02*
X022458Y007791D01*
X022458Y007840D02*
X022008Y007840D01*
X022008Y007889D02*
X022458Y007889D01*
X022458Y007938D02*
X022008Y007938D01*
X022008Y007987D02*
X022458Y007987D01*
X022458Y008036D02*
X022008Y008036D01*
X022008Y008085D02*
X022458Y008085D01*
X022458Y008134D02*
X022008Y008134D01*
X022008Y008183D02*
X022458Y008183D01*
X022458Y008232D02*
X022008Y008232D01*
X022008Y008281D02*
X022458Y008281D01*
X022458Y008330D02*
X022008Y008330D01*
X022008Y008379D02*
X022458Y008379D01*
X022458Y008428D02*
X022008Y008428D01*
X022008Y008477D02*
X022458Y008477D01*
X021458Y006517D02*
X021008Y006517D01*
X021008Y008483D01*
X021458Y008483D01*
X021458Y006517D01*
X021458Y006566D02*
X021008Y006566D01*
X021008Y006615D02*
X021458Y006615D01*
X021458Y006664D02*
X021008Y006664D01*
X021008Y006713D02*
X021458Y006713D01*
X021458Y006762D02*
X021008Y006762D01*
X021008Y006811D02*
X021458Y006811D01*
X021458Y006860D02*
X021008Y006860D01*
X021008Y006909D02*
X021458Y006909D01*
X021458Y006958D02*
X021008Y006958D01*
X021008Y007007D02*
X021458Y007007D01*
X021458Y007056D02*
X021008Y007056D01*
X021008Y007105D02*
X021458Y007105D01*
X021458Y007154D02*
X021008Y007154D01*
X021008Y007203D02*
X021458Y007203D01*
X021458Y007252D02*
X021008Y007252D01*
X021008Y007301D02*
X021458Y007301D01*
X021458Y007350D02*
X021008Y007350D01*
X021008Y007399D02*
X021458Y007399D01*
X021458Y007448D02*
X021008Y007448D01*
X021008Y007497D02*
X021458Y007497D01*
X021458Y007546D02*
X021008Y007546D01*
X021008Y007595D02*
X021458Y007595D01*
X021458Y007644D02*
X021008Y007644D01*
X021008Y007693D02*
X021458Y007693D01*
X021458Y007742D02*
X021008Y007742D01*
X021008Y007791D02*
X021458Y007791D01*
X021458Y007840D02*
X021008Y007840D01*
X021008Y007889D02*
X021458Y007889D01*
X021458Y007938D02*
X021008Y007938D01*
X021008Y007987D02*
X021458Y007987D01*
X021458Y008036D02*
X021008Y008036D01*
X021008Y008085D02*
X021458Y008085D01*
X021458Y008134D02*
X021008Y008134D01*
X021008Y008183D02*
X021458Y008183D01*
X021458Y008232D02*
X021008Y008232D01*
X021008Y008281D02*
X021458Y008281D01*
X021458Y008330D02*
X021008Y008330D01*
X021008Y008379D02*
X021458Y008379D01*
X021458Y008428D02*
X021008Y008428D01*
X021008Y008477D02*
X021458Y008477D01*
X020458Y006517D02*
X020008Y006517D01*
X020008Y008483D01*
X020458Y008483D01*
X020458Y006517D01*
X020458Y006566D02*
X020008Y006566D01*
X020008Y006615D02*
X020458Y006615D01*
X020458Y006664D02*
X020008Y006664D01*
X020008Y006713D02*
X020458Y006713D01*
X020458Y006762D02*
X020008Y006762D01*
X020008Y006811D02*
X020458Y006811D01*
X020458Y006860D02*
X020008Y006860D01*
X020008Y006909D02*
X020458Y006909D01*
X020458Y006958D02*
X020008Y006958D01*
X020008Y007007D02*
X020458Y007007D01*
X020458Y007056D02*
X020008Y007056D01*
X020008Y007105D02*
X020458Y007105D01*
X020458Y007154D02*
X020008Y007154D01*
X020008Y007203D02*
X020458Y007203D01*
X020458Y007252D02*
X020008Y007252D01*
X020008Y007301D02*
X020458Y007301D01*
X020458Y007350D02*
X020008Y007350D01*
X020008Y007399D02*
X020458Y007399D01*
X020458Y007448D02*
X020008Y007448D01*
X020008Y007497D02*
X020458Y007497D01*
X020458Y007546D02*
X020008Y007546D01*
X020008Y007595D02*
X020458Y007595D01*
X020458Y007644D02*
X020008Y007644D01*
X020008Y007693D02*
X020458Y007693D01*
X020458Y007742D02*
X020008Y007742D01*
X020008Y007791D02*
X020458Y007791D01*
X020458Y007840D02*
X020008Y007840D01*
X020008Y007889D02*
X020458Y007889D01*
X020458Y007938D02*
X020008Y007938D01*
X020008Y007987D02*
X020458Y007987D01*
X020458Y008036D02*
X020008Y008036D01*
X020008Y008085D02*
X020458Y008085D01*
X020458Y008134D02*
X020008Y008134D01*
X020008Y008183D02*
X020458Y008183D01*
X020458Y008232D02*
X020008Y008232D01*
X020008Y008281D02*
X020458Y008281D01*
X020458Y008330D02*
X020008Y008330D01*
X020008Y008379D02*
X020458Y008379D01*
X020458Y008428D02*
X020008Y008428D01*
X020008Y008477D02*
X020458Y008477D01*
X019458Y006517D02*
X019008Y006517D01*
X019008Y008483D01*
X019458Y008483D01*
X019458Y006517D01*
X019458Y006566D02*
X019008Y006566D01*
X019008Y006615D02*
X019458Y006615D01*
X019458Y006664D02*
X019008Y006664D01*
X019008Y006713D02*
X019458Y006713D01*
X019458Y006762D02*
X019008Y006762D01*
X019008Y006811D02*
X019458Y006811D01*
X019458Y006860D02*
X019008Y006860D01*
X019008Y006909D02*
X019458Y006909D01*
X019458Y006958D02*
X019008Y006958D01*
X019008Y007007D02*
X019458Y007007D01*
X019458Y007056D02*
X019008Y007056D01*
X019008Y007105D02*
X019458Y007105D01*
X019458Y007154D02*
X019008Y007154D01*
X019008Y007203D02*
X019458Y007203D01*
X019458Y007252D02*
X019008Y007252D01*
X019008Y007301D02*
X019458Y007301D01*
X019458Y007350D02*
X019008Y007350D01*
X019008Y007399D02*
X019458Y007399D01*
X019458Y007448D02*
X019008Y007448D01*
X019008Y007497D02*
X019458Y007497D01*
X019458Y007546D02*
X019008Y007546D01*
X019008Y007595D02*
X019458Y007595D01*
X019458Y007644D02*
X019008Y007644D01*
X019008Y007693D02*
X019458Y007693D01*
X019458Y007742D02*
X019008Y007742D01*
X019008Y007791D02*
X019458Y007791D01*
X019458Y007840D02*
X019008Y007840D01*
X019008Y007889D02*
X019458Y007889D01*
X019458Y007938D02*
X019008Y007938D01*
X019008Y007987D02*
X019458Y007987D01*
X019458Y008036D02*
X019008Y008036D01*
X019008Y008085D02*
X019458Y008085D01*
X019458Y008134D02*
X019008Y008134D01*
X019008Y008183D02*
X019458Y008183D01*
X019458Y008232D02*
X019008Y008232D01*
X019008Y008281D02*
X019458Y008281D01*
X019458Y008330D02*
X019008Y008330D01*
X019008Y008379D02*
X019458Y008379D01*
X019458Y008428D02*
X019008Y008428D01*
X019008Y008477D02*
X019458Y008477D01*
X018458Y006517D02*
X018008Y006517D01*
X018008Y008483D01*
X018458Y008483D01*
X018458Y006517D01*
X018458Y006566D02*
X018008Y006566D01*
X018008Y006615D02*
X018458Y006615D01*
X018458Y006664D02*
X018008Y006664D01*
X018008Y006713D02*
X018458Y006713D01*
X018458Y006762D02*
X018008Y006762D01*
X018008Y006811D02*
X018458Y006811D01*
X018458Y006860D02*
X018008Y006860D01*
X018008Y006909D02*
X018458Y006909D01*
X018458Y006958D02*
X018008Y006958D01*
X018008Y007007D02*
X018458Y007007D01*
X018458Y007056D02*
X018008Y007056D01*
X018008Y007105D02*
X018458Y007105D01*
X018458Y007154D02*
X018008Y007154D01*
X018008Y007203D02*
X018458Y007203D01*
X018458Y007252D02*
X018008Y007252D01*
X018008Y007301D02*
X018458Y007301D01*
X018458Y007350D02*
X018008Y007350D01*
X018008Y007399D02*
X018458Y007399D01*
X018458Y007448D02*
X018008Y007448D01*
X018008Y007497D02*
X018458Y007497D01*
X018458Y007546D02*
X018008Y007546D01*
X018008Y007595D02*
X018458Y007595D01*
X018458Y007644D02*
X018008Y007644D01*
X018008Y007693D02*
X018458Y007693D01*
X018458Y007742D02*
X018008Y007742D01*
X018008Y007791D02*
X018458Y007791D01*
X018458Y007840D02*
X018008Y007840D01*
X018008Y007889D02*
X018458Y007889D01*
X018458Y007938D02*
X018008Y007938D01*
X018008Y007987D02*
X018458Y007987D01*
X018458Y008036D02*
X018008Y008036D01*
X018008Y008085D02*
X018458Y008085D01*
X018458Y008134D02*
X018008Y008134D01*
X018008Y008183D02*
X018458Y008183D01*
X018458Y008232D02*
X018008Y008232D01*
X018008Y008281D02*
X018458Y008281D01*
X018458Y008330D02*
X018008Y008330D01*
X018008Y008379D02*
X018458Y008379D01*
X018458Y008428D02*
X018008Y008428D01*
X018008Y008477D02*
X018458Y008477D01*
X017458Y006517D02*
X017008Y006517D01*
X017008Y008483D01*
X017458Y008483D01*
X017458Y006517D01*
X017458Y006566D02*
X017008Y006566D01*
X017008Y006615D02*
X017458Y006615D01*
X017458Y006664D02*
X017008Y006664D01*
X017008Y006713D02*
X017458Y006713D01*
X017458Y006762D02*
X017008Y006762D01*
X017008Y006811D02*
X017458Y006811D01*
X017458Y006860D02*
X017008Y006860D01*
X017008Y006909D02*
X017458Y006909D01*
X017458Y006958D02*
X017008Y006958D01*
X017008Y007007D02*
X017458Y007007D01*
X017458Y007056D02*
X017008Y007056D01*
X017008Y007105D02*
X017458Y007105D01*
X017458Y007154D02*
X017008Y007154D01*
X017008Y007203D02*
X017458Y007203D01*
X017458Y007252D02*
X017008Y007252D01*
X017008Y007301D02*
X017458Y007301D01*
X017458Y007350D02*
X017008Y007350D01*
X017008Y007399D02*
X017458Y007399D01*
X017458Y007448D02*
X017008Y007448D01*
X017008Y007497D02*
X017458Y007497D01*
X017458Y007546D02*
X017008Y007546D01*
X017008Y007595D02*
X017458Y007595D01*
X017458Y007644D02*
X017008Y007644D01*
X017008Y007693D02*
X017458Y007693D01*
X017458Y007742D02*
X017008Y007742D01*
X017008Y007791D02*
X017458Y007791D01*
X017458Y007840D02*
X017008Y007840D01*
X017008Y007889D02*
X017458Y007889D01*
X017458Y007938D02*
X017008Y007938D01*
X017008Y007987D02*
X017458Y007987D01*
X017458Y008036D02*
X017008Y008036D01*
X017008Y008085D02*
X017458Y008085D01*
X017458Y008134D02*
X017008Y008134D01*
X017008Y008183D02*
X017458Y008183D01*
X017458Y008232D02*
X017008Y008232D01*
X017008Y008281D02*
X017458Y008281D01*
X017458Y008330D02*
X017008Y008330D01*
X017008Y008379D02*
X017458Y008379D01*
X017458Y008428D02*
X017008Y008428D01*
X017008Y008477D02*
X017458Y008477D01*
X016458Y006517D02*
X016008Y006517D01*
X016008Y008483D01*
X016458Y008483D01*
X016458Y006517D01*
X016458Y006566D02*
X016008Y006566D01*
X016008Y006615D02*
X016458Y006615D01*
X016458Y006664D02*
X016008Y006664D01*
X016008Y006713D02*
X016458Y006713D01*
X016458Y006762D02*
X016008Y006762D01*
X016008Y006811D02*
X016458Y006811D01*
X016458Y006860D02*
X016008Y006860D01*
X016008Y006909D02*
X016458Y006909D01*
X016458Y006958D02*
X016008Y006958D01*
X016008Y007007D02*
X016458Y007007D01*
X016458Y007056D02*
X016008Y007056D01*
X016008Y007105D02*
X016458Y007105D01*
X016458Y007154D02*
X016008Y007154D01*
X016008Y007203D02*
X016458Y007203D01*
X016458Y007252D02*
X016008Y007252D01*
X016008Y007301D02*
X016458Y007301D01*
X016458Y007350D02*
X016008Y007350D01*
X016008Y007399D02*
X016458Y007399D01*
X016458Y007448D02*
X016008Y007448D01*
X016008Y007497D02*
X016458Y007497D01*
X016458Y007546D02*
X016008Y007546D01*
X016008Y007595D02*
X016458Y007595D01*
X016458Y007644D02*
X016008Y007644D01*
X016008Y007693D02*
X016458Y007693D01*
X016458Y007742D02*
X016008Y007742D01*
X016008Y007791D02*
X016458Y007791D01*
X016458Y007840D02*
X016008Y007840D01*
X016008Y007889D02*
X016458Y007889D01*
X016458Y007938D02*
X016008Y007938D01*
X016008Y007987D02*
X016458Y007987D01*
X016458Y008036D02*
X016008Y008036D01*
X016008Y008085D02*
X016458Y008085D01*
X016458Y008134D02*
X016008Y008134D01*
X016008Y008183D02*
X016458Y008183D01*
X016458Y008232D02*
X016008Y008232D01*
X016008Y008281D02*
X016458Y008281D01*
X016458Y008330D02*
X016008Y008330D01*
X016008Y008379D02*
X016458Y008379D01*
X016458Y008428D02*
X016008Y008428D01*
X016008Y008477D02*
X016458Y008477D01*
X016458Y000517D02*
X016008Y000517D01*
X016008Y002483D01*
X016458Y002483D01*
X016458Y000517D01*
X016458Y000566D02*
X016008Y000566D01*
X016008Y000615D02*
X016458Y000615D01*
X016458Y000664D02*
X016008Y000664D01*
X016008Y000713D02*
X016458Y000713D01*
X016458Y000762D02*
X016008Y000762D01*
X016008Y000811D02*
X016458Y000811D01*
X016458Y000860D02*
X016008Y000860D01*
X016008Y000909D02*
X016458Y000909D01*
X016458Y000958D02*
X016008Y000958D01*
X016008Y001007D02*
X016458Y001007D01*
X016458Y001056D02*
X016008Y001056D01*
X016008Y001105D02*
X016458Y001105D01*
X016458Y001154D02*
X016008Y001154D01*
X016008Y001203D02*
X016458Y001203D01*
X016458Y001252D02*
X016008Y001252D01*
X016008Y001301D02*
X016458Y001301D01*
X016458Y001350D02*
X016008Y001350D01*
X016008Y001399D02*
X016458Y001399D01*
X016458Y001448D02*
X016008Y001448D01*
X016008Y001497D02*
X016458Y001497D01*
X016458Y001546D02*
X016008Y001546D01*
X016008Y001595D02*
X016458Y001595D01*
X016458Y001644D02*
X016008Y001644D01*
X016008Y001693D02*
X016458Y001693D01*
X016458Y001742D02*
X016008Y001742D01*
X016008Y001791D02*
X016458Y001791D01*
X016458Y001840D02*
X016008Y001840D01*
X016008Y001889D02*
X016458Y001889D01*
X016458Y001938D02*
X016008Y001938D01*
X016008Y001987D02*
X016458Y001987D01*
X016458Y002036D02*
X016008Y002036D01*
X016008Y002085D02*
X016458Y002085D01*
X016458Y002134D02*
X016008Y002134D01*
X016008Y002183D02*
X016458Y002183D01*
X016458Y002232D02*
X016008Y002232D01*
X016008Y002281D02*
X016458Y002281D01*
X016458Y002330D02*
X016008Y002330D01*
X016008Y002379D02*
X016458Y002379D01*
X016458Y002428D02*
X016008Y002428D01*
X016008Y002477D02*
X016458Y002477D01*
X017008Y000517D02*
X017458Y000517D01*
X017008Y000517D02*
X017008Y002483D01*
X017458Y002483D01*
X017458Y000517D01*
X017458Y000566D02*
X017008Y000566D01*
X017008Y000615D02*
X017458Y000615D01*
X017458Y000664D02*
X017008Y000664D01*
X017008Y000713D02*
X017458Y000713D01*
X017458Y000762D02*
X017008Y000762D01*
X017008Y000811D02*
X017458Y000811D01*
X017458Y000860D02*
X017008Y000860D01*
X017008Y000909D02*
X017458Y000909D01*
X017458Y000958D02*
X017008Y000958D01*
X017008Y001007D02*
X017458Y001007D01*
X017458Y001056D02*
X017008Y001056D01*
X017008Y001105D02*
X017458Y001105D01*
X017458Y001154D02*
X017008Y001154D01*
X017008Y001203D02*
X017458Y001203D01*
X017458Y001252D02*
X017008Y001252D01*
X017008Y001301D02*
X017458Y001301D01*
X017458Y001350D02*
X017008Y001350D01*
X017008Y001399D02*
X017458Y001399D01*
X017458Y001448D02*
X017008Y001448D01*
X017008Y001497D02*
X017458Y001497D01*
X017458Y001546D02*
X017008Y001546D01*
X017008Y001595D02*
X017458Y001595D01*
X017458Y001644D02*
X017008Y001644D01*
X017008Y001693D02*
X017458Y001693D01*
X017458Y001742D02*
X017008Y001742D01*
X017008Y001791D02*
X017458Y001791D01*
X017458Y001840D02*
X017008Y001840D01*
X017008Y001889D02*
X017458Y001889D01*
X017458Y001938D02*
X017008Y001938D01*
X017008Y001987D02*
X017458Y001987D01*
X017458Y002036D02*
X017008Y002036D01*
X017008Y002085D02*
X017458Y002085D01*
X017458Y002134D02*
X017008Y002134D01*
X017008Y002183D02*
X017458Y002183D01*
X017458Y002232D02*
X017008Y002232D01*
X017008Y002281D02*
X017458Y002281D01*
X017458Y002330D02*
X017008Y002330D01*
X017008Y002379D02*
X017458Y002379D01*
X017458Y002428D02*
X017008Y002428D01*
X017008Y002477D02*
X017458Y002477D01*
X018008Y000517D02*
X018458Y000517D01*
X018008Y000517D02*
X018008Y002483D01*
X018458Y002483D01*
X018458Y000517D01*
X018458Y000566D02*
X018008Y000566D01*
X018008Y000615D02*
X018458Y000615D01*
X018458Y000664D02*
X018008Y000664D01*
X018008Y000713D02*
X018458Y000713D01*
X018458Y000762D02*
X018008Y000762D01*
X018008Y000811D02*
X018458Y000811D01*
X018458Y000860D02*
X018008Y000860D01*
X018008Y000909D02*
X018458Y000909D01*
X018458Y000958D02*
X018008Y000958D01*
X018008Y001007D02*
X018458Y001007D01*
X018458Y001056D02*
X018008Y001056D01*
X018008Y001105D02*
X018458Y001105D01*
X018458Y001154D02*
X018008Y001154D01*
X018008Y001203D02*
X018458Y001203D01*
X018458Y001252D02*
X018008Y001252D01*
X018008Y001301D02*
X018458Y001301D01*
X018458Y001350D02*
X018008Y001350D01*
X018008Y001399D02*
X018458Y001399D01*
X018458Y001448D02*
X018008Y001448D01*
X018008Y001497D02*
X018458Y001497D01*
X018458Y001546D02*
X018008Y001546D01*
X018008Y001595D02*
X018458Y001595D01*
X018458Y001644D02*
X018008Y001644D01*
X018008Y001693D02*
X018458Y001693D01*
X018458Y001742D02*
X018008Y001742D01*
X018008Y001791D02*
X018458Y001791D01*
X018458Y001840D02*
X018008Y001840D01*
X018008Y001889D02*
X018458Y001889D01*
X018458Y001938D02*
X018008Y001938D01*
X018008Y001987D02*
X018458Y001987D01*
X018458Y002036D02*
X018008Y002036D01*
X018008Y002085D02*
X018458Y002085D01*
X018458Y002134D02*
X018008Y002134D01*
X018008Y002183D02*
X018458Y002183D01*
X018458Y002232D02*
X018008Y002232D01*
X018008Y002281D02*
X018458Y002281D01*
X018458Y002330D02*
X018008Y002330D01*
X018008Y002379D02*
X018458Y002379D01*
X018458Y002428D02*
X018008Y002428D01*
X018008Y002477D02*
X018458Y002477D01*
X019008Y000517D02*
X019458Y000517D01*
X019008Y000517D02*
X019008Y002483D01*
X019458Y002483D01*
X019458Y000517D01*
X019458Y000566D02*
X019008Y000566D01*
X019008Y000615D02*
X019458Y000615D01*
X019458Y000664D02*
X019008Y000664D01*
X019008Y000713D02*
X019458Y000713D01*
X019458Y000762D02*
X019008Y000762D01*
X019008Y000811D02*
X019458Y000811D01*
X019458Y000860D02*
X019008Y000860D01*
X019008Y000909D02*
X019458Y000909D01*
X019458Y000958D02*
X019008Y000958D01*
X019008Y001007D02*
X019458Y001007D01*
X019458Y001056D02*
X019008Y001056D01*
X019008Y001105D02*
X019458Y001105D01*
X019458Y001154D02*
X019008Y001154D01*
X019008Y001203D02*
X019458Y001203D01*
X019458Y001252D02*
X019008Y001252D01*
X019008Y001301D02*
X019458Y001301D01*
X019458Y001350D02*
X019008Y001350D01*
X019008Y001399D02*
X019458Y001399D01*
X019458Y001448D02*
X019008Y001448D01*
X019008Y001497D02*
X019458Y001497D01*
X019458Y001546D02*
X019008Y001546D01*
X019008Y001595D02*
X019458Y001595D01*
X019458Y001644D02*
X019008Y001644D01*
X019008Y001693D02*
X019458Y001693D01*
X019458Y001742D02*
X019008Y001742D01*
X019008Y001791D02*
X019458Y001791D01*
X019458Y001840D02*
X019008Y001840D01*
X019008Y001889D02*
X019458Y001889D01*
X019458Y001938D02*
X019008Y001938D01*
X019008Y001987D02*
X019458Y001987D01*
X019458Y002036D02*
X019008Y002036D01*
X019008Y002085D02*
X019458Y002085D01*
X019458Y002134D02*
X019008Y002134D01*
X019008Y002183D02*
X019458Y002183D01*
X019458Y002232D02*
X019008Y002232D01*
X019008Y002281D02*
X019458Y002281D01*
X019458Y002330D02*
X019008Y002330D01*
X019008Y002379D02*
X019458Y002379D01*
X019458Y002428D02*
X019008Y002428D01*
X019008Y002477D02*
X019458Y002477D01*
X020008Y000517D02*
X020458Y000517D01*
X020008Y000517D02*
X020008Y002483D01*
X020458Y002483D01*
X020458Y000517D01*
X020458Y000566D02*
X020008Y000566D01*
X020008Y000615D02*
X020458Y000615D01*
X020458Y000664D02*
X020008Y000664D01*
X020008Y000713D02*
X020458Y000713D01*
X020458Y000762D02*
X020008Y000762D01*
X020008Y000811D02*
X020458Y000811D01*
X020458Y000860D02*
X020008Y000860D01*
X020008Y000909D02*
X020458Y000909D01*
X020458Y000958D02*
X020008Y000958D01*
X020008Y001007D02*
X020458Y001007D01*
X020458Y001056D02*
X020008Y001056D01*
X020008Y001105D02*
X020458Y001105D01*
X020458Y001154D02*
X020008Y001154D01*
X020008Y001203D02*
X020458Y001203D01*
X020458Y001252D02*
X020008Y001252D01*
X020008Y001301D02*
X020458Y001301D01*
X020458Y001350D02*
X020008Y001350D01*
X020008Y001399D02*
X020458Y001399D01*
X020458Y001448D02*
X020008Y001448D01*
X020008Y001497D02*
X020458Y001497D01*
X020458Y001546D02*
X020008Y001546D01*
X020008Y001595D02*
X020458Y001595D01*
X020458Y001644D02*
X020008Y001644D01*
X020008Y001693D02*
X020458Y001693D01*
X020458Y001742D02*
X020008Y001742D01*
X020008Y001791D02*
X020458Y001791D01*
X020458Y001840D02*
X020008Y001840D01*
X020008Y001889D02*
X020458Y001889D01*
X020458Y001938D02*
X020008Y001938D01*
X020008Y001987D02*
X020458Y001987D01*
X020458Y002036D02*
X020008Y002036D01*
X020008Y002085D02*
X020458Y002085D01*
X020458Y002134D02*
X020008Y002134D01*
X020008Y002183D02*
X020458Y002183D01*
X020458Y002232D02*
X020008Y002232D01*
X020008Y002281D02*
X020458Y002281D01*
X020458Y002330D02*
X020008Y002330D01*
X020008Y002379D02*
X020458Y002379D01*
X020458Y002428D02*
X020008Y002428D01*
X020008Y002477D02*
X020458Y002477D01*
X021008Y000517D02*
X021458Y000517D01*
X021008Y000517D02*
X021008Y002483D01*
X021458Y002483D01*
X021458Y000517D01*
X021458Y000566D02*
X021008Y000566D01*
X021008Y000615D02*
X021458Y000615D01*
X021458Y000664D02*
X021008Y000664D01*
X021008Y000713D02*
X021458Y000713D01*
X021458Y000762D02*
X021008Y000762D01*
X021008Y000811D02*
X021458Y000811D01*
X021458Y000860D02*
X021008Y000860D01*
X021008Y000909D02*
X021458Y000909D01*
X021458Y000958D02*
X021008Y000958D01*
X021008Y001007D02*
X021458Y001007D01*
X021458Y001056D02*
X021008Y001056D01*
X021008Y001105D02*
X021458Y001105D01*
X021458Y001154D02*
X021008Y001154D01*
X021008Y001203D02*
X021458Y001203D01*
X021458Y001252D02*
X021008Y001252D01*
X021008Y001301D02*
X021458Y001301D01*
X021458Y001350D02*
X021008Y001350D01*
X021008Y001399D02*
X021458Y001399D01*
X021458Y001448D02*
X021008Y001448D01*
X021008Y001497D02*
X021458Y001497D01*
X021458Y001546D02*
X021008Y001546D01*
X021008Y001595D02*
X021458Y001595D01*
X021458Y001644D02*
X021008Y001644D01*
X021008Y001693D02*
X021458Y001693D01*
X021458Y001742D02*
X021008Y001742D01*
X021008Y001791D02*
X021458Y001791D01*
X021458Y001840D02*
X021008Y001840D01*
X021008Y001889D02*
X021458Y001889D01*
X021458Y001938D02*
X021008Y001938D01*
X021008Y001987D02*
X021458Y001987D01*
X021458Y002036D02*
X021008Y002036D01*
X021008Y002085D02*
X021458Y002085D01*
X021458Y002134D02*
X021008Y002134D01*
X021008Y002183D02*
X021458Y002183D01*
X021458Y002232D02*
X021008Y002232D01*
X021008Y002281D02*
X021458Y002281D01*
X021458Y002330D02*
X021008Y002330D01*
X021008Y002379D02*
X021458Y002379D01*
X021458Y002428D02*
X021008Y002428D01*
X021008Y002477D02*
X021458Y002477D01*
X022008Y000517D02*
X022458Y000517D01*
X022008Y000517D02*
X022008Y002483D01*
X022458Y002483D01*
X022458Y000517D01*
X022458Y000566D02*
X022008Y000566D01*
X022008Y000615D02*
X022458Y000615D01*
X022458Y000664D02*
X022008Y000664D01*
X022008Y000713D02*
X022458Y000713D01*
X022458Y000762D02*
X022008Y000762D01*
X022008Y000811D02*
X022458Y000811D01*
X022458Y000860D02*
X022008Y000860D01*
X022008Y000909D02*
X022458Y000909D01*
X022458Y000958D02*
X022008Y000958D01*
X022008Y001007D02*
X022458Y001007D01*
X022458Y001056D02*
X022008Y001056D01*
X022008Y001105D02*
X022458Y001105D01*
X022458Y001154D02*
X022008Y001154D01*
X022008Y001203D02*
X022458Y001203D01*
X022458Y001252D02*
X022008Y001252D01*
X022008Y001301D02*
X022458Y001301D01*
X022458Y001350D02*
X022008Y001350D01*
X022008Y001399D02*
X022458Y001399D01*
X022458Y001448D02*
X022008Y001448D01*
X022008Y001497D02*
X022458Y001497D01*
X022458Y001546D02*
X022008Y001546D01*
X022008Y001595D02*
X022458Y001595D01*
X022458Y001644D02*
X022008Y001644D01*
X022008Y001693D02*
X022458Y001693D01*
X022458Y001742D02*
X022008Y001742D01*
X022008Y001791D02*
X022458Y001791D01*
X022458Y001840D02*
X022008Y001840D01*
X022008Y001889D02*
X022458Y001889D01*
X022458Y001938D02*
X022008Y001938D01*
X022008Y001987D02*
X022458Y001987D01*
X022458Y002036D02*
X022008Y002036D01*
X022008Y002085D02*
X022458Y002085D01*
X022458Y002134D02*
X022008Y002134D01*
X022008Y002183D02*
X022458Y002183D01*
X022458Y002232D02*
X022008Y002232D01*
X022008Y002281D02*
X022458Y002281D01*
X022458Y002330D02*
X022008Y002330D01*
X022008Y002379D02*
X022458Y002379D01*
X022458Y002428D02*
X022008Y002428D01*
X022008Y002477D02*
X022458Y002477D01*
X023008Y000517D02*
X023458Y000517D01*
X023008Y000517D02*
X023008Y002483D01*
X023458Y002483D01*
X023458Y000517D01*
X023458Y000566D02*
X023008Y000566D01*
X023008Y000615D02*
X023458Y000615D01*
X023458Y000664D02*
X023008Y000664D01*
X023008Y000713D02*
X023458Y000713D01*
X023458Y000762D02*
X023008Y000762D01*
X023008Y000811D02*
X023458Y000811D01*
X023458Y000860D02*
X023008Y000860D01*
X023008Y000909D02*
X023458Y000909D01*
X023458Y000958D02*
X023008Y000958D01*
X023008Y001007D02*
X023458Y001007D01*
X023458Y001056D02*
X023008Y001056D01*
X023008Y001105D02*
X023458Y001105D01*
X023458Y001154D02*
X023008Y001154D01*
X023008Y001203D02*
X023458Y001203D01*
X023458Y001252D02*
X023008Y001252D01*
X023008Y001301D02*
X023458Y001301D01*
X023458Y001350D02*
X023008Y001350D01*
X023008Y001399D02*
X023458Y001399D01*
X023458Y001448D02*
X023008Y001448D01*
X023008Y001497D02*
X023458Y001497D01*
X023458Y001546D02*
X023008Y001546D01*
X023008Y001595D02*
X023458Y001595D01*
X023458Y001644D02*
X023008Y001644D01*
X023008Y001693D02*
X023458Y001693D01*
X023458Y001742D02*
X023008Y001742D01*
X023008Y001791D02*
X023458Y001791D01*
X023458Y001840D02*
X023008Y001840D01*
X023008Y001889D02*
X023458Y001889D01*
X023458Y001938D02*
X023008Y001938D01*
X023008Y001987D02*
X023458Y001987D01*
X023458Y002036D02*
X023008Y002036D01*
X023008Y002085D02*
X023458Y002085D01*
X023458Y002134D02*
X023008Y002134D01*
X023008Y002183D02*
X023458Y002183D01*
X023458Y002232D02*
X023008Y002232D01*
X023008Y002281D02*
X023458Y002281D01*
X023458Y002330D02*
X023008Y002330D01*
X023008Y002379D02*
X023458Y002379D01*
X023458Y002428D02*
X023008Y002428D01*
X023008Y002477D02*
X023458Y002477D01*
X024008Y000517D02*
X024458Y000517D01*
X024008Y000517D02*
X024008Y002483D01*
X024458Y002483D01*
X024458Y000517D01*
X024458Y000566D02*
X024008Y000566D01*
X024008Y000615D02*
X024458Y000615D01*
X024458Y000664D02*
X024008Y000664D01*
X024008Y000713D02*
X024458Y000713D01*
X024458Y000762D02*
X024008Y000762D01*
X024008Y000811D02*
X024458Y000811D01*
X024458Y000860D02*
X024008Y000860D01*
X024008Y000909D02*
X024458Y000909D01*
X024458Y000958D02*
X024008Y000958D01*
X024008Y001007D02*
X024458Y001007D01*
X024458Y001056D02*
X024008Y001056D01*
X024008Y001105D02*
X024458Y001105D01*
X024458Y001154D02*
X024008Y001154D01*
X024008Y001203D02*
X024458Y001203D01*
X024458Y001252D02*
X024008Y001252D01*
X024008Y001301D02*
X024458Y001301D01*
X024458Y001350D02*
X024008Y001350D01*
X024008Y001399D02*
X024458Y001399D01*
X024458Y001448D02*
X024008Y001448D01*
X024008Y001497D02*
X024458Y001497D01*
X024458Y001546D02*
X024008Y001546D01*
X024008Y001595D02*
X024458Y001595D01*
X024458Y001644D02*
X024008Y001644D01*
X024008Y001693D02*
X024458Y001693D01*
X024458Y001742D02*
X024008Y001742D01*
X024008Y001791D02*
X024458Y001791D01*
X024458Y001840D02*
X024008Y001840D01*
X024008Y001889D02*
X024458Y001889D01*
X024458Y001938D02*
X024008Y001938D01*
X024008Y001987D02*
X024458Y001987D01*
X024458Y002036D02*
X024008Y002036D01*
X024008Y002085D02*
X024458Y002085D01*
X024458Y002134D02*
X024008Y002134D01*
X024008Y002183D02*
X024458Y002183D01*
X024458Y002232D02*
X024008Y002232D01*
X024008Y002281D02*
X024458Y002281D01*
X024458Y002330D02*
X024008Y002330D01*
X024008Y002379D02*
X024458Y002379D01*
X024458Y002428D02*
X024008Y002428D01*
X024008Y002477D02*
X024458Y002477D01*
X025008Y000517D02*
X025458Y000517D01*
X025008Y000517D02*
X025008Y002483D01*
X025458Y002483D01*
X025458Y000517D01*
X025458Y000566D02*
X025008Y000566D01*
X025008Y000615D02*
X025458Y000615D01*
X025458Y000664D02*
X025008Y000664D01*
X025008Y000713D02*
X025458Y000713D01*
X025458Y000762D02*
X025008Y000762D01*
X025008Y000811D02*
X025458Y000811D01*
X025458Y000860D02*
X025008Y000860D01*
X025008Y000909D02*
X025458Y000909D01*
X025458Y000958D02*
X025008Y000958D01*
X025008Y001007D02*
X025458Y001007D01*
X025458Y001056D02*
X025008Y001056D01*
X025008Y001105D02*
X025458Y001105D01*
X025458Y001154D02*
X025008Y001154D01*
X025008Y001203D02*
X025458Y001203D01*
X025458Y001252D02*
X025008Y001252D01*
X025008Y001301D02*
X025458Y001301D01*
X025458Y001350D02*
X025008Y001350D01*
X025008Y001399D02*
X025458Y001399D01*
X025458Y001448D02*
X025008Y001448D01*
X025008Y001497D02*
X025458Y001497D01*
X025458Y001546D02*
X025008Y001546D01*
X025008Y001595D02*
X025458Y001595D01*
X025458Y001644D02*
X025008Y001644D01*
X025008Y001693D02*
X025458Y001693D01*
X025458Y001742D02*
X025008Y001742D01*
X025008Y001791D02*
X025458Y001791D01*
X025458Y001840D02*
X025008Y001840D01*
X025008Y001889D02*
X025458Y001889D01*
X025458Y001938D02*
X025008Y001938D01*
X025008Y001987D02*
X025458Y001987D01*
X025458Y002036D02*
X025008Y002036D01*
X025008Y002085D02*
X025458Y002085D01*
X025458Y002134D02*
X025008Y002134D01*
X025008Y002183D02*
X025458Y002183D01*
X025458Y002232D02*
X025008Y002232D01*
X025008Y002281D02*
X025458Y002281D01*
X025458Y002330D02*
X025008Y002330D01*
X025008Y002379D02*
X025458Y002379D01*
X025458Y002428D02*
X025008Y002428D01*
X025008Y002477D02*
X025458Y002477D01*
X026008Y000517D02*
X026458Y000517D01*
X026008Y000517D02*
X026008Y002483D01*
X026458Y002483D01*
X026458Y000517D01*
X026458Y000566D02*
X026008Y000566D01*
X026008Y000615D02*
X026458Y000615D01*
X026458Y000664D02*
X026008Y000664D01*
X026008Y000713D02*
X026458Y000713D01*
X026458Y000762D02*
X026008Y000762D01*
X026008Y000811D02*
X026458Y000811D01*
X026458Y000860D02*
X026008Y000860D01*
X026008Y000909D02*
X026458Y000909D01*
X026458Y000958D02*
X026008Y000958D01*
X026008Y001007D02*
X026458Y001007D01*
X026458Y001056D02*
X026008Y001056D01*
X026008Y001105D02*
X026458Y001105D01*
X026458Y001154D02*
X026008Y001154D01*
X026008Y001203D02*
X026458Y001203D01*
X026458Y001252D02*
X026008Y001252D01*
X026008Y001301D02*
X026458Y001301D01*
X026458Y001350D02*
X026008Y001350D01*
X026008Y001399D02*
X026458Y001399D01*
X026458Y001448D02*
X026008Y001448D01*
X026008Y001497D02*
X026458Y001497D01*
X026458Y001546D02*
X026008Y001546D01*
X026008Y001595D02*
X026458Y001595D01*
X026458Y001644D02*
X026008Y001644D01*
X026008Y001693D02*
X026458Y001693D01*
X026458Y001742D02*
X026008Y001742D01*
X026008Y001791D02*
X026458Y001791D01*
X026458Y001840D02*
X026008Y001840D01*
X026008Y001889D02*
X026458Y001889D01*
X026458Y001938D02*
X026008Y001938D01*
X026008Y001987D02*
X026458Y001987D01*
X026458Y002036D02*
X026008Y002036D01*
X026008Y002085D02*
X026458Y002085D01*
X026458Y002134D02*
X026008Y002134D01*
X026008Y002183D02*
X026458Y002183D01*
X026458Y002232D02*
X026008Y002232D01*
X026008Y002281D02*
X026458Y002281D01*
X026458Y002330D02*
X026008Y002330D01*
X026008Y002379D02*
X026458Y002379D01*
X026458Y002428D02*
X026008Y002428D01*
X026008Y002477D02*
X026458Y002477D01*
X027008Y000517D02*
X027458Y000517D01*
X027008Y000517D02*
X027008Y002483D01*
X027458Y002483D01*
X027458Y000517D01*
X027458Y000566D02*
X027008Y000566D01*
X027008Y000615D02*
X027458Y000615D01*
X027458Y000664D02*
X027008Y000664D01*
X027008Y000713D02*
X027458Y000713D01*
X027458Y000762D02*
X027008Y000762D01*
X027008Y000811D02*
X027458Y000811D01*
X027458Y000860D02*
X027008Y000860D01*
X027008Y000909D02*
X027458Y000909D01*
X027458Y000958D02*
X027008Y000958D01*
X027008Y001007D02*
X027458Y001007D01*
X027458Y001056D02*
X027008Y001056D01*
X027008Y001105D02*
X027458Y001105D01*
X027458Y001154D02*
X027008Y001154D01*
X027008Y001203D02*
X027458Y001203D01*
X027458Y001252D02*
X027008Y001252D01*
X027008Y001301D02*
X027458Y001301D01*
X027458Y001350D02*
X027008Y001350D01*
X027008Y001399D02*
X027458Y001399D01*
X027458Y001448D02*
X027008Y001448D01*
X027008Y001497D02*
X027458Y001497D01*
X027458Y001546D02*
X027008Y001546D01*
X027008Y001595D02*
X027458Y001595D01*
X027458Y001644D02*
X027008Y001644D01*
X027008Y001693D02*
X027458Y001693D01*
X027458Y001742D02*
X027008Y001742D01*
X027008Y001791D02*
X027458Y001791D01*
X027458Y001840D02*
X027008Y001840D01*
X027008Y001889D02*
X027458Y001889D01*
X027458Y001938D02*
X027008Y001938D01*
X027008Y001987D02*
X027458Y001987D01*
X027458Y002036D02*
X027008Y002036D01*
X027008Y002085D02*
X027458Y002085D01*
X027458Y002134D02*
X027008Y002134D01*
X027008Y002183D02*
X027458Y002183D01*
X027458Y002232D02*
X027008Y002232D01*
X027008Y002281D02*
X027458Y002281D01*
X027458Y002330D02*
X027008Y002330D01*
X027008Y002379D02*
X027458Y002379D01*
X027458Y002428D02*
X027008Y002428D01*
X027008Y002477D02*
X027458Y002477D01*
X028008Y000517D02*
X028458Y000517D01*
X028008Y000517D02*
X028008Y002483D01*
X028458Y002483D01*
X028458Y000517D01*
X028458Y000566D02*
X028008Y000566D01*
X028008Y000615D02*
X028458Y000615D01*
X028458Y000664D02*
X028008Y000664D01*
X028008Y000713D02*
X028458Y000713D01*
X028458Y000762D02*
X028008Y000762D01*
X028008Y000811D02*
X028458Y000811D01*
X028458Y000860D02*
X028008Y000860D01*
X028008Y000909D02*
X028458Y000909D01*
X028458Y000958D02*
X028008Y000958D01*
X028008Y001007D02*
X028458Y001007D01*
X028458Y001056D02*
X028008Y001056D01*
X028008Y001105D02*
X028458Y001105D01*
X028458Y001154D02*
X028008Y001154D01*
X028008Y001203D02*
X028458Y001203D01*
X028458Y001252D02*
X028008Y001252D01*
X028008Y001301D02*
X028458Y001301D01*
X028458Y001350D02*
X028008Y001350D01*
X028008Y001399D02*
X028458Y001399D01*
X028458Y001448D02*
X028008Y001448D01*
X028008Y001497D02*
X028458Y001497D01*
X028458Y001546D02*
X028008Y001546D01*
X028008Y001595D02*
X028458Y001595D01*
X028458Y001644D02*
X028008Y001644D01*
X028008Y001693D02*
X028458Y001693D01*
X028458Y001742D02*
X028008Y001742D01*
X028008Y001791D02*
X028458Y001791D01*
X028458Y001840D02*
X028008Y001840D01*
X028008Y001889D02*
X028458Y001889D01*
X028458Y001938D02*
X028008Y001938D01*
X028008Y001987D02*
X028458Y001987D01*
X028458Y002036D02*
X028008Y002036D01*
X028008Y002085D02*
X028458Y002085D01*
X028458Y002134D02*
X028008Y002134D01*
X028008Y002183D02*
X028458Y002183D01*
X028458Y002232D02*
X028008Y002232D01*
X028008Y002281D02*
X028458Y002281D01*
X028458Y002330D02*
X028008Y002330D01*
X028008Y002379D02*
X028458Y002379D01*
X028458Y002428D02*
X028008Y002428D01*
X028008Y002477D02*
X028458Y002477D01*
X029008Y000517D02*
X029458Y000517D01*
X029008Y000517D02*
X029008Y002483D01*
X029458Y002483D01*
X029458Y000517D01*
X029458Y000566D02*
X029008Y000566D01*
X029008Y000615D02*
X029458Y000615D01*
X029458Y000664D02*
X029008Y000664D01*
X029008Y000713D02*
X029458Y000713D01*
X029458Y000762D02*
X029008Y000762D01*
X029008Y000811D02*
X029458Y000811D01*
X029458Y000860D02*
X029008Y000860D01*
X029008Y000909D02*
X029458Y000909D01*
X029458Y000958D02*
X029008Y000958D01*
X029008Y001007D02*
X029458Y001007D01*
X029458Y001056D02*
X029008Y001056D01*
X029008Y001105D02*
X029458Y001105D01*
X029458Y001154D02*
X029008Y001154D01*
X029008Y001203D02*
X029458Y001203D01*
X029458Y001252D02*
X029008Y001252D01*
X029008Y001301D02*
X029458Y001301D01*
X029458Y001350D02*
X029008Y001350D01*
X029008Y001399D02*
X029458Y001399D01*
X029458Y001448D02*
X029008Y001448D01*
X029008Y001497D02*
X029458Y001497D01*
X029458Y001546D02*
X029008Y001546D01*
X029008Y001595D02*
X029458Y001595D01*
X029458Y001644D02*
X029008Y001644D01*
X029008Y001693D02*
X029458Y001693D01*
X029458Y001742D02*
X029008Y001742D01*
X029008Y001791D02*
X029458Y001791D01*
X029458Y001840D02*
X029008Y001840D01*
X029008Y001889D02*
X029458Y001889D01*
X029458Y001938D02*
X029008Y001938D01*
X029008Y001987D02*
X029458Y001987D01*
X029458Y002036D02*
X029008Y002036D01*
X029008Y002085D02*
X029458Y002085D01*
X029458Y002134D02*
X029008Y002134D01*
X029008Y002183D02*
X029458Y002183D01*
X029458Y002232D02*
X029008Y002232D01*
X029008Y002281D02*
X029458Y002281D01*
X029458Y002330D02*
X029008Y002330D01*
X029008Y002379D02*
X029458Y002379D01*
X029458Y002428D02*
X029008Y002428D01*
X029008Y002477D02*
X029458Y002477D01*
X030008Y000517D02*
X030458Y000517D01*
X030008Y000517D02*
X030008Y002483D01*
X030458Y002483D01*
X030458Y000517D01*
X030458Y000566D02*
X030008Y000566D01*
X030008Y000615D02*
X030458Y000615D01*
X030458Y000664D02*
X030008Y000664D01*
X030008Y000713D02*
X030458Y000713D01*
X030458Y000762D02*
X030008Y000762D01*
X030008Y000811D02*
X030458Y000811D01*
X030458Y000860D02*
X030008Y000860D01*
X030008Y000909D02*
X030458Y000909D01*
X030458Y000958D02*
X030008Y000958D01*
X030008Y001007D02*
X030458Y001007D01*
X030458Y001056D02*
X030008Y001056D01*
X030008Y001105D02*
X030458Y001105D01*
X030458Y001154D02*
X030008Y001154D01*
X030008Y001203D02*
X030458Y001203D01*
X030458Y001252D02*
X030008Y001252D01*
X030008Y001301D02*
X030458Y001301D01*
X030458Y001350D02*
X030008Y001350D01*
X030008Y001399D02*
X030458Y001399D01*
X030458Y001448D02*
X030008Y001448D01*
X030008Y001497D02*
X030458Y001497D01*
X030458Y001546D02*
X030008Y001546D01*
X030008Y001595D02*
X030458Y001595D01*
X030458Y001644D02*
X030008Y001644D01*
X030008Y001693D02*
X030458Y001693D01*
X030458Y001742D02*
X030008Y001742D01*
X030008Y001791D02*
X030458Y001791D01*
X030458Y001840D02*
X030008Y001840D01*
X030008Y001889D02*
X030458Y001889D01*
X030458Y001938D02*
X030008Y001938D01*
X030008Y001987D02*
X030458Y001987D01*
X030458Y002036D02*
X030008Y002036D01*
X030008Y002085D02*
X030458Y002085D01*
X030458Y002134D02*
X030008Y002134D01*
X030008Y002183D02*
X030458Y002183D01*
X030458Y002232D02*
X030008Y002232D01*
X030008Y002281D02*
X030458Y002281D01*
X030458Y002330D02*
X030008Y002330D01*
X030008Y002379D02*
X030458Y002379D01*
X030458Y002428D02*
X030008Y002428D01*
X030008Y002477D02*
X030458Y002477D01*
X031008Y000517D02*
X031458Y000517D01*
X031008Y000517D02*
X031008Y002483D01*
X031458Y002483D01*
X031458Y000517D01*
X031458Y000566D02*
X031008Y000566D01*
X031008Y000615D02*
X031458Y000615D01*
X031458Y000664D02*
X031008Y000664D01*
X031008Y000713D02*
X031458Y000713D01*
X031458Y000762D02*
X031008Y000762D01*
X031008Y000811D02*
X031458Y000811D01*
X031458Y000860D02*
X031008Y000860D01*
X031008Y000909D02*
X031458Y000909D01*
X031458Y000958D02*
X031008Y000958D01*
X031008Y001007D02*
X031458Y001007D01*
X031458Y001056D02*
X031008Y001056D01*
X031008Y001105D02*
X031458Y001105D01*
X031458Y001154D02*
X031008Y001154D01*
X031008Y001203D02*
X031458Y001203D01*
X031458Y001252D02*
X031008Y001252D01*
X031008Y001301D02*
X031458Y001301D01*
X031458Y001350D02*
X031008Y001350D01*
X031008Y001399D02*
X031458Y001399D01*
X031458Y001448D02*
X031008Y001448D01*
X031008Y001497D02*
X031458Y001497D01*
X031458Y001546D02*
X031008Y001546D01*
X031008Y001595D02*
X031458Y001595D01*
X031458Y001644D02*
X031008Y001644D01*
X031008Y001693D02*
X031458Y001693D01*
X031458Y001742D02*
X031008Y001742D01*
X031008Y001791D02*
X031458Y001791D01*
X031458Y001840D02*
X031008Y001840D01*
X031008Y001889D02*
X031458Y001889D01*
X031458Y001938D02*
X031008Y001938D01*
X031008Y001987D02*
X031458Y001987D01*
X031458Y002036D02*
X031008Y002036D01*
X031008Y002085D02*
X031458Y002085D01*
X031458Y002134D02*
X031008Y002134D01*
X031008Y002183D02*
X031458Y002183D01*
X031458Y002232D02*
X031008Y002232D01*
X031008Y002281D02*
X031458Y002281D01*
X031458Y002330D02*
X031008Y002330D01*
X031008Y002379D02*
X031458Y002379D01*
X031458Y002428D02*
X031008Y002428D01*
X031008Y002477D02*
X031458Y002477D01*
X032008Y000517D02*
X032458Y000517D01*
X032008Y000517D02*
X032008Y002483D01*
X032458Y002483D01*
X032458Y000517D01*
X032458Y000566D02*
X032008Y000566D01*
X032008Y000615D02*
X032458Y000615D01*
X032458Y000664D02*
X032008Y000664D01*
X032008Y000713D02*
X032458Y000713D01*
X032458Y000762D02*
X032008Y000762D01*
X032008Y000811D02*
X032458Y000811D01*
X032458Y000860D02*
X032008Y000860D01*
X032008Y000909D02*
X032458Y000909D01*
X032458Y000958D02*
X032008Y000958D01*
X032008Y001007D02*
X032458Y001007D01*
X032458Y001056D02*
X032008Y001056D01*
X032008Y001105D02*
X032458Y001105D01*
X032458Y001154D02*
X032008Y001154D01*
X032008Y001203D02*
X032458Y001203D01*
X032458Y001252D02*
X032008Y001252D01*
X032008Y001301D02*
X032458Y001301D01*
X032458Y001350D02*
X032008Y001350D01*
X032008Y001399D02*
X032458Y001399D01*
X032458Y001448D02*
X032008Y001448D01*
X032008Y001497D02*
X032458Y001497D01*
X032458Y001546D02*
X032008Y001546D01*
X032008Y001595D02*
X032458Y001595D01*
X032458Y001644D02*
X032008Y001644D01*
X032008Y001693D02*
X032458Y001693D01*
X032458Y001742D02*
X032008Y001742D01*
X032008Y001791D02*
X032458Y001791D01*
X032458Y001840D02*
X032008Y001840D01*
X032008Y001889D02*
X032458Y001889D01*
X032458Y001938D02*
X032008Y001938D01*
X032008Y001987D02*
X032458Y001987D01*
X032458Y002036D02*
X032008Y002036D01*
X032008Y002085D02*
X032458Y002085D01*
X032458Y002134D02*
X032008Y002134D01*
X032008Y002183D02*
X032458Y002183D01*
X032458Y002232D02*
X032008Y002232D01*
X032008Y002281D02*
X032458Y002281D01*
X032458Y002330D02*
X032008Y002330D01*
X032008Y002379D02*
X032458Y002379D01*
X032458Y002428D02*
X032008Y002428D01*
X032008Y002477D02*
X032458Y002477D01*
X033008Y000517D02*
X033458Y000517D01*
X033008Y000517D02*
X033008Y002483D01*
X033458Y002483D01*
X033458Y000517D01*
X033458Y000566D02*
X033008Y000566D01*
X033008Y000615D02*
X033458Y000615D01*
X033458Y000664D02*
X033008Y000664D01*
X033008Y000713D02*
X033458Y000713D01*
X033458Y000762D02*
X033008Y000762D01*
X033008Y000811D02*
X033458Y000811D01*
X033458Y000860D02*
X033008Y000860D01*
X033008Y000909D02*
X033458Y000909D01*
X033458Y000958D02*
X033008Y000958D01*
X033008Y001007D02*
X033458Y001007D01*
X033458Y001056D02*
X033008Y001056D01*
X033008Y001105D02*
X033458Y001105D01*
X033458Y001154D02*
X033008Y001154D01*
X033008Y001203D02*
X033458Y001203D01*
X033458Y001252D02*
X033008Y001252D01*
X033008Y001301D02*
X033458Y001301D01*
X033458Y001350D02*
X033008Y001350D01*
X033008Y001399D02*
X033458Y001399D01*
X033458Y001448D02*
X033008Y001448D01*
X033008Y001497D02*
X033458Y001497D01*
X033458Y001546D02*
X033008Y001546D01*
X033008Y001595D02*
X033458Y001595D01*
X033458Y001644D02*
X033008Y001644D01*
X033008Y001693D02*
X033458Y001693D01*
X033458Y001742D02*
X033008Y001742D01*
X033008Y001791D02*
X033458Y001791D01*
X033458Y001840D02*
X033008Y001840D01*
X033008Y001889D02*
X033458Y001889D01*
X033458Y001938D02*
X033008Y001938D01*
X033008Y001987D02*
X033458Y001987D01*
X033458Y002036D02*
X033008Y002036D01*
X033008Y002085D02*
X033458Y002085D01*
X033458Y002134D02*
X033008Y002134D01*
X033008Y002183D02*
X033458Y002183D01*
X033458Y002232D02*
X033008Y002232D01*
X033008Y002281D02*
X033458Y002281D01*
X033458Y002330D02*
X033008Y002330D01*
X033008Y002379D02*
X033458Y002379D01*
X033458Y002428D02*
X033008Y002428D01*
X033008Y002477D02*
X033458Y002477D01*
X034008Y000517D02*
X034458Y000517D01*
X034008Y000517D02*
X034008Y002483D01*
X034458Y002483D01*
X034458Y000517D01*
X034458Y000566D02*
X034008Y000566D01*
X034008Y000615D02*
X034458Y000615D01*
X034458Y000664D02*
X034008Y000664D01*
X034008Y000713D02*
X034458Y000713D01*
X034458Y000762D02*
X034008Y000762D01*
X034008Y000811D02*
X034458Y000811D01*
X034458Y000860D02*
X034008Y000860D01*
X034008Y000909D02*
X034458Y000909D01*
X034458Y000958D02*
X034008Y000958D01*
X034008Y001007D02*
X034458Y001007D01*
X034458Y001056D02*
X034008Y001056D01*
X034008Y001105D02*
X034458Y001105D01*
X034458Y001154D02*
X034008Y001154D01*
X034008Y001203D02*
X034458Y001203D01*
X034458Y001252D02*
X034008Y001252D01*
X034008Y001301D02*
X034458Y001301D01*
X034458Y001350D02*
X034008Y001350D01*
X034008Y001399D02*
X034458Y001399D01*
X034458Y001448D02*
X034008Y001448D01*
X034008Y001497D02*
X034458Y001497D01*
X034458Y001546D02*
X034008Y001546D01*
X034008Y001595D02*
X034458Y001595D01*
X034458Y001644D02*
X034008Y001644D01*
X034008Y001693D02*
X034458Y001693D01*
X034458Y001742D02*
X034008Y001742D01*
X034008Y001791D02*
X034458Y001791D01*
X034458Y001840D02*
X034008Y001840D01*
X034008Y001889D02*
X034458Y001889D01*
X034458Y001938D02*
X034008Y001938D01*
X034008Y001987D02*
X034458Y001987D01*
X034458Y002036D02*
X034008Y002036D01*
X034008Y002085D02*
X034458Y002085D01*
X034458Y002134D02*
X034008Y002134D01*
X034008Y002183D02*
X034458Y002183D01*
X034458Y002232D02*
X034008Y002232D01*
X034008Y002281D02*
X034458Y002281D01*
X034458Y002330D02*
X034008Y002330D01*
X034008Y002379D02*
X034458Y002379D01*
X034458Y002428D02*
X034008Y002428D01*
X034008Y002477D02*
X034458Y002477D01*
X035008Y000517D02*
X035458Y000517D01*
X035008Y000517D02*
X035008Y002483D01*
X035458Y002483D01*
X035458Y000517D01*
X035458Y000566D02*
X035008Y000566D01*
X035008Y000615D02*
X035458Y000615D01*
X035458Y000664D02*
X035008Y000664D01*
X035008Y000713D02*
X035458Y000713D01*
X035458Y000762D02*
X035008Y000762D01*
X035008Y000811D02*
X035458Y000811D01*
X035458Y000860D02*
X035008Y000860D01*
X035008Y000909D02*
X035458Y000909D01*
X035458Y000958D02*
X035008Y000958D01*
X035008Y001007D02*
X035458Y001007D01*
X035458Y001056D02*
X035008Y001056D01*
X035008Y001105D02*
X035458Y001105D01*
X035458Y001154D02*
X035008Y001154D01*
X035008Y001203D02*
X035458Y001203D01*
X035458Y001252D02*
X035008Y001252D01*
X035008Y001301D02*
X035458Y001301D01*
X035458Y001350D02*
X035008Y001350D01*
X035008Y001399D02*
X035458Y001399D01*
X035458Y001448D02*
X035008Y001448D01*
X035008Y001497D02*
X035458Y001497D01*
X035458Y001546D02*
X035008Y001546D01*
X035008Y001595D02*
X035458Y001595D01*
X035458Y001644D02*
X035008Y001644D01*
X035008Y001693D02*
X035458Y001693D01*
X035458Y001742D02*
X035008Y001742D01*
X035008Y001791D02*
X035458Y001791D01*
X035458Y001840D02*
X035008Y001840D01*
X035008Y001889D02*
X035458Y001889D01*
X035458Y001938D02*
X035008Y001938D01*
X035008Y001987D02*
X035458Y001987D01*
X035458Y002036D02*
X035008Y002036D01*
X035008Y002085D02*
X035458Y002085D01*
X035458Y002134D02*
X035008Y002134D01*
X035008Y002183D02*
X035458Y002183D01*
X035458Y002232D02*
X035008Y002232D01*
X035008Y002281D02*
X035458Y002281D01*
X035458Y002330D02*
X035008Y002330D01*
X035008Y002379D02*
X035458Y002379D01*
X035458Y002428D02*
X035008Y002428D01*
X035008Y002477D02*
X035458Y002477D01*
X036008Y000517D02*
X036458Y000517D01*
X036008Y000517D02*
X036008Y002483D01*
X036458Y002483D01*
X036458Y000517D01*
X036458Y000566D02*
X036008Y000566D01*
X036008Y000615D02*
X036458Y000615D01*
X036458Y000664D02*
X036008Y000664D01*
X036008Y000713D02*
X036458Y000713D01*
X036458Y000762D02*
X036008Y000762D01*
X036008Y000811D02*
X036458Y000811D01*
X036458Y000860D02*
X036008Y000860D01*
X036008Y000909D02*
X036458Y000909D01*
X036458Y000958D02*
X036008Y000958D01*
X036008Y001007D02*
X036458Y001007D01*
X036458Y001056D02*
X036008Y001056D01*
X036008Y001105D02*
X036458Y001105D01*
X036458Y001154D02*
X036008Y001154D01*
X036008Y001203D02*
X036458Y001203D01*
X036458Y001252D02*
X036008Y001252D01*
X036008Y001301D02*
X036458Y001301D01*
X036458Y001350D02*
X036008Y001350D01*
X036008Y001399D02*
X036458Y001399D01*
X036458Y001448D02*
X036008Y001448D01*
X036008Y001497D02*
X036458Y001497D01*
X036458Y001546D02*
X036008Y001546D01*
X036008Y001595D02*
X036458Y001595D01*
X036458Y001644D02*
X036008Y001644D01*
X036008Y001693D02*
X036458Y001693D01*
X036458Y001742D02*
X036008Y001742D01*
X036008Y001791D02*
X036458Y001791D01*
X036458Y001840D02*
X036008Y001840D01*
X036008Y001889D02*
X036458Y001889D01*
X036458Y001938D02*
X036008Y001938D01*
X036008Y001987D02*
X036458Y001987D01*
X036458Y002036D02*
X036008Y002036D01*
X036008Y002085D02*
X036458Y002085D01*
X036458Y002134D02*
X036008Y002134D01*
X036008Y002183D02*
X036458Y002183D01*
X036458Y002232D02*
X036008Y002232D01*
X036008Y002281D02*
X036458Y002281D01*
X036458Y002330D02*
X036008Y002330D01*
X036008Y002379D02*
X036458Y002379D01*
X036458Y002428D02*
X036008Y002428D01*
X036008Y002477D02*
X036458Y002477D01*
X037008Y000517D02*
X037458Y000517D01*
X037008Y000517D02*
X037008Y002483D01*
X037458Y002483D01*
X037458Y000517D01*
X037458Y000566D02*
X037008Y000566D01*
X037008Y000615D02*
X037458Y000615D01*
X037458Y000664D02*
X037008Y000664D01*
X037008Y000713D02*
X037458Y000713D01*
X037458Y000762D02*
X037008Y000762D01*
X037008Y000811D02*
X037458Y000811D01*
X037458Y000860D02*
X037008Y000860D01*
X037008Y000909D02*
X037458Y000909D01*
X037458Y000958D02*
X037008Y000958D01*
X037008Y001007D02*
X037458Y001007D01*
X037458Y001056D02*
X037008Y001056D01*
X037008Y001105D02*
X037458Y001105D01*
X037458Y001154D02*
X037008Y001154D01*
X037008Y001203D02*
X037458Y001203D01*
X037458Y001252D02*
X037008Y001252D01*
X037008Y001301D02*
X037458Y001301D01*
X037458Y001350D02*
X037008Y001350D01*
X037008Y001399D02*
X037458Y001399D01*
X037458Y001448D02*
X037008Y001448D01*
X037008Y001497D02*
X037458Y001497D01*
X037458Y001546D02*
X037008Y001546D01*
X037008Y001595D02*
X037458Y001595D01*
X037458Y001644D02*
X037008Y001644D01*
X037008Y001693D02*
X037458Y001693D01*
X037458Y001742D02*
X037008Y001742D01*
X037008Y001791D02*
X037458Y001791D01*
X037458Y001840D02*
X037008Y001840D01*
X037008Y001889D02*
X037458Y001889D01*
X037458Y001938D02*
X037008Y001938D01*
X037008Y001987D02*
X037458Y001987D01*
X037458Y002036D02*
X037008Y002036D01*
X037008Y002085D02*
X037458Y002085D01*
X037458Y002134D02*
X037008Y002134D01*
X037008Y002183D02*
X037458Y002183D01*
X037458Y002232D02*
X037008Y002232D01*
X037008Y002281D02*
X037458Y002281D01*
X037458Y002330D02*
X037008Y002330D01*
X037008Y002379D02*
X037458Y002379D01*
X037458Y002428D02*
X037008Y002428D01*
X037008Y002477D02*
X037458Y002477D01*
X038008Y000517D02*
X038458Y000517D01*
X038008Y000517D02*
X038008Y002483D01*
X038458Y002483D01*
X038458Y000517D01*
X038458Y000566D02*
X038008Y000566D01*
X038008Y000615D02*
X038458Y000615D01*
X038458Y000664D02*
X038008Y000664D01*
X038008Y000713D02*
X038458Y000713D01*
X038458Y000762D02*
X038008Y000762D01*
X038008Y000811D02*
X038458Y000811D01*
X038458Y000860D02*
X038008Y000860D01*
X038008Y000909D02*
X038458Y000909D01*
X038458Y000958D02*
X038008Y000958D01*
X038008Y001007D02*
X038458Y001007D01*
X038458Y001056D02*
X038008Y001056D01*
X038008Y001105D02*
X038458Y001105D01*
X038458Y001154D02*
X038008Y001154D01*
X038008Y001203D02*
X038458Y001203D01*
X038458Y001252D02*
X038008Y001252D01*
X038008Y001301D02*
X038458Y001301D01*
X038458Y001350D02*
X038008Y001350D01*
X038008Y001399D02*
X038458Y001399D01*
X038458Y001448D02*
X038008Y001448D01*
X038008Y001497D02*
X038458Y001497D01*
X038458Y001546D02*
X038008Y001546D01*
X038008Y001595D02*
X038458Y001595D01*
X038458Y001644D02*
X038008Y001644D01*
X038008Y001693D02*
X038458Y001693D01*
X038458Y001742D02*
X038008Y001742D01*
X038008Y001791D02*
X038458Y001791D01*
X038458Y001840D02*
X038008Y001840D01*
X038008Y001889D02*
X038458Y001889D01*
X038458Y001938D02*
X038008Y001938D01*
X038008Y001987D02*
X038458Y001987D01*
X038458Y002036D02*
X038008Y002036D01*
X038008Y002085D02*
X038458Y002085D01*
X038458Y002134D02*
X038008Y002134D01*
X038008Y002183D02*
X038458Y002183D01*
X038458Y002232D02*
X038008Y002232D01*
X038008Y002281D02*
X038458Y002281D01*
X038458Y002330D02*
X038008Y002330D01*
X038008Y002379D02*
X038458Y002379D01*
X038458Y002428D02*
X038008Y002428D01*
X038008Y002477D02*
X038458Y002477D01*
D15*
X029347Y005962D02*
X029226Y005666D01*
X029113Y005368D01*
X029032Y005354D02*
X029269Y005354D01*
X029254Y005575D02*
X029538Y005575D01*
X029538Y005354D02*
X029788Y005354D01*
X029934Y005449D02*
X030488Y005449D01*
X030488Y005275D01*
X030298Y005243D02*
X030298Y005148D01*
X030084Y005148D01*
X030298Y005148D02*
X030298Y005053D01*
X030520Y004990D02*
X030520Y004816D01*
X029934Y004816D01*
X030045Y004863D02*
X030045Y005417D01*
X029444Y005987D02*
X029127Y005987D01*
X031200Y004863D02*
X031200Y004721D01*
X031200Y004720D02*
X031192Y004748D01*
X031181Y004774D01*
X031166Y004799D01*
X031149Y004821D01*
X031128Y004841D01*
X031106Y004859D01*
X031081Y004873D01*
X031054Y004884D01*
X031027Y004891D01*
X030998Y004895D01*
X030970Y004896D01*
X030941Y004892D01*
X030914Y004885D01*
X030887Y004875D01*
X030862Y004861D01*
X030839Y004844D01*
X030818Y004824D01*
X030800Y004802D01*
X030785Y004778D01*
X030773Y004752D01*
X030774Y004737D02*
X030771Y004715D01*
X030772Y004692D01*
X030777Y004670D01*
X030785Y004649D01*
X030797Y004630D01*
X030811Y004613D01*
X030828Y004599D01*
X030848Y004587D01*
X030868Y004579D01*
X030741Y004357D02*
X030759Y004329D01*
X030779Y004304D01*
X030802Y004281D01*
X030827Y004261D01*
X030855Y004244D01*
X030884Y004230D01*
X030915Y004220D01*
X030947Y004214D01*
X030979Y004211D01*
X031011Y004212D01*
X031043Y004217D01*
X031075Y004226D01*
X031105Y004238D01*
X031133Y004253D01*
X031160Y004272D01*
X031184Y004294D01*
X031185Y004294D02*
X031199Y004308D01*
X031210Y004324D01*
X031219Y004342D01*
X031224Y004361D01*
X031226Y004381D01*
X031225Y004401D01*
X031220Y004421D01*
X031213Y004439D01*
X031202Y004456D01*
X031189Y004471D01*
X031173Y004483D01*
X031156Y004493D01*
X031137Y004500D01*
X030741Y004357D02*
X030741Y004230D01*
X030888Y004574D02*
X030951Y004559D01*
X031012Y004542D01*
X031073Y004522D01*
X031132Y004500D01*
X029693Y005360D02*
X029567Y005669D01*
X029450Y005980D01*
D16*
X029733Y004000D03*
X028733Y004000D03*
X027733Y004000D03*
X026733Y004000D03*
X025733Y004000D03*
X024733Y004000D03*
X023733Y004000D03*
X022733Y004000D03*
X021733Y004000D03*
X020733Y004000D03*
X020733Y013050D03*
X021733Y013050D03*
X022733Y013050D03*
X023733Y013050D03*
X024733Y013050D03*
X025733Y013050D03*
X026733Y013050D03*
X027733Y013050D03*
X028733Y013050D03*
X029733Y013050D03*
D17*
X030833Y013600D03*
X031383Y013200D03*
X031733Y012850D03*
X032533Y013450D03*
X033833Y013450D03*
X034333Y013750D03*
X034433Y013050D03*
X034033Y012450D03*
X033733Y011750D03*
X033133Y011750D03*
X031733Y011750D03*
X031233Y011750D03*
X030133Y012100D03*
X028233Y011950D03*
X025133Y012050D03*
X031983Y014100D03*
X032433Y013950D03*
X033133Y014900D03*
X033633Y014750D03*
X037233Y014450D03*
X037833Y014850D03*
X037633Y012050D03*
X036733Y011750D03*
X035733Y011750D03*
X035233Y011750D03*
X033733Y005500D03*
X032733Y003500D03*
X033233Y003000D03*
X034233Y003000D03*
X020733Y006100D03*
D18*
X018633Y005900D02*
X018633Y004000D01*
X018233Y003600D01*
X018233Y001500D01*
X017233Y001500D02*
X017233Y003700D01*
X018033Y004500D01*
X018033Y005500D01*
X017233Y006300D01*
X017233Y007500D01*
X018233Y007500D02*
X018233Y006300D01*
X018633Y005900D01*
X016233Y006300D02*
X015433Y005500D01*
X015433Y004500D01*
X016233Y003700D01*
X016233Y001500D01*
X019233Y001500D02*
X019233Y007500D01*
X016233Y007500D02*
X016233Y006300D01*
X016233Y010450D02*
X016233Y012550D01*
X015433Y013350D01*
X015433Y014450D01*
X016233Y015250D01*
X016233Y016450D01*
X037233Y007500D02*
X037233Y001500D01*
X038233Y001500D02*
X038233Y007500D01*
M02*
