G75*
G70*
%OFA0B0*%
%FSLAX24Y24*%
%IPPOS*%
%LPD*%
%AMOC8*
5,1,8,0,0,1.08239X$1,22.5*
%
%ADD10C,0.0100*%
%ADD11C,0.0000*%
%ADD12C,0.1339*%
%ADD13C,0.0058*%
%ADD14R,0.0709X0.0539*%
%ADD15R,0.0720X0.0060*%
%ADD16C,0.0591*%
%ADD17C,0.0433*%
D10*
X013733Y000894D02*
X013733Y008500D01*
X013840Y008500D01*
X013879Y008502D01*
X013917Y008508D01*
X013954Y008517D01*
X013991Y008530D01*
X014026Y008547D01*
X014059Y008566D01*
X014090Y008589D01*
X014119Y008615D01*
X014145Y008644D01*
X014168Y008675D01*
X014187Y008708D01*
X014204Y008743D01*
X014217Y008780D01*
X014226Y008817D01*
X014232Y008855D01*
X014234Y008894D01*
X014233Y008894D02*
X014233Y009056D01*
X014234Y009056D02*
X014232Y009095D01*
X014226Y009133D01*
X014217Y009170D01*
X014204Y009207D01*
X014187Y009242D01*
X014168Y009275D01*
X014145Y009306D01*
X014119Y009335D01*
X014090Y009361D01*
X014059Y009384D01*
X014026Y009403D01*
X013991Y009420D01*
X013954Y009433D01*
X013917Y009442D01*
X013879Y009448D01*
X013840Y009450D01*
X013733Y009450D01*
X013733Y017056D01*
X013735Y017095D01*
X013741Y017133D01*
X013750Y017170D01*
X013763Y017207D01*
X013780Y017242D01*
X013799Y017275D01*
X013822Y017306D01*
X013848Y017335D01*
X013877Y017361D01*
X013908Y017384D01*
X013941Y017403D01*
X013976Y017420D01*
X014013Y017433D01*
X014050Y017442D01*
X014088Y017448D01*
X014127Y017450D01*
X040340Y017450D01*
X040379Y017448D01*
X040417Y017442D01*
X040454Y017433D01*
X040491Y017420D01*
X040526Y017403D01*
X040559Y017384D01*
X040590Y017361D01*
X040619Y017335D01*
X040645Y017306D01*
X040668Y017275D01*
X040687Y017242D01*
X040704Y017207D01*
X040717Y017170D01*
X040726Y017133D01*
X040732Y017095D01*
X040734Y017056D01*
X040733Y017056D02*
X040733Y009450D01*
X040677Y009450D01*
X040638Y009448D01*
X040600Y009442D01*
X040563Y009433D01*
X040526Y009420D01*
X040491Y009403D01*
X040458Y009384D01*
X040427Y009361D01*
X040398Y009335D01*
X040372Y009306D01*
X040349Y009275D01*
X040330Y009242D01*
X040313Y009207D01*
X040300Y009170D01*
X040291Y009133D01*
X040285Y009095D01*
X040283Y009056D01*
X040283Y008850D01*
X040285Y008813D01*
X040291Y008777D01*
X040300Y008742D01*
X040313Y008708D01*
X040330Y008675D01*
X040350Y008644D01*
X040373Y008616D01*
X040399Y008590D01*
X040427Y008567D01*
X040458Y008547D01*
X040491Y008530D01*
X040525Y008517D01*
X040560Y008508D01*
X040596Y008502D01*
X040633Y008500D01*
X040733Y008500D01*
X040733Y000894D01*
X040734Y000894D02*
X040732Y000855D01*
X040726Y000817D01*
X040717Y000780D01*
X040704Y000743D01*
X040687Y000708D01*
X040668Y000675D01*
X040645Y000644D01*
X040619Y000615D01*
X040590Y000589D01*
X040559Y000566D01*
X040526Y000547D01*
X040491Y000530D01*
X040454Y000517D01*
X040417Y000508D01*
X040379Y000502D01*
X040340Y000500D01*
X014127Y000500D01*
X014088Y000502D01*
X014050Y000508D01*
X014013Y000517D01*
X013976Y000530D01*
X013941Y000547D01*
X013908Y000566D01*
X013877Y000589D01*
X013848Y000615D01*
X013822Y000644D01*
X013799Y000675D01*
X013780Y000708D01*
X013763Y000743D01*
X013750Y000780D01*
X013741Y000817D01*
X013735Y000855D01*
X013733Y000894D01*
X015627Y008500D02*
X039040Y008500D01*
X039079Y008502D01*
X039117Y008508D01*
X039154Y008517D01*
X039191Y008530D01*
X039226Y008547D01*
X039259Y008566D01*
X039290Y008589D01*
X039319Y008615D01*
X039345Y008644D01*
X039368Y008675D01*
X039387Y008708D01*
X039404Y008743D01*
X039417Y008780D01*
X039426Y008817D01*
X039432Y008855D01*
X039434Y008894D01*
X039433Y008894D02*
X039433Y009056D01*
X039434Y009056D02*
X039432Y009095D01*
X039426Y009133D01*
X039417Y009170D01*
X039404Y009207D01*
X039387Y009242D01*
X039368Y009275D01*
X039345Y009306D01*
X039319Y009335D01*
X039290Y009361D01*
X039259Y009384D01*
X039226Y009403D01*
X039191Y009420D01*
X039154Y009433D01*
X039117Y009442D01*
X039079Y009448D01*
X039040Y009450D01*
X015627Y009450D01*
X015588Y009448D01*
X015550Y009442D01*
X015513Y009433D01*
X015476Y009420D01*
X015441Y009403D01*
X015408Y009384D01*
X015377Y009361D01*
X015348Y009335D01*
X015322Y009306D01*
X015299Y009275D01*
X015280Y009242D01*
X015263Y009207D01*
X015250Y009170D01*
X015241Y009133D01*
X015235Y009095D01*
X015233Y009056D01*
X015233Y008894D01*
X015235Y008855D01*
X015241Y008817D01*
X015250Y008780D01*
X015263Y008743D01*
X015280Y008708D01*
X015299Y008675D01*
X015322Y008644D01*
X015348Y008615D01*
X015377Y008589D01*
X015408Y008566D01*
X015441Y008547D01*
X015476Y008530D01*
X015513Y008517D01*
X015550Y008508D01*
X015588Y008502D01*
X015627Y008500D01*
D11*
X016103Y005000D02*
X016105Y005050D01*
X016111Y005100D01*
X016121Y005149D01*
X016135Y005197D01*
X016152Y005244D01*
X016173Y005289D01*
X016198Y005333D01*
X016226Y005374D01*
X016258Y005413D01*
X016292Y005450D01*
X016329Y005484D01*
X016369Y005514D01*
X016411Y005541D01*
X016455Y005565D01*
X016501Y005586D01*
X016548Y005602D01*
X016596Y005615D01*
X016646Y005624D01*
X016695Y005629D01*
X016746Y005630D01*
X016796Y005627D01*
X016845Y005620D01*
X016894Y005609D01*
X016942Y005594D01*
X016988Y005576D01*
X017033Y005554D01*
X017076Y005528D01*
X017117Y005499D01*
X017156Y005467D01*
X017192Y005432D01*
X017224Y005394D01*
X017254Y005354D01*
X017281Y005311D01*
X017304Y005267D01*
X017323Y005221D01*
X017339Y005173D01*
X017351Y005124D01*
X017359Y005075D01*
X017363Y005025D01*
X017363Y004975D01*
X017359Y004925D01*
X017351Y004876D01*
X017339Y004827D01*
X017323Y004779D01*
X017304Y004733D01*
X017281Y004689D01*
X017254Y004646D01*
X017224Y004606D01*
X017192Y004568D01*
X017156Y004533D01*
X017117Y004501D01*
X017076Y004472D01*
X017033Y004446D01*
X016988Y004424D01*
X016942Y004406D01*
X016894Y004391D01*
X016845Y004380D01*
X016796Y004373D01*
X016746Y004370D01*
X016695Y004371D01*
X016646Y004376D01*
X016596Y004385D01*
X016548Y004398D01*
X016501Y004414D01*
X016455Y004435D01*
X016411Y004459D01*
X016369Y004486D01*
X016329Y004516D01*
X016292Y004550D01*
X016258Y004587D01*
X016226Y004626D01*
X016198Y004667D01*
X016173Y004711D01*
X016152Y004756D01*
X016135Y004803D01*
X016121Y004851D01*
X016111Y004900D01*
X016105Y004950D01*
X016103Y005000D01*
X016103Y013950D02*
X016105Y014000D01*
X016111Y014050D01*
X016121Y014099D01*
X016135Y014147D01*
X016152Y014194D01*
X016173Y014239D01*
X016198Y014283D01*
X016226Y014324D01*
X016258Y014363D01*
X016292Y014400D01*
X016329Y014434D01*
X016369Y014464D01*
X016411Y014491D01*
X016455Y014515D01*
X016501Y014536D01*
X016548Y014552D01*
X016596Y014565D01*
X016646Y014574D01*
X016695Y014579D01*
X016746Y014580D01*
X016796Y014577D01*
X016845Y014570D01*
X016894Y014559D01*
X016942Y014544D01*
X016988Y014526D01*
X017033Y014504D01*
X017076Y014478D01*
X017117Y014449D01*
X017156Y014417D01*
X017192Y014382D01*
X017224Y014344D01*
X017254Y014304D01*
X017281Y014261D01*
X017304Y014217D01*
X017323Y014171D01*
X017339Y014123D01*
X017351Y014074D01*
X017359Y014025D01*
X017363Y013975D01*
X017363Y013925D01*
X017359Y013875D01*
X017351Y013826D01*
X017339Y013777D01*
X017323Y013729D01*
X017304Y013683D01*
X017281Y013639D01*
X017254Y013596D01*
X017224Y013556D01*
X017192Y013518D01*
X017156Y013483D01*
X017117Y013451D01*
X017076Y013422D01*
X017033Y013396D01*
X016988Y013374D01*
X016942Y013356D01*
X016894Y013341D01*
X016845Y013330D01*
X016796Y013323D01*
X016746Y013320D01*
X016695Y013321D01*
X016646Y013326D01*
X016596Y013335D01*
X016548Y013348D01*
X016501Y013364D01*
X016455Y013385D01*
X016411Y013409D01*
X016369Y013436D01*
X016329Y013466D01*
X016292Y013500D01*
X016258Y013537D01*
X016226Y013576D01*
X016198Y013617D01*
X016173Y013661D01*
X016152Y013706D01*
X016135Y013753D01*
X016121Y013801D01*
X016111Y013850D01*
X016105Y013900D01*
X016103Y013950D01*
X035103Y013450D02*
X035105Y013500D01*
X035111Y013550D01*
X035121Y013599D01*
X035135Y013647D01*
X035152Y013694D01*
X035173Y013739D01*
X035198Y013783D01*
X035226Y013824D01*
X035258Y013863D01*
X035292Y013900D01*
X035329Y013934D01*
X035369Y013964D01*
X035411Y013991D01*
X035455Y014015D01*
X035501Y014036D01*
X035548Y014052D01*
X035596Y014065D01*
X035646Y014074D01*
X035695Y014079D01*
X035746Y014080D01*
X035796Y014077D01*
X035845Y014070D01*
X035894Y014059D01*
X035942Y014044D01*
X035988Y014026D01*
X036033Y014004D01*
X036076Y013978D01*
X036117Y013949D01*
X036156Y013917D01*
X036192Y013882D01*
X036224Y013844D01*
X036254Y013804D01*
X036281Y013761D01*
X036304Y013717D01*
X036323Y013671D01*
X036339Y013623D01*
X036351Y013574D01*
X036359Y013525D01*
X036363Y013475D01*
X036363Y013425D01*
X036359Y013375D01*
X036351Y013326D01*
X036339Y013277D01*
X036323Y013229D01*
X036304Y013183D01*
X036281Y013139D01*
X036254Y013096D01*
X036224Y013056D01*
X036192Y013018D01*
X036156Y012983D01*
X036117Y012951D01*
X036076Y012922D01*
X036033Y012896D01*
X035988Y012874D01*
X035942Y012856D01*
X035894Y012841D01*
X035845Y012830D01*
X035796Y012823D01*
X035746Y012820D01*
X035695Y012821D01*
X035646Y012826D01*
X035596Y012835D01*
X035548Y012848D01*
X035501Y012864D01*
X035455Y012885D01*
X035411Y012909D01*
X035369Y012936D01*
X035329Y012966D01*
X035292Y013000D01*
X035258Y013037D01*
X035226Y013076D01*
X035198Y013117D01*
X035173Y013161D01*
X035152Y013206D01*
X035135Y013253D01*
X035121Y013301D01*
X035111Y013350D01*
X035105Y013400D01*
X035103Y013450D01*
X035103Y004500D02*
X035105Y004550D01*
X035111Y004600D01*
X035121Y004649D01*
X035135Y004697D01*
X035152Y004744D01*
X035173Y004789D01*
X035198Y004833D01*
X035226Y004874D01*
X035258Y004913D01*
X035292Y004950D01*
X035329Y004984D01*
X035369Y005014D01*
X035411Y005041D01*
X035455Y005065D01*
X035501Y005086D01*
X035548Y005102D01*
X035596Y005115D01*
X035646Y005124D01*
X035695Y005129D01*
X035746Y005130D01*
X035796Y005127D01*
X035845Y005120D01*
X035894Y005109D01*
X035942Y005094D01*
X035988Y005076D01*
X036033Y005054D01*
X036076Y005028D01*
X036117Y004999D01*
X036156Y004967D01*
X036192Y004932D01*
X036224Y004894D01*
X036254Y004854D01*
X036281Y004811D01*
X036304Y004767D01*
X036323Y004721D01*
X036339Y004673D01*
X036351Y004624D01*
X036359Y004575D01*
X036363Y004525D01*
X036363Y004475D01*
X036359Y004425D01*
X036351Y004376D01*
X036339Y004327D01*
X036323Y004279D01*
X036304Y004233D01*
X036281Y004189D01*
X036254Y004146D01*
X036224Y004106D01*
X036192Y004068D01*
X036156Y004033D01*
X036117Y004001D01*
X036076Y003972D01*
X036033Y003946D01*
X035988Y003924D01*
X035942Y003906D01*
X035894Y003891D01*
X035845Y003880D01*
X035796Y003873D01*
X035746Y003870D01*
X035695Y003871D01*
X035646Y003876D01*
X035596Y003885D01*
X035548Y003898D01*
X035501Y003914D01*
X035455Y003935D01*
X035411Y003959D01*
X035369Y003986D01*
X035329Y004016D01*
X035292Y004050D01*
X035258Y004087D01*
X035226Y004126D01*
X035198Y004167D01*
X035173Y004211D01*
X035152Y004256D01*
X035135Y004303D01*
X035121Y004351D01*
X035111Y004400D01*
X035105Y004450D01*
X035103Y004500D01*
D12*
X035733Y004500D03*
X035733Y013450D03*
X016733Y013950D03*
X016733Y005000D03*
D13*
X016493Y006482D02*
X015973Y006482D01*
X015973Y008518D01*
X016493Y008518D01*
X016493Y006482D01*
X016493Y006539D02*
X015973Y006539D01*
X015973Y006596D02*
X016493Y006596D01*
X016493Y006653D02*
X015973Y006653D01*
X015973Y006710D02*
X016493Y006710D01*
X016493Y006767D02*
X015973Y006767D01*
X015973Y006824D02*
X016493Y006824D01*
X016493Y006881D02*
X015973Y006881D01*
X015973Y006938D02*
X016493Y006938D01*
X016493Y006995D02*
X015973Y006995D01*
X015973Y007052D02*
X016493Y007052D01*
X016493Y007109D02*
X015973Y007109D01*
X015973Y007166D02*
X016493Y007166D01*
X016493Y007223D02*
X015973Y007223D01*
X015973Y007280D02*
X016493Y007280D01*
X016493Y007337D02*
X015973Y007337D01*
X015973Y007394D02*
X016493Y007394D01*
X016493Y007451D02*
X015973Y007451D01*
X015973Y007508D02*
X016493Y007508D01*
X016493Y007565D02*
X015973Y007565D01*
X015973Y007622D02*
X016493Y007622D01*
X016493Y007679D02*
X015973Y007679D01*
X015973Y007736D02*
X016493Y007736D01*
X016493Y007793D02*
X015973Y007793D01*
X015973Y007850D02*
X016493Y007850D01*
X016493Y007907D02*
X015973Y007907D01*
X015973Y007964D02*
X016493Y007964D01*
X016493Y008021D02*
X015973Y008021D01*
X015973Y008078D02*
X016493Y008078D01*
X016493Y008135D02*
X015973Y008135D01*
X015973Y008192D02*
X016493Y008192D01*
X016493Y008249D02*
X015973Y008249D01*
X015973Y008306D02*
X016493Y008306D01*
X016493Y008363D02*
X015973Y008363D01*
X015973Y008420D02*
X016493Y008420D01*
X016493Y008477D02*
X015973Y008477D01*
X016973Y006482D02*
X017493Y006482D01*
X016973Y006482D02*
X016973Y008518D01*
X017493Y008518D01*
X017493Y006482D01*
X017493Y006539D02*
X016973Y006539D01*
X016973Y006596D02*
X017493Y006596D01*
X017493Y006653D02*
X016973Y006653D01*
X016973Y006710D02*
X017493Y006710D01*
X017493Y006767D02*
X016973Y006767D01*
X016973Y006824D02*
X017493Y006824D01*
X017493Y006881D02*
X016973Y006881D01*
X016973Y006938D02*
X017493Y006938D01*
X017493Y006995D02*
X016973Y006995D01*
X016973Y007052D02*
X017493Y007052D01*
X017493Y007109D02*
X016973Y007109D01*
X016973Y007166D02*
X017493Y007166D01*
X017493Y007223D02*
X016973Y007223D01*
X016973Y007280D02*
X017493Y007280D01*
X017493Y007337D02*
X016973Y007337D01*
X016973Y007394D02*
X017493Y007394D01*
X017493Y007451D02*
X016973Y007451D01*
X016973Y007508D02*
X017493Y007508D01*
X017493Y007565D02*
X016973Y007565D01*
X016973Y007622D02*
X017493Y007622D01*
X017493Y007679D02*
X016973Y007679D01*
X016973Y007736D02*
X017493Y007736D01*
X017493Y007793D02*
X016973Y007793D01*
X016973Y007850D02*
X017493Y007850D01*
X017493Y007907D02*
X016973Y007907D01*
X016973Y007964D02*
X017493Y007964D01*
X017493Y008021D02*
X016973Y008021D01*
X016973Y008078D02*
X017493Y008078D01*
X017493Y008135D02*
X016973Y008135D01*
X016973Y008192D02*
X017493Y008192D01*
X017493Y008249D02*
X016973Y008249D01*
X016973Y008306D02*
X017493Y008306D01*
X017493Y008363D02*
X016973Y008363D01*
X016973Y008420D02*
X017493Y008420D01*
X017493Y008477D02*
X016973Y008477D01*
X017973Y006482D02*
X018493Y006482D01*
X017973Y006482D02*
X017973Y008518D01*
X018493Y008518D01*
X018493Y006482D01*
X018493Y006539D02*
X017973Y006539D01*
X017973Y006596D02*
X018493Y006596D01*
X018493Y006653D02*
X017973Y006653D01*
X017973Y006710D02*
X018493Y006710D01*
X018493Y006767D02*
X017973Y006767D01*
X017973Y006824D02*
X018493Y006824D01*
X018493Y006881D02*
X017973Y006881D01*
X017973Y006938D02*
X018493Y006938D01*
X018493Y006995D02*
X017973Y006995D01*
X017973Y007052D02*
X018493Y007052D01*
X018493Y007109D02*
X017973Y007109D01*
X017973Y007166D02*
X018493Y007166D01*
X018493Y007223D02*
X017973Y007223D01*
X017973Y007280D02*
X018493Y007280D01*
X018493Y007337D02*
X017973Y007337D01*
X017973Y007394D02*
X018493Y007394D01*
X018493Y007451D02*
X017973Y007451D01*
X017973Y007508D02*
X018493Y007508D01*
X018493Y007565D02*
X017973Y007565D01*
X017973Y007622D02*
X018493Y007622D01*
X018493Y007679D02*
X017973Y007679D01*
X017973Y007736D02*
X018493Y007736D01*
X018493Y007793D02*
X017973Y007793D01*
X017973Y007850D02*
X018493Y007850D01*
X018493Y007907D02*
X017973Y007907D01*
X017973Y007964D02*
X018493Y007964D01*
X018493Y008021D02*
X017973Y008021D01*
X017973Y008078D02*
X018493Y008078D01*
X018493Y008135D02*
X017973Y008135D01*
X017973Y008192D02*
X018493Y008192D01*
X018493Y008249D02*
X017973Y008249D01*
X017973Y008306D02*
X018493Y008306D01*
X018493Y008363D02*
X017973Y008363D01*
X017973Y008420D02*
X018493Y008420D01*
X018493Y008477D02*
X017973Y008477D01*
X018973Y006482D02*
X019493Y006482D01*
X018973Y006482D02*
X018973Y008518D01*
X019493Y008518D01*
X019493Y006482D01*
X019493Y006539D02*
X018973Y006539D01*
X018973Y006596D02*
X019493Y006596D01*
X019493Y006653D02*
X018973Y006653D01*
X018973Y006710D02*
X019493Y006710D01*
X019493Y006767D02*
X018973Y006767D01*
X018973Y006824D02*
X019493Y006824D01*
X019493Y006881D02*
X018973Y006881D01*
X018973Y006938D02*
X019493Y006938D01*
X019493Y006995D02*
X018973Y006995D01*
X018973Y007052D02*
X019493Y007052D01*
X019493Y007109D02*
X018973Y007109D01*
X018973Y007166D02*
X019493Y007166D01*
X019493Y007223D02*
X018973Y007223D01*
X018973Y007280D02*
X019493Y007280D01*
X019493Y007337D02*
X018973Y007337D01*
X018973Y007394D02*
X019493Y007394D01*
X019493Y007451D02*
X018973Y007451D01*
X018973Y007508D02*
X019493Y007508D01*
X019493Y007565D02*
X018973Y007565D01*
X018973Y007622D02*
X019493Y007622D01*
X019493Y007679D02*
X018973Y007679D01*
X018973Y007736D02*
X019493Y007736D01*
X019493Y007793D02*
X018973Y007793D01*
X018973Y007850D02*
X019493Y007850D01*
X019493Y007907D02*
X018973Y007907D01*
X018973Y007964D02*
X019493Y007964D01*
X019493Y008021D02*
X018973Y008021D01*
X018973Y008078D02*
X019493Y008078D01*
X019493Y008135D02*
X018973Y008135D01*
X018973Y008192D02*
X019493Y008192D01*
X019493Y008249D02*
X018973Y008249D01*
X018973Y008306D02*
X019493Y008306D01*
X019493Y008363D02*
X018973Y008363D01*
X018973Y008420D02*
X019493Y008420D01*
X019493Y008477D02*
X018973Y008477D01*
X019973Y006482D02*
X020493Y006482D01*
X019973Y006482D02*
X019973Y008518D01*
X020493Y008518D01*
X020493Y006482D01*
X020493Y006539D02*
X019973Y006539D01*
X019973Y006596D02*
X020493Y006596D01*
X020493Y006653D02*
X019973Y006653D01*
X019973Y006710D02*
X020493Y006710D01*
X020493Y006767D02*
X019973Y006767D01*
X019973Y006824D02*
X020493Y006824D01*
X020493Y006881D02*
X019973Y006881D01*
X019973Y006938D02*
X020493Y006938D01*
X020493Y006995D02*
X019973Y006995D01*
X019973Y007052D02*
X020493Y007052D01*
X020493Y007109D02*
X019973Y007109D01*
X019973Y007166D02*
X020493Y007166D01*
X020493Y007223D02*
X019973Y007223D01*
X019973Y007280D02*
X020493Y007280D01*
X020493Y007337D02*
X019973Y007337D01*
X019973Y007394D02*
X020493Y007394D01*
X020493Y007451D02*
X019973Y007451D01*
X019973Y007508D02*
X020493Y007508D01*
X020493Y007565D02*
X019973Y007565D01*
X019973Y007622D02*
X020493Y007622D01*
X020493Y007679D02*
X019973Y007679D01*
X019973Y007736D02*
X020493Y007736D01*
X020493Y007793D02*
X019973Y007793D01*
X019973Y007850D02*
X020493Y007850D01*
X020493Y007907D02*
X019973Y007907D01*
X019973Y007964D02*
X020493Y007964D01*
X020493Y008021D02*
X019973Y008021D01*
X019973Y008078D02*
X020493Y008078D01*
X020493Y008135D02*
X019973Y008135D01*
X019973Y008192D02*
X020493Y008192D01*
X020493Y008249D02*
X019973Y008249D01*
X019973Y008306D02*
X020493Y008306D01*
X020493Y008363D02*
X019973Y008363D01*
X019973Y008420D02*
X020493Y008420D01*
X020493Y008477D02*
X019973Y008477D01*
X020973Y006482D02*
X021493Y006482D01*
X020973Y006482D02*
X020973Y008518D01*
X021493Y008518D01*
X021493Y006482D01*
X021493Y006539D02*
X020973Y006539D01*
X020973Y006596D02*
X021493Y006596D01*
X021493Y006653D02*
X020973Y006653D01*
X020973Y006710D02*
X021493Y006710D01*
X021493Y006767D02*
X020973Y006767D01*
X020973Y006824D02*
X021493Y006824D01*
X021493Y006881D02*
X020973Y006881D01*
X020973Y006938D02*
X021493Y006938D01*
X021493Y006995D02*
X020973Y006995D01*
X020973Y007052D02*
X021493Y007052D01*
X021493Y007109D02*
X020973Y007109D01*
X020973Y007166D02*
X021493Y007166D01*
X021493Y007223D02*
X020973Y007223D01*
X020973Y007280D02*
X021493Y007280D01*
X021493Y007337D02*
X020973Y007337D01*
X020973Y007394D02*
X021493Y007394D01*
X021493Y007451D02*
X020973Y007451D01*
X020973Y007508D02*
X021493Y007508D01*
X021493Y007565D02*
X020973Y007565D01*
X020973Y007622D02*
X021493Y007622D01*
X021493Y007679D02*
X020973Y007679D01*
X020973Y007736D02*
X021493Y007736D01*
X021493Y007793D02*
X020973Y007793D01*
X020973Y007850D02*
X021493Y007850D01*
X021493Y007907D02*
X020973Y007907D01*
X020973Y007964D02*
X021493Y007964D01*
X021493Y008021D02*
X020973Y008021D01*
X020973Y008078D02*
X021493Y008078D01*
X021493Y008135D02*
X020973Y008135D01*
X020973Y008192D02*
X021493Y008192D01*
X021493Y008249D02*
X020973Y008249D01*
X020973Y008306D02*
X021493Y008306D01*
X021493Y008363D02*
X020973Y008363D01*
X020973Y008420D02*
X021493Y008420D01*
X021493Y008477D02*
X020973Y008477D01*
X021973Y006482D02*
X022493Y006482D01*
X021973Y006482D02*
X021973Y008518D01*
X022493Y008518D01*
X022493Y006482D01*
X022493Y006539D02*
X021973Y006539D01*
X021973Y006596D02*
X022493Y006596D01*
X022493Y006653D02*
X021973Y006653D01*
X021973Y006710D02*
X022493Y006710D01*
X022493Y006767D02*
X021973Y006767D01*
X021973Y006824D02*
X022493Y006824D01*
X022493Y006881D02*
X021973Y006881D01*
X021973Y006938D02*
X022493Y006938D01*
X022493Y006995D02*
X021973Y006995D01*
X021973Y007052D02*
X022493Y007052D01*
X022493Y007109D02*
X021973Y007109D01*
X021973Y007166D02*
X022493Y007166D01*
X022493Y007223D02*
X021973Y007223D01*
X021973Y007280D02*
X022493Y007280D01*
X022493Y007337D02*
X021973Y007337D01*
X021973Y007394D02*
X022493Y007394D01*
X022493Y007451D02*
X021973Y007451D01*
X021973Y007508D02*
X022493Y007508D01*
X022493Y007565D02*
X021973Y007565D01*
X021973Y007622D02*
X022493Y007622D01*
X022493Y007679D02*
X021973Y007679D01*
X021973Y007736D02*
X022493Y007736D01*
X022493Y007793D02*
X021973Y007793D01*
X021973Y007850D02*
X022493Y007850D01*
X022493Y007907D02*
X021973Y007907D01*
X021973Y007964D02*
X022493Y007964D01*
X022493Y008021D02*
X021973Y008021D01*
X021973Y008078D02*
X022493Y008078D01*
X022493Y008135D02*
X021973Y008135D01*
X021973Y008192D02*
X022493Y008192D01*
X022493Y008249D02*
X021973Y008249D01*
X021973Y008306D02*
X022493Y008306D01*
X022493Y008363D02*
X021973Y008363D01*
X021973Y008420D02*
X022493Y008420D01*
X022493Y008477D02*
X021973Y008477D01*
X022973Y006482D02*
X023493Y006482D01*
X022973Y006482D02*
X022973Y008518D01*
X023493Y008518D01*
X023493Y006482D01*
X023493Y006539D02*
X022973Y006539D01*
X022973Y006596D02*
X023493Y006596D01*
X023493Y006653D02*
X022973Y006653D01*
X022973Y006710D02*
X023493Y006710D01*
X023493Y006767D02*
X022973Y006767D01*
X022973Y006824D02*
X023493Y006824D01*
X023493Y006881D02*
X022973Y006881D01*
X022973Y006938D02*
X023493Y006938D01*
X023493Y006995D02*
X022973Y006995D01*
X022973Y007052D02*
X023493Y007052D01*
X023493Y007109D02*
X022973Y007109D01*
X022973Y007166D02*
X023493Y007166D01*
X023493Y007223D02*
X022973Y007223D01*
X022973Y007280D02*
X023493Y007280D01*
X023493Y007337D02*
X022973Y007337D01*
X022973Y007394D02*
X023493Y007394D01*
X023493Y007451D02*
X022973Y007451D01*
X022973Y007508D02*
X023493Y007508D01*
X023493Y007565D02*
X022973Y007565D01*
X022973Y007622D02*
X023493Y007622D01*
X023493Y007679D02*
X022973Y007679D01*
X022973Y007736D02*
X023493Y007736D01*
X023493Y007793D02*
X022973Y007793D01*
X022973Y007850D02*
X023493Y007850D01*
X023493Y007907D02*
X022973Y007907D01*
X022973Y007964D02*
X023493Y007964D01*
X023493Y008021D02*
X022973Y008021D01*
X022973Y008078D02*
X023493Y008078D01*
X023493Y008135D02*
X022973Y008135D01*
X022973Y008192D02*
X023493Y008192D01*
X023493Y008249D02*
X022973Y008249D01*
X022973Y008306D02*
X023493Y008306D01*
X023493Y008363D02*
X022973Y008363D01*
X022973Y008420D02*
X023493Y008420D01*
X023493Y008477D02*
X022973Y008477D01*
X023973Y006482D02*
X024493Y006482D01*
X023973Y006482D02*
X023973Y008518D01*
X024493Y008518D01*
X024493Y006482D01*
X024493Y006539D02*
X023973Y006539D01*
X023973Y006596D02*
X024493Y006596D01*
X024493Y006653D02*
X023973Y006653D01*
X023973Y006710D02*
X024493Y006710D01*
X024493Y006767D02*
X023973Y006767D01*
X023973Y006824D02*
X024493Y006824D01*
X024493Y006881D02*
X023973Y006881D01*
X023973Y006938D02*
X024493Y006938D01*
X024493Y006995D02*
X023973Y006995D01*
X023973Y007052D02*
X024493Y007052D01*
X024493Y007109D02*
X023973Y007109D01*
X023973Y007166D02*
X024493Y007166D01*
X024493Y007223D02*
X023973Y007223D01*
X023973Y007280D02*
X024493Y007280D01*
X024493Y007337D02*
X023973Y007337D01*
X023973Y007394D02*
X024493Y007394D01*
X024493Y007451D02*
X023973Y007451D01*
X023973Y007508D02*
X024493Y007508D01*
X024493Y007565D02*
X023973Y007565D01*
X023973Y007622D02*
X024493Y007622D01*
X024493Y007679D02*
X023973Y007679D01*
X023973Y007736D02*
X024493Y007736D01*
X024493Y007793D02*
X023973Y007793D01*
X023973Y007850D02*
X024493Y007850D01*
X024493Y007907D02*
X023973Y007907D01*
X023973Y007964D02*
X024493Y007964D01*
X024493Y008021D02*
X023973Y008021D01*
X023973Y008078D02*
X024493Y008078D01*
X024493Y008135D02*
X023973Y008135D01*
X023973Y008192D02*
X024493Y008192D01*
X024493Y008249D02*
X023973Y008249D01*
X023973Y008306D02*
X024493Y008306D01*
X024493Y008363D02*
X023973Y008363D01*
X023973Y008420D02*
X024493Y008420D01*
X024493Y008477D02*
X023973Y008477D01*
X024973Y006482D02*
X025493Y006482D01*
X024973Y006482D02*
X024973Y008518D01*
X025493Y008518D01*
X025493Y006482D01*
X025493Y006539D02*
X024973Y006539D01*
X024973Y006596D02*
X025493Y006596D01*
X025493Y006653D02*
X024973Y006653D01*
X024973Y006710D02*
X025493Y006710D01*
X025493Y006767D02*
X024973Y006767D01*
X024973Y006824D02*
X025493Y006824D01*
X025493Y006881D02*
X024973Y006881D01*
X024973Y006938D02*
X025493Y006938D01*
X025493Y006995D02*
X024973Y006995D01*
X024973Y007052D02*
X025493Y007052D01*
X025493Y007109D02*
X024973Y007109D01*
X024973Y007166D02*
X025493Y007166D01*
X025493Y007223D02*
X024973Y007223D01*
X024973Y007280D02*
X025493Y007280D01*
X025493Y007337D02*
X024973Y007337D01*
X024973Y007394D02*
X025493Y007394D01*
X025493Y007451D02*
X024973Y007451D01*
X024973Y007508D02*
X025493Y007508D01*
X025493Y007565D02*
X024973Y007565D01*
X024973Y007622D02*
X025493Y007622D01*
X025493Y007679D02*
X024973Y007679D01*
X024973Y007736D02*
X025493Y007736D01*
X025493Y007793D02*
X024973Y007793D01*
X024973Y007850D02*
X025493Y007850D01*
X025493Y007907D02*
X024973Y007907D01*
X024973Y007964D02*
X025493Y007964D01*
X025493Y008021D02*
X024973Y008021D01*
X024973Y008078D02*
X025493Y008078D01*
X025493Y008135D02*
X024973Y008135D01*
X024973Y008192D02*
X025493Y008192D01*
X025493Y008249D02*
X024973Y008249D01*
X024973Y008306D02*
X025493Y008306D01*
X025493Y008363D02*
X024973Y008363D01*
X024973Y008420D02*
X025493Y008420D01*
X025493Y008477D02*
X024973Y008477D01*
X025973Y006482D02*
X026493Y006482D01*
X025973Y006482D02*
X025973Y008518D01*
X026493Y008518D01*
X026493Y006482D01*
X026493Y006539D02*
X025973Y006539D01*
X025973Y006596D02*
X026493Y006596D01*
X026493Y006653D02*
X025973Y006653D01*
X025973Y006710D02*
X026493Y006710D01*
X026493Y006767D02*
X025973Y006767D01*
X025973Y006824D02*
X026493Y006824D01*
X026493Y006881D02*
X025973Y006881D01*
X025973Y006938D02*
X026493Y006938D01*
X026493Y006995D02*
X025973Y006995D01*
X025973Y007052D02*
X026493Y007052D01*
X026493Y007109D02*
X025973Y007109D01*
X025973Y007166D02*
X026493Y007166D01*
X026493Y007223D02*
X025973Y007223D01*
X025973Y007280D02*
X026493Y007280D01*
X026493Y007337D02*
X025973Y007337D01*
X025973Y007394D02*
X026493Y007394D01*
X026493Y007451D02*
X025973Y007451D01*
X025973Y007508D02*
X026493Y007508D01*
X026493Y007565D02*
X025973Y007565D01*
X025973Y007622D02*
X026493Y007622D01*
X026493Y007679D02*
X025973Y007679D01*
X025973Y007736D02*
X026493Y007736D01*
X026493Y007793D02*
X025973Y007793D01*
X025973Y007850D02*
X026493Y007850D01*
X026493Y007907D02*
X025973Y007907D01*
X025973Y007964D02*
X026493Y007964D01*
X026493Y008021D02*
X025973Y008021D01*
X025973Y008078D02*
X026493Y008078D01*
X026493Y008135D02*
X025973Y008135D01*
X025973Y008192D02*
X026493Y008192D01*
X026493Y008249D02*
X025973Y008249D01*
X025973Y008306D02*
X026493Y008306D01*
X026493Y008363D02*
X025973Y008363D01*
X025973Y008420D02*
X026493Y008420D01*
X026493Y008477D02*
X025973Y008477D01*
X026973Y006482D02*
X027493Y006482D01*
X026973Y006482D02*
X026973Y008518D01*
X027493Y008518D01*
X027493Y006482D01*
X027493Y006539D02*
X026973Y006539D01*
X026973Y006596D02*
X027493Y006596D01*
X027493Y006653D02*
X026973Y006653D01*
X026973Y006710D02*
X027493Y006710D01*
X027493Y006767D02*
X026973Y006767D01*
X026973Y006824D02*
X027493Y006824D01*
X027493Y006881D02*
X026973Y006881D01*
X026973Y006938D02*
X027493Y006938D01*
X027493Y006995D02*
X026973Y006995D01*
X026973Y007052D02*
X027493Y007052D01*
X027493Y007109D02*
X026973Y007109D01*
X026973Y007166D02*
X027493Y007166D01*
X027493Y007223D02*
X026973Y007223D01*
X026973Y007280D02*
X027493Y007280D01*
X027493Y007337D02*
X026973Y007337D01*
X026973Y007394D02*
X027493Y007394D01*
X027493Y007451D02*
X026973Y007451D01*
X026973Y007508D02*
X027493Y007508D01*
X027493Y007565D02*
X026973Y007565D01*
X026973Y007622D02*
X027493Y007622D01*
X027493Y007679D02*
X026973Y007679D01*
X026973Y007736D02*
X027493Y007736D01*
X027493Y007793D02*
X026973Y007793D01*
X026973Y007850D02*
X027493Y007850D01*
X027493Y007907D02*
X026973Y007907D01*
X026973Y007964D02*
X027493Y007964D01*
X027493Y008021D02*
X026973Y008021D01*
X026973Y008078D02*
X027493Y008078D01*
X027493Y008135D02*
X026973Y008135D01*
X026973Y008192D02*
X027493Y008192D01*
X027493Y008249D02*
X026973Y008249D01*
X026973Y008306D02*
X027493Y008306D01*
X027493Y008363D02*
X026973Y008363D01*
X026973Y008420D02*
X027493Y008420D01*
X027493Y008477D02*
X026973Y008477D01*
X027973Y006482D02*
X028493Y006482D01*
X027973Y006482D02*
X027973Y008518D01*
X028493Y008518D01*
X028493Y006482D01*
X028493Y006539D02*
X027973Y006539D01*
X027973Y006596D02*
X028493Y006596D01*
X028493Y006653D02*
X027973Y006653D01*
X027973Y006710D02*
X028493Y006710D01*
X028493Y006767D02*
X027973Y006767D01*
X027973Y006824D02*
X028493Y006824D01*
X028493Y006881D02*
X027973Y006881D01*
X027973Y006938D02*
X028493Y006938D01*
X028493Y006995D02*
X027973Y006995D01*
X027973Y007052D02*
X028493Y007052D01*
X028493Y007109D02*
X027973Y007109D01*
X027973Y007166D02*
X028493Y007166D01*
X028493Y007223D02*
X027973Y007223D01*
X027973Y007280D02*
X028493Y007280D01*
X028493Y007337D02*
X027973Y007337D01*
X027973Y007394D02*
X028493Y007394D01*
X028493Y007451D02*
X027973Y007451D01*
X027973Y007508D02*
X028493Y007508D01*
X028493Y007565D02*
X027973Y007565D01*
X027973Y007622D02*
X028493Y007622D01*
X028493Y007679D02*
X027973Y007679D01*
X027973Y007736D02*
X028493Y007736D01*
X028493Y007793D02*
X027973Y007793D01*
X027973Y007850D02*
X028493Y007850D01*
X028493Y007907D02*
X027973Y007907D01*
X027973Y007964D02*
X028493Y007964D01*
X028493Y008021D02*
X027973Y008021D01*
X027973Y008078D02*
X028493Y008078D01*
X028493Y008135D02*
X027973Y008135D01*
X027973Y008192D02*
X028493Y008192D01*
X028493Y008249D02*
X027973Y008249D01*
X027973Y008306D02*
X028493Y008306D01*
X028493Y008363D02*
X027973Y008363D01*
X027973Y008420D02*
X028493Y008420D01*
X028493Y008477D02*
X027973Y008477D01*
X028973Y006482D02*
X029493Y006482D01*
X028973Y006482D02*
X028973Y008518D01*
X029493Y008518D01*
X029493Y006482D01*
X029493Y006539D02*
X028973Y006539D01*
X028973Y006596D02*
X029493Y006596D01*
X029493Y006653D02*
X028973Y006653D01*
X028973Y006710D02*
X029493Y006710D01*
X029493Y006767D02*
X028973Y006767D01*
X028973Y006824D02*
X029493Y006824D01*
X029493Y006881D02*
X028973Y006881D01*
X028973Y006938D02*
X029493Y006938D01*
X029493Y006995D02*
X028973Y006995D01*
X028973Y007052D02*
X029493Y007052D01*
X029493Y007109D02*
X028973Y007109D01*
X028973Y007166D02*
X029493Y007166D01*
X029493Y007223D02*
X028973Y007223D01*
X028973Y007280D02*
X029493Y007280D01*
X029493Y007337D02*
X028973Y007337D01*
X028973Y007394D02*
X029493Y007394D01*
X029493Y007451D02*
X028973Y007451D01*
X028973Y007508D02*
X029493Y007508D01*
X029493Y007565D02*
X028973Y007565D01*
X028973Y007622D02*
X029493Y007622D01*
X029493Y007679D02*
X028973Y007679D01*
X028973Y007736D02*
X029493Y007736D01*
X029493Y007793D02*
X028973Y007793D01*
X028973Y007850D02*
X029493Y007850D01*
X029493Y007907D02*
X028973Y007907D01*
X028973Y007964D02*
X029493Y007964D01*
X029493Y008021D02*
X028973Y008021D01*
X028973Y008078D02*
X029493Y008078D01*
X029493Y008135D02*
X028973Y008135D01*
X028973Y008192D02*
X029493Y008192D01*
X029493Y008249D02*
X028973Y008249D01*
X028973Y008306D02*
X029493Y008306D01*
X029493Y008363D02*
X028973Y008363D01*
X028973Y008420D02*
X029493Y008420D01*
X029493Y008477D02*
X028973Y008477D01*
X029973Y006482D02*
X030493Y006482D01*
X029973Y006482D02*
X029973Y008518D01*
X030493Y008518D01*
X030493Y006482D01*
X030493Y006539D02*
X029973Y006539D01*
X029973Y006596D02*
X030493Y006596D01*
X030493Y006653D02*
X029973Y006653D01*
X029973Y006710D02*
X030493Y006710D01*
X030493Y006767D02*
X029973Y006767D01*
X029973Y006824D02*
X030493Y006824D01*
X030493Y006881D02*
X029973Y006881D01*
X029973Y006938D02*
X030493Y006938D01*
X030493Y006995D02*
X029973Y006995D01*
X029973Y007052D02*
X030493Y007052D01*
X030493Y007109D02*
X029973Y007109D01*
X029973Y007166D02*
X030493Y007166D01*
X030493Y007223D02*
X029973Y007223D01*
X029973Y007280D02*
X030493Y007280D01*
X030493Y007337D02*
X029973Y007337D01*
X029973Y007394D02*
X030493Y007394D01*
X030493Y007451D02*
X029973Y007451D01*
X029973Y007508D02*
X030493Y007508D01*
X030493Y007565D02*
X029973Y007565D01*
X029973Y007622D02*
X030493Y007622D01*
X030493Y007679D02*
X029973Y007679D01*
X029973Y007736D02*
X030493Y007736D01*
X030493Y007793D02*
X029973Y007793D01*
X029973Y007850D02*
X030493Y007850D01*
X030493Y007907D02*
X029973Y007907D01*
X029973Y007964D02*
X030493Y007964D01*
X030493Y008021D02*
X029973Y008021D01*
X029973Y008078D02*
X030493Y008078D01*
X030493Y008135D02*
X029973Y008135D01*
X029973Y008192D02*
X030493Y008192D01*
X030493Y008249D02*
X029973Y008249D01*
X029973Y008306D02*
X030493Y008306D01*
X030493Y008363D02*
X029973Y008363D01*
X029973Y008420D02*
X030493Y008420D01*
X030493Y008477D02*
X029973Y008477D01*
X030973Y006482D02*
X031493Y006482D01*
X030973Y006482D02*
X030973Y008518D01*
X031493Y008518D01*
X031493Y006482D01*
X031493Y006539D02*
X030973Y006539D01*
X030973Y006596D02*
X031493Y006596D01*
X031493Y006653D02*
X030973Y006653D01*
X030973Y006710D02*
X031493Y006710D01*
X031493Y006767D02*
X030973Y006767D01*
X030973Y006824D02*
X031493Y006824D01*
X031493Y006881D02*
X030973Y006881D01*
X030973Y006938D02*
X031493Y006938D01*
X031493Y006995D02*
X030973Y006995D01*
X030973Y007052D02*
X031493Y007052D01*
X031493Y007109D02*
X030973Y007109D01*
X030973Y007166D02*
X031493Y007166D01*
X031493Y007223D02*
X030973Y007223D01*
X030973Y007280D02*
X031493Y007280D01*
X031493Y007337D02*
X030973Y007337D01*
X030973Y007394D02*
X031493Y007394D01*
X031493Y007451D02*
X030973Y007451D01*
X030973Y007508D02*
X031493Y007508D01*
X031493Y007565D02*
X030973Y007565D01*
X030973Y007622D02*
X031493Y007622D01*
X031493Y007679D02*
X030973Y007679D01*
X030973Y007736D02*
X031493Y007736D01*
X031493Y007793D02*
X030973Y007793D01*
X030973Y007850D02*
X031493Y007850D01*
X031493Y007907D02*
X030973Y007907D01*
X030973Y007964D02*
X031493Y007964D01*
X031493Y008021D02*
X030973Y008021D01*
X030973Y008078D02*
X031493Y008078D01*
X031493Y008135D02*
X030973Y008135D01*
X030973Y008192D02*
X031493Y008192D01*
X031493Y008249D02*
X030973Y008249D01*
X030973Y008306D02*
X031493Y008306D01*
X031493Y008363D02*
X030973Y008363D01*
X030973Y008420D02*
X031493Y008420D01*
X031493Y008477D02*
X030973Y008477D01*
X031973Y006482D02*
X032493Y006482D01*
X031973Y006482D02*
X031973Y008518D01*
X032493Y008518D01*
X032493Y006482D01*
X032493Y006539D02*
X031973Y006539D01*
X031973Y006596D02*
X032493Y006596D01*
X032493Y006653D02*
X031973Y006653D01*
X031973Y006710D02*
X032493Y006710D01*
X032493Y006767D02*
X031973Y006767D01*
X031973Y006824D02*
X032493Y006824D01*
X032493Y006881D02*
X031973Y006881D01*
X031973Y006938D02*
X032493Y006938D01*
X032493Y006995D02*
X031973Y006995D01*
X031973Y007052D02*
X032493Y007052D01*
X032493Y007109D02*
X031973Y007109D01*
X031973Y007166D02*
X032493Y007166D01*
X032493Y007223D02*
X031973Y007223D01*
X031973Y007280D02*
X032493Y007280D01*
X032493Y007337D02*
X031973Y007337D01*
X031973Y007394D02*
X032493Y007394D01*
X032493Y007451D02*
X031973Y007451D01*
X031973Y007508D02*
X032493Y007508D01*
X032493Y007565D02*
X031973Y007565D01*
X031973Y007622D02*
X032493Y007622D01*
X032493Y007679D02*
X031973Y007679D01*
X031973Y007736D02*
X032493Y007736D01*
X032493Y007793D02*
X031973Y007793D01*
X031973Y007850D02*
X032493Y007850D01*
X032493Y007907D02*
X031973Y007907D01*
X031973Y007964D02*
X032493Y007964D01*
X032493Y008021D02*
X031973Y008021D01*
X031973Y008078D02*
X032493Y008078D01*
X032493Y008135D02*
X031973Y008135D01*
X031973Y008192D02*
X032493Y008192D01*
X032493Y008249D02*
X031973Y008249D01*
X031973Y008306D02*
X032493Y008306D01*
X032493Y008363D02*
X031973Y008363D01*
X031973Y008420D02*
X032493Y008420D01*
X032493Y008477D02*
X031973Y008477D01*
X032973Y006482D02*
X033493Y006482D01*
X032973Y006482D02*
X032973Y008518D01*
X033493Y008518D01*
X033493Y006482D01*
X033493Y006539D02*
X032973Y006539D01*
X032973Y006596D02*
X033493Y006596D01*
X033493Y006653D02*
X032973Y006653D01*
X032973Y006710D02*
X033493Y006710D01*
X033493Y006767D02*
X032973Y006767D01*
X032973Y006824D02*
X033493Y006824D01*
X033493Y006881D02*
X032973Y006881D01*
X032973Y006938D02*
X033493Y006938D01*
X033493Y006995D02*
X032973Y006995D01*
X032973Y007052D02*
X033493Y007052D01*
X033493Y007109D02*
X032973Y007109D01*
X032973Y007166D02*
X033493Y007166D01*
X033493Y007223D02*
X032973Y007223D01*
X032973Y007280D02*
X033493Y007280D01*
X033493Y007337D02*
X032973Y007337D01*
X032973Y007394D02*
X033493Y007394D01*
X033493Y007451D02*
X032973Y007451D01*
X032973Y007508D02*
X033493Y007508D01*
X033493Y007565D02*
X032973Y007565D01*
X032973Y007622D02*
X033493Y007622D01*
X033493Y007679D02*
X032973Y007679D01*
X032973Y007736D02*
X033493Y007736D01*
X033493Y007793D02*
X032973Y007793D01*
X032973Y007850D02*
X033493Y007850D01*
X033493Y007907D02*
X032973Y007907D01*
X032973Y007964D02*
X033493Y007964D01*
X033493Y008021D02*
X032973Y008021D01*
X032973Y008078D02*
X033493Y008078D01*
X033493Y008135D02*
X032973Y008135D01*
X032973Y008192D02*
X033493Y008192D01*
X033493Y008249D02*
X032973Y008249D01*
X032973Y008306D02*
X033493Y008306D01*
X033493Y008363D02*
X032973Y008363D01*
X032973Y008420D02*
X033493Y008420D01*
X033493Y008477D02*
X032973Y008477D01*
X033973Y006482D02*
X034493Y006482D01*
X033973Y006482D02*
X033973Y008518D01*
X034493Y008518D01*
X034493Y006482D01*
X034493Y006539D02*
X033973Y006539D01*
X033973Y006596D02*
X034493Y006596D01*
X034493Y006653D02*
X033973Y006653D01*
X033973Y006710D02*
X034493Y006710D01*
X034493Y006767D02*
X033973Y006767D01*
X033973Y006824D02*
X034493Y006824D01*
X034493Y006881D02*
X033973Y006881D01*
X033973Y006938D02*
X034493Y006938D01*
X034493Y006995D02*
X033973Y006995D01*
X033973Y007052D02*
X034493Y007052D01*
X034493Y007109D02*
X033973Y007109D01*
X033973Y007166D02*
X034493Y007166D01*
X034493Y007223D02*
X033973Y007223D01*
X033973Y007280D02*
X034493Y007280D01*
X034493Y007337D02*
X033973Y007337D01*
X033973Y007394D02*
X034493Y007394D01*
X034493Y007451D02*
X033973Y007451D01*
X033973Y007508D02*
X034493Y007508D01*
X034493Y007565D02*
X033973Y007565D01*
X033973Y007622D02*
X034493Y007622D01*
X034493Y007679D02*
X033973Y007679D01*
X033973Y007736D02*
X034493Y007736D01*
X034493Y007793D02*
X033973Y007793D01*
X033973Y007850D02*
X034493Y007850D01*
X034493Y007907D02*
X033973Y007907D01*
X033973Y007964D02*
X034493Y007964D01*
X034493Y008021D02*
X033973Y008021D01*
X033973Y008078D02*
X034493Y008078D01*
X034493Y008135D02*
X033973Y008135D01*
X033973Y008192D02*
X034493Y008192D01*
X034493Y008249D02*
X033973Y008249D01*
X033973Y008306D02*
X034493Y008306D01*
X034493Y008363D02*
X033973Y008363D01*
X033973Y008420D02*
X034493Y008420D01*
X034493Y008477D02*
X033973Y008477D01*
X034973Y006482D02*
X035493Y006482D01*
X034973Y006482D02*
X034973Y008518D01*
X035493Y008518D01*
X035493Y006482D01*
X035493Y006539D02*
X034973Y006539D01*
X034973Y006596D02*
X035493Y006596D01*
X035493Y006653D02*
X034973Y006653D01*
X034973Y006710D02*
X035493Y006710D01*
X035493Y006767D02*
X034973Y006767D01*
X034973Y006824D02*
X035493Y006824D01*
X035493Y006881D02*
X034973Y006881D01*
X034973Y006938D02*
X035493Y006938D01*
X035493Y006995D02*
X034973Y006995D01*
X034973Y007052D02*
X035493Y007052D01*
X035493Y007109D02*
X034973Y007109D01*
X034973Y007166D02*
X035493Y007166D01*
X035493Y007223D02*
X034973Y007223D01*
X034973Y007280D02*
X035493Y007280D01*
X035493Y007337D02*
X034973Y007337D01*
X034973Y007394D02*
X035493Y007394D01*
X035493Y007451D02*
X034973Y007451D01*
X034973Y007508D02*
X035493Y007508D01*
X035493Y007565D02*
X034973Y007565D01*
X034973Y007622D02*
X035493Y007622D01*
X035493Y007679D02*
X034973Y007679D01*
X034973Y007736D02*
X035493Y007736D01*
X035493Y007793D02*
X034973Y007793D01*
X034973Y007850D02*
X035493Y007850D01*
X035493Y007907D02*
X034973Y007907D01*
X034973Y007964D02*
X035493Y007964D01*
X035493Y008021D02*
X034973Y008021D01*
X034973Y008078D02*
X035493Y008078D01*
X035493Y008135D02*
X034973Y008135D01*
X034973Y008192D02*
X035493Y008192D01*
X035493Y008249D02*
X034973Y008249D01*
X034973Y008306D02*
X035493Y008306D01*
X035493Y008363D02*
X034973Y008363D01*
X034973Y008420D02*
X035493Y008420D01*
X035493Y008477D02*
X034973Y008477D01*
X035973Y006482D02*
X036493Y006482D01*
X035973Y006482D02*
X035973Y008518D01*
X036493Y008518D01*
X036493Y006482D01*
X036493Y006539D02*
X035973Y006539D01*
X035973Y006596D02*
X036493Y006596D01*
X036493Y006653D02*
X035973Y006653D01*
X035973Y006710D02*
X036493Y006710D01*
X036493Y006767D02*
X035973Y006767D01*
X035973Y006824D02*
X036493Y006824D01*
X036493Y006881D02*
X035973Y006881D01*
X035973Y006938D02*
X036493Y006938D01*
X036493Y006995D02*
X035973Y006995D01*
X035973Y007052D02*
X036493Y007052D01*
X036493Y007109D02*
X035973Y007109D01*
X035973Y007166D02*
X036493Y007166D01*
X036493Y007223D02*
X035973Y007223D01*
X035973Y007280D02*
X036493Y007280D01*
X036493Y007337D02*
X035973Y007337D01*
X035973Y007394D02*
X036493Y007394D01*
X036493Y007451D02*
X035973Y007451D01*
X035973Y007508D02*
X036493Y007508D01*
X036493Y007565D02*
X035973Y007565D01*
X035973Y007622D02*
X036493Y007622D01*
X036493Y007679D02*
X035973Y007679D01*
X035973Y007736D02*
X036493Y007736D01*
X036493Y007793D02*
X035973Y007793D01*
X035973Y007850D02*
X036493Y007850D01*
X036493Y007907D02*
X035973Y007907D01*
X035973Y007964D02*
X036493Y007964D01*
X036493Y008021D02*
X035973Y008021D01*
X035973Y008078D02*
X036493Y008078D01*
X036493Y008135D02*
X035973Y008135D01*
X035973Y008192D02*
X036493Y008192D01*
X036493Y008249D02*
X035973Y008249D01*
X035973Y008306D02*
X036493Y008306D01*
X036493Y008363D02*
X035973Y008363D01*
X035973Y008420D02*
X036493Y008420D01*
X036493Y008477D02*
X035973Y008477D01*
X036973Y006482D02*
X037493Y006482D01*
X036973Y006482D02*
X036973Y008518D01*
X037493Y008518D01*
X037493Y006482D01*
X037493Y006539D02*
X036973Y006539D01*
X036973Y006596D02*
X037493Y006596D01*
X037493Y006653D02*
X036973Y006653D01*
X036973Y006710D02*
X037493Y006710D01*
X037493Y006767D02*
X036973Y006767D01*
X036973Y006824D02*
X037493Y006824D01*
X037493Y006881D02*
X036973Y006881D01*
X036973Y006938D02*
X037493Y006938D01*
X037493Y006995D02*
X036973Y006995D01*
X036973Y007052D02*
X037493Y007052D01*
X037493Y007109D02*
X036973Y007109D01*
X036973Y007166D02*
X037493Y007166D01*
X037493Y007223D02*
X036973Y007223D01*
X036973Y007280D02*
X037493Y007280D01*
X037493Y007337D02*
X036973Y007337D01*
X036973Y007394D02*
X037493Y007394D01*
X037493Y007451D02*
X036973Y007451D01*
X036973Y007508D02*
X037493Y007508D01*
X037493Y007565D02*
X036973Y007565D01*
X036973Y007622D02*
X037493Y007622D01*
X037493Y007679D02*
X036973Y007679D01*
X036973Y007736D02*
X037493Y007736D01*
X037493Y007793D02*
X036973Y007793D01*
X036973Y007850D02*
X037493Y007850D01*
X037493Y007907D02*
X036973Y007907D01*
X036973Y007964D02*
X037493Y007964D01*
X037493Y008021D02*
X036973Y008021D01*
X036973Y008078D02*
X037493Y008078D01*
X037493Y008135D02*
X036973Y008135D01*
X036973Y008192D02*
X037493Y008192D01*
X037493Y008249D02*
X036973Y008249D01*
X036973Y008306D02*
X037493Y008306D01*
X037493Y008363D02*
X036973Y008363D01*
X036973Y008420D02*
X037493Y008420D01*
X037493Y008477D02*
X036973Y008477D01*
X037973Y006482D02*
X038493Y006482D01*
X037973Y006482D02*
X037973Y008518D01*
X038493Y008518D01*
X038493Y006482D01*
X038493Y006539D02*
X037973Y006539D01*
X037973Y006596D02*
X038493Y006596D01*
X038493Y006653D02*
X037973Y006653D01*
X037973Y006710D02*
X038493Y006710D01*
X038493Y006767D02*
X037973Y006767D01*
X037973Y006824D02*
X038493Y006824D01*
X038493Y006881D02*
X037973Y006881D01*
X037973Y006938D02*
X038493Y006938D01*
X038493Y006995D02*
X037973Y006995D01*
X037973Y007052D02*
X038493Y007052D01*
X038493Y007109D02*
X037973Y007109D01*
X037973Y007166D02*
X038493Y007166D01*
X038493Y007223D02*
X037973Y007223D01*
X037973Y007280D02*
X038493Y007280D01*
X038493Y007337D02*
X037973Y007337D01*
X037973Y007394D02*
X038493Y007394D01*
X038493Y007451D02*
X037973Y007451D01*
X037973Y007508D02*
X038493Y007508D01*
X038493Y007565D02*
X037973Y007565D01*
X037973Y007622D02*
X038493Y007622D01*
X038493Y007679D02*
X037973Y007679D01*
X037973Y007736D02*
X038493Y007736D01*
X038493Y007793D02*
X037973Y007793D01*
X037973Y007850D02*
X038493Y007850D01*
X038493Y007907D02*
X037973Y007907D01*
X037973Y007964D02*
X038493Y007964D01*
X038493Y008021D02*
X037973Y008021D01*
X037973Y008078D02*
X038493Y008078D01*
X038493Y008135D02*
X037973Y008135D01*
X037973Y008192D02*
X038493Y008192D01*
X038493Y008249D02*
X037973Y008249D01*
X037973Y008306D02*
X038493Y008306D01*
X038493Y008363D02*
X037973Y008363D01*
X037973Y008420D02*
X038493Y008420D01*
X038493Y008477D02*
X037973Y008477D01*
X037973Y009432D02*
X038493Y009432D01*
X037973Y009432D02*
X037973Y011468D01*
X038493Y011468D01*
X038493Y009432D01*
X038493Y009489D02*
X037973Y009489D01*
X037973Y009546D02*
X038493Y009546D01*
X038493Y009603D02*
X037973Y009603D01*
X037973Y009660D02*
X038493Y009660D01*
X038493Y009717D02*
X037973Y009717D01*
X037973Y009774D02*
X038493Y009774D01*
X038493Y009831D02*
X037973Y009831D01*
X037973Y009888D02*
X038493Y009888D01*
X038493Y009945D02*
X037973Y009945D01*
X037973Y010002D02*
X038493Y010002D01*
X038493Y010059D02*
X037973Y010059D01*
X037973Y010116D02*
X038493Y010116D01*
X038493Y010173D02*
X037973Y010173D01*
X037973Y010230D02*
X038493Y010230D01*
X038493Y010287D02*
X037973Y010287D01*
X037973Y010344D02*
X038493Y010344D01*
X038493Y010401D02*
X037973Y010401D01*
X037973Y010458D02*
X038493Y010458D01*
X038493Y010515D02*
X037973Y010515D01*
X037973Y010572D02*
X038493Y010572D01*
X038493Y010629D02*
X037973Y010629D01*
X037973Y010686D02*
X038493Y010686D01*
X038493Y010743D02*
X037973Y010743D01*
X037973Y010800D02*
X038493Y010800D01*
X038493Y010857D02*
X037973Y010857D01*
X037973Y010914D02*
X038493Y010914D01*
X038493Y010971D02*
X037973Y010971D01*
X037973Y011028D02*
X038493Y011028D01*
X038493Y011085D02*
X037973Y011085D01*
X037973Y011142D02*
X038493Y011142D01*
X038493Y011199D02*
X037973Y011199D01*
X037973Y011256D02*
X038493Y011256D01*
X038493Y011313D02*
X037973Y011313D01*
X037973Y011370D02*
X038493Y011370D01*
X038493Y011427D02*
X037973Y011427D01*
X037493Y009432D02*
X036973Y009432D01*
X036973Y011468D01*
X037493Y011468D01*
X037493Y009432D01*
X037493Y009489D02*
X036973Y009489D01*
X036973Y009546D02*
X037493Y009546D01*
X037493Y009603D02*
X036973Y009603D01*
X036973Y009660D02*
X037493Y009660D01*
X037493Y009717D02*
X036973Y009717D01*
X036973Y009774D02*
X037493Y009774D01*
X037493Y009831D02*
X036973Y009831D01*
X036973Y009888D02*
X037493Y009888D01*
X037493Y009945D02*
X036973Y009945D01*
X036973Y010002D02*
X037493Y010002D01*
X037493Y010059D02*
X036973Y010059D01*
X036973Y010116D02*
X037493Y010116D01*
X037493Y010173D02*
X036973Y010173D01*
X036973Y010230D02*
X037493Y010230D01*
X037493Y010287D02*
X036973Y010287D01*
X036973Y010344D02*
X037493Y010344D01*
X037493Y010401D02*
X036973Y010401D01*
X036973Y010458D02*
X037493Y010458D01*
X037493Y010515D02*
X036973Y010515D01*
X036973Y010572D02*
X037493Y010572D01*
X037493Y010629D02*
X036973Y010629D01*
X036973Y010686D02*
X037493Y010686D01*
X037493Y010743D02*
X036973Y010743D01*
X036973Y010800D02*
X037493Y010800D01*
X037493Y010857D02*
X036973Y010857D01*
X036973Y010914D02*
X037493Y010914D01*
X037493Y010971D02*
X036973Y010971D01*
X036973Y011028D02*
X037493Y011028D01*
X037493Y011085D02*
X036973Y011085D01*
X036973Y011142D02*
X037493Y011142D01*
X037493Y011199D02*
X036973Y011199D01*
X036973Y011256D02*
X037493Y011256D01*
X037493Y011313D02*
X036973Y011313D01*
X036973Y011370D02*
X037493Y011370D01*
X037493Y011427D02*
X036973Y011427D01*
X036493Y009432D02*
X035973Y009432D01*
X035973Y011468D01*
X036493Y011468D01*
X036493Y009432D01*
X036493Y009489D02*
X035973Y009489D01*
X035973Y009546D02*
X036493Y009546D01*
X036493Y009603D02*
X035973Y009603D01*
X035973Y009660D02*
X036493Y009660D01*
X036493Y009717D02*
X035973Y009717D01*
X035973Y009774D02*
X036493Y009774D01*
X036493Y009831D02*
X035973Y009831D01*
X035973Y009888D02*
X036493Y009888D01*
X036493Y009945D02*
X035973Y009945D01*
X035973Y010002D02*
X036493Y010002D01*
X036493Y010059D02*
X035973Y010059D01*
X035973Y010116D02*
X036493Y010116D01*
X036493Y010173D02*
X035973Y010173D01*
X035973Y010230D02*
X036493Y010230D01*
X036493Y010287D02*
X035973Y010287D01*
X035973Y010344D02*
X036493Y010344D01*
X036493Y010401D02*
X035973Y010401D01*
X035973Y010458D02*
X036493Y010458D01*
X036493Y010515D02*
X035973Y010515D01*
X035973Y010572D02*
X036493Y010572D01*
X036493Y010629D02*
X035973Y010629D01*
X035973Y010686D02*
X036493Y010686D01*
X036493Y010743D02*
X035973Y010743D01*
X035973Y010800D02*
X036493Y010800D01*
X036493Y010857D02*
X035973Y010857D01*
X035973Y010914D02*
X036493Y010914D01*
X036493Y010971D02*
X035973Y010971D01*
X035973Y011028D02*
X036493Y011028D01*
X036493Y011085D02*
X035973Y011085D01*
X035973Y011142D02*
X036493Y011142D01*
X036493Y011199D02*
X035973Y011199D01*
X035973Y011256D02*
X036493Y011256D01*
X036493Y011313D02*
X035973Y011313D01*
X035973Y011370D02*
X036493Y011370D01*
X036493Y011427D02*
X035973Y011427D01*
X035493Y009432D02*
X034973Y009432D01*
X034973Y011468D01*
X035493Y011468D01*
X035493Y009432D01*
X035493Y009489D02*
X034973Y009489D01*
X034973Y009546D02*
X035493Y009546D01*
X035493Y009603D02*
X034973Y009603D01*
X034973Y009660D02*
X035493Y009660D01*
X035493Y009717D02*
X034973Y009717D01*
X034973Y009774D02*
X035493Y009774D01*
X035493Y009831D02*
X034973Y009831D01*
X034973Y009888D02*
X035493Y009888D01*
X035493Y009945D02*
X034973Y009945D01*
X034973Y010002D02*
X035493Y010002D01*
X035493Y010059D02*
X034973Y010059D01*
X034973Y010116D02*
X035493Y010116D01*
X035493Y010173D02*
X034973Y010173D01*
X034973Y010230D02*
X035493Y010230D01*
X035493Y010287D02*
X034973Y010287D01*
X034973Y010344D02*
X035493Y010344D01*
X035493Y010401D02*
X034973Y010401D01*
X034973Y010458D02*
X035493Y010458D01*
X035493Y010515D02*
X034973Y010515D01*
X034973Y010572D02*
X035493Y010572D01*
X035493Y010629D02*
X034973Y010629D01*
X034973Y010686D02*
X035493Y010686D01*
X035493Y010743D02*
X034973Y010743D01*
X034973Y010800D02*
X035493Y010800D01*
X035493Y010857D02*
X034973Y010857D01*
X034973Y010914D02*
X035493Y010914D01*
X035493Y010971D02*
X034973Y010971D01*
X034973Y011028D02*
X035493Y011028D01*
X035493Y011085D02*
X034973Y011085D01*
X034973Y011142D02*
X035493Y011142D01*
X035493Y011199D02*
X034973Y011199D01*
X034973Y011256D02*
X035493Y011256D01*
X035493Y011313D02*
X034973Y011313D01*
X034973Y011370D02*
X035493Y011370D01*
X035493Y011427D02*
X034973Y011427D01*
X034493Y009432D02*
X033973Y009432D01*
X033973Y011468D01*
X034493Y011468D01*
X034493Y009432D01*
X034493Y009489D02*
X033973Y009489D01*
X033973Y009546D02*
X034493Y009546D01*
X034493Y009603D02*
X033973Y009603D01*
X033973Y009660D02*
X034493Y009660D01*
X034493Y009717D02*
X033973Y009717D01*
X033973Y009774D02*
X034493Y009774D01*
X034493Y009831D02*
X033973Y009831D01*
X033973Y009888D02*
X034493Y009888D01*
X034493Y009945D02*
X033973Y009945D01*
X033973Y010002D02*
X034493Y010002D01*
X034493Y010059D02*
X033973Y010059D01*
X033973Y010116D02*
X034493Y010116D01*
X034493Y010173D02*
X033973Y010173D01*
X033973Y010230D02*
X034493Y010230D01*
X034493Y010287D02*
X033973Y010287D01*
X033973Y010344D02*
X034493Y010344D01*
X034493Y010401D02*
X033973Y010401D01*
X033973Y010458D02*
X034493Y010458D01*
X034493Y010515D02*
X033973Y010515D01*
X033973Y010572D02*
X034493Y010572D01*
X034493Y010629D02*
X033973Y010629D01*
X033973Y010686D02*
X034493Y010686D01*
X034493Y010743D02*
X033973Y010743D01*
X033973Y010800D02*
X034493Y010800D01*
X034493Y010857D02*
X033973Y010857D01*
X033973Y010914D02*
X034493Y010914D01*
X034493Y010971D02*
X033973Y010971D01*
X033973Y011028D02*
X034493Y011028D01*
X034493Y011085D02*
X033973Y011085D01*
X033973Y011142D02*
X034493Y011142D01*
X034493Y011199D02*
X033973Y011199D01*
X033973Y011256D02*
X034493Y011256D01*
X034493Y011313D02*
X033973Y011313D01*
X033973Y011370D02*
X034493Y011370D01*
X034493Y011427D02*
X033973Y011427D01*
X033493Y009432D02*
X032973Y009432D01*
X032973Y011468D01*
X033493Y011468D01*
X033493Y009432D01*
X033493Y009489D02*
X032973Y009489D01*
X032973Y009546D02*
X033493Y009546D01*
X033493Y009603D02*
X032973Y009603D01*
X032973Y009660D02*
X033493Y009660D01*
X033493Y009717D02*
X032973Y009717D01*
X032973Y009774D02*
X033493Y009774D01*
X033493Y009831D02*
X032973Y009831D01*
X032973Y009888D02*
X033493Y009888D01*
X033493Y009945D02*
X032973Y009945D01*
X032973Y010002D02*
X033493Y010002D01*
X033493Y010059D02*
X032973Y010059D01*
X032973Y010116D02*
X033493Y010116D01*
X033493Y010173D02*
X032973Y010173D01*
X032973Y010230D02*
X033493Y010230D01*
X033493Y010287D02*
X032973Y010287D01*
X032973Y010344D02*
X033493Y010344D01*
X033493Y010401D02*
X032973Y010401D01*
X032973Y010458D02*
X033493Y010458D01*
X033493Y010515D02*
X032973Y010515D01*
X032973Y010572D02*
X033493Y010572D01*
X033493Y010629D02*
X032973Y010629D01*
X032973Y010686D02*
X033493Y010686D01*
X033493Y010743D02*
X032973Y010743D01*
X032973Y010800D02*
X033493Y010800D01*
X033493Y010857D02*
X032973Y010857D01*
X032973Y010914D02*
X033493Y010914D01*
X033493Y010971D02*
X032973Y010971D01*
X032973Y011028D02*
X033493Y011028D01*
X033493Y011085D02*
X032973Y011085D01*
X032973Y011142D02*
X033493Y011142D01*
X033493Y011199D02*
X032973Y011199D01*
X032973Y011256D02*
X033493Y011256D01*
X033493Y011313D02*
X032973Y011313D01*
X032973Y011370D02*
X033493Y011370D01*
X033493Y011427D02*
X032973Y011427D01*
X032493Y009432D02*
X031973Y009432D01*
X031973Y011468D01*
X032493Y011468D01*
X032493Y009432D01*
X032493Y009489D02*
X031973Y009489D01*
X031973Y009546D02*
X032493Y009546D01*
X032493Y009603D02*
X031973Y009603D01*
X031973Y009660D02*
X032493Y009660D01*
X032493Y009717D02*
X031973Y009717D01*
X031973Y009774D02*
X032493Y009774D01*
X032493Y009831D02*
X031973Y009831D01*
X031973Y009888D02*
X032493Y009888D01*
X032493Y009945D02*
X031973Y009945D01*
X031973Y010002D02*
X032493Y010002D01*
X032493Y010059D02*
X031973Y010059D01*
X031973Y010116D02*
X032493Y010116D01*
X032493Y010173D02*
X031973Y010173D01*
X031973Y010230D02*
X032493Y010230D01*
X032493Y010287D02*
X031973Y010287D01*
X031973Y010344D02*
X032493Y010344D01*
X032493Y010401D02*
X031973Y010401D01*
X031973Y010458D02*
X032493Y010458D01*
X032493Y010515D02*
X031973Y010515D01*
X031973Y010572D02*
X032493Y010572D01*
X032493Y010629D02*
X031973Y010629D01*
X031973Y010686D02*
X032493Y010686D01*
X032493Y010743D02*
X031973Y010743D01*
X031973Y010800D02*
X032493Y010800D01*
X032493Y010857D02*
X031973Y010857D01*
X031973Y010914D02*
X032493Y010914D01*
X032493Y010971D02*
X031973Y010971D01*
X031973Y011028D02*
X032493Y011028D01*
X032493Y011085D02*
X031973Y011085D01*
X031973Y011142D02*
X032493Y011142D01*
X032493Y011199D02*
X031973Y011199D01*
X031973Y011256D02*
X032493Y011256D01*
X032493Y011313D02*
X031973Y011313D01*
X031973Y011370D02*
X032493Y011370D01*
X032493Y011427D02*
X031973Y011427D01*
X031493Y009432D02*
X030973Y009432D01*
X030973Y011468D01*
X031493Y011468D01*
X031493Y009432D01*
X031493Y009489D02*
X030973Y009489D01*
X030973Y009546D02*
X031493Y009546D01*
X031493Y009603D02*
X030973Y009603D01*
X030973Y009660D02*
X031493Y009660D01*
X031493Y009717D02*
X030973Y009717D01*
X030973Y009774D02*
X031493Y009774D01*
X031493Y009831D02*
X030973Y009831D01*
X030973Y009888D02*
X031493Y009888D01*
X031493Y009945D02*
X030973Y009945D01*
X030973Y010002D02*
X031493Y010002D01*
X031493Y010059D02*
X030973Y010059D01*
X030973Y010116D02*
X031493Y010116D01*
X031493Y010173D02*
X030973Y010173D01*
X030973Y010230D02*
X031493Y010230D01*
X031493Y010287D02*
X030973Y010287D01*
X030973Y010344D02*
X031493Y010344D01*
X031493Y010401D02*
X030973Y010401D01*
X030973Y010458D02*
X031493Y010458D01*
X031493Y010515D02*
X030973Y010515D01*
X030973Y010572D02*
X031493Y010572D01*
X031493Y010629D02*
X030973Y010629D01*
X030973Y010686D02*
X031493Y010686D01*
X031493Y010743D02*
X030973Y010743D01*
X030973Y010800D02*
X031493Y010800D01*
X031493Y010857D02*
X030973Y010857D01*
X030973Y010914D02*
X031493Y010914D01*
X031493Y010971D02*
X030973Y010971D01*
X030973Y011028D02*
X031493Y011028D01*
X031493Y011085D02*
X030973Y011085D01*
X030973Y011142D02*
X031493Y011142D01*
X031493Y011199D02*
X030973Y011199D01*
X030973Y011256D02*
X031493Y011256D01*
X031493Y011313D02*
X030973Y011313D01*
X030973Y011370D02*
X031493Y011370D01*
X031493Y011427D02*
X030973Y011427D01*
X030493Y009432D02*
X029973Y009432D01*
X029973Y011468D01*
X030493Y011468D01*
X030493Y009432D01*
X030493Y009489D02*
X029973Y009489D01*
X029973Y009546D02*
X030493Y009546D01*
X030493Y009603D02*
X029973Y009603D01*
X029973Y009660D02*
X030493Y009660D01*
X030493Y009717D02*
X029973Y009717D01*
X029973Y009774D02*
X030493Y009774D01*
X030493Y009831D02*
X029973Y009831D01*
X029973Y009888D02*
X030493Y009888D01*
X030493Y009945D02*
X029973Y009945D01*
X029973Y010002D02*
X030493Y010002D01*
X030493Y010059D02*
X029973Y010059D01*
X029973Y010116D02*
X030493Y010116D01*
X030493Y010173D02*
X029973Y010173D01*
X029973Y010230D02*
X030493Y010230D01*
X030493Y010287D02*
X029973Y010287D01*
X029973Y010344D02*
X030493Y010344D01*
X030493Y010401D02*
X029973Y010401D01*
X029973Y010458D02*
X030493Y010458D01*
X030493Y010515D02*
X029973Y010515D01*
X029973Y010572D02*
X030493Y010572D01*
X030493Y010629D02*
X029973Y010629D01*
X029973Y010686D02*
X030493Y010686D01*
X030493Y010743D02*
X029973Y010743D01*
X029973Y010800D02*
X030493Y010800D01*
X030493Y010857D02*
X029973Y010857D01*
X029973Y010914D02*
X030493Y010914D01*
X030493Y010971D02*
X029973Y010971D01*
X029973Y011028D02*
X030493Y011028D01*
X030493Y011085D02*
X029973Y011085D01*
X029973Y011142D02*
X030493Y011142D01*
X030493Y011199D02*
X029973Y011199D01*
X029973Y011256D02*
X030493Y011256D01*
X030493Y011313D02*
X029973Y011313D01*
X029973Y011370D02*
X030493Y011370D01*
X030493Y011427D02*
X029973Y011427D01*
X029493Y009432D02*
X028973Y009432D01*
X028973Y011468D01*
X029493Y011468D01*
X029493Y009432D01*
X029493Y009489D02*
X028973Y009489D01*
X028973Y009546D02*
X029493Y009546D01*
X029493Y009603D02*
X028973Y009603D01*
X028973Y009660D02*
X029493Y009660D01*
X029493Y009717D02*
X028973Y009717D01*
X028973Y009774D02*
X029493Y009774D01*
X029493Y009831D02*
X028973Y009831D01*
X028973Y009888D02*
X029493Y009888D01*
X029493Y009945D02*
X028973Y009945D01*
X028973Y010002D02*
X029493Y010002D01*
X029493Y010059D02*
X028973Y010059D01*
X028973Y010116D02*
X029493Y010116D01*
X029493Y010173D02*
X028973Y010173D01*
X028973Y010230D02*
X029493Y010230D01*
X029493Y010287D02*
X028973Y010287D01*
X028973Y010344D02*
X029493Y010344D01*
X029493Y010401D02*
X028973Y010401D01*
X028973Y010458D02*
X029493Y010458D01*
X029493Y010515D02*
X028973Y010515D01*
X028973Y010572D02*
X029493Y010572D01*
X029493Y010629D02*
X028973Y010629D01*
X028973Y010686D02*
X029493Y010686D01*
X029493Y010743D02*
X028973Y010743D01*
X028973Y010800D02*
X029493Y010800D01*
X029493Y010857D02*
X028973Y010857D01*
X028973Y010914D02*
X029493Y010914D01*
X029493Y010971D02*
X028973Y010971D01*
X028973Y011028D02*
X029493Y011028D01*
X029493Y011085D02*
X028973Y011085D01*
X028973Y011142D02*
X029493Y011142D01*
X029493Y011199D02*
X028973Y011199D01*
X028973Y011256D02*
X029493Y011256D01*
X029493Y011313D02*
X028973Y011313D01*
X028973Y011370D02*
X029493Y011370D01*
X029493Y011427D02*
X028973Y011427D01*
X028493Y009432D02*
X027973Y009432D01*
X027973Y011468D01*
X028493Y011468D01*
X028493Y009432D01*
X028493Y009489D02*
X027973Y009489D01*
X027973Y009546D02*
X028493Y009546D01*
X028493Y009603D02*
X027973Y009603D01*
X027973Y009660D02*
X028493Y009660D01*
X028493Y009717D02*
X027973Y009717D01*
X027973Y009774D02*
X028493Y009774D01*
X028493Y009831D02*
X027973Y009831D01*
X027973Y009888D02*
X028493Y009888D01*
X028493Y009945D02*
X027973Y009945D01*
X027973Y010002D02*
X028493Y010002D01*
X028493Y010059D02*
X027973Y010059D01*
X027973Y010116D02*
X028493Y010116D01*
X028493Y010173D02*
X027973Y010173D01*
X027973Y010230D02*
X028493Y010230D01*
X028493Y010287D02*
X027973Y010287D01*
X027973Y010344D02*
X028493Y010344D01*
X028493Y010401D02*
X027973Y010401D01*
X027973Y010458D02*
X028493Y010458D01*
X028493Y010515D02*
X027973Y010515D01*
X027973Y010572D02*
X028493Y010572D01*
X028493Y010629D02*
X027973Y010629D01*
X027973Y010686D02*
X028493Y010686D01*
X028493Y010743D02*
X027973Y010743D01*
X027973Y010800D02*
X028493Y010800D01*
X028493Y010857D02*
X027973Y010857D01*
X027973Y010914D02*
X028493Y010914D01*
X028493Y010971D02*
X027973Y010971D01*
X027973Y011028D02*
X028493Y011028D01*
X028493Y011085D02*
X027973Y011085D01*
X027973Y011142D02*
X028493Y011142D01*
X028493Y011199D02*
X027973Y011199D01*
X027973Y011256D02*
X028493Y011256D01*
X028493Y011313D02*
X027973Y011313D01*
X027973Y011370D02*
X028493Y011370D01*
X028493Y011427D02*
X027973Y011427D01*
X027493Y009432D02*
X026973Y009432D01*
X026973Y011468D01*
X027493Y011468D01*
X027493Y009432D01*
X027493Y009489D02*
X026973Y009489D01*
X026973Y009546D02*
X027493Y009546D01*
X027493Y009603D02*
X026973Y009603D01*
X026973Y009660D02*
X027493Y009660D01*
X027493Y009717D02*
X026973Y009717D01*
X026973Y009774D02*
X027493Y009774D01*
X027493Y009831D02*
X026973Y009831D01*
X026973Y009888D02*
X027493Y009888D01*
X027493Y009945D02*
X026973Y009945D01*
X026973Y010002D02*
X027493Y010002D01*
X027493Y010059D02*
X026973Y010059D01*
X026973Y010116D02*
X027493Y010116D01*
X027493Y010173D02*
X026973Y010173D01*
X026973Y010230D02*
X027493Y010230D01*
X027493Y010287D02*
X026973Y010287D01*
X026973Y010344D02*
X027493Y010344D01*
X027493Y010401D02*
X026973Y010401D01*
X026973Y010458D02*
X027493Y010458D01*
X027493Y010515D02*
X026973Y010515D01*
X026973Y010572D02*
X027493Y010572D01*
X027493Y010629D02*
X026973Y010629D01*
X026973Y010686D02*
X027493Y010686D01*
X027493Y010743D02*
X026973Y010743D01*
X026973Y010800D02*
X027493Y010800D01*
X027493Y010857D02*
X026973Y010857D01*
X026973Y010914D02*
X027493Y010914D01*
X027493Y010971D02*
X026973Y010971D01*
X026973Y011028D02*
X027493Y011028D01*
X027493Y011085D02*
X026973Y011085D01*
X026973Y011142D02*
X027493Y011142D01*
X027493Y011199D02*
X026973Y011199D01*
X026973Y011256D02*
X027493Y011256D01*
X027493Y011313D02*
X026973Y011313D01*
X026973Y011370D02*
X027493Y011370D01*
X027493Y011427D02*
X026973Y011427D01*
X026493Y009432D02*
X025973Y009432D01*
X025973Y011468D01*
X026493Y011468D01*
X026493Y009432D01*
X026493Y009489D02*
X025973Y009489D01*
X025973Y009546D02*
X026493Y009546D01*
X026493Y009603D02*
X025973Y009603D01*
X025973Y009660D02*
X026493Y009660D01*
X026493Y009717D02*
X025973Y009717D01*
X025973Y009774D02*
X026493Y009774D01*
X026493Y009831D02*
X025973Y009831D01*
X025973Y009888D02*
X026493Y009888D01*
X026493Y009945D02*
X025973Y009945D01*
X025973Y010002D02*
X026493Y010002D01*
X026493Y010059D02*
X025973Y010059D01*
X025973Y010116D02*
X026493Y010116D01*
X026493Y010173D02*
X025973Y010173D01*
X025973Y010230D02*
X026493Y010230D01*
X026493Y010287D02*
X025973Y010287D01*
X025973Y010344D02*
X026493Y010344D01*
X026493Y010401D02*
X025973Y010401D01*
X025973Y010458D02*
X026493Y010458D01*
X026493Y010515D02*
X025973Y010515D01*
X025973Y010572D02*
X026493Y010572D01*
X026493Y010629D02*
X025973Y010629D01*
X025973Y010686D02*
X026493Y010686D01*
X026493Y010743D02*
X025973Y010743D01*
X025973Y010800D02*
X026493Y010800D01*
X026493Y010857D02*
X025973Y010857D01*
X025973Y010914D02*
X026493Y010914D01*
X026493Y010971D02*
X025973Y010971D01*
X025973Y011028D02*
X026493Y011028D01*
X026493Y011085D02*
X025973Y011085D01*
X025973Y011142D02*
X026493Y011142D01*
X026493Y011199D02*
X025973Y011199D01*
X025973Y011256D02*
X026493Y011256D01*
X026493Y011313D02*
X025973Y011313D01*
X025973Y011370D02*
X026493Y011370D01*
X026493Y011427D02*
X025973Y011427D01*
X025493Y009432D02*
X024973Y009432D01*
X024973Y011468D01*
X025493Y011468D01*
X025493Y009432D01*
X025493Y009489D02*
X024973Y009489D01*
X024973Y009546D02*
X025493Y009546D01*
X025493Y009603D02*
X024973Y009603D01*
X024973Y009660D02*
X025493Y009660D01*
X025493Y009717D02*
X024973Y009717D01*
X024973Y009774D02*
X025493Y009774D01*
X025493Y009831D02*
X024973Y009831D01*
X024973Y009888D02*
X025493Y009888D01*
X025493Y009945D02*
X024973Y009945D01*
X024973Y010002D02*
X025493Y010002D01*
X025493Y010059D02*
X024973Y010059D01*
X024973Y010116D02*
X025493Y010116D01*
X025493Y010173D02*
X024973Y010173D01*
X024973Y010230D02*
X025493Y010230D01*
X025493Y010287D02*
X024973Y010287D01*
X024973Y010344D02*
X025493Y010344D01*
X025493Y010401D02*
X024973Y010401D01*
X024973Y010458D02*
X025493Y010458D01*
X025493Y010515D02*
X024973Y010515D01*
X024973Y010572D02*
X025493Y010572D01*
X025493Y010629D02*
X024973Y010629D01*
X024973Y010686D02*
X025493Y010686D01*
X025493Y010743D02*
X024973Y010743D01*
X024973Y010800D02*
X025493Y010800D01*
X025493Y010857D02*
X024973Y010857D01*
X024973Y010914D02*
X025493Y010914D01*
X025493Y010971D02*
X024973Y010971D01*
X024973Y011028D02*
X025493Y011028D01*
X025493Y011085D02*
X024973Y011085D01*
X024973Y011142D02*
X025493Y011142D01*
X025493Y011199D02*
X024973Y011199D01*
X024973Y011256D02*
X025493Y011256D01*
X025493Y011313D02*
X024973Y011313D01*
X024973Y011370D02*
X025493Y011370D01*
X025493Y011427D02*
X024973Y011427D01*
X024493Y009432D02*
X023973Y009432D01*
X023973Y011468D01*
X024493Y011468D01*
X024493Y009432D01*
X024493Y009489D02*
X023973Y009489D01*
X023973Y009546D02*
X024493Y009546D01*
X024493Y009603D02*
X023973Y009603D01*
X023973Y009660D02*
X024493Y009660D01*
X024493Y009717D02*
X023973Y009717D01*
X023973Y009774D02*
X024493Y009774D01*
X024493Y009831D02*
X023973Y009831D01*
X023973Y009888D02*
X024493Y009888D01*
X024493Y009945D02*
X023973Y009945D01*
X023973Y010002D02*
X024493Y010002D01*
X024493Y010059D02*
X023973Y010059D01*
X023973Y010116D02*
X024493Y010116D01*
X024493Y010173D02*
X023973Y010173D01*
X023973Y010230D02*
X024493Y010230D01*
X024493Y010287D02*
X023973Y010287D01*
X023973Y010344D02*
X024493Y010344D01*
X024493Y010401D02*
X023973Y010401D01*
X023973Y010458D02*
X024493Y010458D01*
X024493Y010515D02*
X023973Y010515D01*
X023973Y010572D02*
X024493Y010572D01*
X024493Y010629D02*
X023973Y010629D01*
X023973Y010686D02*
X024493Y010686D01*
X024493Y010743D02*
X023973Y010743D01*
X023973Y010800D02*
X024493Y010800D01*
X024493Y010857D02*
X023973Y010857D01*
X023973Y010914D02*
X024493Y010914D01*
X024493Y010971D02*
X023973Y010971D01*
X023973Y011028D02*
X024493Y011028D01*
X024493Y011085D02*
X023973Y011085D01*
X023973Y011142D02*
X024493Y011142D01*
X024493Y011199D02*
X023973Y011199D01*
X023973Y011256D02*
X024493Y011256D01*
X024493Y011313D02*
X023973Y011313D01*
X023973Y011370D02*
X024493Y011370D01*
X024493Y011427D02*
X023973Y011427D01*
X023493Y009432D02*
X022973Y009432D01*
X022973Y011468D01*
X023493Y011468D01*
X023493Y009432D01*
X023493Y009489D02*
X022973Y009489D01*
X022973Y009546D02*
X023493Y009546D01*
X023493Y009603D02*
X022973Y009603D01*
X022973Y009660D02*
X023493Y009660D01*
X023493Y009717D02*
X022973Y009717D01*
X022973Y009774D02*
X023493Y009774D01*
X023493Y009831D02*
X022973Y009831D01*
X022973Y009888D02*
X023493Y009888D01*
X023493Y009945D02*
X022973Y009945D01*
X022973Y010002D02*
X023493Y010002D01*
X023493Y010059D02*
X022973Y010059D01*
X022973Y010116D02*
X023493Y010116D01*
X023493Y010173D02*
X022973Y010173D01*
X022973Y010230D02*
X023493Y010230D01*
X023493Y010287D02*
X022973Y010287D01*
X022973Y010344D02*
X023493Y010344D01*
X023493Y010401D02*
X022973Y010401D01*
X022973Y010458D02*
X023493Y010458D01*
X023493Y010515D02*
X022973Y010515D01*
X022973Y010572D02*
X023493Y010572D01*
X023493Y010629D02*
X022973Y010629D01*
X022973Y010686D02*
X023493Y010686D01*
X023493Y010743D02*
X022973Y010743D01*
X022973Y010800D02*
X023493Y010800D01*
X023493Y010857D02*
X022973Y010857D01*
X022973Y010914D02*
X023493Y010914D01*
X023493Y010971D02*
X022973Y010971D01*
X022973Y011028D02*
X023493Y011028D01*
X023493Y011085D02*
X022973Y011085D01*
X022973Y011142D02*
X023493Y011142D01*
X023493Y011199D02*
X022973Y011199D01*
X022973Y011256D02*
X023493Y011256D01*
X023493Y011313D02*
X022973Y011313D01*
X022973Y011370D02*
X023493Y011370D01*
X023493Y011427D02*
X022973Y011427D01*
X022493Y009432D02*
X021973Y009432D01*
X021973Y011468D01*
X022493Y011468D01*
X022493Y009432D01*
X022493Y009489D02*
X021973Y009489D01*
X021973Y009546D02*
X022493Y009546D01*
X022493Y009603D02*
X021973Y009603D01*
X021973Y009660D02*
X022493Y009660D01*
X022493Y009717D02*
X021973Y009717D01*
X021973Y009774D02*
X022493Y009774D01*
X022493Y009831D02*
X021973Y009831D01*
X021973Y009888D02*
X022493Y009888D01*
X022493Y009945D02*
X021973Y009945D01*
X021973Y010002D02*
X022493Y010002D01*
X022493Y010059D02*
X021973Y010059D01*
X021973Y010116D02*
X022493Y010116D01*
X022493Y010173D02*
X021973Y010173D01*
X021973Y010230D02*
X022493Y010230D01*
X022493Y010287D02*
X021973Y010287D01*
X021973Y010344D02*
X022493Y010344D01*
X022493Y010401D02*
X021973Y010401D01*
X021973Y010458D02*
X022493Y010458D01*
X022493Y010515D02*
X021973Y010515D01*
X021973Y010572D02*
X022493Y010572D01*
X022493Y010629D02*
X021973Y010629D01*
X021973Y010686D02*
X022493Y010686D01*
X022493Y010743D02*
X021973Y010743D01*
X021973Y010800D02*
X022493Y010800D01*
X022493Y010857D02*
X021973Y010857D01*
X021973Y010914D02*
X022493Y010914D01*
X022493Y010971D02*
X021973Y010971D01*
X021973Y011028D02*
X022493Y011028D01*
X022493Y011085D02*
X021973Y011085D01*
X021973Y011142D02*
X022493Y011142D01*
X022493Y011199D02*
X021973Y011199D01*
X021973Y011256D02*
X022493Y011256D01*
X022493Y011313D02*
X021973Y011313D01*
X021973Y011370D02*
X022493Y011370D01*
X022493Y011427D02*
X021973Y011427D01*
X021493Y009432D02*
X020973Y009432D01*
X020973Y011468D01*
X021493Y011468D01*
X021493Y009432D01*
X021493Y009489D02*
X020973Y009489D01*
X020973Y009546D02*
X021493Y009546D01*
X021493Y009603D02*
X020973Y009603D01*
X020973Y009660D02*
X021493Y009660D01*
X021493Y009717D02*
X020973Y009717D01*
X020973Y009774D02*
X021493Y009774D01*
X021493Y009831D02*
X020973Y009831D01*
X020973Y009888D02*
X021493Y009888D01*
X021493Y009945D02*
X020973Y009945D01*
X020973Y010002D02*
X021493Y010002D01*
X021493Y010059D02*
X020973Y010059D01*
X020973Y010116D02*
X021493Y010116D01*
X021493Y010173D02*
X020973Y010173D01*
X020973Y010230D02*
X021493Y010230D01*
X021493Y010287D02*
X020973Y010287D01*
X020973Y010344D02*
X021493Y010344D01*
X021493Y010401D02*
X020973Y010401D01*
X020973Y010458D02*
X021493Y010458D01*
X021493Y010515D02*
X020973Y010515D01*
X020973Y010572D02*
X021493Y010572D01*
X021493Y010629D02*
X020973Y010629D01*
X020973Y010686D02*
X021493Y010686D01*
X021493Y010743D02*
X020973Y010743D01*
X020973Y010800D02*
X021493Y010800D01*
X021493Y010857D02*
X020973Y010857D01*
X020973Y010914D02*
X021493Y010914D01*
X021493Y010971D02*
X020973Y010971D01*
X020973Y011028D02*
X021493Y011028D01*
X021493Y011085D02*
X020973Y011085D01*
X020973Y011142D02*
X021493Y011142D01*
X021493Y011199D02*
X020973Y011199D01*
X020973Y011256D02*
X021493Y011256D01*
X021493Y011313D02*
X020973Y011313D01*
X020973Y011370D02*
X021493Y011370D01*
X021493Y011427D02*
X020973Y011427D01*
X020493Y009432D02*
X019973Y009432D01*
X019973Y011468D01*
X020493Y011468D01*
X020493Y009432D01*
X020493Y009489D02*
X019973Y009489D01*
X019973Y009546D02*
X020493Y009546D01*
X020493Y009603D02*
X019973Y009603D01*
X019973Y009660D02*
X020493Y009660D01*
X020493Y009717D02*
X019973Y009717D01*
X019973Y009774D02*
X020493Y009774D01*
X020493Y009831D02*
X019973Y009831D01*
X019973Y009888D02*
X020493Y009888D01*
X020493Y009945D02*
X019973Y009945D01*
X019973Y010002D02*
X020493Y010002D01*
X020493Y010059D02*
X019973Y010059D01*
X019973Y010116D02*
X020493Y010116D01*
X020493Y010173D02*
X019973Y010173D01*
X019973Y010230D02*
X020493Y010230D01*
X020493Y010287D02*
X019973Y010287D01*
X019973Y010344D02*
X020493Y010344D01*
X020493Y010401D02*
X019973Y010401D01*
X019973Y010458D02*
X020493Y010458D01*
X020493Y010515D02*
X019973Y010515D01*
X019973Y010572D02*
X020493Y010572D01*
X020493Y010629D02*
X019973Y010629D01*
X019973Y010686D02*
X020493Y010686D01*
X020493Y010743D02*
X019973Y010743D01*
X019973Y010800D02*
X020493Y010800D01*
X020493Y010857D02*
X019973Y010857D01*
X019973Y010914D02*
X020493Y010914D01*
X020493Y010971D02*
X019973Y010971D01*
X019973Y011028D02*
X020493Y011028D01*
X020493Y011085D02*
X019973Y011085D01*
X019973Y011142D02*
X020493Y011142D01*
X020493Y011199D02*
X019973Y011199D01*
X019973Y011256D02*
X020493Y011256D01*
X020493Y011313D02*
X019973Y011313D01*
X019973Y011370D02*
X020493Y011370D01*
X020493Y011427D02*
X019973Y011427D01*
X019493Y009432D02*
X018973Y009432D01*
X018973Y011468D01*
X019493Y011468D01*
X019493Y009432D01*
X019493Y009489D02*
X018973Y009489D01*
X018973Y009546D02*
X019493Y009546D01*
X019493Y009603D02*
X018973Y009603D01*
X018973Y009660D02*
X019493Y009660D01*
X019493Y009717D02*
X018973Y009717D01*
X018973Y009774D02*
X019493Y009774D01*
X019493Y009831D02*
X018973Y009831D01*
X018973Y009888D02*
X019493Y009888D01*
X019493Y009945D02*
X018973Y009945D01*
X018973Y010002D02*
X019493Y010002D01*
X019493Y010059D02*
X018973Y010059D01*
X018973Y010116D02*
X019493Y010116D01*
X019493Y010173D02*
X018973Y010173D01*
X018973Y010230D02*
X019493Y010230D01*
X019493Y010287D02*
X018973Y010287D01*
X018973Y010344D02*
X019493Y010344D01*
X019493Y010401D02*
X018973Y010401D01*
X018973Y010458D02*
X019493Y010458D01*
X019493Y010515D02*
X018973Y010515D01*
X018973Y010572D02*
X019493Y010572D01*
X019493Y010629D02*
X018973Y010629D01*
X018973Y010686D02*
X019493Y010686D01*
X019493Y010743D02*
X018973Y010743D01*
X018973Y010800D02*
X019493Y010800D01*
X019493Y010857D02*
X018973Y010857D01*
X018973Y010914D02*
X019493Y010914D01*
X019493Y010971D02*
X018973Y010971D01*
X018973Y011028D02*
X019493Y011028D01*
X019493Y011085D02*
X018973Y011085D01*
X018973Y011142D02*
X019493Y011142D01*
X019493Y011199D02*
X018973Y011199D01*
X018973Y011256D02*
X019493Y011256D01*
X019493Y011313D02*
X018973Y011313D01*
X018973Y011370D02*
X019493Y011370D01*
X019493Y011427D02*
X018973Y011427D01*
X018493Y009432D02*
X017973Y009432D01*
X017973Y011468D01*
X018493Y011468D01*
X018493Y009432D01*
X018493Y009489D02*
X017973Y009489D01*
X017973Y009546D02*
X018493Y009546D01*
X018493Y009603D02*
X017973Y009603D01*
X017973Y009660D02*
X018493Y009660D01*
X018493Y009717D02*
X017973Y009717D01*
X017973Y009774D02*
X018493Y009774D01*
X018493Y009831D02*
X017973Y009831D01*
X017973Y009888D02*
X018493Y009888D01*
X018493Y009945D02*
X017973Y009945D01*
X017973Y010002D02*
X018493Y010002D01*
X018493Y010059D02*
X017973Y010059D01*
X017973Y010116D02*
X018493Y010116D01*
X018493Y010173D02*
X017973Y010173D01*
X017973Y010230D02*
X018493Y010230D01*
X018493Y010287D02*
X017973Y010287D01*
X017973Y010344D02*
X018493Y010344D01*
X018493Y010401D02*
X017973Y010401D01*
X017973Y010458D02*
X018493Y010458D01*
X018493Y010515D02*
X017973Y010515D01*
X017973Y010572D02*
X018493Y010572D01*
X018493Y010629D02*
X017973Y010629D01*
X017973Y010686D02*
X018493Y010686D01*
X018493Y010743D02*
X017973Y010743D01*
X017973Y010800D02*
X018493Y010800D01*
X018493Y010857D02*
X017973Y010857D01*
X017973Y010914D02*
X018493Y010914D01*
X018493Y010971D02*
X017973Y010971D01*
X017973Y011028D02*
X018493Y011028D01*
X018493Y011085D02*
X017973Y011085D01*
X017973Y011142D02*
X018493Y011142D01*
X018493Y011199D02*
X017973Y011199D01*
X017973Y011256D02*
X018493Y011256D01*
X018493Y011313D02*
X017973Y011313D01*
X017973Y011370D02*
X018493Y011370D01*
X018493Y011427D02*
X017973Y011427D01*
X017493Y009432D02*
X016973Y009432D01*
X016973Y011468D01*
X017493Y011468D01*
X017493Y009432D01*
X017493Y009489D02*
X016973Y009489D01*
X016973Y009546D02*
X017493Y009546D01*
X017493Y009603D02*
X016973Y009603D01*
X016973Y009660D02*
X017493Y009660D01*
X017493Y009717D02*
X016973Y009717D01*
X016973Y009774D02*
X017493Y009774D01*
X017493Y009831D02*
X016973Y009831D01*
X016973Y009888D02*
X017493Y009888D01*
X017493Y009945D02*
X016973Y009945D01*
X016973Y010002D02*
X017493Y010002D01*
X017493Y010059D02*
X016973Y010059D01*
X016973Y010116D02*
X017493Y010116D01*
X017493Y010173D02*
X016973Y010173D01*
X016973Y010230D02*
X017493Y010230D01*
X017493Y010287D02*
X016973Y010287D01*
X016973Y010344D02*
X017493Y010344D01*
X017493Y010401D02*
X016973Y010401D01*
X016973Y010458D02*
X017493Y010458D01*
X017493Y010515D02*
X016973Y010515D01*
X016973Y010572D02*
X017493Y010572D01*
X017493Y010629D02*
X016973Y010629D01*
X016973Y010686D02*
X017493Y010686D01*
X017493Y010743D02*
X016973Y010743D01*
X016973Y010800D02*
X017493Y010800D01*
X017493Y010857D02*
X016973Y010857D01*
X016973Y010914D02*
X017493Y010914D01*
X017493Y010971D02*
X016973Y010971D01*
X016973Y011028D02*
X017493Y011028D01*
X017493Y011085D02*
X016973Y011085D01*
X016973Y011142D02*
X017493Y011142D01*
X017493Y011199D02*
X016973Y011199D01*
X016973Y011256D02*
X017493Y011256D01*
X017493Y011313D02*
X016973Y011313D01*
X016973Y011370D02*
X017493Y011370D01*
X017493Y011427D02*
X016973Y011427D01*
X016493Y009432D02*
X015973Y009432D01*
X015973Y011468D01*
X016493Y011468D01*
X016493Y009432D01*
X016493Y009489D02*
X015973Y009489D01*
X015973Y009546D02*
X016493Y009546D01*
X016493Y009603D02*
X015973Y009603D01*
X015973Y009660D02*
X016493Y009660D01*
X016493Y009717D02*
X015973Y009717D01*
X015973Y009774D02*
X016493Y009774D01*
X016493Y009831D02*
X015973Y009831D01*
X015973Y009888D02*
X016493Y009888D01*
X016493Y009945D02*
X015973Y009945D01*
X015973Y010002D02*
X016493Y010002D01*
X016493Y010059D02*
X015973Y010059D01*
X015973Y010116D02*
X016493Y010116D01*
X016493Y010173D02*
X015973Y010173D01*
X015973Y010230D02*
X016493Y010230D01*
X016493Y010287D02*
X015973Y010287D01*
X015973Y010344D02*
X016493Y010344D01*
X016493Y010401D02*
X015973Y010401D01*
X015973Y010458D02*
X016493Y010458D01*
X016493Y010515D02*
X015973Y010515D01*
X015973Y010572D02*
X016493Y010572D01*
X016493Y010629D02*
X015973Y010629D01*
X015973Y010686D02*
X016493Y010686D01*
X016493Y010743D02*
X015973Y010743D01*
X015973Y010800D02*
X016493Y010800D01*
X016493Y010857D02*
X015973Y010857D01*
X015973Y010914D02*
X016493Y010914D01*
X016493Y010971D02*
X015973Y010971D01*
X015973Y011028D02*
X016493Y011028D01*
X016493Y011085D02*
X015973Y011085D01*
X015973Y011142D02*
X016493Y011142D01*
X016493Y011199D02*
X015973Y011199D01*
X015973Y011256D02*
X016493Y011256D01*
X016493Y011313D02*
X015973Y011313D01*
X015973Y011370D02*
X016493Y011370D01*
X016493Y011427D02*
X015973Y011427D01*
X015973Y015432D02*
X016493Y015432D01*
X015973Y015432D02*
X015973Y017468D01*
X016493Y017468D01*
X016493Y015432D01*
X016493Y015489D02*
X015973Y015489D01*
X015973Y015546D02*
X016493Y015546D01*
X016493Y015603D02*
X015973Y015603D01*
X015973Y015660D02*
X016493Y015660D01*
X016493Y015717D02*
X015973Y015717D01*
X015973Y015774D02*
X016493Y015774D01*
X016493Y015831D02*
X015973Y015831D01*
X015973Y015888D02*
X016493Y015888D01*
X016493Y015945D02*
X015973Y015945D01*
X015973Y016002D02*
X016493Y016002D01*
X016493Y016059D02*
X015973Y016059D01*
X015973Y016116D02*
X016493Y016116D01*
X016493Y016173D02*
X015973Y016173D01*
X015973Y016230D02*
X016493Y016230D01*
X016493Y016287D02*
X015973Y016287D01*
X015973Y016344D02*
X016493Y016344D01*
X016493Y016401D02*
X015973Y016401D01*
X015973Y016458D02*
X016493Y016458D01*
X016493Y016515D02*
X015973Y016515D01*
X015973Y016572D02*
X016493Y016572D01*
X016493Y016629D02*
X015973Y016629D01*
X015973Y016686D02*
X016493Y016686D01*
X016493Y016743D02*
X015973Y016743D01*
X015973Y016800D02*
X016493Y016800D01*
X016493Y016857D02*
X015973Y016857D01*
X015973Y016914D02*
X016493Y016914D01*
X016493Y016971D02*
X015973Y016971D01*
X015973Y017028D02*
X016493Y017028D01*
X016493Y017085D02*
X015973Y017085D01*
X015973Y017142D02*
X016493Y017142D01*
X016493Y017199D02*
X015973Y017199D01*
X015973Y017256D02*
X016493Y017256D01*
X016493Y017313D02*
X015973Y017313D01*
X015973Y017370D02*
X016493Y017370D01*
X016493Y017427D02*
X015973Y017427D01*
X016973Y015432D02*
X017493Y015432D01*
X016973Y015432D02*
X016973Y017468D01*
X017493Y017468D01*
X017493Y015432D01*
X017493Y015489D02*
X016973Y015489D01*
X016973Y015546D02*
X017493Y015546D01*
X017493Y015603D02*
X016973Y015603D01*
X016973Y015660D02*
X017493Y015660D01*
X017493Y015717D02*
X016973Y015717D01*
X016973Y015774D02*
X017493Y015774D01*
X017493Y015831D02*
X016973Y015831D01*
X016973Y015888D02*
X017493Y015888D01*
X017493Y015945D02*
X016973Y015945D01*
X016973Y016002D02*
X017493Y016002D01*
X017493Y016059D02*
X016973Y016059D01*
X016973Y016116D02*
X017493Y016116D01*
X017493Y016173D02*
X016973Y016173D01*
X016973Y016230D02*
X017493Y016230D01*
X017493Y016287D02*
X016973Y016287D01*
X016973Y016344D02*
X017493Y016344D01*
X017493Y016401D02*
X016973Y016401D01*
X016973Y016458D02*
X017493Y016458D01*
X017493Y016515D02*
X016973Y016515D01*
X016973Y016572D02*
X017493Y016572D01*
X017493Y016629D02*
X016973Y016629D01*
X016973Y016686D02*
X017493Y016686D01*
X017493Y016743D02*
X016973Y016743D01*
X016973Y016800D02*
X017493Y016800D01*
X017493Y016857D02*
X016973Y016857D01*
X016973Y016914D02*
X017493Y016914D01*
X017493Y016971D02*
X016973Y016971D01*
X016973Y017028D02*
X017493Y017028D01*
X017493Y017085D02*
X016973Y017085D01*
X016973Y017142D02*
X017493Y017142D01*
X017493Y017199D02*
X016973Y017199D01*
X016973Y017256D02*
X017493Y017256D01*
X017493Y017313D02*
X016973Y017313D01*
X016973Y017370D02*
X017493Y017370D01*
X017493Y017427D02*
X016973Y017427D01*
X017973Y015432D02*
X018493Y015432D01*
X017973Y015432D02*
X017973Y017468D01*
X018493Y017468D01*
X018493Y015432D01*
X018493Y015489D02*
X017973Y015489D01*
X017973Y015546D02*
X018493Y015546D01*
X018493Y015603D02*
X017973Y015603D01*
X017973Y015660D02*
X018493Y015660D01*
X018493Y015717D02*
X017973Y015717D01*
X017973Y015774D02*
X018493Y015774D01*
X018493Y015831D02*
X017973Y015831D01*
X017973Y015888D02*
X018493Y015888D01*
X018493Y015945D02*
X017973Y015945D01*
X017973Y016002D02*
X018493Y016002D01*
X018493Y016059D02*
X017973Y016059D01*
X017973Y016116D02*
X018493Y016116D01*
X018493Y016173D02*
X017973Y016173D01*
X017973Y016230D02*
X018493Y016230D01*
X018493Y016287D02*
X017973Y016287D01*
X017973Y016344D02*
X018493Y016344D01*
X018493Y016401D02*
X017973Y016401D01*
X017973Y016458D02*
X018493Y016458D01*
X018493Y016515D02*
X017973Y016515D01*
X017973Y016572D02*
X018493Y016572D01*
X018493Y016629D02*
X017973Y016629D01*
X017973Y016686D02*
X018493Y016686D01*
X018493Y016743D02*
X017973Y016743D01*
X017973Y016800D02*
X018493Y016800D01*
X018493Y016857D02*
X017973Y016857D01*
X017973Y016914D02*
X018493Y016914D01*
X018493Y016971D02*
X017973Y016971D01*
X017973Y017028D02*
X018493Y017028D01*
X018493Y017085D02*
X017973Y017085D01*
X017973Y017142D02*
X018493Y017142D01*
X018493Y017199D02*
X017973Y017199D01*
X017973Y017256D02*
X018493Y017256D01*
X018493Y017313D02*
X017973Y017313D01*
X017973Y017370D02*
X018493Y017370D01*
X018493Y017427D02*
X017973Y017427D01*
X018973Y015432D02*
X019493Y015432D01*
X018973Y015432D02*
X018973Y017468D01*
X019493Y017468D01*
X019493Y015432D01*
X019493Y015489D02*
X018973Y015489D01*
X018973Y015546D02*
X019493Y015546D01*
X019493Y015603D02*
X018973Y015603D01*
X018973Y015660D02*
X019493Y015660D01*
X019493Y015717D02*
X018973Y015717D01*
X018973Y015774D02*
X019493Y015774D01*
X019493Y015831D02*
X018973Y015831D01*
X018973Y015888D02*
X019493Y015888D01*
X019493Y015945D02*
X018973Y015945D01*
X018973Y016002D02*
X019493Y016002D01*
X019493Y016059D02*
X018973Y016059D01*
X018973Y016116D02*
X019493Y016116D01*
X019493Y016173D02*
X018973Y016173D01*
X018973Y016230D02*
X019493Y016230D01*
X019493Y016287D02*
X018973Y016287D01*
X018973Y016344D02*
X019493Y016344D01*
X019493Y016401D02*
X018973Y016401D01*
X018973Y016458D02*
X019493Y016458D01*
X019493Y016515D02*
X018973Y016515D01*
X018973Y016572D02*
X019493Y016572D01*
X019493Y016629D02*
X018973Y016629D01*
X018973Y016686D02*
X019493Y016686D01*
X019493Y016743D02*
X018973Y016743D01*
X018973Y016800D02*
X019493Y016800D01*
X019493Y016857D02*
X018973Y016857D01*
X018973Y016914D02*
X019493Y016914D01*
X019493Y016971D02*
X018973Y016971D01*
X018973Y017028D02*
X019493Y017028D01*
X019493Y017085D02*
X018973Y017085D01*
X018973Y017142D02*
X019493Y017142D01*
X019493Y017199D02*
X018973Y017199D01*
X018973Y017256D02*
X019493Y017256D01*
X019493Y017313D02*
X018973Y017313D01*
X018973Y017370D02*
X019493Y017370D01*
X019493Y017427D02*
X018973Y017427D01*
X019973Y015432D02*
X020493Y015432D01*
X019973Y015432D02*
X019973Y017468D01*
X020493Y017468D01*
X020493Y015432D01*
X020493Y015489D02*
X019973Y015489D01*
X019973Y015546D02*
X020493Y015546D01*
X020493Y015603D02*
X019973Y015603D01*
X019973Y015660D02*
X020493Y015660D01*
X020493Y015717D02*
X019973Y015717D01*
X019973Y015774D02*
X020493Y015774D01*
X020493Y015831D02*
X019973Y015831D01*
X019973Y015888D02*
X020493Y015888D01*
X020493Y015945D02*
X019973Y015945D01*
X019973Y016002D02*
X020493Y016002D01*
X020493Y016059D02*
X019973Y016059D01*
X019973Y016116D02*
X020493Y016116D01*
X020493Y016173D02*
X019973Y016173D01*
X019973Y016230D02*
X020493Y016230D01*
X020493Y016287D02*
X019973Y016287D01*
X019973Y016344D02*
X020493Y016344D01*
X020493Y016401D02*
X019973Y016401D01*
X019973Y016458D02*
X020493Y016458D01*
X020493Y016515D02*
X019973Y016515D01*
X019973Y016572D02*
X020493Y016572D01*
X020493Y016629D02*
X019973Y016629D01*
X019973Y016686D02*
X020493Y016686D01*
X020493Y016743D02*
X019973Y016743D01*
X019973Y016800D02*
X020493Y016800D01*
X020493Y016857D02*
X019973Y016857D01*
X019973Y016914D02*
X020493Y016914D01*
X020493Y016971D02*
X019973Y016971D01*
X019973Y017028D02*
X020493Y017028D01*
X020493Y017085D02*
X019973Y017085D01*
X019973Y017142D02*
X020493Y017142D01*
X020493Y017199D02*
X019973Y017199D01*
X019973Y017256D02*
X020493Y017256D01*
X020493Y017313D02*
X019973Y017313D01*
X019973Y017370D02*
X020493Y017370D01*
X020493Y017427D02*
X019973Y017427D01*
X020973Y015432D02*
X021493Y015432D01*
X020973Y015432D02*
X020973Y017468D01*
X021493Y017468D01*
X021493Y015432D01*
X021493Y015489D02*
X020973Y015489D01*
X020973Y015546D02*
X021493Y015546D01*
X021493Y015603D02*
X020973Y015603D01*
X020973Y015660D02*
X021493Y015660D01*
X021493Y015717D02*
X020973Y015717D01*
X020973Y015774D02*
X021493Y015774D01*
X021493Y015831D02*
X020973Y015831D01*
X020973Y015888D02*
X021493Y015888D01*
X021493Y015945D02*
X020973Y015945D01*
X020973Y016002D02*
X021493Y016002D01*
X021493Y016059D02*
X020973Y016059D01*
X020973Y016116D02*
X021493Y016116D01*
X021493Y016173D02*
X020973Y016173D01*
X020973Y016230D02*
X021493Y016230D01*
X021493Y016287D02*
X020973Y016287D01*
X020973Y016344D02*
X021493Y016344D01*
X021493Y016401D02*
X020973Y016401D01*
X020973Y016458D02*
X021493Y016458D01*
X021493Y016515D02*
X020973Y016515D01*
X020973Y016572D02*
X021493Y016572D01*
X021493Y016629D02*
X020973Y016629D01*
X020973Y016686D02*
X021493Y016686D01*
X021493Y016743D02*
X020973Y016743D01*
X020973Y016800D02*
X021493Y016800D01*
X021493Y016857D02*
X020973Y016857D01*
X020973Y016914D02*
X021493Y016914D01*
X021493Y016971D02*
X020973Y016971D01*
X020973Y017028D02*
X021493Y017028D01*
X021493Y017085D02*
X020973Y017085D01*
X020973Y017142D02*
X021493Y017142D01*
X021493Y017199D02*
X020973Y017199D01*
X020973Y017256D02*
X021493Y017256D01*
X021493Y017313D02*
X020973Y017313D01*
X020973Y017370D02*
X021493Y017370D01*
X021493Y017427D02*
X020973Y017427D01*
X021973Y015432D02*
X022493Y015432D01*
X021973Y015432D02*
X021973Y017468D01*
X022493Y017468D01*
X022493Y015432D01*
X022493Y015489D02*
X021973Y015489D01*
X021973Y015546D02*
X022493Y015546D01*
X022493Y015603D02*
X021973Y015603D01*
X021973Y015660D02*
X022493Y015660D01*
X022493Y015717D02*
X021973Y015717D01*
X021973Y015774D02*
X022493Y015774D01*
X022493Y015831D02*
X021973Y015831D01*
X021973Y015888D02*
X022493Y015888D01*
X022493Y015945D02*
X021973Y015945D01*
X021973Y016002D02*
X022493Y016002D01*
X022493Y016059D02*
X021973Y016059D01*
X021973Y016116D02*
X022493Y016116D01*
X022493Y016173D02*
X021973Y016173D01*
X021973Y016230D02*
X022493Y016230D01*
X022493Y016287D02*
X021973Y016287D01*
X021973Y016344D02*
X022493Y016344D01*
X022493Y016401D02*
X021973Y016401D01*
X021973Y016458D02*
X022493Y016458D01*
X022493Y016515D02*
X021973Y016515D01*
X021973Y016572D02*
X022493Y016572D01*
X022493Y016629D02*
X021973Y016629D01*
X021973Y016686D02*
X022493Y016686D01*
X022493Y016743D02*
X021973Y016743D01*
X021973Y016800D02*
X022493Y016800D01*
X022493Y016857D02*
X021973Y016857D01*
X021973Y016914D02*
X022493Y016914D01*
X022493Y016971D02*
X021973Y016971D01*
X021973Y017028D02*
X022493Y017028D01*
X022493Y017085D02*
X021973Y017085D01*
X021973Y017142D02*
X022493Y017142D01*
X022493Y017199D02*
X021973Y017199D01*
X021973Y017256D02*
X022493Y017256D01*
X022493Y017313D02*
X021973Y017313D01*
X021973Y017370D02*
X022493Y017370D01*
X022493Y017427D02*
X021973Y017427D01*
X022973Y015432D02*
X023493Y015432D01*
X022973Y015432D02*
X022973Y017468D01*
X023493Y017468D01*
X023493Y015432D01*
X023493Y015489D02*
X022973Y015489D01*
X022973Y015546D02*
X023493Y015546D01*
X023493Y015603D02*
X022973Y015603D01*
X022973Y015660D02*
X023493Y015660D01*
X023493Y015717D02*
X022973Y015717D01*
X022973Y015774D02*
X023493Y015774D01*
X023493Y015831D02*
X022973Y015831D01*
X022973Y015888D02*
X023493Y015888D01*
X023493Y015945D02*
X022973Y015945D01*
X022973Y016002D02*
X023493Y016002D01*
X023493Y016059D02*
X022973Y016059D01*
X022973Y016116D02*
X023493Y016116D01*
X023493Y016173D02*
X022973Y016173D01*
X022973Y016230D02*
X023493Y016230D01*
X023493Y016287D02*
X022973Y016287D01*
X022973Y016344D02*
X023493Y016344D01*
X023493Y016401D02*
X022973Y016401D01*
X022973Y016458D02*
X023493Y016458D01*
X023493Y016515D02*
X022973Y016515D01*
X022973Y016572D02*
X023493Y016572D01*
X023493Y016629D02*
X022973Y016629D01*
X022973Y016686D02*
X023493Y016686D01*
X023493Y016743D02*
X022973Y016743D01*
X022973Y016800D02*
X023493Y016800D01*
X023493Y016857D02*
X022973Y016857D01*
X022973Y016914D02*
X023493Y016914D01*
X023493Y016971D02*
X022973Y016971D01*
X022973Y017028D02*
X023493Y017028D01*
X023493Y017085D02*
X022973Y017085D01*
X022973Y017142D02*
X023493Y017142D01*
X023493Y017199D02*
X022973Y017199D01*
X022973Y017256D02*
X023493Y017256D01*
X023493Y017313D02*
X022973Y017313D01*
X022973Y017370D02*
X023493Y017370D01*
X023493Y017427D02*
X022973Y017427D01*
X023973Y015432D02*
X024493Y015432D01*
X023973Y015432D02*
X023973Y017468D01*
X024493Y017468D01*
X024493Y015432D01*
X024493Y015489D02*
X023973Y015489D01*
X023973Y015546D02*
X024493Y015546D01*
X024493Y015603D02*
X023973Y015603D01*
X023973Y015660D02*
X024493Y015660D01*
X024493Y015717D02*
X023973Y015717D01*
X023973Y015774D02*
X024493Y015774D01*
X024493Y015831D02*
X023973Y015831D01*
X023973Y015888D02*
X024493Y015888D01*
X024493Y015945D02*
X023973Y015945D01*
X023973Y016002D02*
X024493Y016002D01*
X024493Y016059D02*
X023973Y016059D01*
X023973Y016116D02*
X024493Y016116D01*
X024493Y016173D02*
X023973Y016173D01*
X023973Y016230D02*
X024493Y016230D01*
X024493Y016287D02*
X023973Y016287D01*
X023973Y016344D02*
X024493Y016344D01*
X024493Y016401D02*
X023973Y016401D01*
X023973Y016458D02*
X024493Y016458D01*
X024493Y016515D02*
X023973Y016515D01*
X023973Y016572D02*
X024493Y016572D01*
X024493Y016629D02*
X023973Y016629D01*
X023973Y016686D02*
X024493Y016686D01*
X024493Y016743D02*
X023973Y016743D01*
X023973Y016800D02*
X024493Y016800D01*
X024493Y016857D02*
X023973Y016857D01*
X023973Y016914D02*
X024493Y016914D01*
X024493Y016971D02*
X023973Y016971D01*
X023973Y017028D02*
X024493Y017028D01*
X024493Y017085D02*
X023973Y017085D01*
X023973Y017142D02*
X024493Y017142D01*
X024493Y017199D02*
X023973Y017199D01*
X023973Y017256D02*
X024493Y017256D01*
X024493Y017313D02*
X023973Y017313D01*
X023973Y017370D02*
X024493Y017370D01*
X024493Y017427D02*
X023973Y017427D01*
X024973Y015432D02*
X025493Y015432D01*
X024973Y015432D02*
X024973Y017468D01*
X025493Y017468D01*
X025493Y015432D01*
X025493Y015489D02*
X024973Y015489D01*
X024973Y015546D02*
X025493Y015546D01*
X025493Y015603D02*
X024973Y015603D01*
X024973Y015660D02*
X025493Y015660D01*
X025493Y015717D02*
X024973Y015717D01*
X024973Y015774D02*
X025493Y015774D01*
X025493Y015831D02*
X024973Y015831D01*
X024973Y015888D02*
X025493Y015888D01*
X025493Y015945D02*
X024973Y015945D01*
X024973Y016002D02*
X025493Y016002D01*
X025493Y016059D02*
X024973Y016059D01*
X024973Y016116D02*
X025493Y016116D01*
X025493Y016173D02*
X024973Y016173D01*
X024973Y016230D02*
X025493Y016230D01*
X025493Y016287D02*
X024973Y016287D01*
X024973Y016344D02*
X025493Y016344D01*
X025493Y016401D02*
X024973Y016401D01*
X024973Y016458D02*
X025493Y016458D01*
X025493Y016515D02*
X024973Y016515D01*
X024973Y016572D02*
X025493Y016572D01*
X025493Y016629D02*
X024973Y016629D01*
X024973Y016686D02*
X025493Y016686D01*
X025493Y016743D02*
X024973Y016743D01*
X024973Y016800D02*
X025493Y016800D01*
X025493Y016857D02*
X024973Y016857D01*
X024973Y016914D02*
X025493Y016914D01*
X025493Y016971D02*
X024973Y016971D01*
X024973Y017028D02*
X025493Y017028D01*
X025493Y017085D02*
X024973Y017085D01*
X024973Y017142D02*
X025493Y017142D01*
X025493Y017199D02*
X024973Y017199D01*
X024973Y017256D02*
X025493Y017256D01*
X025493Y017313D02*
X024973Y017313D01*
X024973Y017370D02*
X025493Y017370D01*
X025493Y017427D02*
X024973Y017427D01*
X025973Y015432D02*
X026493Y015432D01*
X025973Y015432D02*
X025973Y017468D01*
X026493Y017468D01*
X026493Y015432D01*
X026493Y015489D02*
X025973Y015489D01*
X025973Y015546D02*
X026493Y015546D01*
X026493Y015603D02*
X025973Y015603D01*
X025973Y015660D02*
X026493Y015660D01*
X026493Y015717D02*
X025973Y015717D01*
X025973Y015774D02*
X026493Y015774D01*
X026493Y015831D02*
X025973Y015831D01*
X025973Y015888D02*
X026493Y015888D01*
X026493Y015945D02*
X025973Y015945D01*
X025973Y016002D02*
X026493Y016002D01*
X026493Y016059D02*
X025973Y016059D01*
X025973Y016116D02*
X026493Y016116D01*
X026493Y016173D02*
X025973Y016173D01*
X025973Y016230D02*
X026493Y016230D01*
X026493Y016287D02*
X025973Y016287D01*
X025973Y016344D02*
X026493Y016344D01*
X026493Y016401D02*
X025973Y016401D01*
X025973Y016458D02*
X026493Y016458D01*
X026493Y016515D02*
X025973Y016515D01*
X025973Y016572D02*
X026493Y016572D01*
X026493Y016629D02*
X025973Y016629D01*
X025973Y016686D02*
X026493Y016686D01*
X026493Y016743D02*
X025973Y016743D01*
X025973Y016800D02*
X026493Y016800D01*
X026493Y016857D02*
X025973Y016857D01*
X025973Y016914D02*
X026493Y016914D01*
X026493Y016971D02*
X025973Y016971D01*
X025973Y017028D02*
X026493Y017028D01*
X026493Y017085D02*
X025973Y017085D01*
X025973Y017142D02*
X026493Y017142D01*
X026493Y017199D02*
X025973Y017199D01*
X025973Y017256D02*
X026493Y017256D01*
X026493Y017313D02*
X025973Y017313D01*
X025973Y017370D02*
X026493Y017370D01*
X026493Y017427D02*
X025973Y017427D01*
X026973Y015432D02*
X027493Y015432D01*
X026973Y015432D02*
X026973Y017468D01*
X027493Y017468D01*
X027493Y015432D01*
X027493Y015489D02*
X026973Y015489D01*
X026973Y015546D02*
X027493Y015546D01*
X027493Y015603D02*
X026973Y015603D01*
X026973Y015660D02*
X027493Y015660D01*
X027493Y015717D02*
X026973Y015717D01*
X026973Y015774D02*
X027493Y015774D01*
X027493Y015831D02*
X026973Y015831D01*
X026973Y015888D02*
X027493Y015888D01*
X027493Y015945D02*
X026973Y015945D01*
X026973Y016002D02*
X027493Y016002D01*
X027493Y016059D02*
X026973Y016059D01*
X026973Y016116D02*
X027493Y016116D01*
X027493Y016173D02*
X026973Y016173D01*
X026973Y016230D02*
X027493Y016230D01*
X027493Y016287D02*
X026973Y016287D01*
X026973Y016344D02*
X027493Y016344D01*
X027493Y016401D02*
X026973Y016401D01*
X026973Y016458D02*
X027493Y016458D01*
X027493Y016515D02*
X026973Y016515D01*
X026973Y016572D02*
X027493Y016572D01*
X027493Y016629D02*
X026973Y016629D01*
X026973Y016686D02*
X027493Y016686D01*
X027493Y016743D02*
X026973Y016743D01*
X026973Y016800D02*
X027493Y016800D01*
X027493Y016857D02*
X026973Y016857D01*
X026973Y016914D02*
X027493Y016914D01*
X027493Y016971D02*
X026973Y016971D01*
X026973Y017028D02*
X027493Y017028D01*
X027493Y017085D02*
X026973Y017085D01*
X026973Y017142D02*
X027493Y017142D01*
X027493Y017199D02*
X026973Y017199D01*
X026973Y017256D02*
X027493Y017256D01*
X027493Y017313D02*
X026973Y017313D01*
X026973Y017370D02*
X027493Y017370D01*
X027493Y017427D02*
X026973Y017427D01*
X027973Y015432D02*
X028493Y015432D01*
X027973Y015432D02*
X027973Y017468D01*
X028493Y017468D01*
X028493Y015432D01*
X028493Y015489D02*
X027973Y015489D01*
X027973Y015546D02*
X028493Y015546D01*
X028493Y015603D02*
X027973Y015603D01*
X027973Y015660D02*
X028493Y015660D01*
X028493Y015717D02*
X027973Y015717D01*
X027973Y015774D02*
X028493Y015774D01*
X028493Y015831D02*
X027973Y015831D01*
X027973Y015888D02*
X028493Y015888D01*
X028493Y015945D02*
X027973Y015945D01*
X027973Y016002D02*
X028493Y016002D01*
X028493Y016059D02*
X027973Y016059D01*
X027973Y016116D02*
X028493Y016116D01*
X028493Y016173D02*
X027973Y016173D01*
X027973Y016230D02*
X028493Y016230D01*
X028493Y016287D02*
X027973Y016287D01*
X027973Y016344D02*
X028493Y016344D01*
X028493Y016401D02*
X027973Y016401D01*
X027973Y016458D02*
X028493Y016458D01*
X028493Y016515D02*
X027973Y016515D01*
X027973Y016572D02*
X028493Y016572D01*
X028493Y016629D02*
X027973Y016629D01*
X027973Y016686D02*
X028493Y016686D01*
X028493Y016743D02*
X027973Y016743D01*
X027973Y016800D02*
X028493Y016800D01*
X028493Y016857D02*
X027973Y016857D01*
X027973Y016914D02*
X028493Y016914D01*
X028493Y016971D02*
X027973Y016971D01*
X027973Y017028D02*
X028493Y017028D01*
X028493Y017085D02*
X027973Y017085D01*
X027973Y017142D02*
X028493Y017142D01*
X028493Y017199D02*
X027973Y017199D01*
X027973Y017256D02*
X028493Y017256D01*
X028493Y017313D02*
X027973Y017313D01*
X027973Y017370D02*
X028493Y017370D01*
X028493Y017427D02*
X027973Y017427D01*
X028973Y015432D02*
X029493Y015432D01*
X028973Y015432D02*
X028973Y017468D01*
X029493Y017468D01*
X029493Y015432D01*
X029493Y015489D02*
X028973Y015489D01*
X028973Y015546D02*
X029493Y015546D01*
X029493Y015603D02*
X028973Y015603D01*
X028973Y015660D02*
X029493Y015660D01*
X029493Y015717D02*
X028973Y015717D01*
X028973Y015774D02*
X029493Y015774D01*
X029493Y015831D02*
X028973Y015831D01*
X028973Y015888D02*
X029493Y015888D01*
X029493Y015945D02*
X028973Y015945D01*
X028973Y016002D02*
X029493Y016002D01*
X029493Y016059D02*
X028973Y016059D01*
X028973Y016116D02*
X029493Y016116D01*
X029493Y016173D02*
X028973Y016173D01*
X028973Y016230D02*
X029493Y016230D01*
X029493Y016287D02*
X028973Y016287D01*
X028973Y016344D02*
X029493Y016344D01*
X029493Y016401D02*
X028973Y016401D01*
X028973Y016458D02*
X029493Y016458D01*
X029493Y016515D02*
X028973Y016515D01*
X028973Y016572D02*
X029493Y016572D01*
X029493Y016629D02*
X028973Y016629D01*
X028973Y016686D02*
X029493Y016686D01*
X029493Y016743D02*
X028973Y016743D01*
X028973Y016800D02*
X029493Y016800D01*
X029493Y016857D02*
X028973Y016857D01*
X028973Y016914D02*
X029493Y016914D01*
X029493Y016971D02*
X028973Y016971D01*
X028973Y017028D02*
X029493Y017028D01*
X029493Y017085D02*
X028973Y017085D01*
X028973Y017142D02*
X029493Y017142D01*
X029493Y017199D02*
X028973Y017199D01*
X028973Y017256D02*
X029493Y017256D01*
X029493Y017313D02*
X028973Y017313D01*
X028973Y017370D02*
X029493Y017370D01*
X029493Y017427D02*
X028973Y017427D01*
X029973Y015432D02*
X030493Y015432D01*
X029973Y015432D02*
X029973Y017468D01*
X030493Y017468D01*
X030493Y015432D01*
X030493Y015489D02*
X029973Y015489D01*
X029973Y015546D02*
X030493Y015546D01*
X030493Y015603D02*
X029973Y015603D01*
X029973Y015660D02*
X030493Y015660D01*
X030493Y015717D02*
X029973Y015717D01*
X029973Y015774D02*
X030493Y015774D01*
X030493Y015831D02*
X029973Y015831D01*
X029973Y015888D02*
X030493Y015888D01*
X030493Y015945D02*
X029973Y015945D01*
X029973Y016002D02*
X030493Y016002D01*
X030493Y016059D02*
X029973Y016059D01*
X029973Y016116D02*
X030493Y016116D01*
X030493Y016173D02*
X029973Y016173D01*
X029973Y016230D02*
X030493Y016230D01*
X030493Y016287D02*
X029973Y016287D01*
X029973Y016344D02*
X030493Y016344D01*
X030493Y016401D02*
X029973Y016401D01*
X029973Y016458D02*
X030493Y016458D01*
X030493Y016515D02*
X029973Y016515D01*
X029973Y016572D02*
X030493Y016572D01*
X030493Y016629D02*
X029973Y016629D01*
X029973Y016686D02*
X030493Y016686D01*
X030493Y016743D02*
X029973Y016743D01*
X029973Y016800D02*
X030493Y016800D01*
X030493Y016857D02*
X029973Y016857D01*
X029973Y016914D02*
X030493Y016914D01*
X030493Y016971D02*
X029973Y016971D01*
X029973Y017028D02*
X030493Y017028D01*
X030493Y017085D02*
X029973Y017085D01*
X029973Y017142D02*
X030493Y017142D01*
X030493Y017199D02*
X029973Y017199D01*
X029973Y017256D02*
X030493Y017256D01*
X030493Y017313D02*
X029973Y017313D01*
X029973Y017370D02*
X030493Y017370D01*
X030493Y017427D02*
X029973Y017427D01*
X030973Y015432D02*
X031493Y015432D01*
X030973Y015432D02*
X030973Y017468D01*
X031493Y017468D01*
X031493Y015432D01*
X031493Y015489D02*
X030973Y015489D01*
X030973Y015546D02*
X031493Y015546D01*
X031493Y015603D02*
X030973Y015603D01*
X030973Y015660D02*
X031493Y015660D01*
X031493Y015717D02*
X030973Y015717D01*
X030973Y015774D02*
X031493Y015774D01*
X031493Y015831D02*
X030973Y015831D01*
X030973Y015888D02*
X031493Y015888D01*
X031493Y015945D02*
X030973Y015945D01*
X030973Y016002D02*
X031493Y016002D01*
X031493Y016059D02*
X030973Y016059D01*
X030973Y016116D02*
X031493Y016116D01*
X031493Y016173D02*
X030973Y016173D01*
X030973Y016230D02*
X031493Y016230D01*
X031493Y016287D02*
X030973Y016287D01*
X030973Y016344D02*
X031493Y016344D01*
X031493Y016401D02*
X030973Y016401D01*
X030973Y016458D02*
X031493Y016458D01*
X031493Y016515D02*
X030973Y016515D01*
X030973Y016572D02*
X031493Y016572D01*
X031493Y016629D02*
X030973Y016629D01*
X030973Y016686D02*
X031493Y016686D01*
X031493Y016743D02*
X030973Y016743D01*
X030973Y016800D02*
X031493Y016800D01*
X031493Y016857D02*
X030973Y016857D01*
X030973Y016914D02*
X031493Y016914D01*
X031493Y016971D02*
X030973Y016971D01*
X030973Y017028D02*
X031493Y017028D01*
X031493Y017085D02*
X030973Y017085D01*
X030973Y017142D02*
X031493Y017142D01*
X031493Y017199D02*
X030973Y017199D01*
X030973Y017256D02*
X031493Y017256D01*
X031493Y017313D02*
X030973Y017313D01*
X030973Y017370D02*
X031493Y017370D01*
X031493Y017427D02*
X030973Y017427D01*
X031973Y015432D02*
X032493Y015432D01*
X031973Y015432D02*
X031973Y017468D01*
X032493Y017468D01*
X032493Y015432D01*
X032493Y015489D02*
X031973Y015489D01*
X031973Y015546D02*
X032493Y015546D01*
X032493Y015603D02*
X031973Y015603D01*
X031973Y015660D02*
X032493Y015660D01*
X032493Y015717D02*
X031973Y015717D01*
X031973Y015774D02*
X032493Y015774D01*
X032493Y015831D02*
X031973Y015831D01*
X031973Y015888D02*
X032493Y015888D01*
X032493Y015945D02*
X031973Y015945D01*
X031973Y016002D02*
X032493Y016002D01*
X032493Y016059D02*
X031973Y016059D01*
X031973Y016116D02*
X032493Y016116D01*
X032493Y016173D02*
X031973Y016173D01*
X031973Y016230D02*
X032493Y016230D01*
X032493Y016287D02*
X031973Y016287D01*
X031973Y016344D02*
X032493Y016344D01*
X032493Y016401D02*
X031973Y016401D01*
X031973Y016458D02*
X032493Y016458D01*
X032493Y016515D02*
X031973Y016515D01*
X031973Y016572D02*
X032493Y016572D01*
X032493Y016629D02*
X031973Y016629D01*
X031973Y016686D02*
X032493Y016686D01*
X032493Y016743D02*
X031973Y016743D01*
X031973Y016800D02*
X032493Y016800D01*
X032493Y016857D02*
X031973Y016857D01*
X031973Y016914D02*
X032493Y016914D01*
X032493Y016971D02*
X031973Y016971D01*
X031973Y017028D02*
X032493Y017028D01*
X032493Y017085D02*
X031973Y017085D01*
X031973Y017142D02*
X032493Y017142D01*
X032493Y017199D02*
X031973Y017199D01*
X031973Y017256D02*
X032493Y017256D01*
X032493Y017313D02*
X031973Y017313D01*
X031973Y017370D02*
X032493Y017370D01*
X032493Y017427D02*
X031973Y017427D01*
X032973Y015432D02*
X033493Y015432D01*
X032973Y015432D02*
X032973Y017468D01*
X033493Y017468D01*
X033493Y015432D01*
X033493Y015489D02*
X032973Y015489D01*
X032973Y015546D02*
X033493Y015546D01*
X033493Y015603D02*
X032973Y015603D01*
X032973Y015660D02*
X033493Y015660D01*
X033493Y015717D02*
X032973Y015717D01*
X032973Y015774D02*
X033493Y015774D01*
X033493Y015831D02*
X032973Y015831D01*
X032973Y015888D02*
X033493Y015888D01*
X033493Y015945D02*
X032973Y015945D01*
X032973Y016002D02*
X033493Y016002D01*
X033493Y016059D02*
X032973Y016059D01*
X032973Y016116D02*
X033493Y016116D01*
X033493Y016173D02*
X032973Y016173D01*
X032973Y016230D02*
X033493Y016230D01*
X033493Y016287D02*
X032973Y016287D01*
X032973Y016344D02*
X033493Y016344D01*
X033493Y016401D02*
X032973Y016401D01*
X032973Y016458D02*
X033493Y016458D01*
X033493Y016515D02*
X032973Y016515D01*
X032973Y016572D02*
X033493Y016572D01*
X033493Y016629D02*
X032973Y016629D01*
X032973Y016686D02*
X033493Y016686D01*
X033493Y016743D02*
X032973Y016743D01*
X032973Y016800D02*
X033493Y016800D01*
X033493Y016857D02*
X032973Y016857D01*
X032973Y016914D02*
X033493Y016914D01*
X033493Y016971D02*
X032973Y016971D01*
X032973Y017028D02*
X033493Y017028D01*
X033493Y017085D02*
X032973Y017085D01*
X032973Y017142D02*
X033493Y017142D01*
X033493Y017199D02*
X032973Y017199D01*
X032973Y017256D02*
X033493Y017256D01*
X033493Y017313D02*
X032973Y017313D01*
X032973Y017370D02*
X033493Y017370D01*
X033493Y017427D02*
X032973Y017427D01*
X033973Y015432D02*
X034493Y015432D01*
X033973Y015432D02*
X033973Y017468D01*
X034493Y017468D01*
X034493Y015432D01*
X034493Y015489D02*
X033973Y015489D01*
X033973Y015546D02*
X034493Y015546D01*
X034493Y015603D02*
X033973Y015603D01*
X033973Y015660D02*
X034493Y015660D01*
X034493Y015717D02*
X033973Y015717D01*
X033973Y015774D02*
X034493Y015774D01*
X034493Y015831D02*
X033973Y015831D01*
X033973Y015888D02*
X034493Y015888D01*
X034493Y015945D02*
X033973Y015945D01*
X033973Y016002D02*
X034493Y016002D01*
X034493Y016059D02*
X033973Y016059D01*
X033973Y016116D02*
X034493Y016116D01*
X034493Y016173D02*
X033973Y016173D01*
X033973Y016230D02*
X034493Y016230D01*
X034493Y016287D02*
X033973Y016287D01*
X033973Y016344D02*
X034493Y016344D01*
X034493Y016401D02*
X033973Y016401D01*
X033973Y016458D02*
X034493Y016458D01*
X034493Y016515D02*
X033973Y016515D01*
X033973Y016572D02*
X034493Y016572D01*
X034493Y016629D02*
X033973Y016629D01*
X033973Y016686D02*
X034493Y016686D01*
X034493Y016743D02*
X033973Y016743D01*
X033973Y016800D02*
X034493Y016800D01*
X034493Y016857D02*
X033973Y016857D01*
X033973Y016914D02*
X034493Y016914D01*
X034493Y016971D02*
X033973Y016971D01*
X033973Y017028D02*
X034493Y017028D01*
X034493Y017085D02*
X033973Y017085D01*
X033973Y017142D02*
X034493Y017142D01*
X034493Y017199D02*
X033973Y017199D01*
X033973Y017256D02*
X034493Y017256D01*
X034493Y017313D02*
X033973Y017313D01*
X033973Y017370D02*
X034493Y017370D01*
X034493Y017427D02*
X033973Y017427D01*
X034973Y015432D02*
X035493Y015432D01*
X034973Y015432D02*
X034973Y017468D01*
X035493Y017468D01*
X035493Y015432D01*
X035493Y015489D02*
X034973Y015489D01*
X034973Y015546D02*
X035493Y015546D01*
X035493Y015603D02*
X034973Y015603D01*
X034973Y015660D02*
X035493Y015660D01*
X035493Y015717D02*
X034973Y015717D01*
X034973Y015774D02*
X035493Y015774D01*
X035493Y015831D02*
X034973Y015831D01*
X034973Y015888D02*
X035493Y015888D01*
X035493Y015945D02*
X034973Y015945D01*
X034973Y016002D02*
X035493Y016002D01*
X035493Y016059D02*
X034973Y016059D01*
X034973Y016116D02*
X035493Y016116D01*
X035493Y016173D02*
X034973Y016173D01*
X034973Y016230D02*
X035493Y016230D01*
X035493Y016287D02*
X034973Y016287D01*
X034973Y016344D02*
X035493Y016344D01*
X035493Y016401D02*
X034973Y016401D01*
X034973Y016458D02*
X035493Y016458D01*
X035493Y016515D02*
X034973Y016515D01*
X034973Y016572D02*
X035493Y016572D01*
X035493Y016629D02*
X034973Y016629D01*
X034973Y016686D02*
X035493Y016686D01*
X035493Y016743D02*
X034973Y016743D01*
X034973Y016800D02*
X035493Y016800D01*
X035493Y016857D02*
X034973Y016857D01*
X034973Y016914D02*
X035493Y016914D01*
X035493Y016971D02*
X034973Y016971D01*
X034973Y017028D02*
X035493Y017028D01*
X035493Y017085D02*
X034973Y017085D01*
X034973Y017142D02*
X035493Y017142D01*
X035493Y017199D02*
X034973Y017199D01*
X034973Y017256D02*
X035493Y017256D01*
X035493Y017313D02*
X034973Y017313D01*
X034973Y017370D02*
X035493Y017370D01*
X035493Y017427D02*
X034973Y017427D01*
X035973Y015432D02*
X036493Y015432D01*
X035973Y015432D02*
X035973Y017468D01*
X036493Y017468D01*
X036493Y015432D01*
X036493Y015489D02*
X035973Y015489D01*
X035973Y015546D02*
X036493Y015546D01*
X036493Y015603D02*
X035973Y015603D01*
X035973Y015660D02*
X036493Y015660D01*
X036493Y015717D02*
X035973Y015717D01*
X035973Y015774D02*
X036493Y015774D01*
X036493Y015831D02*
X035973Y015831D01*
X035973Y015888D02*
X036493Y015888D01*
X036493Y015945D02*
X035973Y015945D01*
X035973Y016002D02*
X036493Y016002D01*
X036493Y016059D02*
X035973Y016059D01*
X035973Y016116D02*
X036493Y016116D01*
X036493Y016173D02*
X035973Y016173D01*
X035973Y016230D02*
X036493Y016230D01*
X036493Y016287D02*
X035973Y016287D01*
X035973Y016344D02*
X036493Y016344D01*
X036493Y016401D02*
X035973Y016401D01*
X035973Y016458D02*
X036493Y016458D01*
X036493Y016515D02*
X035973Y016515D01*
X035973Y016572D02*
X036493Y016572D01*
X036493Y016629D02*
X035973Y016629D01*
X035973Y016686D02*
X036493Y016686D01*
X036493Y016743D02*
X035973Y016743D01*
X035973Y016800D02*
X036493Y016800D01*
X036493Y016857D02*
X035973Y016857D01*
X035973Y016914D02*
X036493Y016914D01*
X036493Y016971D02*
X035973Y016971D01*
X035973Y017028D02*
X036493Y017028D01*
X036493Y017085D02*
X035973Y017085D01*
X035973Y017142D02*
X036493Y017142D01*
X036493Y017199D02*
X035973Y017199D01*
X035973Y017256D02*
X036493Y017256D01*
X036493Y017313D02*
X035973Y017313D01*
X035973Y017370D02*
X036493Y017370D01*
X036493Y017427D02*
X035973Y017427D01*
X036973Y015432D02*
X037493Y015432D01*
X036973Y015432D02*
X036973Y017468D01*
X037493Y017468D01*
X037493Y015432D01*
X037493Y015489D02*
X036973Y015489D01*
X036973Y015546D02*
X037493Y015546D01*
X037493Y015603D02*
X036973Y015603D01*
X036973Y015660D02*
X037493Y015660D01*
X037493Y015717D02*
X036973Y015717D01*
X036973Y015774D02*
X037493Y015774D01*
X037493Y015831D02*
X036973Y015831D01*
X036973Y015888D02*
X037493Y015888D01*
X037493Y015945D02*
X036973Y015945D01*
X036973Y016002D02*
X037493Y016002D01*
X037493Y016059D02*
X036973Y016059D01*
X036973Y016116D02*
X037493Y016116D01*
X037493Y016173D02*
X036973Y016173D01*
X036973Y016230D02*
X037493Y016230D01*
X037493Y016287D02*
X036973Y016287D01*
X036973Y016344D02*
X037493Y016344D01*
X037493Y016401D02*
X036973Y016401D01*
X036973Y016458D02*
X037493Y016458D01*
X037493Y016515D02*
X036973Y016515D01*
X036973Y016572D02*
X037493Y016572D01*
X037493Y016629D02*
X036973Y016629D01*
X036973Y016686D02*
X037493Y016686D01*
X037493Y016743D02*
X036973Y016743D01*
X036973Y016800D02*
X037493Y016800D01*
X037493Y016857D02*
X036973Y016857D01*
X036973Y016914D02*
X037493Y016914D01*
X037493Y016971D02*
X036973Y016971D01*
X036973Y017028D02*
X037493Y017028D01*
X037493Y017085D02*
X036973Y017085D01*
X036973Y017142D02*
X037493Y017142D01*
X037493Y017199D02*
X036973Y017199D01*
X036973Y017256D02*
X037493Y017256D01*
X037493Y017313D02*
X036973Y017313D01*
X036973Y017370D02*
X037493Y017370D01*
X037493Y017427D02*
X036973Y017427D01*
X037973Y015432D02*
X038493Y015432D01*
X037973Y015432D02*
X037973Y017468D01*
X038493Y017468D01*
X038493Y015432D01*
X038493Y015489D02*
X037973Y015489D01*
X037973Y015546D02*
X038493Y015546D01*
X038493Y015603D02*
X037973Y015603D01*
X037973Y015660D02*
X038493Y015660D01*
X038493Y015717D02*
X037973Y015717D01*
X037973Y015774D02*
X038493Y015774D01*
X038493Y015831D02*
X037973Y015831D01*
X037973Y015888D02*
X038493Y015888D01*
X038493Y015945D02*
X037973Y015945D01*
X037973Y016002D02*
X038493Y016002D01*
X038493Y016059D02*
X037973Y016059D01*
X037973Y016116D02*
X038493Y016116D01*
X038493Y016173D02*
X037973Y016173D01*
X037973Y016230D02*
X038493Y016230D01*
X038493Y016287D02*
X037973Y016287D01*
X037973Y016344D02*
X038493Y016344D01*
X038493Y016401D02*
X037973Y016401D01*
X037973Y016458D02*
X038493Y016458D01*
X038493Y016515D02*
X037973Y016515D01*
X037973Y016572D02*
X038493Y016572D01*
X038493Y016629D02*
X037973Y016629D01*
X037973Y016686D02*
X038493Y016686D01*
X038493Y016743D02*
X037973Y016743D01*
X037973Y016800D02*
X038493Y016800D01*
X038493Y016857D02*
X037973Y016857D01*
X037973Y016914D02*
X038493Y016914D01*
X038493Y016971D02*
X037973Y016971D01*
X037973Y017028D02*
X038493Y017028D01*
X038493Y017085D02*
X037973Y017085D01*
X037973Y017142D02*
X038493Y017142D01*
X038493Y017199D02*
X037973Y017199D01*
X037973Y017256D02*
X038493Y017256D01*
X038493Y017313D02*
X037973Y017313D01*
X037973Y017370D02*
X038493Y017370D01*
X038493Y017427D02*
X037973Y017427D01*
X037973Y000482D02*
X038493Y000482D01*
X037973Y000482D02*
X037973Y002518D01*
X038493Y002518D01*
X038493Y000482D01*
X038493Y000539D02*
X037973Y000539D01*
X037973Y000596D02*
X038493Y000596D01*
X038493Y000653D02*
X037973Y000653D01*
X037973Y000710D02*
X038493Y000710D01*
X038493Y000767D02*
X037973Y000767D01*
X037973Y000824D02*
X038493Y000824D01*
X038493Y000881D02*
X037973Y000881D01*
X037973Y000938D02*
X038493Y000938D01*
X038493Y000995D02*
X037973Y000995D01*
X037973Y001052D02*
X038493Y001052D01*
X038493Y001109D02*
X037973Y001109D01*
X037973Y001166D02*
X038493Y001166D01*
X038493Y001223D02*
X037973Y001223D01*
X037973Y001280D02*
X038493Y001280D01*
X038493Y001337D02*
X037973Y001337D01*
X037973Y001394D02*
X038493Y001394D01*
X038493Y001451D02*
X037973Y001451D01*
X037973Y001508D02*
X038493Y001508D01*
X038493Y001565D02*
X037973Y001565D01*
X037973Y001622D02*
X038493Y001622D01*
X038493Y001679D02*
X037973Y001679D01*
X037973Y001736D02*
X038493Y001736D01*
X038493Y001793D02*
X037973Y001793D01*
X037973Y001850D02*
X038493Y001850D01*
X038493Y001907D02*
X037973Y001907D01*
X037973Y001964D02*
X038493Y001964D01*
X038493Y002021D02*
X037973Y002021D01*
X037973Y002078D02*
X038493Y002078D01*
X038493Y002135D02*
X037973Y002135D01*
X037973Y002192D02*
X038493Y002192D01*
X038493Y002249D02*
X037973Y002249D01*
X037973Y002306D02*
X038493Y002306D01*
X038493Y002363D02*
X037973Y002363D01*
X037973Y002420D02*
X038493Y002420D01*
X038493Y002477D02*
X037973Y002477D01*
X037493Y000482D02*
X036973Y000482D01*
X036973Y002518D01*
X037493Y002518D01*
X037493Y000482D01*
X037493Y000539D02*
X036973Y000539D01*
X036973Y000596D02*
X037493Y000596D01*
X037493Y000653D02*
X036973Y000653D01*
X036973Y000710D02*
X037493Y000710D01*
X037493Y000767D02*
X036973Y000767D01*
X036973Y000824D02*
X037493Y000824D01*
X037493Y000881D02*
X036973Y000881D01*
X036973Y000938D02*
X037493Y000938D01*
X037493Y000995D02*
X036973Y000995D01*
X036973Y001052D02*
X037493Y001052D01*
X037493Y001109D02*
X036973Y001109D01*
X036973Y001166D02*
X037493Y001166D01*
X037493Y001223D02*
X036973Y001223D01*
X036973Y001280D02*
X037493Y001280D01*
X037493Y001337D02*
X036973Y001337D01*
X036973Y001394D02*
X037493Y001394D01*
X037493Y001451D02*
X036973Y001451D01*
X036973Y001508D02*
X037493Y001508D01*
X037493Y001565D02*
X036973Y001565D01*
X036973Y001622D02*
X037493Y001622D01*
X037493Y001679D02*
X036973Y001679D01*
X036973Y001736D02*
X037493Y001736D01*
X037493Y001793D02*
X036973Y001793D01*
X036973Y001850D02*
X037493Y001850D01*
X037493Y001907D02*
X036973Y001907D01*
X036973Y001964D02*
X037493Y001964D01*
X037493Y002021D02*
X036973Y002021D01*
X036973Y002078D02*
X037493Y002078D01*
X037493Y002135D02*
X036973Y002135D01*
X036973Y002192D02*
X037493Y002192D01*
X037493Y002249D02*
X036973Y002249D01*
X036973Y002306D02*
X037493Y002306D01*
X037493Y002363D02*
X036973Y002363D01*
X036973Y002420D02*
X037493Y002420D01*
X037493Y002477D02*
X036973Y002477D01*
X036493Y000482D02*
X035973Y000482D01*
X035973Y002518D01*
X036493Y002518D01*
X036493Y000482D01*
X036493Y000539D02*
X035973Y000539D01*
X035973Y000596D02*
X036493Y000596D01*
X036493Y000653D02*
X035973Y000653D01*
X035973Y000710D02*
X036493Y000710D01*
X036493Y000767D02*
X035973Y000767D01*
X035973Y000824D02*
X036493Y000824D01*
X036493Y000881D02*
X035973Y000881D01*
X035973Y000938D02*
X036493Y000938D01*
X036493Y000995D02*
X035973Y000995D01*
X035973Y001052D02*
X036493Y001052D01*
X036493Y001109D02*
X035973Y001109D01*
X035973Y001166D02*
X036493Y001166D01*
X036493Y001223D02*
X035973Y001223D01*
X035973Y001280D02*
X036493Y001280D01*
X036493Y001337D02*
X035973Y001337D01*
X035973Y001394D02*
X036493Y001394D01*
X036493Y001451D02*
X035973Y001451D01*
X035973Y001508D02*
X036493Y001508D01*
X036493Y001565D02*
X035973Y001565D01*
X035973Y001622D02*
X036493Y001622D01*
X036493Y001679D02*
X035973Y001679D01*
X035973Y001736D02*
X036493Y001736D01*
X036493Y001793D02*
X035973Y001793D01*
X035973Y001850D02*
X036493Y001850D01*
X036493Y001907D02*
X035973Y001907D01*
X035973Y001964D02*
X036493Y001964D01*
X036493Y002021D02*
X035973Y002021D01*
X035973Y002078D02*
X036493Y002078D01*
X036493Y002135D02*
X035973Y002135D01*
X035973Y002192D02*
X036493Y002192D01*
X036493Y002249D02*
X035973Y002249D01*
X035973Y002306D02*
X036493Y002306D01*
X036493Y002363D02*
X035973Y002363D01*
X035973Y002420D02*
X036493Y002420D01*
X036493Y002477D02*
X035973Y002477D01*
X035493Y000482D02*
X034973Y000482D01*
X034973Y002518D01*
X035493Y002518D01*
X035493Y000482D01*
X035493Y000539D02*
X034973Y000539D01*
X034973Y000596D02*
X035493Y000596D01*
X035493Y000653D02*
X034973Y000653D01*
X034973Y000710D02*
X035493Y000710D01*
X035493Y000767D02*
X034973Y000767D01*
X034973Y000824D02*
X035493Y000824D01*
X035493Y000881D02*
X034973Y000881D01*
X034973Y000938D02*
X035493Y000938D01*
X035493Y000995D02*
X034973Y000995D01*
X034973Y001052D02*
X035493Y001052D01*
X035493Y001109D02*
X034973Y001109D01*
X034973Y001166D02*
X035493Y001166D01*
X035493Y001223D02*
X034973Y001223D01*
X034973Y001280D02*
X035493Y001280D01*
X035493Y001337D02*
X034973Y001337D01*
X034973Y001394D02*
X035493Y001394D01*
X035493Y001451D02*
X034973Y001451D01*
X034973Y001508D02*
X035493Y001508D01*
X035493Y001565D02*
X034973Y001565D01*
X034973Y001622D02*
X035493Y001622D01*
X035493Y001679D02*
X034973Y001679D01*
X034973Y001736D02*
X035493Y001736D01*
X035493Y001793D02*
X034973Y001793D01*
X034973Y001850D02*
X035493Y001850D01*
X035493Y001907D02*
X034973Y001907D01*
X034973Y001964D02*
X035493Y001964D01*
X035493Y002021D02*
X034973Y002021D01*
X034973Y002078D02*
X035493Y002078D01*
X035493Y002135D02*
X034973Y002135D01*
X034973Y002192D02*
X035493Y002192D01*
X035493Y002249D02*
X034973Y002249D01*
X034973Y002306D02*
X035493Y002306D01*
X035493Y002363D02*
X034973Y002363D01*
X034973Y002420D02*
X035493Y002420D01*
X035493Y002477D02*
X034973Y002477D01*
X034493Y000482D02*
X033973Y000482D01*
X033973Y002518D01*
X034493Y002518D01*
X034493Y000482D01*
X034493Y000539D02*
X033973Y000539D01*
X033973Y000596D02*
X034493Y000596D01*
X034493Y000653D02*
X033973Y000653D01*
X033973Y000710D02*
X034493Y000710D01*
X034493Y000767D02*
X033973Y000767D01*
X033973Y000824D02*
X034493Y000824D01*
X034493Y000881D02*
X033973Y000881D01*
X033973Y000938D02*
X034493Y000938D01*
X034493Y000995D02*
X033973Y000995D01*
X033973Y001052D02*
X034493Y001052D01*
X034493Y001109D02*
X033973Y001109D01*
X033973Y001166D02*
X034493Y001166D01*
X034493Y001223D02*
X033973Y001223D01*
X033973Y001280D02*
X034493Y001280D01*
X034493Y001337D02*
X033973Y001337D01*
X033973Y001394D02*
X034493Y001394D01*
X034493Y001451D02*
X033973Y001451D01*
X033973Y001508D02*
X034493Y001508D01*
X034493Y001565D02*
X033973Y001565D01*
X033973Y001622D02*
X034493Y001622D01*
X034493Y001679D02*
X033973Y001679D01*
X033973Y001736D02*
X034493Y001736D01*
X034493Y001793D02*
X033973Y001793D01*
X033973Y001850D02*
X034493Y001850D01*
X034493Y001907D02*
X033973Y001907D01*
X033973Y001964D02*
X034493Y001964D01*
X034493Y002021D02*
X033973Y002021D01*
X033973Y002078D02*
X034493Y002078D01*
X034493Y002135D02*
X033973Y002135D01*
X033973Y002192D02*
X034493Y002192D01*
X034493Y002249D02*
X033973Y002249D01*
X033973Y002306D02*
X034493Y002306D01*
X034493Y002363D02*
X033973Y002363D01*
X033973Y002420D02*
X034493Y002420D01*
X034493Y002477D02*
X033973Y002477D01*
X033493Y000482D02*
X032973Y000482D01*
X032973Y002518D01*
X033493Y002518D01*
X033493Y000482D01*
X033493Y000539D02*
X032973Y000539D01*
X032973Y000596D02*
X033493Y000596D01*
X033493Y000653D02*
X032973Y000653D01*
X032973Y000710D02*
X033493Y000710D01*
X033493Y000767D02*
X032973Y000767D01*
X032973Y000824D02*
X033493Y000824D01*
X033493Y000881D02*
X032973Y000881D01*
X032973Y000938D02*
X033493Y000938D01*
X033493Y000995D02*
X032973Y000995D01*
X032973Y001052D02*
X033493Y001052D01*
X033493Y001109D02*
X032973Y001109D01*
X032973Y001166D02*
X033493Y001166D01*
X033493Y001223D02*
X032973Y001223D01*
X032973Y001280D02*
X033493Y001280D01*
X033493Y001337D02*
X032973Y001337D01*
X032973Y001394D02*
X033493Y001394D01*
X033493Y001451D02*
X032973Y001451D01*
X032973Y001508D02*
X033493Y001508D01*
X033493Y001565D02*
X032973Y001565D01*
X032973Y001622D02*
X033493Y001622D01*
X033493Y001679D02*
X032973Y001679D01*
X032973Y001736D02*
X033493Y001736D01*
X033493Y001793D02*
X032973Y001793D01*
X032973Y001850D02*
X033493Y001850D01*
X033493Y001907D02*
X032973Y001907D01*
X032973Y001964D02*
X033493Y001964D01*
X033493Y002021D02*
X032973Y002021D01*
X032973Y002078D02*
X033493Y002078D01*
X033493Y002135D02*
X032973Y002135D01*
X032973Y002192D02*
X033493Y002192D01*
X033493Y002249D02*
X032973Y002249D01*
X032973Y002306D02*
X033493Y002306D01*
X033493Y002363D02*
X032973Y002363D01*
X032973Y002420D02*
X033493Y002420D01*
X033493Y002477D02*
X032973Y002477D01*
X032493Y000482D02*
X031973Y000482D01*
X031973Y002518D01*
X032493Y002518D01*
X032493Y000482D01*
X032493Y000539D02*
X031973Y000539D01*
X031973Y000596D02*
X032493Y000596D01*
X032493Y000653D02*
X031973Y000653D01*
X031973Y000710D02*
X032493Y000710D01*
X032493Y000767D02*
X031973Y000767D01*
X031973Y000824D02*
X032493Y000824D01*
X032493Y000881D02*
X031973Y000881D01*
X031973Y000938D02*
X032493Y000938D01*
X032493Y000995D02*
X031973Y000995D01*
X031973Y001052D02*
X032493Y001052D01*
X032493Y001109D02*
X031973Y001109D01*
X031973Y001166D02*
X032493Y001166D01*
X032493Y001223D02*
X031973Y001223D01*
X031973Y001280D02*
X032493Y001280D01*
X032493Y001337D02*
X031973Y001337D01*
X031973Y001394D02*
X032493Y001394D01*
X032493Y001451D02*
X031973Y001451D01*
X031973Y001508D02*
X032493Y001508D01*
X032493Y001565D02*
X031973Y001565D01*
X031973Y001622D02*
X032493Y001622D01*
X032493Y001679D02*
X031973Y001679D01*
X031973Y001736D02*
X032493Y001736D01*
X032493Y001793D02*
X031973Y001793D01*
X031973Y001850D02*
X032493Y001850D01*
X032493Y001907D02*
X031973Y001907D01*
X031973Y001964D02*
X032493Y001964D01*
X032493Y002021D02*
X031973Y002021D01*
X031973Y002078D02*
X032493Y002078D01*
X032493Y002135D02*
X031973Y002135D01*
X031973Y002192D02*
X032493Y002192D01*
X032493Y002249D02*
X031973Y002249D01*
X031973Y002306D02*
X032493Y002306D01*
X032493Y002363D02*
X031973Y002363D01*
X031973Y002420D02*
X032493Y002420D01*
X032493Y002477D02*
X031973Y002477D01*
X031493Y000482D02*
X030973Y000482D01*
X030973Y002518D01*
X031493Y002518D01*
X031493Y000482D01*
X031493Y000539D02*
X030973Y000539D01*
X030973Y000596D02*
X031493Y000596D01*
X031493Y000653D02*
X030973Y000653D01*
X030973Y000710D02*
X031493Y000710D01*
X031493Y000767D02*
X030973Y000767D01*
X030973Y000824D02*
X031493Y000824D01*
X031493Y000881D02*
X030973Y000881D01*
X030973Y000938D02*
X031493Y000938D01*
X031493Y000995D02*
X030973Y000995D01*
X030973Y001052D02*
X031493Y001052D01*
X031493Y001109D02*
X030973Y001109D01*
X030973Y001166D02*
X031493Y001166D01*
X031493Y001223D02*
X030973Y001223D01*
X030973Y001280D02*
X031493Y001280D01*
X031493Y001337D02*
X030973Y001337D01*
X030973Y001394D02*
X031493Y001394D01*
X031493Y001451D02*
X030973Y001451D01*
X030973Y001508D02*
X031493Y001508D01*
X031493Y001565D02*
X030973Y001565D01*
X030973Y001622D02*
X031493Y001622D01*
X031493Y001679D02*
X030973Y001679D01*
X030973Y001736D02*
X031493Y001736D01*
X031493Y001793D02*
X030973Y001793D01*
X030973Y001850D02*
X031493Y001850D01*
X031493Y001907D02*
X030973Y001907D01*
X030973Y001964D02*
X031493Y001964D01*
X031493Y002021D02*
X030973Y002021D01*
X030973Y002078D02*
X031493Y002078D01*
X031493Y002135D02*
X030973Y002135D01*
X030973Y002192D02*
X031493Y002192D01*
X031493Y002249D02*
X030973Y002249D01*
X030973Y002306D02*
X031493Y002306D01*
X031493Y002363D02*
X030973Y002363D01*
X030973Y002420D02*
X031493Y002420D01*
X031493Y002477D02*
X030973Y002477D01*
X030493Y000482D02*
X029973Y000482D01*
X029973Y002518D01*
X030493Y002518D01*
X030493Y000482D01*
X030493Y000539D02*
X029973Y000539D01*
X029973Y000596D02*
X030493Y000596D01*
X030493Y000653D02*
X029973Y000653D01*
X029973Y000710D02*
X030493Y000710D01*
X030493Y000767D02*
X029973Y000767D01*
X029973Y000824D02*
X030493Y000824D01*
X030493Y000881D02*
X029973Y000881D01*
X029973Y000938D02*
X030493Y000938D01*
X030493Y000995D02*
X029973Y000995D01*
X029973Y001052D02*
X030493Y001052D01*
X030493Y001109D02*
X029973Y001109D01*
X029973Y001166D02*
X030493Y001166D01*
X030493Y001223D02*
X029973Y001223D01*
X029973Y001280D02*
X030493Y001280D01*
X030493Y001337D02*
X029973Y001337D01*
X029973Y001394D02*
X030493Y001394D01*
X030493Y001451D02*
X029973Y001451D01*
X029973Y001508D02*
X030493Y001508D01*
X030493Y001565D02*
X029973Y001565D01*
X029973Y001622D02*
X030493Y001622D01*
X030493Y001679D02*
X029973Y001679D01*
X029973Y001736D02*
X030493Y001736D01*
X030493Y001793D02*
X029973Y001793D01*
X029973Y001850D02*
X030493Y001850D01*
X030493Y001907D02*
X029973Y001907D01*
X029973Y001964D02*
X030493Y001964D01*
X030493Y002021D02*
X029973Y002021D01*
X029973Y002078D02*
X030493Y002078D01*
X030493Y002135D02*
X029973Y002135D01*
X029973Y002192D02*
X030493Y002192D01*
X030493Y002249D02*
X029973Y002249D01*
X029973Y002306D02*
X030493Y002306D01*
X030493Y002363D02*
X029973Y002363D01*
X029973Y002420D02*
X030493Y002420D01*
X030493Y002477D02*
X029973Y002477D01*
X029493Y000482D02*
X028973Y000482D01*
X028973Y002518D01*
X029493Y002518D01*
X029493Y000482D01*
X029493Y000539D02*
X028973Y000539D01*
X028973Y000596D02*
X029493Y000596D01*
X029493Y000653D02*
X028973Y000653D01*
X028973Y000710D02*
X029493Y000710D01*
X029493Y000767D02*
X028973Y000767D01*
X028973Y000824D02*
X029493Y000824D01*
X029493Y000881D02*
X028973Y000881D01*
X028973Y000938D02*
X029493Y000938D01*
X029493Y000995D02*
X028973Y000995D01*
X028973Y001052D02*
X029493Y001052D01*
X029493Y001109D02*
X028973Y001109D01*
X028973Y001166D02*
X029493Y001166D01*
X029493Y001223D02*
X028973Y001223D01*
X028973Y001280D02*
X029493Y001280D01*
X029493Y001337D02*
X028973Y001337D01*
X028973Y001394D02*
X029493Y001394D01*
X029493Y001451D02*
X028973Y001451D01*
X028973Y001508D02*
X029493Y001508D01*
X029493Y001565D02*
X028973Y001565D01*
X028973Y001622D02*
X029493Y001622D01*
X029493Y001679D02*
X028973Y001679D01*
X028973Y001736D02*
X029493Y001736D01*
X029493Y001793D02*
X028973Y001793D01*
X028973Y001850D02*
X029493Y001850D01*
X029493Y001907D02*
X028973Y001907D01*
X028973Y001964D02*
X029493Y001964D01*
X029493Y002021D02*
X028973Y002021D01*
X028973Y002078D02*
X029493Y002078D01*
X029493Y002135D02*
X028973Y002135D01*
X028973Y002192D02*
X029493Y002192D01*
X029493Y002249D02*
X028973Y002249D01*
X028973Y002306D02*
X029493Y002306D01*
X029493Y002363D02*
X028973Y002363D01*
X028973Y002420D02*
X029493Y002420D01*
X029493Y002477D02*
X028973Y002477D01*
X028493Y000482D02*
X027973Y000482D01*
X027973Y002518D01*
X028493Y002518D01*
X028493Y000482D01*
X028493Y000539D02*
X027973Y000539D01*
X027973Y000596D02*
X028493Y000596D01*
X028493Y000653D02*
X027973Y000653D01*
X027973Y000710D02*
X028493Y000710D01*
X028493Y000767D02*
X027973Y000767D01*
X027973Y000824D02*
X028493Y000824D01*
X028493Y000881D02*
X027973Y000881D01*
X027973Y000938D02*
X028493Y000938D01*
X028493Y000995D02*
X027973Y000995D01*
X027973Y001052D02*
X028493Y001052D01*
X028493Y001109D02*
X027973Y001109D01*
X027973Y001166D02*
X028493Y001166D01*
X028493Y001223D02*
X027973Y001223D01*
X027973Y001280D02*
X028493Y001280D01*
X028493Y001337D02*
X027973Y001337D01*
X027973Y001394D02*
X028493Y001394D01*
X028493Y001451D02*
X027973Y001451D01*
X027973Y001508D02*
X028493Y001508D01*
X028493Y001565D02*
X027973Y001565D01*
X027973Y001622D02*
X028493Y001622D01*
X028493Y001679D02*
X027973Y001679D01*
X027973Y001736D02*
X028493Y001736D01*
X028493Y001793D02*
X027973Y001793D01*
X027973Y001850D02*
X028493Y001850D01*
X028493Y001907D02*
X027973Y001907D01*
X027973Y001964D02*
X028493Y001964D01*
X028493Y002021D02*
X027973Y002021D01*
X027973Y002078D02*
X028493Y002078D01*
X028493Y002135D02*
X027973Y002135D01*
X027973Y002192D02*
X028493Y002192D01*
X028493Y002249D02*
X027973Y002249D01*
X027973Y002306D02*
X028493Y002306D01*
X028493Y002363D02*
X027973Y002363D01*
X027973Y002420D02*
X028493Y002420D01*
X028493Y002477D02*
X027973Y002477D01*
X027493Y000482D02*
X026973Y000482D01*
X026973Y002518D01*
X027493Y002518D01*
X027493Y000482D01*
X027493Y000539D02*
X026973Y000539D01*
X026973Y000596D02*
X027493Y000596D01*
X027493Y000653D02*
X026973Y000653D01*
X026973Y000710D02*
X027493Y000710D01*
X027493Y000767D02*
X026973Y000767D01*
X026973Y000824D02*
X027493Y000824D01*
X027493Y000881D02*
X026973Y000881D01*
X026973Y000938D02*
X027493Y000938D01*
X027493Y000995D02*
X026973Y000995D01*
X026973Y001052D02*
X027493Y001052D01*
X027493Y001109D02*
X026973Y001109D01*
X026973Y001166D02*
X027493Y001166D01*
X027493Y001223D02*
X026973Y001223D01*
X026973Y001280D02*
X027493Y001280D01*
X027493Y001337D02*
X026973Y001337D01*
X026973Y001394D02*
X027493Y001394D01*
X027493Y001451D02*
X026973Y001451D01*
X026973Y001508D02*
X027493Y001508D01*
X027493Y001565D02*
X026973Y001565D01*
X026973Y001622D02*
X027493Y001622D01*
X027493Y001679D02*
X026973Y001679D01*
X026973Y001736D02*
X027493Y001736D01*
X027493Y001793D02*
X026973Y001793D01*
X026973Y001850D02*
X027493Y001850D01*
X027493Y001907D02*
X026973Y001907D01*
X026973Y001964D02*
X027493Y001964D01*
X027493Y002021D02*
X026973Y002021D01*
X026973Y002078D02*
X027493Y002078D01*
X027493Y002135D02*
X026973Y002135D01*
X026973Y002192D02*
X027493Y002192D01*
X027493Y002249D02*
X026973Y002249D01*
X026973Y002306D02*
X027493Y002306D01*
X027493Y002363D02*
X026973Y002363D01*
X026973Y002420D02*
X027493Y002420D01*
X027493Y002477D02*
X026973Y002477D01*
X026493Y000482D02*
X025973Y000482D01*
X025973Y002518D01*
X026493Y002518D01*
X026493Y000482D01*
X026493Y000539D02*
X025973Y000539D01*
X025973Y000596D02*
X026493Y000596D01*
X026493Y000653D02*
X025973Y000653D01*
X025973Y000710D02*
X026493Y000710D01*
X026493Y000767D02*
X025973Y000767D01*
X025973Y000824D02*
X026493Y000824D01*
X026493Y000881D02*
X025973Y000881D01*
X025973Y000938D02*
X026493Y000938D01*
X026493Y000995D02*
X025973Y000995D01*
X025973Y001052D02*
X026493Y001052D01*
X026493Y001109D02*
X025973Y001109D01*
X025973Y001166D02*
X026493Y001166D01*
X026493Y001223D02*
X025973Y001223D01*
X025973Y001280D02*
X026493Y001280D01*
X026493Y001337D02*
X025973Y001337D01*
X025973Y001394D02*
X026493Y001394D01*
X026493Y001451D02*
X025973Y001451D01*
X025973Y001508D02*
X026493Y001508D01*
X026493Y001565D02*
X025973Y001565D01*
X025973Y001622D02*
X026493Y001622D01*
X026493Y001679D02*
X025973Y001679D01*
X025973Y001736D02*
X026493Y001736D01*
X026493Y001793D02*
X025973Y001793D01*
X025973Y001850D02*
X026493Y001850D01*
X026493Y001907D02*
X025973Y001907D01*
X025973Y001964D02*
X026493Y001964D01*
X026493Y002021D02*
X025973Y002021D01*
X025973Y002078D02*
X026493Y002078D01*
X026493Y002135D02*
X025973Y002135D01*
X025973Y002192D02*
X026493Y002192D01*
X026493Y002249D02*
X025973Y002249D01*
X025973Y002306D02*
X026493Y002306D01*
X026493Y002363D02*
X025973Y002363D01*
X025973Y002420D02*
X026493Y002420D01*
X026493Y002477D02*
X025973Y002477D01*
X025493Y000482D02*
X024973Y000482D01*
X024973Y002518D01*
X025493Y002518D01*
X025493Y000482D01*
X025493Y000539D02*
X024973Y000539D01*
X024973Y000596D02*
X025493Y000596D01*
X025493Y000653D02*
X024973Y000653D01*
X024973Y000710D02*
X025493Y000710D01*
X025493Y000767D02*
X024973Y000767D01*
X024973Y000824D02*
X025493Y000824D01*
X025493Y000881D02*
X024973Y000881D01*
X024973Y000938D02*
X025493Y000938D01*
X025493Y000995D02*
X024973Y000995D01*
X024973Y001052D02*
X025493Y001052D01*
X025493Y001109D02*
X024973Y001109D01*
X024973Y001166D02*
X025493Y001166D01*
X025493Y001223D02*
X024973Y001223D01*
X024973Y001280D02*
X025493Y001280D01*
X025493Y001337D02*
X024973Y001337D01*
X024973Y001394D02*
X025493Y001394D01*
X025493Y001451D02*
X024973Y001451D01*
X024973Y001508D02*
X025493Y001508D01*
X025493Y001565D02*
X024973Y001565D01*
X024973Y001622D02*
X025493Y001622D01*
X025493Y001679D02*
X024973Y001679D01*
X024973Y001736D02*
X025493Y001736D01*
X025493Y001793D02*
X024973Y001793D01*
X024973Y001850D02*
X025493Y001850D01*
X025493Y001907D02*
X024973Y001907D01*
X024973Y001964D02*
X025493Y001964D01*
X025493Y002021D02*
X024973Y002021D01*
X024973Y002078D02*
X025493Y002078D01*
X025493Y002135D02*
X024973Y002135D01*
X024973Y002192D02*
X025493Y002192D01*
X025493Y002249D02*
X024973Y002249D01*
X024973Y002306D02*
X025493Y002306D01*
X025493Y002363D02*
X024973Y002363D01*
X024973Y002420D02*
X025493Y002420D01*
X025493Y002477D02*
X024973Y002477D01*
X024493Y000482D02*
X023973Y000482D01*
X023973Y002518D01*
X024493Y002518D01*
X024493Y000482D01*
X024493Y000539D02*
X023973Y000539D01*
X023973Y000596D02*
X024493Y000596D01*
X024493Y000653D02*
X023973Y000653D01*
X023973Y000710D02*
X024493Y000710D01*
X024493Y000767D02*
X023973Y000767D01*
X023973Y000824D02*
X024493Y000824D01*
X024493Y000881D02*
X023973Y000881D01*
X023973Y000938D02*
X024493Y000938D01*
X024493Y000995D02*
X023973Y000995D01*
X023973Y001052D02*
X024493Y001052D01*
X024493Y001109D02*
X023973Y001109D01*
X023973Y001166D02*
X024493Y001166D01*
X024493Y001223D02*
X023973Y001223D01*
X023973Y001280D02*
X024493Y001280D01*
X024493Y001337D02*
X023973Y001337D01*
X023973Y001394D02*
X024493Y001394D01*
X024493Y001451D02*
X023973Y001451D01*
X023973Y001508D02*
X024493Y001508D01*
X024493Y001565D02*
X023973Y001565D01*
X023973Y001622D02*
X024493Y001622D01*
X024493Y001679D02*
X023973Y001679D01*
X023973Y001736D02*
X024493Y001736D01*
X024493Y001793D02*
X023973Y001793D01*
X023973Y001850D02*
X024493Y001850D01*
X024493Y001907D02*
X023973Y001907D01*
X023973Y001964D02*
X024493Y001964D01*
X024493Y002021D02*
X023973Y002021D01*
X023973Y002078D02*
X024493Y002078D01*
X024493Y002135D02*
X023973Y002135D01*
X023973Y002192D02*
X024493Y002192D01*
X024493Y002249D02*
X023973Y002249D01*
X023973Y002306D02*
X024493Y002306D01*
X024493Y002363D02*
X023973Y002363D01*
X023973Y002420D02*
X024493Y002420D01*
X024493Y002477D02*
X023973Y002477D01*
X023493Y000482D02*
X022973Y000482D01*
X022973Y002518D01*
X023493Y002518D01*
X023493Y000482D01*
X023493Y000539D02*
X022973Y000539D01*
X022973Y000596D02*
X023493Y000596D01*
X023493Y000653D02*
X022973Y000653D01*
X022973Y000710D02*
X023493Y000710D01*
X023493Y000767D02*
X022973Y000767D01*
X022973Y000824D02*
X023493Y000824D01*
X023493Y000881D02*
X022973Y000881D01*
X022973Y000938D02*
X023493Y000938D01*
X023493Y000995D02*
X022973Y000995D01*
X022973Y001052D02*
X023493Y001052D01*
X023493Y001109D02*
X022973Y001109D01*
X022973Y001166D02*
X023493Y001166D01*
X023493Y001223D02*
X022973Y001223D01*
X022973Y001280D02*
X023493Y001280D01*
X023493Y001337D02*
X022973Y001337D01*
X022973Y001394D02*
X023493Y001394D01*
X023493Y001451D02*
X022973Y001451D01*
X022973Y001508D02*
X023493Y001508D01*
X023493Y001565D02*
X022973Y001565D01*
X022973Y001622D02*
X023493Y001622D01*
X023493Y001679D02*
X022973Y001679D01*
X022973Y001736D02*
X023493Y001736D01*
X023493Y001793D02*
X022973Y001793D01*
X022973Y001850D02*
X023493Y001850D01*
X023493Y001907D02*
X022973Y001907D01*
X022973Y001964D02*
X023493Y001964D01*
X023493Y002021D02*
X022973Y002021D01*
X022973Y002078D02*
X023493Y002078D01*
X023493Y002135D02*
X022973Y002135D01*
X022973Y002192D02*
X023493Y002192D01*
X023493Y002249D02*
X022973Y002249D01*
X022973Y002306D02*
X023493Y002306D01*
X023493Y002363D02*
X022973Y002363D01*
X022973Y002420D02*
X023493Y002420D01*
X023493Y002477D02*
X022973Y002477D01*
X022493Y000482D02*
X021973Y000482D01*
X021973Y002518D01*
X022493Y002518D01*
X022493Y000482D01*
X022493Y000539D02*
X021973Y000539D01*
X021973Y000596D02*
X022493Y000596D01*
X022493Y000653D02*
X021973Y000653D01*
X021973Y000710D02*
X022493Y000710D01*
X022493Y000767D02*
X021973Y000767D01*
X021973Y000824D02*
X022493Y000824D01*
X022493Y000881D02*
X021973Y000881D01*
X021973Y000938D02*
X022493Y000938D01*
X022493Y000995D02*
X021973Y000995D01*
X021973Y001052D02*
X022493Y001052D01*
X022493Y001109D02*
X021973Y001109D01*
X021973Y001166D02*
X022493Y001166D01*
X022493Y001223D02*
X021973Y001223D01*
X021973Y001280D02*
X022493Y001280D01*
X022493Y001337D02*
X021973Y001337D01*
X021973Y001394D02*
X022493Y001394D01*
X022493Y001451D02*
X021973Y001451D01*
X021973Y001508D02*
X022493Y001508D01*
X022493Y001565D02*
X021973Y001565D01*
X021973Y001622D02*
X022493Y001622D01*
X022493Y001679D02*
X021973Y001679D01*
X021973Y001736D02*
X022493Y001736D01*
X022493Y001793D02*
X021973Y001793D01*
X021973Y001850D02*
X022493Y001850D01*
X022493Y001907D02*
X021973Y001907D01*
X021973Y001964D02*
X022493Y001964D01*
X022493Y002021D02*
X021973Y002021D01*
X021973Y002078D02*
X022493Y002078D01*
X022493Y002135D02*
X021973Y002135D01*
X021973Y002192D02*
X022493Y002192D01*
X022493Y002249D02*
X021973Y002249D01*
X021973Y002306D02*
X022493Y002306D01*
X022493Y002363D02*
X021973Y002363D01*
X021973Y002420D02*
X022493Y002420D01*
X022493Y002477D02*
X021973Y002477D01*
X021493Y000482D02*
X020973Y000482D01*
X020973Y002518D01*
X021493Y002518D01*
X021493Y000482D01*
X021493Y000539D02*
X020973Y000539D01*
X020973Y000596D02*
X021493Y000596D01*
X021493Y000653D02*
X020973Y000653D01*
X020973Y000710D02*
X021493Y000710D01*
X021493Y000767D02*
X020973Y000767D01*
X020973Y000824D02*
X021493Y000824D01*
X021493Y000881D02*
X020973Y000881D01*
X020973Y000938D02*
X021493Y000938D01*
X021493Y000995D02*
X020973Y000995D01*
X020973Y001052D02*
X021493Y001052D01*
X021493Y001109D02*
X020973Y001109D01*
X020973Y001166D02*
X021493Y001166D01*
X021493Y001223D02*
X020973Y001223D01*
X020973Y001280D02*
X021493Y001280D01*
X021493Y001337D02*
X020973Y001337D01*
X020973Y001394D02*
X021493Y001394D01*
X021493Y001451D02*
X020973Y001451D01*
X020973Y001508D02*
X021493Y001508D01*
X021493Y001565D02*
X020973Y001565D01*
X020973Y001622D02*
X021493Y001622D01*
X021493Y001679D02*
X020973Y001679D01*
X020973Y001736D02*
X021493Y001736D01*
X021493Y001793D02*
X020973Y001793D01*
X020973Y001850D02*
X021493Y001850D01*
X021493Y001907D02*
X020973Y001907D01*
X020973Y001964D02*
X021493Y001964D01*
X021493Y002021D02*
X020973Y002021D01*
X020973Y002078D02*
X021493Y002078D01*
X021493Y002135D02*
X020973Y002135D01*
X020973Y002192D02*
X021493Y002192D01*
X021493Y002249D02*
X020973Y002249D01*
X020973Y002306D02*
X021493Y002306D01*
X021493Y002363D02*
X020973Y002363D01*
X020973Y002420D02*
X021493Y002420D01*
X021493Y002477D02*
X020973Y002477D01*
X020493Y000482D02*
X019973Y000482D01*
X019973Y002518D01*
X020493Y002518D01*
X020493Y000482D01*
X020493Y000539D02*
X019973Y000539D01*
X019973Y000596D02*
X020493Y000596D01*
X020493Y000653D02*
X019973Y000653D01*
X019973Y000710D02*
X020493Y000710D01*
X020493Y000767D02*
X019973Y000767D01*
X019973Y000824D02*
X020493Y000824D01*
X020493Y000881D02*
X019973Y000881D01*
X019973Y000938D02*
X020493Y000938D01*
X020493Y000995D02*
X019973Y000995D01*
X019973Y001052D02*
X020493Y001052D01*
X020493Y001109D02*
X019973Y001109D01*
X019973Y001166D02*
X020493Y001166D01*
X020493Y001223D02*
X019973Y001223D01*
X019973Y001280D02*
X020493Y001280D01*
X020493Y001337D02*
X019973Y001337D01*
X019973Y001394D02*
X020493Y001394D01*
X020493Y001451D02*
X019973Y001451D01*
X019973Y001508D02*
X020493Y001508D01*
X020493Y001565D02*
X019973Y001565D01*
X019973Y001622D02*
X020493Y001622D01*
X020493Y001679D02*
X019973Y001679D01*
X019973Y001736D02*
X020493Y001736D01*
X020493Y001793D02*
X019973Y001793D01*
X019973Y001850D02*
X020493Y001850D01*
X020493Y001907D02*
X019973Y001907D01*
X019973Y001964D02*
X020493Y001964D01*
X020493Y002021D02*
X019973Y002021D01*
X019973Y002078D02*
X020493Y002078D01*
X020493Y002135D02*
X019973Y002135D01*
X019973Y002192D02*
X020493Y002192D01*
X020493Y002249D02*
X019973Y002249D01*
X019973Y002306D02*
X020493Y002306D01*
X020493Y002363D02*
X019973Y002363D01*
X019973Y002420D02*
X020493Y002420D01*
X020493Y002477D02*
X019973Y002477D01*
X019493Y000482D02*
X018973Y000482D01*
X018973Y002518D01*
X019493Y002518D01*
X019493Y000482D01*
X019493Y000539D02*
X018973Y000539D01*
X018973Y000596D02*
X019493Y000596D01*
X019493Y000653D02*
X018973Y000653D01*
X018973Y000710D02*
X019493Y000710D01*
X019493Y000767D02*
X018973Y000767D01*
X018973Y000824D02*
X019493Y000824D01*
X019493Y000881D02*
X018973Y000881D01*
X018973Y000938D02*
X019493Y000938D01*
X019493Y000995D02*
X018973Y000995D01*
X018973Y001052D02*
X019493Y001052D01*
X019493Y001109D02*
X018973Y001109D01*
X018973Y001166D02*
X019493Y001166D01*
X019493Y001223D02*
X018973Y001223D01*
X018973Y001280D02*
X019493Y001280D01*
X019493Y001337D02*
X018973Y001337D01*
X018973Y001394D02*
X019493Y001394D01*
X019493Y001451D02*
X018973Y001451D01*
X018973Y001508D02*
X019493Y001508D01*
X019493Y001565D02*
X018973Y001565D01*
X018973Y001622D02*
X019493Y001622D01*
X019493Y001679D02*
X018973Y001679D01*
X018973Y001736D02*
X019493Y001736D01*
X019493Y001793D02*
X018973Y001793D01*
X018973Y001850D02*
X019493Y001850D01*
X019493Y001907D02*
X018973Y001907D01*
X018973Y001964D02*
X019493Y001964D01*
X019493Y002021D02*
X018973Y002021D01*
X018973Y002078D02*
X019493Y002078D01*
X019493Y002135D02*
X018973Y002135D01*
X018973Y002192D02*
X019493Y002192D01*
X019493Y002249D02*
X018973Y002249D01*
X018973Y002306D02*
X019493Y002306D01*
X019493Y002363D02*
X018973Y002363D01*
X018973Y002420D02*
X019493Y002420D01*
X019493Y002477D02*
X018973Y002477D01*
X018493Y000482D02*
X017973Y000482D01*
X017973Y002518D01*
X018493Y002518D01*
X018493Y000482D01*
X018493Y000539D02*
X017973Y000539D01*
X017973Y000596D02*
X018493Y000596D01*
X018493Y000653D02*
X017973Y000653D01*
X017973Y000710D02*
X018493Y000710D01*
X018493Y000767D02*
X017973Y000767D01*
X017973Y000824D02*
X018493Y000824D01*
X018493Y000881D02*
X017973Y000881D01*
X017973Y000938D02*
X018493Y000938D01*
X018493Y000995D02*
X017973Y000995D01*
X017973Y001052D02*
X018493Y001052D01*
X018493Y001109D02*
X017973Y001109D01*
X017973Y001166D02*
X018493Y001166D01*
X018493Y001223D02*
X017973Y001223D01*
X017973Y001280D02*
X018493Y001280D01*
X018493Y001337D02*
X017973Y001337D01*
X017973Y001394D02*
X018493Y001394D01*
X018493Y001451D02*
X017973Y001451D01*
X017973Y001508D02*
X018493Y001508D01*
X018493Y001565D02*
X017973Y001565D01*
X017973Y001622D02*
X018493Y001622D01*
X018493Y001679D02*
X017973Y001679D01*
X017973Y001736D02*
X018493Y001736D01*
X018493Y001793D02*
X017973Y001793D01*
X017973Y001850D02*
X018493Y001850D01*
X018493Y001907D02*
X017973Y001907D01*
X017973Y001964D02*
X018493Y001964D01*
X018493Y002021D02*
X017973Y002021D01*
X017973Y002078D02*
X018493Y002078D01*
X018493Y002135D02*
X017973Y002135D01*
X017973Y002192D02*
X018493Y002192D01*
X018493Y002249D02*
X017973Y002249D01*
X017973Y002306D02*
X018493Y002306D01*
X018493Y002363D02*
X017973Y002363D01*
X017973Y002420D02*
X018493Y002420D01*
X018493Y002477D02*
X017973Y002477D01*
X017493Y000482D02*
X016973Y000482D01*
X016973Y002518D01*
X017493Y002518D01*
X017493Y000482D01*
X017493Y000539D02*
X016973Y000539D01*
X016973Y000596D02*
X017493Y000596D01*
X017493Y000653D02*
X016973Y000653D01*
X016973Y000710D02*
X017493Y000710D01*
X017493Y000767D02*
X016973Y000767D01*
X016973Y000824D02*
X017493Y000824D01*
X017493Y000881D02*
X016973Y000881D01*
X016973Y000938D02*
X017493Y000938D01*
X017493Y000995D02*
X016973Y000995D01*
X016973Y001052D02*
X017493Y001052D01*
X017493Y001109D02*
X016973Y001109D01*
X016973Y001166D02*
X017493Y001166D01*
X017493Y001223D02*
X016973Y001223D01*
X016973Y001280D02*
X017493Y001280D01*
X017493Y001337D02*
X016973Y001337D01*
X016973Y001394D02*
X017493Y001394D01*
X017493Y001451D02*
X016973Y001451D01*
X016973Y001508D02*
X017493Y001508D01*
X017493Y001565D02*
X016973Y001565D01*
X016973Y001622D02*
X017493Y001622D01*
X017493Y001679D02*
X016973Y001679D01*
X016973Y001736D02*
X017493Y001736D01*
X017493Y001793D02*
X016973Y001793D01*
X016973Y001850D02*
X017493Y001850D01*
X017493Y001907D02*
X016973Y001907D01*
X016973Y001964D02*
X017493Y001964D01*
X017493Y002021D02*
X016973Y002021D01*
X016973Y002078D02*
X017493Y002078D01*
X017493Y002135D02*
X016973Y002135D01*
X016973Y002192D02*
X017493Y002192D01*
X017493Y002249D02*
X016973Y002249D01*
X016973Y002306D02*
X017493Y002306D01*
X017493Y002363D02*
X016973Y002363D01*
X016973Y002420D02*
X017493Y002420D01*
X017493Y002477D02*
X016973Y002477D01*
X016493Y000482D02*
X015973Y000482D01*
X015973Y002518D01*
X016493Y002518D01*
X016493Y000482D01*
X016493Y000539D02*
X015973Y000539D01*
X015973Y000596D02*
X016493Y000596D01*
X016493Y000653D02*
X015973Y000653D01*
X015973Y000710D02*
X016493Y000710D01*
X016493Y000767D02*
X015973Y000767D01*
X015973Y000824D02*
X016493Y000824D01*
X016493Y000881D02*
X015973Y000881D01*
X015973Y000938D02*
X016493Y000938D01*
X016493Y000995D02*
X015973Y000995D01*
X015973Y001052D02*
X016493Y001052D01*
X016493Y001109D02*
X015973Y001109D01*
X015973Y001166D02*
X016493Y001166D01*
X016493Y001223D02*
X015973Y001223D01*
X015973Y001280D02*
X016493Y001280D01*
X016493Y001337D02*
X015973Y001337D01*
X015973Y001394D02*
X016493Y001394D01*
X016493Y001451D02*
X015973Y001451D01*
X015973Y001508D02*
X016493Y001508D01*
X016493Y001565D02*
X015973Y001565D01*
X015973Y001622D02*
X016493Y001622D01*
X016493Y001679D02*
X015973Y001679D01*
X015973Y001736D02*
X016493Y001736D01*
X016493Y001793D02*
X015973Y001793D01*
X015973Y001850D02*
X016493Y001850D01*
X016493Y001907D02*
X015973Y001907D01*
X015973Y001964D02*
X016493Y001964D01*
X016493Y002021D02*
X015973Y002021D01*
X015973Y002078D02*
X016493Y002078D01*
X016493Y002135D02*
X015973Y002135D01*
X015973Y002192D02*
X016493Y002192D01*
X016493Y002249D02*
X015973Y002249D01*
X015973Y002306D02*
X016493Y002306D01*
X016493Y002363D02*
X015973Y002363D01*
X015973Y002420D02*
X016493Y002420D01*
X016493Y002477D02*
X015973Y002477D01*
D14*
X020733Y004900D03*
X020733Y005500D03*
D15*
X020733Y005200D03*
D16*
X020733Y004000D03*
X021733Y004000D03*
X022733Y004000D03*
X023733Y004000D03*
X024733Y004000D03*
X025733Y004000D03*
X026733Y004000D03*
X027733Y004000D03*
X028733Y004000D03*
X029733Y004000D03*
X029733Y013050D03*
X028733Y013050D03*
X027733Y013050D03*
X026733Y013050D03*
X025733Y013050D03*
X024733Y013050D03*
X023733Y013050D03*
X022733Y013050D03*
X021733Y013050D03*
X020733Y013050D03*
D17*
X025133Y012050D03*
X028233Y011950D03*
X030133Y012100D03*
X031233Y011750D03*
X031733Y011750D03*
X033133Y011750D03*
X033733Y011750D03*
X034033Y012450D03*
X034433Y013050D03*
X033833Y013450D03*
X034333Y013750D03*
X032533Y013450D03*
X031733Y012850D03*
X031383Y013200D03*
X030833Y013600D03*
X031983Y014100D03*
X032433Y013950D03*
X033133Y014900D03*
X033633Y014750D03*
X037233Y014450D03*
X037833Y014850D03*
X037633Y012050D03*
X036733Y011750D03*
X035733Y011750D03*
X035233Y011750D03*
X033733Y005500D03*
X032733Y003500D03*
X033233Y003000D03*
X034233Y003000D03*
X020733Y006100D03*
M02*
